<svg id="Layer_1" data-name="Layer 1" xmlns="http://www.w3.org/2000/svg" xmlns:xlink="http://www.w3.org/1999/xlink" viewBox="0 0 500 500"><defs><style>.cls-1{fill:#f4d9ce;}.cls-2{clip-path:url(#clip-path);}.cls-3{fill:#fff;}.cls-4{fill:#ddd;}.cls-5{clip-path:url(#clip-path-2);}.cls-6{fill:#ffbdab;}.cls-7{fill:#ad6a89;}</style><clipPath id="clip-path"><circle class="cls-1" cx="250" cy="-260" r="215.67"/></clipPath><clipPath id="clip-path-2"><circle class="cls-1" cx="250" cy="250" r="215.67"/></clipPath></defs><circle class="cls-1" cx="250" cy="-260" r="215.67"/><g class="cls-2"><path class="cls-3" d="M265.12,9.48c1.08,1.84,2.39,2.78,4,2.86a9,9,0,0,0,5.44-2.11c-1.09-1.92-4-6.06-6.68-9.66a27.84,27.84,0,0,1-8.63-4.22A74.88,74.88,0,0,0,265.12,9.48Z"/><path class="cls-3" d="M148.75-36.3l.29-.49c2-3.27,4.46-9.15,7.11-16.28a85.24,85.24,0,0,1-31.47-6V25.48h17.85c2.79-24.16,6.12-60.7,6.17-61.21Z"/><path class="cls-3" d="M252.45-11.85s0-.07,0-.11l0-.1a47.65,47.65,0,0,1-17-3.54c-.46,6-.1,13.27,2,16.22.49-.22,1-.47,1.59-.75a2.76,2.76,0,0,1,.52-.25C244.33-2.78,250.73-7,252.45-11.85Z"/><path class="cls-3" d="M242.71,3.36c-.13,2.45-.45,7.6-1,11.23a18,18,0,0,0,4.95,1.3c1.55-2.16,6-12.57,6.55-20.26A40.09,40.09,0,0,1,242.71,3.36Z"/><path class="cls-4" d="M324-85.5a12.81,12.81,0,0,1-9.1,3.79A12.86,12.86,0,0,1,302-94.56h0v-15.58H205.87v15.58h0A12.86,12.86,0,0,1,193-81.71a12.86,12.86,0,0,1-12.85-12.85h0v-17.24C176-97.2,161.56-48.48,153.62-34.72c-.45,5-3.45,37.53-6.06,60.2H344.18l-3.73-71.12ZM291.52-35a29.43,29.43,0,0,1-11,14.62c2.44,7.88.54,20.38.45,21l-.34,2.22-2.24-.22c-1.22-.11-2.36-.27-3.47-.43,5.1,7.16,4.88,8.16,4.68,9-.49,2.23-4.94,5.2-8.66,5.78a9.8,9.8,0,0,1-1.61.13c-3.42,0-6.34-1.81-8.34-5.22a70.85,70.85,0,0,1-4.25-8.64c-2,8-5.75,15.48-7.35,16.62a4.74,4.74,0,0,1-2.83.76c-2.58,0-5.86-1.19-8.53-2.4l-1.77-.8.43-1.9a81,81,0,0,0,1.09-9.87l-1.2.46-1-.75c-6-4.33-5.22-17.89-4.65-23.21-6.45-3.64-11.47-8.8-14.06-14.91C205.69-36,198.26-44.22,198.26-53.62c0-12.28,12.79-22.27,28.51-22.27A34.11,34.11,0,0,1,244-71.37a50,50,0,0,1,9.8-1,49.45,49.45,0,0,1,6,.36,34.26,34.26,0,0,1,16.12-3.9c15.72,0,28.5,10,28.5,22.27C304.38-46,299.59-39.11,291.52-35Z"/><path class="cls-3" d="M342.8-53l2.6,6.29,0,.43,3.76,71.81h33.39V-61A99.44,99.44,0,0,1,342.8-53Z"/><path d="M345.4-46.76,342.8-53h-1S329.7-69.5,326.07-87c-.07-.33-.13-.67-.19-1A13.14,13.14,0,0,1,324-85.5l16.48,39.86,3.73,71.12h5l-3.76-71.81Z"/><path d="M180.18-111.81v-2.28H177.6c-4,19.72-18.79,61-18.79,61-.91,0-1.78,0-2.66,0-2.65,7.13-5.13,13-7.11,16.28l-.29.49-.05.57c0,.51-3.38,37.05-6.17,61.21h5c2.61-22.67,5.61-55.2,6.06-60.2C161.56-48.48,176-97.2,180.18-111.81Z"/><path d="M239.08-.13c-.56.28-1.1.53-1.59.75-2.1-2.95-2.46-10.21-2-16.22a40.64,40.64,0,0,1-4.59-2.24c-.57,5.32-1.38,18.88,4.65,23.21l1,.75,1.2-.46c.14-2.2.21-3.85.21-3.89A2.43,2.43,0,0,1,239.08-.13Z"/><path d="M276.58-2.42a46,46,0,0,1-6.47-1.31,2.4,2.4,0,0,1,1.12.81c1.48,2,2.7,3.64,3.71,5.07,1.11.16,2.25.32,3.47.43l2.24.22L281,.58c.09-.57,2-13.07-.45-20.95a39.18,39.18,0,0,1-4.21,2.69C277.37-13,277-6.46,276.58-2.42Z"/><path d="M258.19-12.24l-1.36.1a.41.41,0,0,0,.05.09,13.27,13.27,0,0,1,1,4.09c.12.42.57,2,1.35,4.31A27.84,27.84,0,0,0,267.88.57L267.42,0a2.38,2.38,0,0,1,.47-3.34,2.39,2.39,0,0,1,2.17-.36C262-6,259.17-9.85,258.19-12.24Z"/><path d="M253.22-7.11a1.73,1.73,0,0,1,0-.32,9.09,9.09,0,0,0-.66-2.67,2.37,2.37,0,0,1-.08-1.75C250.73-7,244.33-2.78,239.6-.38a2.43,2.43,0,0,1,.9-.14A2.4,2.4,0,0,1,242.78,2c0,.09,0,.6-.07,1.39a40.09,40.09,0,0,0,10.51-7.73A19.26,19.26,0,0,0,253.22-7.11Z"/><path d="M253.22-4.37c-.54,7.69-5,18.1-6.55,20.26a18,18,0,0,1-4.95-1.3c.54-3.63.86-8.78,1-11.23a48.82,48.82,0,0,1-4.91,2.3h0a81,81,0,0,1-1.09,9.87l-.43,1.9,1.77.8c2.67,1.21,5.95,2.4,8.53,2.4a4.74,4.74,0,0,0,2.83-.76c1.6-1.14,5.38-8.67,7.35-16.62a87.48,87.48,0,0,1-3-8.27Z"/><path d="M242.71,3.36c0-.79.06-1.3.07-1.39A2.4,2.4,0,0,0,240.5-.52a2.43,2.43,0,0,0-.9.14l-.52.25A2.43,2.43,0,0,0,238,1.77s-.07,1.69-.21,3.89h0A48.82,48.82,0,0,0,242.71,3.36Z"/><path d="M274.56,10.23a9,9,0,0,1-5.44,2.11c-1.61-.08-2.92-1-4-2.86a74.88,74.88,0,0,1-5.87-13.13c-.45-.34-.87-.69-1.26-1a41.06,41.06,0,0,1-1.23,7.94A70.85,70.85,0,0,0,261,11.89c2,3.41,4.92,5.22,8.34,5.22A9.8,9.8,0,0,0,271,17c3.72-.58,8.17-3.55,8.66-5.78.2-.89.42-1.89-4.68-9A49.3,49.3,0,0,1,267.88.57C270.57,4.17,273.47,8.31,274.56,10.23Zm.42.83Z"/><path d="M270.11-3.73l-.05,0a2.39,2.39,0,0,0-2.17.36A2.38,2.38,0,0,0,267.42,0l.46.62a49.3,49.3,0,0,0,7.06,1.58c-1-1.43-2.23-3.1-3.71-5.07A2.4,2.4,0,0,0,270.11-3.73Z"/><path d="M255.53-7.37A20.66,20.66,0,0,1,253.79-5a87.48,87.48,0,0,0,3,8.27A41.06,41.06,0,0,0,258-4.69,16.64,16.64,0,0,1,255.53-7.37Z"/><path d="M119.68-61.39V25.48h5V-59.11Q122-60.21,119.68-61.39Z"/><path d="M382.57-61V25.48h5V-63.37Q385.22-62.18,382.57-61Z"/></g><circle class="cls-1" cx="250" cy="250" r="215.67"/><g class="cls-5"><path class="cls-6" d="M146.58,216.38h-.05c-2.21,0-4.22,1.36-6.15,4.09-4.14,5.87-.3,16.27,5.42,23.08,4.21,5,10.51,9.46,16.39,8.21a134.21,134.21,0,0,1-6.34-29.55C154.2,220.19,150.33,216.38,146.58,216.38Z"/><path class="cls-7" d="M179.64,299.2l-3.76,4.41c-.41-.45-.81-.92-1.21-1.41-8.75,2.41-41.24,12.31-48.58,28a2.7,2.7,0,0,0,3.15,1.07c.2-.05.51-.15.94-.29,14.32-4.67,43.09-9.72,74.94,8.68a75.73,75.73,0,0,0,1.11-9.43C187.31,321.65,179.64,299.2,179.64,299.2Z"/><path class="cls-3" d="M217.18,153.91l-2.25-.56A46.69,46.69,0,0,1,202.7,171.6a34.79,34.79,0,0,1,4.89.47A74.66,74.66,0,0,0,217.18,153.91Z"/><path class="cls-6" d="M231.43,319.37a57.25,57.25,0,0,0,52.48-3.73c25.37-15.63,54.51-45.76,56.35-101.94-5,5.35-12.43,5.23-12.43,5.23,6.2-32.67-3.66-40.91-3.66-40.91-26.18-17-36.88-53.67-36.88-53.67-11,47.58-52.23,47.23-52.23,47.23,7.6-7.53,12.53-20.77,12.53-20.77a66.17,66.17,0,0,1-27.72,25.36,39,39,0,0,1,6.77,4.27l-1.41,8a113.52,113.52,0,0,0-17.83-7.39,61.47,61.47,0,0,1-11.71,2.4,34,34,0,0,0,4.89-3.62c-9.57-.29-26.74,4.6-26.74,4.6,1-1,2-1.92,3-2.79a41.35,41.35,0,0,1-9.75-.63c-4.5,29.1,3.24,57.35,3.24,57.35-7.09-3.77-8.44-12.08-9.16-14.06A129.62,129.62,0,0,0,168,253.15C179.18,283.89,200.53,306.17,231.43,319.37Zm31.67-21.08-1.44,0c-.48,0-1,0-1.43.05-1.89.07-3.76.21-5.62.37s-3.7.46-5.55.81A51.33,51.33,0,0,0,243.5,301a14.58,14.58,0,0,1,5.07-3.08,23.23,23.23,0,0,1,5.81-1.39,25.1,25.1,0,0,1,5.94.1,26.24,26.24,0,0,1,2.91.57,22.53,22.53,0,0,1,2.79,1C265,298.26,264.06,298.24,263.1,298.29Zm58.52-92.1h0c-.57,1.26-1.17,2.39-1.81,3.55s-1.31,2.26-2,3.35a24.23,24.23,0,0,1-5.1,5.84,23.77,23.77,0,0,0,3.31-6.72c.4-1.18.74-2.39,1-3.59.13-.5.25-1,.36-1.52-1.34-.33-2.65-.72-4-1l-2.7-.57-1.34-.32c-.45-.1-.9-.14-1.35-.21-.91-.13-1.8-.28-2.69-.43s-1.8-.16-2.69-.26l-1.32-.13a19.81,19.81,0,0,1,2.32,9.44c0,9-5.7,16.36-12.7,16.36s-12.7-7.34-12.7-16.36a20.88,20.88,0,0,1,.67-5.2c-.83.4-1.63.82-2.38,1.24l-.16.09a1.37,1.37,0,0,1-1.7-2.11,28.35,28.35,0,0,1,10.18-7.09,25.76,25.76,0,0,1,2.92-1.11,28.75,28.75,0,0,1,3-.84c1-.2,2-.5,3.08-.6l3.12-.34c1.05-.05,2.09,0,3.14,0,.52,0,1,0,1.56,0l1.55.17c1,.12,2.08.2,3.09.4s2,.46,3,.71c.5.14,1,.24,1.5.4l1.45.51,2.87,1.1a54,54,0,0,1,5.36,2.88l1.75,1.06Zm0-23.74s-20-5.69-28.86-4.43-22.53,8.44-22.53,8.44l-1.41-8S295.59,156.05,321.64,182.45ZM240.5,248.16a1.54,1.54,0,0,1,1.47.65l.19.28a13.88,13.88,0,0,0,1.6,2.1,7,7,0,0,0,1.91,1.44,6.19,6.19,0,0,0,2.1.61,8.45,8.45,0,0,0,2.39-.13,8,8,0,0,0,2.27-.75,10.79,10.79,0,0,0,2-1.45,13.08,13.08,0,0,0,1.71-2.08,21.52,21.52,0,0,0,1.4-2.44l.1-.2a1.47,1.47,0,0,1,2.79.76,12.56,12.56,0,0,1-.79,3.61,13.1,13.1,0,0,1-1.83,3.3,12.08,12.08,0,0,1-2.93,2.67,11.34,11.34,0,0,1-3.76,1.47,12.06,12.06,0,0,1-4,.13,10,10,0,0,1-3.91-1.59,9.55,9.55,0,0,1-2.72-3,10.65,10.65,0,0,1-.79-1.76,9.38,9.38,0,0,1-.46-1.91A1.52,1.52,0,0,1,240.5,248.16ZM236.83,281c2.31-.37,4.59-.59,6.85-1,4.53-.65,9-1.59,13.38-2.58s8.79-2.22,13.17-3.57,8.74-2.83,13.25-4.49a40.86,40.86,0,0,1-11.58,8.54,57.45,57.45,0,0,1-13.56,5A56.56,56.56,0,0,1,244,284.37a49.35,49.35,0,0,1-7.18-.62,28.41,28.41,0,0,1-3.53-.75c-1.17-.3-2.32-.61-3.46-1C232.19,281.51,234.52,281.36,236.83,281Zm-60-74.25a54.19,54.19,0,0,1,5.37-2.89l2.87-1.09,1.45-.52c.49-.16,1-.26,1.49-.4,1-.25,2-.48,3-.7s2.06-.28,3.09-.41l1.56-.16c.51,0,1,0,1.56,0,1,0,2.09,0,3.13,0l3.13.33c1,.1,2.05.41,3.07.61a26.46,26.46,0,0,1,3,.83,27,27,0,0,1,2.92,1.11,28.3,28.3,0,0,1,10.19,7.09,1.37,1.37,0,0,1-1.7,2.11l-.16-.09c-.75-.42-1.56-.84-2.38-1.23a20.76,20.76,0,0,1,.66,5.2c0,9-5.69,16.36-12.7,16.36s-12.7-7.34-12.7-16.36a19.87,19.87,0,0,1,2.32-9.45l-1.31.13c-.9.11-1.8.12-2.69.26s-1.79.31-2.69.44c-.45.07-.91.11-1.35.2l-1.34.32-2.71.57c-1.32.33-2.62.71-4,1l.36,1.52c.31,1.21.64,2.41,1.05,3.59a23.18,23.18,0,0,0,3.31,6.73,24.53,24.53,0,0,1-5.11-5.85c-.73-1.08-1.39-2.21-2-3.35s-1.24-2.29-1.82-3.54h0l-.65-1.36Z"/><path class="cls-7" d="M442.88,471.23c-12-57.68-26.92-86.21-27.07-86.49-2.65-5-9.88-9.26-17.34-12.43-.21,2.85-.52,5.7-.85,8.54l-.77,5.89-.89,5.88c-.7,3.91-1.26,7.83-2.18,11.71a68.85,68.85,0,0,1-3.62,11.52,68.14,68.14,0,0,1-.6-12.06c.09-4,.53-7.92.84-11.88L391,386l.74-5.9c.46-3.28,1-6.56,1.58-9.81-4-1.46-7.74-2.57-10.57-3.3l-.09.22-2.46-.88a152.34,152.34,0,0,0-16.2-4.75c-2.75-.61-5.5-1.18-8.27-1.57s-5.53-.68-8.29-.8c-5.49-.12-11,.24-16,2.15a39.1,39.1,0,0,0-7.23,3.49,62.1,62.1,0,0,0-6.79,5.2,19.6,19.6,0,0,1,4.48-7.95,23.33,23.33,0,0,1,7.64-5.38,44.06,44.06,0,0,1,18.06-3.39,67.7,67.7,0,0,1,9,.69,78.8,78.8,0,0,1,8.81,1.72c2.89.72,5.74,1.59,8.54,2.58,2,.72,4,1.48,6,2.36A75.63,75.63,0,0,0,383.44,350a27.89,27.89,0,0,0,.83-6.44c0-.25,0-.52,0-.76l-.09-.69a5.66,5.66,0,0,0-.29-1.24,3.29,3.29,0,0,0-.09-.32l-.18-.48-.36-1a16.76,16.76,0,0,1-.51-2.06,12.38,12.38,0,0,1-.07-4.38,17.07,17.07,0,0,1,1.22-4c1.06-2.42,2.24-4.38,3.09-6.42.26-.56.32-.89.48-1.31a6.69,6.69,0,0,0,.17-1.27,7.16,7.16,0,0,0-.35-2.67,12.37,12.37,0,0,0-1.21-2.69c-.26-.44-.54-.87-.84-1.28a2.56,2.56,0,0,0-.2-.26c-50.13,3.89-69.08,18.07-84.32,29.48-5.31,4-10.34,7.75-16.09,10.68-20.7,10.54-25.46,43.95-25.5,44.28l0,.21,4.23-.28c3.18-.2,6.38-.36,9.68-.26a43.45,43.45,0,0,1-9.18,3.36,51.51,51.51,0,0,1-5.26,1.05l-.38,2.84-1.59-2.58c-.81.09-1.63.16-2.44.21a48.66,48.66,0,0,1-9.8-.39,35.66,35.66,0,0,1-9.47-2.62c3.3-.28,6.47-.36,9.63-.51s6.27-.28,9.4-.48l.32,0c-16.35-26.37-33.48-42.75-49.78-52.6L204,345l0-.14c-30.79-18.41-58.54-13.61-72.27-9.14-.54.18-.93.3-1.18.37a7.48,7.48,0,0,1-6.27-.86,15.07,15.07,0,0,0-.52,5.12,4.29,4.29,0,0,0,1.28,2.88l.12.13.29.26.62.56a11.82,11.82,0,0,1,1.17,1.27,14.26,14.26,0,0,1,1,1.48,11.09,11.09,0,0,1,.74,1.65,12.59,12.59,0,0,1,.38,6.87,21.21,21.21,0,0,1-.85,3c-.17.47-.34.92-.5,1.33s-.06.22-.08.25,0,.16,0,.24a10.9,10.9,0,0,0,.07,2c.09.77.22,1.57.39,2.38.31,1.57.73,3.22,1.18,4.75.16.37.41.86.62,1.27s.53,1,.82,1.42a14,14,0,0,0,1.89,2.39,5.06,5.06,0,0,0,2,1.32,2.37,2.37,0,0,0,1.81,0,12.81,12.81,0,0,0,2.64-1.45c1-.65,2-1.35,3-2.08,2-1.45,4.12-3,6.34-4.33a35.64,35.64,0,0,1,14.7-5.73,23.66,23.66,0,0,1,15.18,3c-1.3-.06-2.54-.18-3.76-.29l-3.66,0-1.79.2a12.85,12.85,0,0,0-1.76.24,30,30,0,0,0-3.43.79,43.71,43.71,0,0,0-12.64,6.16c-2,1.33-3.91,2.84-5.89,4.37-1,.77-2,1.55-3.07,2.33a17,17,0,0,1-3.89,2.21,9.33,9.33,0,0,1-1.3.4c-.47.07-.94.13-1.41.17a8.69,8.69,0,0,1-1.44-.08,5.79,5.79,0,0,1-1.37-.31,10.7,10.7,0,0,1-4.31-2.61,19.47,19.47,0,0,1-2.84-3.41c-.39-.59-.76-1.2-1.1-1.81l0-.08a84.29,84.29,0,0,0-17.3,6.73c.61,2.92,1.14,5.86,1.63,8.8l.82,5.24.78,5.24.75,5.23c.27,1.74.5,3.49.71,5.24a90.12,90.12,0,0,1,.61,10.79,34.41,34.41,0,0,1-4.92-9.82,100.75,100.75,0,0,1-2.72-10.44c-.37-1.76-.71-3.52-1-5.28s-.61-3.53-.85-5.3q-.48-3.33-.78-6.68A37.85,37.85,0,0,0,95.71,389c-10.27,11.3-43.84,75.16-43.28,134,.46,47.85,3.59,134,4.69,163h71.66c-.05-.41-.11-.82-.14-1.23l-.75-7-1.16-14c-.67-9.32-1.36-18.64-1.89-28-1.11-18.64-2-37.29-2.87-55.93s-1.57-37.3-2.16-56l-.91-28c-.16-4.66-.31-9.33-.11-14a87.73,87.73,0,0,1,1.53-14.07,87.67,87.67,0,0,1,2.63,13.9c.57,4.64.81,9.3,1,14l1.41,27.95,2.8,55.9L131,635.44l.69,14,.76,14,.9,13.92.53,6.92c0,.61.09,1.19.16,1.77H383.62l-.39-6.91c-.08-2.31-.06-4.58-.1-6.88-.1-4.58,0-9.13,0-13.69s.14-9.11.23-13.66.21-9.1.35-13.65q.81-27.28,1.94-54.54L387,549.39q.65-13.62,1.48-27.24c.5-9.08,1.14-18.15,1.73-27.22s1.34-18.14,4.11-27.08c1.69,9.2,1.46,18.29,1,27.37L394,522.45l-2.68,54.45c-.91,18.15-1.83,36.29-2.42,54.44-.17,4.54-.32,9.08-.42,13.61s-.28,9.08-.31,13.6-.16,9.07-.06,13.58c0,2.25,0,4.52.1,6.75l.37,6.64-4.41.45h75.09l-5-.39C460.32,608.62,456.48,536.5,442.88,471.23ZM291.73,389.78c1.12-.82,2.26-1.55,3.39-2.29,2.23-1.54,4.48-2.95,6.63-4.51s4.29-3.07,6.33-4.75c1-.85,2-1.71,3-2.62a36.9,36.9,0,0,0,2.94-2.93,12.62,12.62,0,0,1-1.36,4.1,22.84,22.84,0,0,1-2.35,3.64,29.94,29.94,0,0,1-6.28,5.83,35.83,35.83,0,0,1-7.49,4c-1.32.5-2.67.92-4,1.3a37.16,37.16,0,0,1-4.2.7A38.79,38.79,0,0,1,291.73,389.78Zm-101-16.33c2.88,2.51,5.78,4.95,8.78,7.27s6,4.61,9.18,6.75,6.38,4.23,9.62,6.54a44.07,44.07,0,0,1-11.21-3.82A54.61,54.61,0,0,1,197,383.87a57,57,0,0,1-8.56-8.23,40.22,40.22,0,0,1-6.36-10C185,368.34,187.82,370.94,190.71,373.45Zm-8.72,7a40.26,40.26,0,0,1-5.36-11.74c2.55,3.46,5.13,6.73,7.87,9.87a122.68,122.68,0,0,0,8.54,9,113.21,113.21,0,0,0,9.39,8.06c3.23,2.63,6.72,4.88,10.2,7.45a44.77,44.77,0,0,1-12-4.84,52.11,52.11,0,0,1-10.39-7.78A53.9,53.9,0,0,1,182,380.42Zm50.2,181.72q0,9.65-5.06,14.71t-14.82,5.06h-20.6V498.56h19.77q10.11,0,14.76,4.7t4.64,14.47v3.33a22.88,22.88,0,0,1-2.08,10.48,12.25,12.25,0,0,1-6.37,5.84v.23Q232.2,541,232.19,555Zm-7-154.87c4.31.19,8.49.42,12.66.46s8.32,0,12.46-.24,8.3-.54,12.49-.87,8.38-.72,12.69-.94a59.28,59.28,0,0,1-12.21,4,75.92,75.92,0,0,1-12.77,1.77,65,65,0,0,1-12.92-.63A47.79,47.79,0,0,1,225.21,407.27Zm53.42,154.87q0,10-5.12,15.48t-14.76,5.48q-9.65,0-14.77-5.48t-5.12-15.48V518.32q0-10,5.12-15.48t14.77-5.47q9.64,0,14.76,5.47t5.12,15.48Zm31.8-15.71v35.48h-13.1V546.43l-15.84-47.87h13.93l8.93,30.6h.24l8.93-30.6h12.74Zm13.92-167.26a62.18,62.18,0,0,1-10.91,10.9,72.18,72.18,0,0,1-6.39,4.31c-1.11.64-2.19,1.34-3.33,1.92s-2.31,1.12-3.46,1.67c-.58.28-1.16.55-1.75.8l-1.79.68-3.59,1.31q-3.67,1.11-7.41,1.86c2.19-1.34,4.45-2.43,6.63-3.65l3.24-1.87,1.62-.91,1.58-1c1-.66,2.1-1.31,3.16-1.94s2-1.38,3.06-2.06c2.08-1.32,4-2.87,6-4.29a115.78,115.78,0,0,0,11-9.79,84.36,84.36,0,0,0,9.52-11.48A40.3,40.3,0,0,1,324.35,379.17Z"/><path class="cls-7" d="M297.71,338.27c15.4-11.53,34.44-25.8,83.41-30.18-5.67-6.06-19.77-17.95-43.61-19A29.66,29.66,0,0,1,331,299.2l-3.47-7s-12.27,30.91-30.36,40.63c.07,1.85.21,3.7.43,5.49Z"/><path class="cls-6" d="M292.93,315.7q-3.12,2.18-6.4,4.2A61.73,61.73,0,0,1,254.14,329,62.86,62.86,0,0,1,229.47,324a130.78,130.78,0,0,1-19.14-10.09,76.7,76.7,0,0,1-.65,28.59c15.06,9.7,30.68,24.8,45.7,47.77,2.52-10.92,9.62-32.91,27-41.75a80,80,0,0,0,10.72-6.79C291.5,332.88,292.21,322.2,292.93,315.7Z"/><path class="cls-3" d="M185.77,223.07s11.25,11.16,22,11.16a51.33,51.33,0,0,0,5.29-.26c14.11-1.41,17.62-20.68,4.86-26.87l-.29-.14c-9.7-4.54-39.05,1.84-39.05,1.84S179.67,218.09,185.77,223.07Z"/><path class="cls-3" d="M312.67,218.91s-11.25,11.16-22,11.16c-1.89,0-3.65-.09-5.29-.25-14.11-1.41-17.62-20.68-4.86-26.87l.29-.14c9.7-4.55,39,1.83,39,1.83S318.77,213.94,312.67,218.91Z"/><path class="cls-6" d="M342.74,237.3c6.27.8,12.09-4.76,15.61-10.57,4.61-7.61,6.81-18.47,1.81-23.64-2.32-2.4-4.51-3.42-6.7-3.09-3.82.56-6.93,5-8.12,6.88A160.52,160.52,0,0,1,342.74,237.3Z"/><path d="M166.45,255.58a15.68,15.68,0,0,1-1.72.67l4,5.51c12.76,32.46,37.59,46.44,37.64,46.47l2.36-.84a43.44,43.44,0,0,1,1.58,6.49A130.78,130.78,0,0,0,229.47,324,62.86,62.86,0,0,0,254.14,329a61.73,61.73,0,0,0,32.39-9.13q3.29-2,6.4-4.2c.37-3.39.74-5.65.79-5.92l3.66.61c6.09-4,25.07-18.23,35.69-45.25l6.74-23.35h0l1.41-4.8a9.23,9.23,0,0,0,1.53.31,160.52,160.52,0,0,0,2.6-30.42c-.33.53-.52.89-.52.9l-.6-.31c-.85,1.56-1.36,2.39-1.36,2.39a15.22,15.22,0,0,1-2.6,3.84c-1.84,56.18-31,86.31-56.35,101.94a57.25,57.25,0,0,1-52.48,3.73c-30.9-13.2-52.25-35.48-63.46-66.22a129.62,129.62,0,0,1-6.83-28.83c-.2-.54-.35-.62-.55,0-.8,2.32-.47,6.65.19,10.88l2.42,11.49s-1.51-5.66-2.42-11.49l-2-9.63a10.14,10.14,0,0,0-1.32-3.65l-1.16.85c-.11-.16-.26-.34-.42-.54a134.21,134.21,0,0,0,6.34,29.55,9.25,9.25,0,0,0,2.12-.7Z"/><path d="M163,254.12l-.82-2.36c-5.88,1.25-12.18-3.2-16.39-8.21-5.72-6.81-9.56-17.21-5.42-23.08,1.93-2.73,3.94-4.06,6.15-4.09h.05c3.75,0,7.62,3.81,9.27,5.83-.09-.94-.17-1.84-.23-2.68a21.82,21.82,0,0,0-8.64-5.11c-.87-.91-1.67-1.85-2.45-2.81-3.08.61-5.85,2.6-8.23,6-5.91,8.37-1.2,21,5.67,29.17,5,5.93,10.76,9.42,16.27,10.08-.27-1.62-.41-2.57-.41-2.57Z"/><path d="M157.43,221.9a12.18,12.18,0,0,0-1.81-2.37c.06.84.14,1.74.23,2.68.16.2.31.38.42.54Z"/><path d="M164.73,256.25a15.68,15.68,0,0,0,1.72-.67l-2.14-4.52a9.25,9.25,0,0,1-2.12.7l.82,2.36h.17Z"/><path d="M345.34,206.88c1.19-1.91,4.3-6.32,8.12-6.88,2.19-.33,4.38.69,6.7,3.09,5,5.17,2.8,16-1.81,23.64-3.52,5.81-9.34,11.37-15.61,10.57-.14.75-.29,1.49-.44,2.23l4.4.35s0,.82-.13,2.26c5.88-1.06,11.66-5.57,16.06-12.82,5.54-9.14,8.25-22.34,1.13-29.7-3.48-3.6-7.19-5.13-11-4.57a11.3,11.3,0,0,0-3.16,1c-1.56,3.86-3.06,7-4.24,9.33C345.33,205.88,345.34,206.38,345.34,206.88Z"/><path d="M344.82,207.78s.19-.37.52-.9c0-.5,0-1,0-1.51q-.63,1.22-1.11,2.1Z"/><path d="M339.8,241.79h0l.69-2.4,1.8.14c.15-.74.3-1.48.44-2.23a9.23,9.23,0,0,1-1.53-.31Z"/><path d="M292.78,178c8.87-1.26,28.86,4.43,28.86,4.43-26.05-26.4-52.8-4-52.8-4l1.41,8S283.91,179.28,292.78,178Z"/><path d="M225.23,188.46l1.41-8a39,39,0,0,0-6.77-4.27,76.76,76.76,0,0,1-12.47,4.9A113.52,113.52,0,0,1,225.23,188.46Z"/><path d="M200.58,179.85a47.94,47.94,0,0,0,7-7.78,34.79,34.79,0,0,0-4.89-.47,41.18,41.18,0,0,1-25.89,10.06c-1,.87-2,1.79-3,2.79C173.84,184.45,191,179.56,200.58,179.85Z"/><path d="M236.79,283.75a49.35,49.35,0,0,0,7.18.62,56.56,56.56,0,0,0,14.37-1.53,57.45,57.45,0,0,0,13.56-5,40.86,40.86,0,0,0,11.58-8.54c-4.51,1.66-8.86,3.14-13.25,4.49s-8.74,2.58-13.17,3.57-8.85,1.93-13.38,2.58c-2.26.43-4.54.65-6.85,1s-4.64.52-7,1c1.14.39,2.29.7,3.46,1A28.41,28.41,0,0,0,236.79,283.75Z"/><path d="M260.32,296.59a25.1,25.1,0,0,0-5.94-.1,23.23,23.23,0,0,0-5.81,1.39A14.58,14.58,0,0,0,243.5,301a51.33,51.33,0,0,1,5.56-1.39c1.85-.35,3.7-.61,5.55-.81s3.73-.3,5.62-.37c.48,0,.95,0,1.43-.05l1.44,0c1-.05,1.92,0,2.92-.14a22.53,22.53,0,0,0-2.79-1A26.24,26.24,0,0,0,260.32,296.59Z"/><path d="M239.67,251.78a10.65,10.65,0,0,0,.79,1.76,9.55,9.55,0,0,0,2.72,3,10,10,0,0,0,3.91,1.59,12.06,12.06,0,0,0,4-.13,11.34,11.34,0,0,0,3.76-1.47,12.08,12.08,0,0,0,2.93-2.67,13.1,13.1,0,0,0,1.83-3.3,12.56,12.56,0,0,0,.79-3.61,1.47,1.47,0,0,0-2.79-.76l-.1.2a21.52,21.52,0,0,1-1.4,2.44,13.08,13.08,0,0,1-1.71,2.08,10.79,10.79,0,0,1-2,1.45,8,8,0,0,1-2.27.75,8.45,8.45,0,0,1-2.39.13,6.19,6.19,0,0,1-2.1-.61,7,7,0,0,1-1.91-1.44,13.88,13.88,0,0,1-1.6-2.1l-.19-.28a1.54,1.54,0,0,0-1.47-.65,1.52,1.52,0,0,0-1.29,1.71A9.38,9.38,0,0,0,239.67,251.78Z"/><path d="M315.17,200.9l-2.87-1.1-1.45-.51c-.49-.16-1-.26-1.5-.4-1-.25-2-.48-3-.71s-2.05-.28-3.09-.4l-1.55-.17c-.52,0-1,0-1.56,0-1.05,0-2.09,0-3.14,0l-3.12.34c-1,.1-2.06.4-3.08.6a28.75,28.75,0,0,0-3,.84,25.76,25.76,0,0,0-2.92,1.11,28.35,28.35,0,0,0-10.18,7.09,1.37,1.37,0,0,0,1.7,2.11l.16-.09c.75-.42,1.55-.84,2.38-1.24a17.87,17.87,0,0,1,2.31-5.33l3.34,2.19c-.23.35-.44.73-.64,1.11.9-.3,1.8-.57,2.71-.81a56.31,56.31,0,0,1,5.29-1.07c.89-.09,1.77-.25,2.67-.29l1.86-.1a9.67,9.67,0,0,0-1.66-1.55l2.31-3.27a14.35,14.35,0,0,1,4.22,4.88l1.32.13c.89.1,1.79.12,2.69.26s1.78.3,2.69.43c.45.07.9.11,1.35.21l1.34.32,2.7.57c1.32.32,2.63.71,4,1,.16-.71.3-1.41.42-2.08h0l1.08,2.41q-.75-.15-1.5-.33c-.11.51-.23,1-.36,1.52-.3,1.2-.64,2.41-1,3.59a23.77,23.77,0,0,1-3.31,6.72,24.23,24.23,0,0,0,5.1-5.84c.73-1.09,1.4-2.21,2-3.35s1.24-2.29,1.81-3.55h0l.66-1.35-1.75-1.06A54,54,0,0,0,315.17,200.9Z"/><path d="M317.8,205h0c-.12.67-.26,1.37-.42,2.08q.75.18,1.5.33Z"/><path d="M297.27,204l-.82,0a14.64,14.64,0,0,1,3.19,9.5c0,6.82-3.9,12.36-8.7,12.36s-8.7-5.54-8.7-12.36a15.94,15.94,0,0,1,1.68-7.23c-.83.28-1.65.58-2.48.9s-1.69.73-2.53,1.13a20.88,20.88,0,0,0-.67,5.2c0,9,5.7,16.36,12.7,16.36s12.7-7.34,12.7-16.36a19.81,19.81,0,0,0-2.32-9.44c-.45,0-.91-.06-1.37,0C299.06,204.09,298.16,204,297.27,204Z"/><path d="M297.1,199.26l-2.31,3.27a9.67,9.67,0,0,1,1.66,1.55l.82,0c.89,0,1.79.05,2.68.05.46,0,.92,0,1.37,0A14.35,14.35,0,0,0,297.1,199.26Z"/><path d="M283.92,206.35c.2-.38.41-.76.64-1.11l-3.34-2.19a17.87,17.87,0,0,0-2.31,5.33c.84-.4,1.69-.78,2.53-1.13S283.09,206.63,283.92,206.35Z"/><path d="M179.54,208l-1.09,2.41q.77-.15,1.5-.33c-.15-.7-.3-1.4-.41-2.08Z"/><path d="M175.71,209.15c.58,1.25,1.18,2.38,1.82,3.54s1.3,2.27,2,3.35a24.53,24.53,0,0,0,5.11,5.85,23.18,23.18,0,0,1-3.31-6.73c-.41-1.18-.74-2.38-1.05-3.59l-.36-1.52q-.73.18-1.5.33l1.09-2.41h0c.11.68.26,1.38.41,2.08,1.35-.33,2.65-.71,4-1l2.71-.57,1.34-.32c.44-.09.9-.13,1.35-.2.9-.13,1.79-.28,2.69-.44s1.79-.15,2.69-.26l1.31-.13a14.47,14.47,0,0,1,4.23-4.88l2.31,3.27a9,9,0,0,0-1.66,1.56c.62,0,1.24.07,1.86.09.9.05,1.77.21,2.67.3a23.67,23.67,0,0,1,2.65.46,26.52,26.52,0,0,1,2.64.6c.91.24,1.81.52,2.7.82-.2-.39-.41-.76-.64-1.12l3.35-2.19a18.31,18.31,0,0,1,2.31,5.34c.82.39,1.63.81,2.38,1.23l.16.09a1.37,1.37,0,0,0,1.7-2.11,28.3,28.3,0,0,0-10.19-7.09,27,27,0,0,0-2.92-1.11,26.46,26.46,0,0,0-3-.83c-1-.2-2-.51-3.07-.61l-3.13-.33c-1-.05-2.08,0-3.13,0-.52,0-1.05,0-1.56,0l-1.56.16c-1,.13-2.07.21-3.09.41s-2,.45-3,.7c-.5.14-1,.24-1.49.4l-1.45.52-2.87,1.09a54.19,54.19,0,0,0-5.37,2.89l-1.74,1,.65,1.36Z"/><path d="M213.41,209.31a15.78,15.78,0,0,1,1.68,7.23c0,6.81-3.9,12.36-8.7,12.36s-8.7-5.55-8.7-12.36a14.65,14.65,0,0,1,3.2-9.5l-.82,0c-.9,0-1.79.06-2.69.06-.45,0-.91,0-1.37,0a19.87,19.87,0,0,0-2.32,9.45c0,9,5.7,16.36,12.7,16.36s12.7-7.34,12.7-16.36a20.76,20.76,0,0,0-.66-5.2c-.84-.41-1.7-.79-2.54-1.13S214.24,209.59,213.41,209.31Z"/><path d="M212.77,208.19c.23.36.44.73.64,1.12.83.28,1.66.58,2.48.9s1.7.72,2.54,1.13a18.31,18.31,0,0,0-2.31-5.34Z"/><path d="M200.07,207l.82,0a9,9,0,0,1,1.66-1.56l-2.31-3.27a14.47,14.47,0,0,0-4.23,4.88c.46,0,.92-.05,1.37,0C198.28,207.05,199.17,207,200.07,207Z"/><path d="M146.58,211.38a14.81,14.81,0,0,1,8.79,3.45c-.08-2.71,0-4.33,0-4.55l5,.23a95.62,95.62,0,0,0,.78,13.81c.72,2,2.07,10.29,9.16,14.06,0,0-7.74-28.25-3.24-57.35a41.35,41.35,0,0,0,9.75.63c9.06-7.92,18.07-10.29,25.89-10.06a46.69,46.69,0,0,0,12.23-18.25l2.25.56a74.66,74.66,0,0,1-9.59,18.16,42.36,42.36,0,0,1,12.28,4.1,66.17,66.17,0,0,0,27.72-25.36s-4.93,13.24-12.53,20.77c0,0,41.25.35,52.23-47.23,0,0,10.7,36.67,36.88,53.67,0,0,9.86,8.24,3.66,40.91,0,0,7.43.12,12.43-5.23.17-5.16.13-10.51-.19-16.12l5-.28c0,.63.05,1.25.08,1.87a16.86,16.86,0,0,1,4.43-3.13c7-17.19,15.35-48.38,3.44-82-13.69-38.65-46.94-43.46-61.95-43.56A40.6,40.6,0,0,0,287,73.38a2.33,2.33,0,0,1-2.52-.87l-9.3-1a15.73,15.73,0,0,0,.68-5.89c-11.77-6.44-37.09-14.79-75.62.69C146.45,88,113.34,173.1,144.53,211.61a10.71,10.71,0,0,1,2-.23ZM326.23,108.9a2.5,2.5,0,0,1,3.46.7c.39.58,9.48,14.35,11.9,23.58a2.5,2.5,0,0,1-1.79,3,2.28,2.28,0,0,1-.63.09,2.52,2.52,0,0,1-2.42-1.87c-2.21-8.42-11.13-21.95-11.22-22.09A2.49,2.49,0,0,1,326.23,108.9ZM325,116.73a2,2,0,0,1,2.44,1.43c1.23,4.69,6.26,12.31,6.31,12.39a2,2,0,0,1-.57,2.77,2,2,0,0,1-2.77-.56c-.22-.34-5.44-8.25-6.84-13.59A2,2,0,0,1,325,116.73Zm-3,5.62a2,2,0,0,1,2.44,1.43c.61,2.35,3,6.24,3.85,7.54a2,2,0,0,1-.56,2.77,2.05,2.05,0,0,1-1.11.33,2,2,0,0,1-1.67-.89c-.14-.22-3.47-5.27-4.38-8.73A2,2,0,0,1,322.05,122.35Zm-4.34,2.32a2,2,0,0,1,2.44,1.43c.62,2.35,3,6.23,3.85,7.53a2,2,0,0,1-1.66,3.11,2,2,0,0,1-1.67-.89c-.14-.22-3.48-5.27-4.39-8.74A2,2,0,0,1,317.71,124.67Zm-5.46.2a2,2,0,0,1,2.37,1.53c0,.08,1.76,7.92,5.74,11.41a2,2,0,0,1,.19,2.82,2,2,0,0,1-2.82.19c-5-4.37-6.94-13.2-7-13.58A2,2,0,0,1,312.25,124.87Zm-8-8.18a2,2,0,0,1,2.27,1.68c0,.16,2.58,16.23,13.6,27.72a2,2,0,0,1-.06,2.83,2,2,0,0,1-2.82-.06c-11.93-12.44-14.56-29.19-14.67-29.9A2,2,0,0,1,304.24,116.69Zm-27.08.71a2.5,2.5,0,0,1,4.66,1.81c-.28.72-6.92,17.67-13.68,25.71a2.5,2.5,0,0,1-3.83-3.22C270.54,134.3,277.09,117.57,277.16,117.4Zm-17,18.63c4.38-5.21,9-17.08,9.08-17.2a2.5,2.5,0,1,1,4.66,1.81c-.2.52-5,12.77-9.92,18.61a2.5,2.5,0,1,1-3.82-3.22Zm-12.39-18.26a2.5,2.5,0,0,1,1.42,3.23c-.25.65-6.26,16-12.41,23.31a2.47,2.47,0,0,1-1.91.89,2.49,2.49,0,0,1-1.91-4.11c5.61-6.66,11.51-21.75,11.57-21.9A2.51,2.51,0,0,1,247.77,117.77Zm-7.16,1.28a2.51,2.51,0,0,1,1.42,3.24c-.18.47-4.53,11.58-9,16.9a2.49,2.49,0,0,1-3.52.3,2.5,2.5,0,0,1-.3-3.52c4-4.69,8.13-15.38,8.17-15.49A2.5,2.5,0,0,1,240.61,119.05Zm-15.5,13.19c3.12-3.71,6.45-12.21,6.48-12.29a2,2,0,0,1,3.73,1.45c-.14.37-3.6,9.2-7.15,13.42a2,2,0,0,1-1.53.71,2,2,0,0,1-1.29-.47A2,2,0,0,1,225.11,132.24Zm-52.2-2.55a2,2,0,0,1-2,1.79h-.22a2,2,0,0,1-1.77-2.2c.69-6.6,6.79-13.28,7-13.56a2,2,0,0,1,3,2.71C178.87,118.48,173.47,124.42,172.91,129.69Zm39.67-3.79a2,2,0,0,1,1.14,2.59c-.14.38-3.6,9.2-7.15,13.43a2,2,0,1,1-3.06-2.58c3.12-3.71,6.45-12.21,6.48-12.3A2,2,0,0,1,212.58,125.9ZM208.11,121a2.51,2.51,0,0,1,1.42,3.24c-.18.47-4.53,11.58-9,16.9a2.5,2.5,0,0,1-3.82-3.22c3.94-4.68,8.13-15.39,8.17-15.49A2.51,2.51,0,0,1,208.11,121Zm-7.27-7.06a2.5,2.5,0,1,1,4.66,1.82c-.25.65-6.26,16-12.41,23.31a2.51,2.51,0,0,1-1.91.89,2.47,2.47,0,0,1-1.61-.59,2.5,2.5,0,0,1-.3-3.52C194.88,129.16,200.78,114.07,200.84,113.91Zm-6.58,6.77a2,2,0,0,1,.25,2.82c-3.13,3.71-6.46,12.21-6.49,12.29a2,2,0,0,1-1.86,1.28,2.1,2.1,0,0,1-.73-.14,2,2,0,0,1-1.14-2.59c.15-.37,3.6-9.2,7.16-13.42A2,2,0,0,1,194.26,120.68Zm-7,2.5a2,2,0,0,1,.25,2.81c-1.56,1.85-3.38,6-3.94,7.49a2,2,0,0,1-1.87,1.28,2,2,0,0,1-.72-.14,2,2,0,0,1-1.14-2.59c.09-.24,2.3-5.87,4.61-8.61A2,2,0,0,1,187.23,123.18Zm-4.5-2.36a2,2,0,0,1,.25,2.82c-1.57,1.85-3.38,6-3.94,7.49a2,2,0,0,1-1.87,1.27,2,2,0,0,1-.72-.13,2,2,0,0,1-1.14-2.59c.09-.24,2.3-5.88,4.61-8.62A2,2,0,0,1,182.73,120.82Zm-22.18,13.55c3.29-16.91,15.46-28.73,16-29.22a2,2,0,0,1,2.76,2.89c-.12.11-11.77,11.46-14.81,27.09a2,2,0,0,1-2,1.62,2.34,2.34,0,0,1-.38,0A2,2,0,0,1,160.55,134.37Z"/><path d="M200.58,179.85a34,34,0,0,1-4.89,3.62,61.47,61.47,0,0,0,11.71-2.4,35.68,35.68,0,0,0-4.7-1C202.05,179.93,201.34,179.88,200.58,179.85Z"/><path d="M344.22,207.47l-3.85-2a27.23,27.23,0,0,1,4.77-6.32c0-.62,0-1.24-.08-1.87l-5,.28c.32,5.61.36,11,.19,16.12a15.22,15.22,0,0,0,2.6-3.84S343.37,209,344.22,207.47Z"/><path d="M160.31,219.8l-2.88,2.1a10.14,10.14,0,0,1,1.32,3.65l2,9.63c-.66-4.23-1-8.56-.19-10.88.2-.6.35-.52.55,0a95.62,95.62,0,0,1-.78-13.81l-5-.23c0,.22-.08,1.84,0,4.55A27.07,27.07,0,0,1,160.31,219.8Z"/><path d="M160.78,235.18c.91,5.83,2.42,11.49,2.42,11.49Z"/><path d="M155.62,219.53c-.13-1.81-.21-3.38-.25-4.7a14.81,14.81,0,0,0-8.79-3.45h-.08a10.71,10.71,0,0,0-2,.23c.78,1,1.58,1.9,2.45,2.81A21.82,21.82,0,0,1,155.62,219.53Z"/><path d="M160.31,219.8a27.07,27.07,0,0,0-4.94-5c0,1.32.12,2.89.25,4.7a12.18,12.18,0,0,1,1.81,2.37Z"/><path d="M345.33,205.37c1.18-2.32,2.68-5.47,4.24-9.33a16.86,16.86,0,0,0-4.43,3.13C345.24,201.26,345.3,203.32,345.33,205.37Z"/><path d="M340.37,205.49l3.85,2q.48-.89,1.11-2.1c0-2.05-.09-4.11-.19-6.2A27.23,27.23,0,0,0,340.37,205.49Z"/><path d="M200.58,179.85c.76,0,1.47.08,2.12.17a35.68,35.68,0,0,1,4.7,1,76.76,76.76,0,0,0,12.47-4.9,42.36,42.36,0,0,0-12.28-4.1A47.94,47.94,0,0,1,200.58,179.85Z"/><path d="M176.81,181.66A41.18,41.18,0,0,0,202.7,171.6C194.88,171.37,185.87,173.74,176.81,181.66Z"/><path d="M176.85,301.62c-.06,0-.85.21-2.18.58.4.49.8,1,1.21,1.41l3.76-4.41s7.67,22.45,26.59,31.06a63,63,0,0,0-2-20.56,116.67,116.67,0,0,1-40.36-53.21,14.78,14.78,0,0,1-3.7.48,15.94,15.94,0,0,1-1.94-.13c1.22,7.18,5.27,27.79,13.38,41,2.27-.65,3.74-1,4-1.08Z"/><path d="M206.39,308.23s-24.88-14-37.64-46.47l-4-5.51c-.28.09-.56.16-.85.24a116.67,116.67,0,0,0,40.36,53.21c-.12-.39-.19-.61-.2-.63Z"/><path d="M163.88,256.49c-.23-.61-.46-1.22-.67-1.82-.07-.19-.13-.37-.2-.55l-5.18.15s.14.95.41,2.57a15.94,15.94,0,0,0,1.94.13A14.78,14.78,0,0,0,163.88,256.49Z"/><path d="M163.18,254.11H163c.07.18.13.36.2.55.21.6.44,1.21.67,1.82.29-.08.57-.15.85-.24Z"/><path d="M341.73,242.22a124.33,124.33,0,0,1-14.36,36.61,118.35,118.35,0,0,1-28.87,32.73,127.85,127.85,0,0,0-1.31,21.29c18.09-9.72,30.36-40.63,30.36-40.63l3.47,7a29.66,29.66,0,0,0,6.49-10.07c-1.05,0-2.12-.08-3.21-.08v-5c1.74,0,3.42.07,5.06.18,5.13-15.18,6.78-35.41,7.2-42.09a15.06,15.06,0,0,1-2.67.24A15.84,15.84,0,0,1,341.73,242.22Z"/><path d="M333.07,265.14c-10.62,27-29.6,41.23-35.69,45.25l1.27.21s-.06.37-.15,1a118.35,118.35,0,0,0,28.87-32.73,124.33,124.33,0,0,0,14.36-36.61,14.71,14.71,0,0,1-1.92-.43Z"/><path d="M342.3,239.53c-.18.9-.37,1.8-.57,2.69a15.84,15.84,0,0,0,2.17.16,15.06,15.06,0,0,0,2.67-.24c.09-1.44.13-2.26.13-2.26Z"/><path d="M339.81,241.79a14.71,14.71,0,0,0,1.92.43c.2-.89.39-1.79.57-2.69l-1.8-.14Z"/><path d="M204,345l.48.12-.45-.26Z"/><path d="M210.33,313.88c-1.34-.87-2.66-1.74-3.94-2.63v19.09l-.16-.08a75.73,75.73,0,0,1-1.11,9.43q2.28,1.31,4.56,2.78A76.7,76.7,0,0,0,210.33,313.88Z"/><path d="M206.39,308.23h0v3c1.28.89,2.6,1.76,3.94,2.63a43.44,43.44,0,0,0-1.58-6.49Z"/><path d="M206.39,311.25c-.73-.51-1.44-1-2.15-1.55a63,63,0,0,1,2,20.56l.16.08Z"/><path d="M206.39,308.23h0l-2.35.84s.08.24.2.63c.71.52,1.42,1,2.15,1.55Z"/><path d="M295.43,313.9c-.83.6-1.66,1.21-2.5,1.8-.72,6.5-1.43,17.18.14,26,1.51-1.09,3-2.21,4.55-3.36-.22-1.79-.36-3.64-.43-5.49-.58.31-1.17.6-1.76.87Z"/><path d="M295.43,311.61s.72-.41,1.95-1.22l-3.66-.61c-.05.27-.42,2.53-.79,5.92.84-.59,1.67-1.2,2.5-1.8Z"/><path d="M295.43,333.72c.59-.27,1.18-.56,1.76-.87a127.85,127.85,0,0,1,1.31-21.29c-1,.8-2,1.57-3.07,2.34Z"/><path d="M297.38,310.39c-1.23.81-1.95,1.22-1.95,1.22v2.29c1-.77,2.06-1.54,3.07-2.34.09-.59.14-.93.15-1Z"/><path d="M125.56,331.46a29.38,29.38,0,0,0-1.28,3.81,7.48,7.48,0,0,0,6.27.86c.25-.07.64-.19,1.18-.37,13.73-4.47,41.48-9.27,72.27,9.14.45-1.79.82-3.52,1.12-5.21-31.85-18.4-60.62-13.35-74.94-8.68-.43.14-.74.24-.94.29a2.7,2.7,0,0,1-3.15-1.07c7.34-15.72,39.83-25.62,48.58-28a39.89,39.89,0,0,1-3-4.35c-11.48,3.27-43.56,13.84-50.57,31.45a.36.36,0,0,0,0-.09Z"/><path d="M381.12,308.09c-49,4.38-68,18.65-83.41,30.18l-.09.07a41.42,41.42,0,0,0,1,5.27l-4.83,1.27c-.27-1-.5-2.09-.7-3.18a80,80,0,0,1-10.72,6.79c-17.35,8.84-24.45,30.83-27,41.75-15-23-30.64-38.07-45.7-47.77-.25,1.24-.54,2.51-.86,3.79l-4.37-1.1c16.3,9.85,33.43,26.23,49.78,52.6l4.86-.32,0-.21c0-.33,4.8-33.74,25.5-44.28,5.75-2.93,10.78-6.7,16.09-10.68C316,330.86,334.9,316.68,385,312.79a10.89,10.89,0,0,0-.71-.86l3.59-3.48.18.2c-1.47-2.13-16.38-22.43-48.72-24.42-.57,1.7-1.19,3.35-1.86,4.9C361.35,290.14,375.45,302,381.12,308.09Z"/><path d="M258.18,404.15l.38-2.84c-.65.1-1.31.19-2,.26Z"/><path d="M176.85,301.62l-1.18-4.85c-.31.07-1.78.43-4,1.08a39.89,39.89,0,0,0,3,4.35C176,301.83,176.79,301.64,176.85,301.62Z"/><path d="M334.3,289.05c1.09,0,2.16,0,3.21.08.67-1.55,1.29-3.2,1.86-4.9-1.64-.11-3.32-.18-5.06-.18Z"/><path d="M209.68,342.47q-2.28-1.47-4.56-2.78c-.3,1.69-.67,3.42-1.12,5.21l.45.26,4.37,1.1C209.14,345,209.43,343.71,209.68,342.47Z"/><path d="M293.77,344.88l4.83-1.27a41.42,41.42,0,0,1-1-5.27c-1.53,1.15-3,2.27-4.55,3.36C293.27,342.79,293.5,343.86,293.77,344.88Z"/><path d="M129.58,369.53a.56.56,0,0,1,0-.12.61.61,0,0,1,0-.12Z"/><path d="M127.2,372.88s-.93.2-2.39.59l0,.08c.34.61.71,1.22,1.1,1.81a19.47,19.47,0,0,0,2.84,3.41,10.7,10.7,0,0,0,4.31,2.61,5.79,5.79,0,0,0,1.37.31,8.69,8.69,0,0,0,1.44.08c.47,0,.94-.1,1.41-.17a9.33,9.33,0,0,0,1.3-.4,17,17,0,0,0,3.89-2.21c1.06-.78,2.09-1.56,3.07-2.33,2-1.53,3.9-3,5.89-4.37a43.71,43.71,0,0,1,12.64-6.16,30,30,0,0,1,3.43-.79,12.85,12.85,0,0,1,1.76-.24l1.79-.2,3.66,0c1.22.11,2.46.23,3.76.29a23.66,23.66,0,0,0-15.18-3,35.64,35.64,0,0,0-14.7,5.73c-2.22,1.37-4.3,2.88-6.34,4.33-1,.73-2,1.43-3,2.08a12.81,12.81,0,0,1-2.64,1.45,2.37,2.37,0,0,1-1.81,0,5.06,5.06,0,0,1-2-1.32A14,14,0,0,1,131,372.1c-.29-.46-.56-.93-.82-1.42s-.46-.9-.62-1.27a.56.56,0,0,0,0,.12l-.09-.24a.61.61,0,0,0,0,.12c-.45-1.53-.87-3.18-1.18-4.75-.17-.81-.3-1.61-.39-2.38a10.9,10.9,0,0,1-.07-2c0-.08,0-.28,0-.24s0,.05.08-.25.33-.86.5-1.33a21.21,21.21,0,0,0,.85-3,12.59,12.59,0,0,0-.38-6.87,11.09,11.09,0,0,0-.74-1.65,14.26,14.26,0,0,0-1-1.48,11.82,11.82,0,0,0-1.17-1.27l-.62-.56-.29-.26-.12-.13a4.29,4.29,0,0,1-1.28-2.88,15.07,15.07,0,0,1,.52-5.12,8.82,8.82,0,0,1-3.29-4l-.34-.9.35-.9a.69.69,0,0,1,0-.13c-.47.92-.83,1.73-1.19,2.61a27.53,27.53,0,0,0-1,2.78,19.15,19.15,0,0,0-.75,6.17l.07.84c0,.29.11.58.17.87s.12.58.2.87l.33.87a9.06,9.06,0,0,0,2.15,3.19l.9.88a6.58,6.58,0,0,1,.61.71,5.71,5.71,0,0,1,.8,1.52,6.66,6.66,0,0,1,.09,3.65,15.48,15.48,0,0,1-.65,2.13c-.14.37-.29.75-.46,1.16a7.44,7.44,0,0,0-.33,1l-.08.31,0,.25-.06.51a15.52,15.52,0,0,0,.08,3.32c.12,1,.28,2,.47,2.88s.43,1.94.67,2.89c1.77-.47,2.9-.72,3.1-.76Z"/><path d="M120.65,330.33l.34.9a8.82,8.82,0,0,0,3.29,4,29.38,29.38,0,0,1,1.28-3.81l-4.47-2.25a.36.36,0,0,1,0,.09.69.69,0,0,0,0,.13Z"/><path d="M390.58,312.37l-4.28.31-1.27.11a2.56,2.56,0,0,1,.2.26c.3.41.58.84.84,1.28a12.37,12.37,0,0,1,1.21,2.69,7.16,7.16,0,0,1,.35,2.67,6.69,6.69,0,0,1-.17,1.27c-.16.42-.22.75-.48,1.31-.85,2-2,4-3.09,6.42a17.07,17.07,0,0,0-1.22,4,12.38,12.38,0,0,0,.07,4.38,16.76,16.76,0,0,0,.51,2.06l.36,1,.18.48a3.29,3.29,0,0,1,.09.32,5.66,5.66,0,0,1,.29,1.24l.09.69c0,.24,0,.51,0,.76a27.89,27.89,0,0,1-.83,6.44,75.63,75.63,0,0,1-3.51,10.67c.71.31,1.41.64,2.12,1,.44.1,1.35.32,2.61.66a78.51,78.51,0,0,0,3.64-11.18,32.67,32.67,0,0,0,1-7.67c0-.34,0-.67,0-1l-.14-1.08a10.1,10.1,0,0,0-.53-2.21l-.18-.53-.13-.36-.27-.71a12.38,12.38,0,0,1-.34-1.4,8.81,8.81,0,0,1,.82-5.5c.84-1.95,2.11-4.09,3.09-6.43a15.89,15.89,0,0,0,.73-2,12.45,12.45,0,0,0,.33-2.26,12.6,12.6,0,0,0-.56-4.36,17.86,17.86,0,0,0-1.69-3.8c-.35-.58-.72-1.15-1.12-1.69a18.06,18.06,0,0,0-1.17-1.44l.1.15Z"/><path d="M379,363l2.74-1,.08-.36.27.06c-.71-.35-1.41-.68-2.12-1-.32.78-.63,1.56-1,2.33Z"/><path d="M381.7,362,379,363h0c.34-.77.65-1.55,1-2.33-2-.88-3.94-1.64-6-2.36-2.8-1-5.65-1.86-8.54-2.58a78.8,78.8,0,0,0-8.81-1.72,67.7,67.7,0,0,0-9-.69,44.06,44.06,0,0,0-18.06,3.39,23.33,23.33,0,0,0-7.64,5.38,19.6,19.6,0,0,0-4.48,7.95,62.1,62.1,0,0,1,6.79-5.2,39.1,39.1,0,0,1,7.23-3.49c5-1.91,10.54-2.27,16-2.15,2.76.12,5.53.42,8.29.8s5.52,1,8.27,1.57a152.34,152.34,0,0,1,16.2,4.75l2.46.88.09-.22c-.77-.19-1.47-.37-2.09-.5Z"/><path d="M384.32,311.93a10.89,10.89,0,0,1,.71.86l1.27-.11,4.28-.31-2.39-3.57-.1-.15-.18-.2Z"/><path d="M95.71,389a37.85,37.85,0,0,1,6.79-5.78c-.12-1.34-.22-2.67-.27-4l5-.62c.12.54.21,1.08.32,1.62a84.29,84.29,0,0,1,17.3-6.73c-.32-.61-.61-1.16-.92-1.9l0-.11,0-.14c-.26-.87-.5-1.72-.72-2.58-6.55,1.77-21.88,6.79-31.07,16.9C85.86,392.4,74.66,412.2,65.13,437c-8.25,21.42-18,53.74-17.7,86.09C47.89,570.87,51,656.76,52.12,686h5c-1.1-29-4.23-115.11-4.69-163C51.87,464.16,85.44,400.3,95.71,389Z"/><path d="M123.84,371.46l0,.11c.31.74.6,1.29.92,1.9,1.46-.39,2.35-.58,2.39-.59l-1-4.9c-.2,0-1.33.29-3.1.76.22.86.46,1.71.72,2.58Z"/><path d="M133.3,677.28l-.9-13.92-.76-14-.69-14-2.76-55.88-2.8-55.9L124,495.71c-.22-4.66-.46-9.32-1-14a87.67,87.67,0,0,0-2.63-13.9,87.73,87.73,0,0,0-1.53,14.07c-.2,4.67-.05,9.34.11,14l.91,28c.59,18.65,1.39,37.3,2.16,56s1.76,37.29,2.87,55.93c.53,9.32,1.22,18.64,1.89,28l1.16,14,.75,7c0,.41.09.82.14,1.23H134c-.07-.58-.12-1.16-.16-1.77Z"/><path d="M447.77,470.21c-12.17-58.37-27.38-87.52-27.54-87.81-6-11.32-27.67-18-35.57-20.07-.37.92-.75,1.83-1.15,2.75h0l-.74,1.9c2.83.73,6.58,1.84,10.57,3.3.13-.65.25-1.29.38-1.93l5,.64c-.05,1.1-.12,2.2-.21,3.31,7.46,3.17,14.69,7.42,17.34,12.43.15.28,15,28.81,27.07,86.49,13.6,65.27,17.44,137.39,11.41,214.35l5,.39C465.34,608.54,461.47,535.94,447.77,470.21Z"/><path d="M382.25,361.76l-.55.21-1,4.52c.62.13,1.32.31,2.09.5l.74-1.9h0c.4-.92.78-1.83,1.15-2.75-1.26-.34-2.17-.56-2.61-.66Z"/><path d="M381.7,362l.55-.21-.2-.09-.27-.06Z"/><path d="M388.23,678.88c-.08-2.23-.07-4.5-.1-6.75-.1-4.51,0-9,.06-13.58s.2-9.06.31-13.6.25-9.07.42-13.61c.59-18.15,1.51-36.29,2.42-54.44L394,522.45l1.24-27.23c.48-9.08.71-18.17-1-27.37-2.77,8.94-3.57,18-4.11,27.08s-1.23,18.14-1.73,27.22-1.05,18.16-1.48,27.24l-1.28,27.25q-1.15,27.25-1.94,54.54c-.14,4.55-.27,9.09-.35,13.65s-.22,9.1-.23,13.66-.13,9.11,0,13.69c0,2.3,0,4.57.1,6.88l.39,6.91h.57l4.41-.45Z"/><path d="M103.28,389.9c.24,1.77.56,3.54.85,5.3s.67,3.52,1,5.28a100.75,100.75,0,0,0,2.72,10.44,34.41,34.41,0,0,0,4.92,9.82A90.12,90.12,0,0,0,112.2,410c-.21-1.75-.44-3.5-.71-5.24l-.75-5.23-.78-5.24-.82-5.24c-.49-2.94-1-5.88-1.63-8.8a53.7,53.7,0,0,0-5,3Q102.8,386.56,103.28,389.9Z"/><path d="M102.23,379.2c0,1.35.15,2.68.27,4a53.7,53.7,0,0,1,5-3c-.11-.54-.2-1.08-.32-1.62Z"/><path d="M391,386l-.62,5.91c-.31,4-.75,7.9-.84,11.88a68.14,68.14,0,0,0,.6,12.06,68.85,68.85,0,0,0,3.62-11.52c.92-3.88,1.48-7.8,2.18-11.71l.89-5.88.77-5.89c.33-2.84.64-5.69.85-8.54-1.71-.74-3.44-1.41-5.13-2-.62,3.25-1.12,6.53-1.58,9.81Z"/><path d="M398.68,369l-5-.64c-.13.64-.25,1.28-.38,1.93,1.69.61,3.42,1.28,5.13,2C398.56,371.2,398.63,370.1,398.68,369Z"/><path d="M296.56,390.27a35.83,35.83,0,0,0,7.49-4,29.94,29.94,0,0,0,6.28-5.83,22.84,22.84,0,0,0,2.35-3.64,12.62,12.62,0,0,0,1.36-4.1,36.9,36.9,0,0,1-2.94,2.93c-1,.91-2,1.77-3,2.62-2,1.68-4.18,3.22-6.33,4.75s-4.4,3-6.63,4.51c-1.13.74-2.27,1.47-3.39,2.29a38.79,38.79,0,0,0-3.4,2.49,37.16,37.16,0,0,0,4.2-.7C293.89,391.19,295.24,390.77,296.56,390.27Z"/><path d="M263.82,400.26A43.45,43.45,0,0,0,273,396.9c-3.3-.1-6.5.06-9.68.26l-4.23.28-.53,3.87A51.51,51.51,0,0,0,263.82,400.26Z"/><path d="M254.23,397.76l-.32,0c-3.13.2-6.25.35-9.4.48s-6.33.23-9.63.51a35.66,35.66,0,0,0,9.47,2.62,48.66,48.66,0,0,0,9.8.39c.81,0,1.63-.12,2.44-.21l-2.08-3.36Z"/><path d="M254.51,398.21l2.08,3.36c.66-.07,1.32-.16,2-.26l.53-3.87-4.86.32Z"/><path d="M197,383.87a54.61,54.61,0,0,0,10.05,6.32A44.07,44.07,0,0,0,218.29,394c-3.24-2.31-6.52-4.29-9.62-6.54s-6.18-4.42-9.18-6.75-5.9-4.76-8.78-7.27-5.71-5.11-8.6-7.81a40.22,40.22,0,0,0,6.36,10A57,57,0,0,0,197,383.87Z"/><path d="M311,386.91c-2,1.42-3.9,3-6,4.29-1,.68-2,1.4-3.06,2.06s-2.11,1.28-3.16,1.94l-1.58,1-1.62.91L292.35,399c-2.18,1.22-4.44,2.31-6.63,3.65q3.73-.75,7.41-1.86l3.59-1.31,1.79-.68c.59-.25,1.17-.52,1.75-.8,1.15-.55,2.31-1.1,3.46-1.67s2.22-1.28,3.33-1.92a72.18,72.18,0,0,0,6.39-4.31,62.18,62.18,0,0,0,10.91-10.9,40.3,40.3,0,0,0,7.14-13.53A84.36,84.36,0,0,1,322,377.12,115.78,115.78,0,0,1,311,386.91Z"/><path d="M250.53,411.49a75.92,75.92,0,0,0,12.77-1.77,59.28,59.28,0,0,0,12.21-4c-4.31.22-8.5.62-12.69.94s-8.35.67-12.49.87-8.29.29-12.46.24-8.35-.27-12.66-.46a47.79,47.79,0,0,0,12.4,3.59A65,65,0,0,0,250.53,411.49Z"/><path d="M212.63,403c-3.48-2.57-7-4.82-10.2-7.45a113.21,113.21,0,0,1-9.39-8.06,122.68,122.68,0,0,1-8.54-9c-2.74-3.14-5.32-6.41-7.87-9.87A40.26,40.26,0,0,0,182,380.42a53.9,53.9,0,0,0,8.29,10,52.11,52.11,0,0,0,10.39,7.78A44.77,44.77,0,0,0,212.63,403Z"/><path d="M284.56,70.73a63.59,63.59,0,0,1,6.5-.27C303.27,62.74,317.13,63,317.13,63c-18.15-5.35-29.27,3.51-32.59,6.76C284.55,70.09,284.56,70.43,284.56,70.73Z"/><path d="M284.56,70.73c0,1.1-.08,1.78-.08,1.78h0a2.33,2.33,0,0,0,2.52.87,40.6,40.6,0,0,1,4.06-2.92A63.59,63.59,0,0,0,284.56,70.73Z"/><path d="M284.54,69.73c-.18-5.62-2.18-17.84-16.26-18.17,0,0,7,5.83,7.58,14.1a39.37,39.37,0,0,1,7.62,5.19A15,15,0,0,1,284.54,69.73Z"/><path d="M275.18,71.55l9.3,1a5.8,5.8,0,0,1-1-1.66,39.37,39.37,0,0,0-7.62-5.19A15.73,15.73,0,0,1,275.18,71.55Z"/><path d="M283.48,70.85l1.08-.12c0-.3,0-.64,0-1A15,15,0,0,0,283.48,70.85Z"/><path d="M284.56,70.73l-1.08.12a5.8,5.8,0,0,0,1,1.66h0S284.55,71.83,284.56,70.73Z"/><path d="M222.43,537.61v-.23a12.25,12.25,0,0,0,6.37-5.84,22.88,22.88,0,0,0,2.08-10.48v-3.33q0-9.76-4.64-14.47t-14.76-4.7H191.71v83.35h20.6q9.76,0,14.82-5.06t5.06-14.71V555Q232.19,540.94,222.43,537.61Zm-17.62-27.14h6.31q3.45,0,5.06,2t1.61,6.55v4.64q0,4.77-2,6.79t-5.89,2h-5.12Zm14.29,51.32c0,3-.56,5.14-1.67,6.37a6.56,6.56,0,0,1-5.12,1.84h-7.5V544.4h5.83c3,0,5.18.74,6.49,2.2s2,4.11,2,7.92Z"/><path d="M258.75,497.37q-9.65,0-14.77,5.47t-5.12,15.48v43.82q0,10,5.12,15.48t14.77,5.48q9.64,0,14.76-5.48t5.12-15.48V518.32q0-10-5.12-15.48T258.75,497.37ZM265.53,563q0,8.21-6.78,8.21T252,563V517.49q0-8.22,6.79-8.22t6.78,8.22Z"/><polygon points="304.59 529.16 304.35 529.16 295.42 498.56 281.49 498.56 297.33 546.42 297.33 581.91 310.43 581.91 310.43 546.42 326.26 498.56 313.52 498.56 304.59 529.16"/><path class="cls-3" d="M189.57,139.34a2.47,2.47,0,0,0,1.61.59,2.51,2.51,0,0,0,1.91-.89c6.15-7.3,12.16-22.66,12.41-23.31a2.5,2.5,0,1,0-4.66-1.82c-.06.16-6,15.25-11.57,21.91A2.5,2.5,0,0,0,189.57,139.34Z"/><path class="cls-3" d="M233.26,144.62a2.51,2.51,0,0,0,1.61.58,2.47,2.47,0,0,0,1.91-.89c6.15-7.29,12.16-22.66,12.41-23.31a2.5,2.5,0,0,0-4.66-1.81c-.06.15-6,15.24-11.57,21.9A2.5,2.5,0,0,0,233.26,144.62Z"/><path class="cls-3" d="M204.87,122.4c0,.1-4.23,10.81-8.17,15.49a2.5,2.5,0,1,0,3.82,3.22c4.48-5.32,8.83-16.43,9-16.9a2.5,2.5,0,1,0-4.66-1.81Z"/><path class="cls-3" d="M229.5,139.49a2.49,2.49,0,0,0,3.52-.3c4.48-5.32,8.83-16.43,9-16.9a2.5,2.5,0,1,0-4.66-1.81c0,.11-4.22,10.8-8.17,15.49A2.5,2.5,0,0,0,229.5,139.49Z"/><path class="cls-3" d="M264.62,145.22a2.49,2.49,0,0,0,3.52-.3c6.76-8,13.4-25,13.68-25.71a2.5,2.5,0,0,0-4.66-1.81c-.07.17-6.62,16.9-12.85,24.3A2.49,2.49,0,0,0,264.62,145.22Z"/><path class="cls-3" d="M262.07,140.14a2.47,2.47,0,0,0,1.91-.89c4.92-5.84,9.72-18.09,9.92-18.61a2.5,2.5,0,1,0-4.66-1.81c-.05.12-4.7,12-9.08,17.2a2.49,2.49,0,0,0,.3,3.52A2.47,2.47,0,0,0,262.07,140.14Z"/><path class="cls-3" d="M203.75,142.16a2,2,0,0,0,2.82-.24c3.55-4.23,7-13,7.15-13.43A2,2,0,0,0,210,127c0,.09-3.36,8.59-6.48,12.3A2,2,0,0,0,203.75,142.16Z"/><path class="cls-3" d="M226.64,135.53a2,2,0,0,0,1.53-.71c3.55-4.22,7-13,7.15-13.42a2,2,0,0,0-3.73-1.45c0,.08-3.36,8.58-6.48,12.29a2,2,0,0,0,.24,2.82A2,2,0,0,0,226.64,135.53Z"/><path class="cls-3" d="M185.43,136.93a2.1,2.1,0,0,0,.73.14,2,2,0,0,0,1.86-1.28c0-.08,3.36-8.58,6.49-12.29a2,2,0,0,0-3.06-2.58c-3.56,4.22-7,13-7.16,13.42A2,2,0,0,0,185.43,136.93Z"/><path class="cls-3" d="M181,134.62a2,2,0,0,0,.72.14,2,2,0,0,0,1.87-1.28c.56-1.45,2.38-5.64,3.94-7.49a2,2,0,0,0-3.06-2.57c-2.31,2.74-4.52,8.37-4.61,8.61A2,2,0,0,0,181,134.62Z"/><path class="cls-3" d="M176.45,132.27a2,2,0,0,0,.72.13,2,2,0,0,0,1.87-1.27c.56-1.46,2.37-5.64,3.94-7.49a2,2,0,0,0-3.06-2.58c-2.31,2.74-4.52,8.38-4.61,8.62A2,2,0,0,0,176.45,132.27Z"/><path class="cls-3" d="M162.14,136.72a2.34,2.34,0,0,0,.38,0,2,2,0,0,0,2-1.62c3-15.63,14.69-27,14.81-27.09a2,2,0,0,0-2.76-2.89c-.52.49-12.69,12.31-16,29.22A2,2,0,0,0,162.14,136.72Z"/><path class="cls-3" d="M178.81,115.6a2,2,0,0,0-2.83.11c-.25.28-6.35,7-7,13.56a2,2,0,0,0,1.77,2.2h.22a2,2,0,0,0,2-1.79c.56-5.27,6-11.21,6-11.27A2,2,0,0,0,178.81,115.6Z"/><path class="cls-3" d="M336.75,134.45a2.52,2.52,0,0,0,2.42,1.87,2.28,2.28,0,0,0,.63-.09,2.5,2.5,0,0,0,1.79-3c-2.42-9.23-11.51-23-11.9-23.58a2.5,2.5,0,1,0-4.16,2.76C325.62,112.5,334.54,126,336.75,134.45Z"/><path class="cls-3" d="M330.45,132.76a2,2,0,0,0,3.34-2.21c-.05-.08-5.08-7.7-6.31-12.39a2,2,0,1,0-3.87,1C325,124.51,330.23,132.42,330.45,132.76Z"/><path class="cls-3" d="M325,133.53a2,2,0,0,0,1.67.89,2.05,2.05,0,0,0,1.11-.33,2,2,0,0,0,.56-2.77c-.86-1.3-3.24-5.19-3.85-7.54a2,2,0,1,0-3.87,1C321.53,128.26,324.86,133.31,325,133.53Z"/><path class="cls-3" d="M320.67,135.85a2,2,0,0,0,1.67.89,2,2,0,0,0,1.66-3.11c-.86-1.3-3.23-5.18-3.85-7.53a2,2,0,1,0-3.87,1C317.19,130.58,320.53,135.63,320.67,135.85Z"/><path class="cls-3" d="M317.23,148.86a2,2,0,0,0,2.82.06,2,2,0,0,0,.06-2.83c-11-11.49-13.57-27.56-13.6-27.72a2,2,0,1,0-3.95.59C302.67,119.67,305.3,136.42,317.23,148.86Z"/><path class="cls-3" d="M317.73,140.82a2,2,0,0,0,2.82-.19,2,2,0,0,0-.19-2.82c-4-3.49-5.72-11.33-5.74-11.41a2,2,0,0,0-3.91.84C310.79,127.62,312.74,136.45,317.73,140.82Z"/><path d="M206.39,228.9c4.8,0,8.7-5.55,8.7-12.36a15.78,15.78,0,0,0-1.68-7.23c-.89-.3-1.79-.58-2.7-.82a26.52,26.52,0,0,0-2.64-.6,23.67,23.67,0,0,0-2.65-.46c-.9-.09-1.77-.25-2.67-.3-.62,0-1.24-.06-1.86-.09a14.65,14.65,0,0,0-3.2,9.5C197.69,223.35,201.6,228.9,206.39,228.9Z"/><path d="M290.94,225.94c4.8,0,8.7-5.54,8.7-12.36a14.64,14.64,0,0,0-3.19-9.5l-1.86.1c-.9,0-1.78.2-2.67.29a56.31,56.31,0,0,0-5.29,1.07c-.91.24-1.81.51-2.71.81a15.94,15.94,0,0,0-1.68,7.23C282.24,220.4,286.14,225.94,290.94,225.94Z"/></g></svg>