<svg id="Layer_1" data-name="Layer 1" xmlns="http://www.w3.org/2000/svg" xmlns:xlink="http://www.w3.org/1999/xlink" viewBox="0 0 500 500"><defs><style>.cls-1{fill:#f4d9ce;}.cls-2{clip-path:url(#clip-path);}.cls-3{fill:#fff;}.cls-4{fill:#f67381;}.cls-5{clip-path:url(#clip-path-2);}.cls-6{fill:#ffbdab;}.cls-7{fill:#a6dcef;}</style><clipPath id="clip-path"><circle class="cls-1" cx="250" cy="-257.2" r="215.67"/></clipPath><clipPath id="clip-path-2"><circle class="cls-1" cx="252.42" cy="250.75" r="215.67"/></clipPath></defs><circle class="cls-1" cx="250" cy="-257.2" r="215.67"/><g class="cls-2"><path class="cls-3" d="M156.19,35.83a71.21,71.21,0,0,1-3-10c-1.21-.15-10.47-1.39-16-5.67-1.75-1.35-4.43-.61-8.67.71-3.36,1.05-7.09,2.21-11.19,2.14l3.14,133.23h34.84C159.06,125.81,165.57,60.24,156.19,35.83Z"/><path class="cls-3" d="M399.58,38.42h-.66c-10.08-.27-26.66-1.76-34.15-2.48A51.31,51.31,0,0,1,362,43.77c-9.58,21.25,1.18,83.16,7.1,112.49h31.69L403,38.16A22.54,22.54,0,0,1,399.58,38.42Z"/><path class="cls-4" d="M357.72,41.82c12.66-28.06-2.47-86-2.62-86.58a2.37,2.37,0,0,1,1.68-2.9,2.38,2.38,0,0,1,2.9,1.69c.56,2.13,12.1,46.36,6.15,77.25,7.7.73,23.53,2.14,33.21,2.4,7.11.2,10.88-3.49,13.6-6.17,2-2,4.43-4.37,7.33-2.54,2.71,1.71,16.47,6.13,21.08.51,6.11-7.45,12.4-8.66,17.74-8.87l.36,0C438.89.87,409.44-66.92,398.52-99.18c-6.09-18-38.78-29.32-65.23-36.29-4.88,7.24-28,37.42-77.34,43.22a101.43,101.43,0,0,1-11.76.69c-23.42,0-42.54-8.23-55.12-15.74A117.08,117.08,0,0,1,165-126.15c-7.73,2.42-13.3,4.08-13.48,4.13-18.1,5.37-24.73,11.28-36.85,42.67C105.75-56.3,83-28,70.82-12.74c-1.74,2.18-3.43,4.29-4.68,5.89,4,.32,10.11,2.26,12.7,13,.57,2.36,1.41,3.84,2.49,4.4,1.82,1,5-.3,8.17-1.51,4-1.56,8.55-3.32,12.18-1a20.57,20.57,0,0,1,5.64,5.44c1.72,2.27,2.87,3.78,7.94,4.61l.16,0c4.08.63,8-.58,11.72-1.75,4.52-1.41,9.19-2.86,13,.07,3.5,2.72,9.31,4,12.12,4.47-5.75-33.42,3.39-77.34,3.84-79.48a2.37,2.37,0,0,1,2.81-1.82,2.36,2.36,0,0,1,1.82,2.8c-.12.6-12.41,59.7-.1,91.72,9.81,25.52,3.35,91.08-.47,122.13H364.27C358.18,126.12,347.58,64.29,357.72,41.82Zm47.33-81.49a2.35,2.35,0,0,1,1-3.18,2.36,2.36,0,0,1,3.18,1c.62,1.2,15,29.44,10.84,43.69-.47,1.63-1.9,6.57-5.74,6.71h-.15c-4.61,0-8-7.78-9.27-11.16a2.37,2.37,0,0,1,1.39-3,2.39,2.39,0,0,1,3.05,1.39c1.36,3.65,3.57,7.37,4.73,8A8.58,8.58,0,0,0,415.55.55C418.54-9.79,409-32,405.05-39.67ZM389.71-22.46a2.36,2.36,0,0,1,2.72,2L396.7,5.83a2.37,2.37,0,0,1-2,2.71l-.38,0a2.36,2.36,0,0,1-2.34-2l-4.26-26.33A2.36,2.36,0,0,1,389.71-22.46ZM117.06-44.31c-7.58,15.21-15.15,33.4-15,37.9,1.62-.52,5.76-5.12,9.16-11.46a2.37,2.37,0,0,1,3.2-1,2.37,2.37,0,0,1,1,3.21c-2.41,4.5-8.15,14-13.73,14a4.84,4.84,0,0,1-2.24-.55C96.32-3.83,96-8.35,103.76-26.69c4.18-9.91,9-19.64,9.06-19.73A2.37,2.37,0,0,1,116-47.49,2.38,2.38,0,0,1,117.06-44.31ZM136.34-23.6c-.09.18-7.44,14.31-4,27.4a2.37,2.37,0,0,1-1.68,2.9,2.55,2.55,0,0,1-.61.08A2.37,2.37,0,0,1,127.82,5c-4-14.93,4-30.2,4.34-30.84a2.38,2.38,0,0,1,3.2-1A2.36,2.36,0,0,1,136.34-23.6Z"/><path d="M114.88,18.08a1.59,1.59,0,0,1,.38,0c-5.07-.83-6.22-2.34-7.94-4.61a20.57,20.57,0,0,0-5.64-5.44c-3.63-2.32-8.17-.56-12.18,1-3.12,1.21-6.35,2.47-8.17,1.51-1.08-.56-1.92-2-2.49-4.4-2.59-10.75-8.74-12.69-12.7-13,1.25-1.6,2.94-3.71,4.68-5.89C83-28,105.75-56.3,114.66-79.35c12.12-31.39,18.75-37.3,36.85-42.67.18,0,5.75-1.71,13.48-4.13-.62-.66-1-1.07-1.05-1.15l3.57-3.11c.05.06.93,1,2.57,2.65,16.57-5.3,38.8-12.87,42.73-16.58,4.23-4,2.12-21.8.28-33-1.76-1-3.54-2-5.33-3.06,2.84,15.85,3.67,30.66,1.81,32.64-3.48,3.28-33.54,13.57-59.4,21.23-20.52,6.08-28,14.59-39.93,45.5C101.6-58.69,78.32-29.65,67.13-15.7c-2.25,2.81-4,5-5.27,6.65-1.81,2.38-2.8,3.68-2,5.27s2.62,1.64,4,1.62c3.21,0,8-.13,10.35,9.43.92,3.8,2.52,6.25,4.9,7.49,3.72,2,8.16.22,12.07-1.3,3.11-1.2,6.31-2.45,7.92-1.42a15.71,15.71,0,0,1,4.42,4.32,13.75,13.75,0,0,0,9.06,6l0-1.89A2.36,2.36,0,0,1,114.88,18.08Z"/><path d="M117.3,20.39l.06,2.64c4.1.07,7.83-1.09,11.19-2.14,4.24-1.32,6.92-2.06,8.67-.71,5.52,4.28,14.78,5.52,16,5.67-.36-1.61-.69-3.26-1-4.94-2.81-.48-8.62-1.75-12.12-4.47-3.79-2.93-8.46-1.48-13-.07-3.76,1.17-7.64,2.38-11.72,1.75A2.35,2.35,0,0,1,117.3,20.39Z"/><path d="M160.61,34.13c-12.31-32,0-91.12.1-91.72a2.36,2.36,0,0,0-1.82-2.8,2.37,2.37,0,0,0-2.81,1.82c-.45,2.14-9.59,46.06-3.84,79.48,1,.17,1.6.25,1.62.25l-.52,4.7h-.13a71.21,71.21,0,0,0,3,10c9.38,24.41,2.87,90-.85,120.43h4.8C164,125.21,170.42,59.65,160.61,34.13Z"/><path d="M153.34,25.86l.52-4.7s-.64-.08-1.62-.25c.28,1.68.61,3.33,1,4.94Z"/><path d="M293.61-146.15c1.46,1.59,5.54,2.59,18.19,5.49,4.73,1.08,10.4,2.38,16.55,3.93,1.21-1.64,1.82-2.63,1.86-2.69l4.06,2.43c-.09.16-.42.7-1,1.52,26.45,7,59.14,18.33,65.23,36.29C409.44-66.92,438.89.87,459.15,16.59l-.36,0c-5.34.21-11.63,1.42-17.74,8.87-4.61,5.62-18.37,1.2-21.08-.51-2.9-1.83-5.35.59-7.33,2.54-2.72,2.68-6.49,6.37-13.6,6.17-9.68-.26-25.51-1.67-33.21-2.4-.3,1.59-.65,3.14-1.06,4.65,7.49.72,24.07,2.21,34.15,2.48h.66a22.54,22.54,0,0,0,3.39-.26L403,36a2.37,2.37,0,0,1,4.74.08l0,.73A25.87,25.87,0,0,0,416,30.88a17.37,17.37,0,0,1,1.84-1.68c4.76,2.73,20.39,7.23,26.9-.72,5.15-6.28,10.06-7,14.26-7.14,2.47-.09,4.18-.89,5.08-2.38a4.53,4.53,0,0,0,.17-4.19l-.28-.61-.57-.37C445,1.84,414.74-66,403-100.69c-8.79-25.95-61.71-38.07-90.14-44.59-7.08-1.62-14.39-3.3-15.83-4.16-1.64-2.27-.74-16.32,2-31.22-1.83,1.48-3.69,2.91-5.55,4.29C291.76-165.76,290-150.1,293.61-146.15Z"/><path d="M362,43.77a51.31,51.31,0,0,0,2.74-7.84c-2.36-.22-3.83-.37-3.89-.38l.48-4.71,4.47.44C371.78.39,360.24-43.84,359.68-46a2.38,2.38,0,0,0-2.9-1.69,2.37,2.37,0,0,0-1.68,2.9c.15.58,15.28,58.52,2.62,86.58-10.14,22.47.46,84.3,6.55,114.44h4.86C363.21,126.93,352.45,65,362,43.77Z"/><path d="M361.36,30.84l-.48,4.71c.06,0,1.53.16,3.89.38.41-1.51.76-3.06,1.06-4.65Z"/><path d="M403,38.16l-2.15,118.1h4.74l2.17-119.44A19.42,19.42,0,0,1,403,38.16Z"/><path d="M405.42,33.68A2.36,2.36,0,0,0,403,36l0,2.15a19.42,19.42,0,0,0,4.76-1.34l0-.73A2.38,2.38,0,0,0,405.42,33.68Z"/><path d="M115.77,156.61a2.36,2.36,0,0,0,2.36,2.31h.06a2.36,2.36,0,0,0,2.31-2.42v-.24h-4.74Z"/><path d="M115.42,18.12l-.16,0h.16Z"/><path d="M114.56,22.78c-.7-.11-1.34-.24-2-.39l3.15,133.87h4.74L117.36,23A19.41,19.41,0,0,1,114.56,22.78Z"/><path d="M117.36,23l-.06-2.64a2.35,2.35,0,0,0-1.88-2.27h-.16a1.59,1.59,0,0,0-.38,0,2.36,2.36,0,0,0-2.31,2.42l0,1.89c.61.15,1.25.28,2,.39A19.41,19.41,0,0,0,117.36,23Z"/><path d="M414.11,3.77c-1.16-.65-3.37-4.37-4.73-8a2.39,2.39,0,0,0-3.05-1.39,2.37,2.37,0,0,0-1.39,3.05C406.2.79,409.6,8.57,414.21,8.57h.15c3.84-.14,5.27-5.08,5.74-6.71,4.12-14.25-10.22-42.49-10.84-43.69a2.36,2.36,0,0,0-3.18-1,2.35,2.35,0,0,0-1,3.18C409-32,418.54-9.79,415.55.55A8.58,8.58,0,0,1,414.11,3.77Z"/><path d="M392,6.58a2.36,2.36,0,0,0,2.34,2l.38,0a2.37,2.37,0,0,0,2-2.71L392.43-20.5a2.36,2.36,0,0,0-2.72-2,2.36,2.36,0,0,0-1.95,2.71Z"/><path d="M135.36-26.8a2.38,2.38,0,0,0-3.2,1c-.34.64-8.33,15.91-4.34,30.84a2.37,2.37,0,0,0,2.28,1.76,2.55,2.55,0,0,0,.61-.08,2.37,2.37,0,0,0,1.68-2.9c-3.49-13.09,3.86-27.22,4-27.4A2.36,2.36,0,0,0,135.36-26.8Z"/></g><circle class="cls-1" cx="252.42" cy="250.75" r="215.67"/><g class="cls-5"><path class="cls-6" d="M289.58,149.13a8.7,8.7,0,0,0-2.14-6.23l.78,25.23c.73-.06,1.5-.09,2.29-.12A78.51,78.51,0,0,1,289.58,149.13Z"/><path class="cls-3" d="M354.73,355.26c-6.41,2.49-2.85,14.24-1.78,26.34s-49.13,11.75-53.76,4.2,5.7-35.53,2.31-38.73-.17-19.94-2.31-22.43c-14.33,6.1,5,23.32-3.29,32.66s-5.88,25.1-.54,33.84a8.11,8.11,0,0,0,2.89,2.57c.13-.95.26-1.9.36-2.84l4.71.54c-.16,1.42-.34,2.84-.55,4.27,13.47,4.46,40.09,4.51,49,1.14,11.24-4.27,9-27,5-36.31-1.11-2.6.14-4.49,2.53-5.87A12.4,12.4,0,0,0,354.73,355.26Z"/><path class="cls-6" d="M174.49,235.08c5.59,20.28,20.28,48.7,58.19,72.46,6.48,3.17,13.82,6.55,19.71,8.69a30.48,30.48,0,0,0,20.79-4.89c24.25-16.21,63.89-52.75,61-117a58.17,58.17,0,0,0-2.63-12.82s-5.34,4.51-25,4.05c-7.49-.17-11.76-4.92-14.17-11-1.29.08-2.62.2-4,.37l.07,2.32s-10.67,11.21-32.39,10.34-19.22-45.76-19.22-45.76c-6,10-5.9,43.68-5.9,43.68s-17.12,6.45-31.56,6.9c.52.6,1.06,1.17,1.61,1.71a18.81,18.81,0,0,0,2.54,2l.32.2a25.14,25.14,0,0,1,5.3-.79,26.94,26.94,0,0,1,12.3,2.67,28.47,28.47,0,0,1,5.19,3.17,23.55,23.55,0,0,1,4.3,4.16c-1.86-.73-3.71-1.35-5.55-1.88a10.84,10.84,0,1,1-15.84-1.46,29,29,0,0,0-9.09,3.22,74.69,74.69,0,0,0-7.89,5.27l4.19,7.84-8.07-7.19-.91-.81.91-1.54h0l.18-.35a13.25,13.25,0,0,1-3.21-1.41,15.14,15.14,0,0,1-2.84-2.27,13.73,13.73,0,0,1-2.16-2.79,22.52,22.52,0,0,0,3,1.5,18.89,18.89,0,0,0,3.05,1,12.12,12.12,0,0,0,2.95.28c.5,0,1,0,1.45,0a24,24,0,0,1,2.89-3.16,11.68,11.68,0,0,1-1.16-.62,16.07,16.07,0,0,1-2.81-2.2,14.35,14.35,0,0,1-2.19-2.68A24.47,24.47,0,0,0,190.8,198a19,19,0,0,0,3,1.21,12.62,12.62,0,0,0,2.8.51l.26-.2a24.6,24.6,0,0,1,4.76-2.45,15.76,15.76,0,0,1-1.49-2.2,14.24,14.24,0,0,1-1.11-2.42,35.25,35.25,0,0,1-8.79-.77,13,13,0,0,1-6.86-4.13L176.74,192l4.57-7.45c-4.13-7.59-3.22-18.43-3-20.34l-3.88,34.54c-1.36-.32-2.18-2-2.66-3.77A97.13,97.13,0,0,0,174.49,235.08Zm92.71,54-1.37.06c-.45,0-.9,0-1.35,0-1.79.07-3.56.2-5.33.35s-3.51.44-5.26.77a47.76,47.76,0,0,0-5.27,1.32,13.64,13.64,0,0,1,4.81-2.92,21.73,21.73,0,0,1,5.5-1.31,23.13,23.13,0,0,1,5.64.09A19.75,19.75,0,0,1,270,289C269,289.11,268.11,289.09,267.2,289.13Zm11.45-91.81a28.55,28.55,0,0,1,5.2-3.17,26.74,26.74,0,0,1,12.29-2.66,25.32,25.32,0,0,1,5.31.78l.31-.19a19.73,19.73,0,0,0,2.54-2,24.47,24.47,0,0,0,2.27-2.48,13.93,13.93,0,0,1-1.36,3.19,15.76,15.76,0,0,1-1.49,2.2,24.09,24.09,0,0,1,4.76,2.46l.27.19a12.53,12.53,0,0,0,2.79-.51,18.64,18.64,0,0,0,3-1.21,23.19,23.19,0,0,0,2.87-1.75,14.41,14.41,0,0,1-2.19,2.69,16,16,0,0,1-2.81,2.19,11.68,11.68,0,0,1-1.16.62,24.61,24.61,0,0,1,2.89,3.16c.47,0,.95,0,1.45,0a12.1,12.1,0,0,0,3-.29,19.32,19.32,0,0,0,3.06-1,22.42,22.42,0,0,0,3-1.5,14,14,0,0,1-2.15,2.79,15.54,15.54,0,0,1-2.85,2.27,13.09,13.09,0,0,1-3.21,1.41l.18.35h0l.91,1.54-.91.81-8.07,7.19,4.19-7.84a73.68,73.68,0,0,0-7.89-5.27,29,29,0,0,0-9.09-3.22,10.84,10.84,0,1,1-15.84,1.46c-1.83.53-3.68,1.15-5.55,1.88A23.55,23.55,0,0,1,278.65,197.32Zm-32.71,47.39a1.45,1.45,0,0,1,1.31.56l.22.29a12.41,12.41,0,0,0,1.36,1.65,5.58,5.58,0,0,0,1.54,1.12,5.18,5.18,0,0,0,1.65.45,7.21,7.21,0,0,0,1.89-.12,6.89,6.89,0,0,0,1.8-.58,8.4,8.4,0,0,0,1.61-1.13,11.05,11.05,0,0,0,1.42-1.66,20.65,20.65,0,0,0,1.2-2l.12-.22a1.4,1.4,0,0,1,1.91-.54,1.38,1.38,0,0,1,.71,1.29,10.22,10.22,0,0,1-.62,3.07,11.08,11.08,0,0,1-1.53,2.82A10,10,0,0,1,258,252a9.34,9.34,0,0,1-3.21,1.27,10,10,0,0,1-3.45.1A8.37,8.37,0,0,1,248,252a8,8,0,0,1-2.32-2.58,8.4,8.4,0,0,1-1-3.15A1.44,1.44,0,0,1,245.94,244.71Zm-11.63,29.9a.6.6,0,0,1,.73-.08l.07,0a10.88,10.88,0,0,0,5.5,1.54,11.3,11.3,0,0,0,5.38-1.35l.63-.33.42-.22.52-.23a5.54,5.54,0,0,1,2.25-.31,5.65,5.65,0,0,1,2.21.61,5,5,0,0,1,.5.29l.37.25.55.34a5.45,5.45,0,0,0,4.56.56c.19-.08.39-.13.58-.21l.62-.28a13.77,13.77,0,0,1,1.68-.69,12.63,12.63,0,0,1,3.58-.7c2.42-.09,4.56.38,6.32.34a7,7,0,0,0,2.53-.54c.93-.39,1.87-.85,2.8-1.32,1.87-.9,3.71-1.92,5.54-2.94h0a.51.51,0,0,1,.68.2.5.5,0,0,1-.08.59,40.92,40.92,0,0,1-4.95,4.17c-.89.63-1.77,1.22-2.73,1.8a9.18,9.18,0,0,1-3.52,1.18,20,20,0,0,1-3.42.1,20.11,20.11,0,0,0-2.93,0,9.84,9.84,0,0,0-2.6.59,9.69,9.69,0,0,0-1.24.54l-.81.39c-.29.13-.6.24-.91.35a9,9,0,0,1-4,.33,9.25,9.25,0,0,1-3.64-1.36,8.78,8.78,0,0,1-.77-.54l-.28-.2a.81.81,0,0,0-.18-.12,2.07,2.07,0,0,0-.81-.29,2.15,2.15,0,0,0-.87.06l-.21.06-.3.12-.81.34a13.69,13.69,0,0,1-3.4.92,12.79,12.79,0,0,1-3.55,0,10.83,10.83,0,0,1-6.08-3.13A.61.61,0,0,1,234.31,274.61Z"/><path class="cls-3" d="M213.48,390.3c.26.71.55,1.46.85,2.23a31.88,31.88,0,0,0,11.35-4c14.95-9.61,4-29.23.8-34.84s.53-22.16-1.07-25.1c-1.31-2.39-5.79-2.22-7.42-2.07,0,7.42-.21,14.64-1.15,19.11-2.6,12.46,8.66,18.16,10.44,27.42s-12.11,15.66-37.05,11.39c-19.31-3.31-24.93-22.6-26.49-31.15-.36,1-1.26,1.94-3.21,2.4-5.61,1.34-.8,15.75,4,26.43,3.54,7.87,26.92,12.83,45,11.06L209,392Z"/><path class="cls-3" d="M171,189.91c-.18,1-.34,2.06-.49,3.09l.82.19A27.16,27.16,0,0,1,171,189.91Z"/><path class="cls-3" d="M196.77,218.49a41.61,41.61,0,0,0,20.65,5.3,21.75,21.75,0,0,0,9.15-1.95,11,11,0,0,0,4.4-16.15l-.11-.16c-3.77-5.4-20.55-7.33-25.55-5.62s-15.3,9-15.3,9Z"/><path class="cls-3" d="M308.52,214.48a41.61,41.61,0,0,1-20.65,5.3,21.75,21.75,0,0,1-9.15-1.95,11,11,0,0,1-4.4-16.15,1.63,1.63,0,0,0,.11-.17c3.77-5.39,20.55-7.33,25.55-5.61s15.3,9,15.3,9Z"/><path d="M273.18,311.34a30.48,30.48,0,0,1-20.79,4.89c3.77,1.37,6.95,2.24,8.92,2.21,9.14-.15,25.37-14.17,25.37-14.17l7.26-3.18c-.27-1.69-.43-2.75-.43-2.75,26.36-18.64,38.08-60.28,38.08-60.28,3.94-19.59,3.72-34.27,2.63-43.77C337.07,258.59,297.43,295.13,273.18,311.34Z"/><path d="M169.79,202.44l-.24.37a104.4,104.4,0,0,0,4,35.46c.17,0,.33.08.5.1l-.15,1.08c11.86,38.9,43,59.95,43,59.95s7.15,3.88,15.84,8.14c-37.91-23.76-52.6-52.18-58.19-72.46a97.13,97.13,0,0,1-2.74-40.1,17.45,17.45,0,0,1-.39-1.79l-.82-.19c-.46,3.17-.77,6.27-1,9.31Z"/><path d="M169.58,202.31l0,.5.24-.37Z"/><path d="M173.54,238.27c.12.4.23.79.35,1.18l.15-1.08C173.87,238.35,173.71,238.3,173.54,238.27Z"/><path d="M290.51,168c-.79,0-1.56.06-2.29.12l.21,6.81c1.35-.17,2.68-.29,4-.37A37.76,37.76,0,0,1,290.51,168Z"/><path d="M313.63,207.29v-2.35l-.9,1.69.91.66Z"/><path d="M288.5,195.34a10.8,10.8,0,0,1,7.24,2.8,29,29,0,0,1,9.09,3.22,73.68,73.68,0,0,1,7.89,5.27l.9-1.69v2.35h0l-.91-.66-4.19,7.84,8.07-7.19.91-.81-.91-1.54h0l-.18-.35-.31.09a7.21,7.21,0,0,1-4-.09l.68-3.73a8.22,8.22,0,0,1,1.31,0,24.61,24.61,0,0,0-2.89-3.16,15.07,15.07,0,0,1-2.25.83,7.57,7.57,0,0,1-3.81,0l.43-2.81c1-.06,1.92,0,2.91-.05l.22,0-.27-.19a24.09,24.09,0,0,0-4.76-2.46c-.19.23-.38.46-.59.68a12.92,12.92,0,0,1-2.87,2.35,7.69,7.69,0,0,1-3.65,1.09l-.37-2.82c.93-.34,1.85-.51,2.78-.87a13.08,13.08,0,0,0,2.43-1.15,25.32,25.32,0,0,0-5.31-.78,26.74,26.74,0,0,0-12.29,2.66,28.55,28.55,0,0,0-5.2,3.17,23.55,23.55,0,0,0-4.3,4.16c1.87-.73,3.72-1.35,5.55-1.88A10.85,10.85,0,0,1,288.5,195.34Z"/><path d="M303.72,193a15.76,15.76,0,0,0,1.49-2.2,13.93,13.93,0,0,0,1.36-3.19,24.47,24.47,0,0,1-2.27,2.48,19.73,19.73,0,0,1-2.54,2l-.31.19,1.15.31C303,192.7,303.35,192.85,303.72,193Z"/><path d="M296.24,194.29l.37,2.82a7.69,7.69,0,0,0,3.65-1.09,12.92,12.92,0,0,0,2.87-2.35c.21-.22.4-.45.59-.68-.37-.14-.74-.29-1.12-.41l-1.15-.31a13.08,13.08,0,0,1-2.43,1.15C298.09,193.78,297.17,194,296.24,194.29Z"/><path d="M312.41,197.05a16,16,0,0,0,2.81-2.19,14.41,14.41,0,0,0,2.19-2.69,23.19,23.19,0,0,1-2.87,1.75,18.64,18.64,0,0,1-3,1.21,12.53,12.53,0,0,1-2.79.51,27.33,27.33,0,0,1,2.5,2A11.68,11.68,0,0,0,312.41,197.05Z"/><path d="M305.62,195.71l-.43,2.81a7.57,7.57,0,0,0,3.81,0,15.07,15.07,0,0,0,2.25-.83,27.33,27.33,0,0,0-2.5-2l-.22,0C307.54,195.74,306.61,195.65,305.62,195.71Z"/><path d="M319.63,203.17a15.54,15.54,0,0,0,2.85-2.27,14,14,0,0,0,2.15-2.79,22.42,22.42,0,0,1-3,1.5,19.32,19.32,0,0,1-3.06,1,12.1,12.1,0,0,1-3,.29c-.5,0-1,0-1.45,0a20.86,20.86,0,0,1,2.28,3.75A13.09,13.09,0,0,0,319.63,203.17Z"/><path d="M312.83,200.85l-.68,3.73a7.21,7.21,0,0,0,4,.09l.31-.09a20.86,20.86,0,0,0-2.28-3.75A8.22,8.22,0,0,0,312.83,200.85Z"/><path d="M285.23,198.36q-2.64.48-5.33,1.24a10.84,10.84,0,1,0,15.84-1.46l-.16,0A32.3,32.3,0,0,0,285.23,198.36Zm3.27,14.87a7,7,0,1,1,7.05-7A7.05,7.05,0,0,1,288.5,213.23Z"/><path d="M279.9,199.6q2.69-.76,5.33-1.24a32.3,32.3,0,0,1,10.35-.25l.16,0a10.79,10.79,0,0,0-15.84,1.46Z"/><path d="M183.37,187.52a15.74,15.74,0,0,1-2.06-3L176.74,192Z"/><path d="M209.1,198.33l-.37,2.83a7.69,7.69,0,0,1-3.65-1.09,13.15,13.15,0,0,1-2.87-2.35c-.2-.22-.4-.45-.59-.68a24.6,24.6,0,0,0-4.76,2.45l-.26.2.21,0c1,.08,1.92,0,2.91,0l.43,2.81a7.68,7.68,0,0,1-3.81,0,15.49,15.49,0,0,1-2.25-.83,24,24,0,0,0-2.89,3.16,8.22,8.22,0,0,1,1.31,0l.68,3.73a7.17,7.17,0,0,1-3.95.09l-.32-.09-.18.35h0l-.91,1.54.91.81,8.07,7.19-4.19-7.84-.91.66h0V209l.9,1.69a74.69,74.69,0,0,1,7.89-5.27,29,29,0,0,1,9.09-3.22,10.79,10.79,0,0,1,15.84,1.46c1.84.53,3.69,1.15,5.55,1.88a23.55,23.55,0,0,0-4.3-4.16,28.47,28.47,0,0,0-5.19-3.17,26.94,26.94,0,0,0-12.3-2.67,25.14,25.14,0,0,0-5.3.79,12.79,12.79,0,0,0,2.43,1.15C207.25,197.83,208.18,198,209.1,198.33Z"/><path d="M191.71,211.34h0l.91-.66-.9-1.69Z"/><path d="M201.62,197c.37-.14.74-.29,1.12-.41l1.16-.31-.32-.2a18.81,18.81,0,0,1-2.54-2c-.55-.54-1.09-1.11-1.61-1.71H199a14.24,14.24,0,0,0,1.11,2.42A15.76,15.76,0,0,0,201.62,197Z"/><path d="M201.62,197c.19.23.39.46.59.68a13.15,13.15,0,0,0,2.87,2.35,7.69,7.69,0,0,0,3.65,1.09l.37-2.83c-.92-.33-1.85-.5-2.77-.86a12.79,12.79,0,0,1-2.43-1.15l-1.16.31C202.36,196.75,202,196.9,201.62,197Z"/><path d="M193.8,199.18a19,19,0,0,1-3-1.21,24.47,24.47,0,0,1-2.87-1.75,14.35,14.35,0,0,0,2.19,2.68,16.07,16.07,0,0,0,2.81,2.2,11.68,11.68,0,0,0,1.16.62,26.17,26.17,0,0,1,2.51-2A12.62,12.62,0,0,1,193.8,199.18Z"/><path d="M200.15,202.57l-.43-2.81c-1-.06-1.92,0-2.91,0l-.21,0a26.17,26.17,0,0,0-2.51,2,15.49,15.49,0,0,0,2.25.83A7.68,7.68,0,0,0,200.15,202.57Z"/><path d="M189.75,204.91a12.12,12.12,0,0,1-2.95-.28,18.89,18.89,0,0,1-3.05-1,22.52,22.52,0,0,1-3-1.5,13.73,13.73,0,0,0,2.16,2.79,15.14,15.14,0,0,0,2.84,2.27,13.25,13.25,0,0,0,3.21,1.41,21.45,21.45,0,0,1,2.28-3.75C190.73,204.89,190.25,204.93,189.75,204.91Z"/><path d="M193.19,208.63l-.68-3.73a8.22,8.22,0,0,0-1.31,0,21.45,21.45,0,0,0-2.28,3.75l.32.09A7.17,7.17,0,0,0,193.19,208.63Z"/><path d="M209.76,202.16l-.16,0a10.84,10.84,0,1,0,15.84,1.46c-1.79-.51-3.56-.92-5.33-1.24A32.29,32.29,0,0,0,209.76,202.16Zm14.13,8.07a7.05,7.05,0,1,1-7-7A7.05,7.05,0,0,1,223.89,210.23Z"/><path d="M216.84,199.39a10.8,10.8,0,0,0-7.24,2.8l.16,0a32.29,32.29,0,0,1,10.35.25c1.77.32,3.54.73,5.33,1.24A10.85,10.85,0,0,0,216.84,199.39Z"/><path d="M245.7,249.45A8,8,0,0,0,248,252a8.37,8.37,0,0,0,3.35,1.38,10,10,0,0,0,3.45-.1A9.34,9.34,0,0,0,258,252a10,10,0,0,0,2.5-2.29,11.08,11.08,0,0,0,1.53-2.82,10.22,10.22,0,0,0,.62-3.07,1.38,1.38,0,0,0-.71-1.29,1.4,1.4,0,0,0-1.91.54l-.12.22a20.65,20.65,0,0,1-1.2,2,11.05,11.05,0,0,1-1.42,1.66,8.4,8.4,0,0,1-1.61,1.13,6.89,6.89,0,0,1-1.8.58,7.21,7.21,0,0,1-1.89.12,5.18,5.18,0,0,1-1.65-.45,5.58,5.58,0,0,1-1.54-1.12,12.41,12.41,0,0,1-1.36-1.65l-.22-.29a1.43,1.43,0,0,0-2.57,1A8.4,8.4,0,0,0,245.7,249.45Z"/><path d="M240.37,278.61a12.79,12.79,0,0,0,3.55,0,13.69,13.69,0,0,0,3.4-.92l.81-.34.3-.12.21-.06a2.15,2.15,0,0,1,.87-.06,2.07,2.07,0,0,1,.81.29.81.81,0,0,1,.18.12l.28.2a8.78,8.78,0,0,0,.77.54,9.25,9.25,0,0,0,3.64,1.36,9,9,0,0,0,4-.33c.31-.11.62-.22.91-.35l.81-.39a9.69,9.69,0,0,1,1.24-.54,9.84,9.84,0,0,1,2.6-.59,20.11,20.11,0,0,1,2.93,0,20,20,0,0,0,3.42-.1,9.18,9.18,0,0,0,3.52-1.18c1-.58,1.84-1.17,2.73-1.8a40.92,40.92,0,0,0,4.95-4.17.5.5,0,0,0,.08-.59.51.51,0,0,0-.68-.2h0c-1.83,1-3.67,2-5.54,2.94-.93.47-1.87.93-2.8,1.32a7,7,0,0,1-2.53.54c-1.76,0-3.9-.43-6.32-.34a12.63,12.63,0,0,0-3.58.7,13.77,13.77,0,0,0-1.68.69l-.62.28c-.19.08-.39.13-.58.21a5.45,5.45,0,0,1-4.56-.56l-.55-.34-.37-.25a5,5,0,0,0-.5-.29,5.65,5.65,0,0,0-2.21-.61,5.54,5.54,0,0,0-2.25.31l-.52.23-.42.22-.63.33a11.3,11.3,0,0,1-5.38,1.35,10.88,10.88,0,0,1-5.5-1.54l-.07,0a.61.61,0,0,0-.75,1A10.83,10.83,0,0,0,240.37,278.61Z"/><path d="M264.57,287.53a23.13,23.13,0,0,0-5.64-.09,21.73,21.73,0,0,0-5.5,1.31,13.64,13.64,0,0,0-4.81,2.92,47.76,47.76,0,0,1,5.27-1.32c1.75-.33,3.5-.58,5.26-.77s3.54-.28,5.33-.35c.45,0,.9,0,1.35,0l1.37-.06c.91,0,1.83,0,2.78-.13a19.75,19.75,0,0,0-5.41-1.47Z"/><path class="cls-6" d="M166,205.71c-3.67-2-6.6-1.08-9.39,2.87-2.3,3.26-2.19,8.39.29,14.1,2.86,6.58,8,12.11,13.23,14.5-.11-.36-.22-.73-.32-1.09A107.16,107.16,0,0,1,166,205.71Z"/><path d="M171.36,193.19l.69.16s-.13.6-.3,1.63c.48,1.8,1.3,3.45,2.66,3.77l3.88-34.54c0-.2,0-.3,0-.3l0,.3c-.2,1.91-1.11,12.75,3,20.34v0c7.66-12.45,22.92-14.4,31.69-14.4h.52c3.37,0,13.32.67,14.79,3.16s.35,6.87,0,8.18l-.51,1.87L226,182.8c-24.63-7.14-41.79,4.18-42,4.29l-.63.43a13,13,0,0,0,6.86,4.13,35.25,35.25,0,0,0,8.79.77c-.09-.25-.17-.51-.25-.77.21.27.44.51.66.77,14.44-.45,31.56-6.9,31.56-6.9s-.15-33.72,5.9-43.68c0,0-2.49,44.88,19.22,45.76s32.39-10.34,32.39-10.34l-.07-2.32a62.63,62.63,0,0,0-9.57,2s-1.31-4.84-.2-6.73c.38-.64,4.21-1.69,9.56-2.07l-.78-25.23a8.7,8.7,0,0,1,2.14,6.23,78.51,78.51,0,0,0,.93,18.88c10.38-.33,24.86,2,31.89,13.46,0,0-11.71-8-30-6.9,2.41,6,6.68,10.78,14.17,11,19.68.46,25-4.05,25-4.05a58.17,58.17,0,0,1,2.63,12.82c-.06-1.39-.13-2.79-.24-4.21l3.34-.24a11.52,11.52,0,0,1,6.72-2.41h0c3.14,0,6.17,1.49,9,4.43,5,5.16,5.36,14.7,1,24.33-3.31,7.23-10,15.41-18.5,16.16C328.22,263.56,310.73,286,294.1,301l5-2.19.09,25.81c2.14,2.49-1.08,19.22,2.31,22.43s-6.94,31.18-2.31,38.73S354,393.7,353,381.6s-4.63-23.85,1.78-26.34a12.4,12.4,0,0,1,4.57-.62c6.18-3.56,20-3.66,20-3.66,3.2-8.18-6.05-18.86-6.41-22.78s21.36-10,18.16-26.7-32.4-33.74-24.57-50.33S425.08,58.8,246.08,58.8c0,0-101.3-6.41-122.13,92.11,0,0-2.4,41.92,8.81,64.22,0,0-4.35,24.07-9,30.83s-11.44,59.46,18.46,57.68c0,0-20.29,26.7-5,38.09,10.38,7.72,18.61,8.41,22.84,8,2-.4,3.13-.58,3.13-.58a5.7,5.7,0,0,1,.56,4.1c1.56,8.55,7.18,27.84,26.49,31.15,24.94,4.27,38.83-2.14,37.05-11.39s-13-15-10.44-27.42c.94-4.47,1.2-11.69,1.15-19.11l-.59.07-3.47-7.76,2.52-16.79c-25.88-19.84-38.46-41.67-44.53-59.26-8.68-2-16-10.63-19.33-18.22-3.16-7.26-3.09-14.08.19-18.72,3.67-5.21,8.46-7,13.51-5.21a60.44,60.44,0,0,1,1.14-8.36l3.11.72m22.52,129.4a19.08,19.08,0,0,1,3.14-8.7,27.3,27.3,0,0,1,6-6.59,39.63,39.63,0,0,0-4.35,7.46A19.28,19.28,0,0,0,196,322.5a11.21,11.21,0,0,0,2.59,7,74.74,74.74,0,0,0,5.79,6.22,24.63,24.63,0,0,1,3.17,3.54,12.56,12.56,0,0,1,.67,1.26,8.24,8.24,0,0,1,.4,1.43,9,9,0,0,1,0,2.73,23.46,23.46,0,0,1-1.22,4.55l-1.52,4.05a22.78,22.78,0,0,0-1.24,8.15,17,17,0,0,0,2.27,8.14,14.84,14.84,0,0,1-4.11-7.91,21.4,21.4,0,0,1-.38-4.59c0-.77.1-1.54.19-2.31s.25-1.52.42-2.27l.58-2.23.61-2a23.58,23.58,0,0,0,.82-3.93,5.73,5.73,0,0,0-.06-1.63,4.75,4.75,0,0,0-.21-.67,7.3,7.3,0,0,0-.38-.65,22.58,22.58,0,0,0-2.71-2.92c-1-1-2.09-2.1-3.09-3.22s-1.94-2.26-2.88-3.51A13.5,13.5,0,0,1,193.06,322.4Zm131.88,26.66a17.68,17.68,0,0,1-2.12,6.36c-.92,1.87-1.82,3.64-2.5,5.46a23,23,0,0,0-1.25,5.72,35.19,35.19,0,0,0,.86,12.06,29.51,29.51,0,0,1-2.72-12.14,24.44,24.44,0,0,1,.74-6.38,49,49,0,0,1,2.17-5.92,17.45,17.45,0,0,0,1.5-5.34,5.58,5.58,0,0,0-1.9-4.2,12.16,12.16,0,0,0-1-.9l-1.1-.84-1.32-1-.67-.54c-.21-.19-.41-.4-.61-.61a16.56,16.56,0,0,1-3.78-5.71,22.22,22.22,0,0,1-.64-13.21,27.63,27.63,0,0,1,6-11.45l2-2.27a9.66,9.66,0,0,0,.82-1.16,7.89,7.89,0,0,0,.75-1.21,17.63,17.63,0,0,0,1.94-5.45,27.36,27.36,0,0,0-.52-12A24.25,24.25,0,0,1,324,300.55a18.86,18.86,0,0,1-1.55,6.29,9.24,9.24,0,0,1-.73,1.48,12.08,12.08,0,0,1-.86,1.41l-1.89,2.53a26.51,26.51,0,0,0-4.83,10.39,18.88,18.88,0,0,0,.67,11,12.85,12.85,0,0,0,2.9,4.51c.15.17.3.34.46.5l.53.42,1.08.88a17.7,17.7,0,0,1,2.59,2.27,8.45,8.45,0,0,1,1.12,1.42,7.73,7.73,0,0,1,.88,1.66,7.9,7.9,0,0,1,.52,1.86A11,11,0,0,1,324.94,349.06Zm28.27-45.41a19.09,19.09,0,0,1-4.16,8,18.68,18.68,0,0,1-1.41,1.64c-.48.53-.95,1.08-1.46,1.56l-1.51,1.49-1.36,1.4a19.78,19.78,0,0,0-4.26,6.15,12.21,12.21,0,0,0-.85,7,11.94,11.94,0,0,0,3.24,6.28c.22.21.41.44.64.63l.7.56a7.15,7.15,0,0,0,.73.49l.93.58a7.14,7.14,0,0,1,2.9,4.18,11.41,11.41,0,0,1,.19,4.67,16,16,0,0,1-1.3,4.27,13.56,13.56,0,0,1-5.92,6.49,7,7,0,0,1-1.07.43,7.59,7.59,0,0,0-.81.33,3.66,3.66,0,0,0-1.3,1.08,6.05,6.05,0,0,0-1,3.51,16.45,16.45,0,0,0,.47,4,27.51,27.51,0,0,0,1.2,3.91,20.45,20.45,0,0,1-2.72-7.85,7.05,7.05,0,0,1,.81-4.37,5.25,5.25,0,0,1,1.68-1.7,7.38,7.38,0,0,1,1-.54,7.6,7.6,0,0,0,.8-.42,11.51,11.51,0,0,0,4.51-5.83,11.26,11.26,0,0,0,.56-7.12,4.11,4.11,0,0,0-1.78-2.35l-.32-.18-.51-.29a11.18,11.18,0,0,1-1-.62l-.93-.7c-.31-.23-.57-.51-.86-.77a15.23,15.23,0,0,1-3.48-17.07,23.49,23.49,0,0,1,4.95-7.36l1.52-1.53,1.43-1.38c.5-.45.91-.95,1.37-1.42s.89-1,1.28-1.47a16.31,16.31,0,0,0,3.54-6.38,9.62,9.62,0,0,0-1-6.79,37.5,37.5,0,0,0-4.44-6.45l-.32-.4-.35-.46a10,10,0,0,1-.66-.94,14.29,14.29,0,0,1-1.06-2,17.5,17.5,0,0,1-1.22-4.24,31.46,31.46,0,0,1-.09-8.5A57.56,57.56,0,0,1,345,257.18a70.51,70.51,0,0,0-2.64,16.07,29.87,29.87,0,0,0,.67,7.88,17.06,17.06,0,0,0,1.26,3.58,13.1,13.1,0,0,0,.95,1.57,6.6,6.6,0,0,0,.56.72l.29.34.35.39a35,35,0,0,1,5.15,6.85,14.91,14.91,0,0,1,.95,2.06,12.63,12.63,0,0,1,.67,2.24,6.68,6.68,0,0,1,.16,1.19,9.42,9.42,0,0,1,.08,1.2A12.57,12.57,0,0,1,353.21,303.65Zm18.65-22.13a67.9,67.9,0,0,1,4.76,7.35,41.94,41.94,0,0,1,3.57,8.21,22.15,22.15,0,0,1,.86,4.6,14.36,14.36,0,0,1,0,2.45l-.17,1.2-.27,1.19a17.76,17.76,0,0,1-4.86,8,29.43,29.43,0,0,1-7.28,5.16,34.41,34.41,0,0,1-8.2,3,59.51,59.51,0,0,0,7.22-4.55,34.47,34.47,0,0,0,6.08-5.57,16.68,16.68,0,0,0,3.55-6.83l.17-.91.1-.93a12.62,12.62,0,0,0,0-1.84,19.36,19.36,0,0,0-.77-3.81c-1.57-5.15-4.32-10.13-7.15-15s-6-9.64-9.16-14.49A82,82,0,0,1,371.86,281.52Zm-2-66.39s9.07-97.86-54.74-135.24C315.11,79.89,386.94,97.25,369.85,215.13ZM312.56,100.66a35.1,35.1,0,0,1,3.8,6.77,30.88,30.88,0,0,1,2.12,7.53,19.87,19.87,0,0,1-.42,7.83c-.88-2.5-1.62-4.82-2.48-7.12s-1.77-4.52-2.71-6.77L310,102.12c-1-2.3-1.93-4.61-2.78-7.1A25.58,25.58,0,0,1,312.56,100.66ZM289.28,111c.55,1.54,1.11,3.07,1.68,4.56.1-1.44.16-2.93.25-4.42.07-1.11.13-2.22.24-3.35.06-.57.12-1.14.21-1.73,0-.3.1-.6.17-.92a5.21,5.21,0,0,1,.34-1.13l.1-.19a1.4,1.4,0,0,1,.15-.25,1.75,1.75,0,0,1,.77-.64,1.64,1.64,0,0,1,1.2-.07,2.92,2.92,0,0,1,.56.27,4.24,4.24,0,0,1,.88.9,13.4,13.4,0,0,1,.95,1.57c.52,1,1,2.07,1.41,3.11a53.14,53.14,0,0,1,2.12,6.39c-1.31-1.83-2.5-3.71-3.76-5.51-.57-.85-1.14-1.69-1.74-2.47,0,.28,0,.55,0,.83l0,3.28a63.17,63.17,0,0,1-.26,6.8,14.89,14.89,0,0,1-.34,1.89c-.06.18-.09.34-.18.55l-.11.3c-.05.11-.12.25-.19.37l-.1.18a1.66,1.66,0,0,1-.18.24c-.06.08-.13.15-.2.23l-.11.11-.19.14a2.06,2.06,0,0,1-.4.25l-.23.1a2.88,2.88,0,0,1-.4.09,2.24,2.24,0,0,1-1.29-.22,2.72,2.72,0,0,1-.91-.75,4.25,4.25,0,0,1-.38-.55,8.23,8.23,0,0,1-.48-.92c-.26-.58-.48-1.13-.67-1.68a59.51,59.51,0,0,1-1.77-6.55,85.76,85.76,0,0,1-1.83-13.27C286.36,102.71,287.8,106.9,289.28,111Zm-17.43-2.15a15.66,15.66,0,0,1,1.71-4.61,19.29,19.29,0,0,1,1.26,4.71,32.6,32.6,0,0,1,.35,4.6,42.92,42.92,0,0,1-.23,4.55l-.13,1.14c-.06.38-.11.76-.15,1.13a12.85,12.85,0,0,0-.21,2.38,3.46,3.46,0,0,1-.95-.92,5.36,5.36,0,0,1-.38-.55l-.3-.57a9.7,9.7,0,0,1-.49-1.17c-.14-.39-.27-.8-.37-1.19a19.51,19.51,0,0,1-.58-4.77A22.13,22.13,0,0,1,271.85,108.89Zm-11.29,1.35a13.3,13.3,0,0,1,2.67-4.54,37.58,37.58,0,0,1,.26,5.09c0,1.62-.09,3.19-.15,4.74l-.16,4.63c0,1.55,0,3.1.05,4.94a9.38,9.38,0,0,1-3-4.46,15.33,15.33,0,0,1-.68-5.27A17.83,17.83,0,0,1,260.56,110.24Zm-8.85-1.84a28.39,28.39,0,0,1,.84-5.55,18.68,18.68,0,0,1,2.12,5.27,28.43,28.43,0,0,1,.81,5.49,26.63,26.63,0,0,1-.32,5.56,15.91,15.91,0,0,1-1.89,5.4,38.27,38.27,0,0,1-1.1-5.46c-.24-1.78-.41-3.55-.48-5.33A53.68,53.68,0,0,1,251.71,108.4Zm-5.08,2a20.47,20.47,0,0,1,1.79,5.41,16.65,16.65,0,0,1,.12,5.81,9.23,9.23,0,0,1-2.57,5.29,36.84,36.84,0,0,0-.41-5.36c-.22-1.68-.57-3.36-.87-5.06s-.62-3.42-.89-5.19a40.6,40.6,0,0,1-.5-5.57A15.88,15.88,0,0,1,246.63,110.37Zm-12.47.18a18.48,18.48,0,0,1,1.48-4.85,18.14,18.14,0,0,1,1.49,4.85,28.44,28.44,0,0,1,.41,4.85,29.3,29.3,0,0,1-.4,4.85,18.32,18.32,0,0,1-1.5,4.85,17.93,17.93,0,0,1-1.49-4.85,29.24,29.24,0,0,1,0-9.7ZM158.39,254.37a31.53,31.53,0,0,0,.41,8.07,25.79,25.79,0,0,0,2.48,7.49c.34.56.61,1.15,1,1.69l1.12,1.58a20.51,20.51,0,0,0,2.68,2.75,26.65,26.65,0,0,0,3.1,2.25,32.69,32.69,0,0,1,3.5,2.49,27.61,27.61,0,0,1,3.11,3,26.66,26.66,0,0,1,2.48,3.59,26.08,26.08,0,0,1,3,8.18,32.32,32.32,0,0,1-1.91,17,41.48,41.48,0,0,1-1.78,3.87l-.9,1.77-.81,1.78a23.16,23.16,0,0,0-1.21,3.54,7.28,7.28,0,0,0-.18,3.24c.3,1.88,2.21,3.43,4.45,4.75.54.34,1.13.64,1.71,1a5.42,5.42,0,0,1,2.05,1.95,9.13,9.13,0,0,1,1.13,4.71,51.44,51.44,0,0,1-.9,8.33,79,79,0,0,0-1,8,22.37,22.37,0,0,0,.63,7.83,11.92,11.92,0,0,0,4.53,6.4,13.06,13.06,0,0,1-3.27-2.49,13.24,13.24,0,0,1-2.24-3.55,22.39,22.39,0,0,1-1.51-8.23,77.48,77.48,0,0,1,.44-8.25,55.14,55.14,0,0,0,.41-7.9,6.3,6.3,0,0,0-.85-3.11,2.41,2.41,0,0,0-.89-.79c-.6-.33-1.24-.62-1.86-1a18.06,18.06,0,0,1-3.67-2.54,8.48,8.48,0,0,1-2.62-4.29,10.33,10.33,0,0,1,.12-4.84,26.79,26.79,0,0,1,1.36-4.17l.87-1.94.92-1.88c.57-1.23,1.16-2.32,1.59-3.55a29.17,29.17,0,0,0,1.91-15,22.48,22.48,0,0,0-2.34-7.16,14.1,14.1,0,0,0-1-1.63l-1.07-1.56a25.31,25.31,0,0,0-2.6-2.78,27.16,27.16,0,0,0-3-2.41,25,25,0,0,1-3.33-2.74,20.8,20.8,0,0,1-4.77-7.06,26.05,26.05,0,0,1-1.84-8.15A27.74,27.74,0,0,1,158.39,254.37Zm62.37-139.83a17.34,17.34,0,0,1,1.68-4.8,12.16,12.16,0,0,1,3.24-4,38.23,38.23,0,0,1-.42,5c-.23,1.56-.48,3.09-.77,4.59s-.63,3-1,4.54a44.31,44.31,0,0,1-1.39,4.77,11.82,11.82,0,0,1-1.59-4.94A16.7,16.7,0,0,1,220.76,114.54Zm-7.26-7.4a25.07,25.07,0,0,1,5.06-5.18,62.31,62.31,0,0,1-2.49,6.67c-.92,2.13-1.88,4.21-2.82,6.27s-1.91,4.1-2.77,6.18a62.79,62.79,0,0,0-2.43,6.52,14.51,14.51,0,0,1-.44-7.34,27,27,0,0,1,2.2-6.94A33.22,33.22,0,0,1,213.5,107.14Zm-14.8,7.91a19.56,19.56,0,0,1,1.87-5.18,21.45,21.45,0,0,1,3.13-4.48,15.16,15.16,0,0,1,4.35-3.43,34,34,0,0,1-1.88,5.07c-.71,1.58-1.46,3.1-2.24,4.6s-1.57,3-2.42,4.44-1.67,3-2.74,4.58A12.61,12.61,0,0,1,198.7,115.05Zm-8.9-14.92a3.69,3.69,0,0,1,1.86,0,3.61,3.61,0,0,1,1,.46,3.16,3.16,0,0,1,1.19,1.76,4,4,0,0,1,.16.74c0,.21,0,.44,0,.65v.58a13.2,13.2,0,0,1-.28,2.09,41.67,41.67,0,0,1-2.39,7.28,79.07,79.07,0,0,1-7,13.15c1.33-4.8,2.88-9.47,4.23-14.14a60.57,60.57,0,0,0,1.66-6.91,13.4,13.4,0,0,0,.14-1.57,1.82,1.82,0,0,0,0-.33,5.18,5.18,0,0,0-.65.41,21.47,21.47,0,0,0-2.52,2.23c-.86.83-1.71,1.72-2.64,2.59a18.41,18.41,0,0,1-3.2,2.53,4.71,4.71,0,0,1-2.67.75,3.12,3.12,0,0,1-1.71-.66,3.22,3.22,0,0,1-1-1.35,4.63,4.63,0,0,1-.17-2.59,10,10,0,0,1,.62-2,24.1,24.1,0,0,1,1.84-3.41,35.2,35.2,0,0,1,4.71-5.8c-1.06,2.17-2.19,4.42-3.07,6.66a23.06,23.06,0,0,0-1.13,3.34,9.28,9.28,0,0,0-.25,1.57,1.9,1.9,0,0,0,.17,1c.05.07.09.09.12.08s0,0,0,0,.05,0,.08,0a1.59,1.59,0,0,1,.18-.08,3.91,3.91,0,0,0,.52-.31,19.51,19.51,0,0,0,2.42-2.24l2.51-2.69a24.81,24.81,0,0,1,3-2.69A6.75,6.75,0,0,1,189.8,100.13ZM133.27,279.24c.06.64.17,1.27.27,1.91s.19,1.28.32,1.91l.37,1.91.47,1.88a52.61,52.61,0,0,0,2.6,7.44,30,30,0,0,1-4.35-6.81,39.46,39.46,0,0,1-2.59-7.73,47.89,47.89,0,0,1-1.18-8.07,62.87,62.87,0,0,1,0-8.12,80.44,80.44,0,0,1,2.55-15.92,71.19,71.19,0,0,1,5.61-15c-1,5.26-1.93,10.44-2.72,15.62s-1.38,10.36-1.65,15.54A89.75,89.75,0,0,0,133.27,279.24Zm0-93.72C120,105.85,186.78,79.89,186.78,79.89,128.66,114.6,133.3,185.52,133.3,185.52Zm25.49,156.34a13.76,13.76,0,0,1-3.27,0,15.76,15.76,0,0,1-6.23-2.28,20.57,20.57,0,0,1-4.93-4.46l-1-1.33c-.16-.22-.33-.43-.49-.67l-.45-.76a13.93,13.93,0,0,1-1.35-3.26,15,15,0,0,1-.48-3.52,16.44,16.44,0,0,1,.4-3.45,20.09,20.09,0,0,1,2.61-6.13,28.21,28.21,0,0,1,9-8.89,56,56,0,0,0-6.39,10.3c-1.6,3.55-2.45,7.33-1.49,10.7a15,15,0,0,0,2.47,4.83,22.88,22.88,0,0,0,3.81,4.22A16,16,0,0,0,161.86,341,10,10,0,0,1,158.79,341.86Z"/><path d="M293.4,105.6l.11.06C293.44,105.6,293.38,105.56,293.4,105.6Z"/><path d="M225.05,178.62a9.76,9.76,0,0,0,.1-3.13c-1.36-.58-6.18-1.56-12.22-1.56a49.11,49.11,0,0,0-11.14,1.22,31.6,31.6,0,0,0-10.53,4.42A58.67,58.67,0,0,1,225.05,178.62Z"/><path d="M178.29,164.21l0-.3S178.32,164,178.29,164.21Z"/><path d="M292.54,119.12l0,0Z"/><path class="cls-6" d="M349.74,214.22c2.93-6.43,4.06-14.81-.06-19.06-1.92-2-3.8-3-5.61-3h0A8,8,0,0,0,339,194.6a140.67,140.67,0,0,1-2.36,32.76C342.11,226,347,220.16,349.74,214.22Z"/><path d="M156.94,222.68c-2.48-5.71-2.59-10.84-.29-14.1,2.79-4,5.72-4.86,9.39-2.87,0-1.86.13-3.56.25-5.07-5-1.79-9.84,0-13.51,5.21-3.28,4.64-3.35,11.46-.19,18.72,3.3,7.59,10.65,16.24,19.33,18.22-.66-1.93-1.24-3.79-1.75-5.61C165,234.79,159.8,229.26,156.94,222.68Z"/><path d="M339,194.6a8,8,0,0,1,5.07-2.43h0c1.81,0,3.69,1,5.61,3,4.12,4.25,3,12.63.06,19.06-2.72,5.94-7.63,11.78-13.12,13.14-.33,1.69-.68,3.35-1.07,5,8.49-.75,15.19-8.93,18.5-16.16,4.4-9.63,4-19.17-1-24.33-2.85-2.94-5.88-4.43-9-4.43h0a11.52,11.52,0,0,0-6.72,2.41l1.39-.1C338.83,191.38,338.91,193,339,194.6Z"/><path d="M169.55,202.81l-2.4,3.56c-.38-.25-.75-.46-1.11-.66a107.16,107.16,0,0,0,3.81,30.38c.1.36.21.73.32,1.09a14.06,14.06,0,0,0,3.37,1.09A104.4,104.4,0,0,1,169.55,202.81Z"/><path d="M172.05,193.35l-.69-.16a17.45,17.45,0,0,0,.39,1.79C171.92,194,172,193.38,172.05,193.35Z"/><path d="M331.59,238.06s-11.72,41.64-38.08,60.28c0,0,.16,1.06.43,2.75l.16-.07c16.63-15,34.12-37.46,41.45-68.67-.41,0-.83.07-1.25.07l-.8,0,.27-4.74a9.48,9.48,0,0,0,2.85-.3A140.67,140.67,0,0,0,339,194.6c-.25.23-.49.46-.7.68L334.85,192a18.11,18.11,0,0,1,2.47-2.17l-3.34.24c.11,1.42.18,2.82.24,4.21C335.31,203.79,335.53,218.47,331.59,238.06Z"/><path d="M170.54,193l-3.11-.72a60.44,60.44,0,0,0-1.14,8.36,15.7,15.7,0,0,1,3.29,1.67C169.77,199.27,170.08,196.17,170.54,193Z"/><path d="M173.89,239.45l-.49,3.62c-.5-.07-1-.17-1.48-.28,6.07,17.59,18.65,39.42,44.53,59.26l.39-2.65S185.75,278.35,173.89,239.45Z"/><path d="M167.15,206.37l2.4-3.56,0-.5a15.7,15.7,0,0,0-3.29-1.67c-.12,1.51-.21,3.21-.25,5.07C166.4,205.91,166.77,206.12,167.15,206.37Z"/><path d="M173.89,239.45c-.12-.39-.23-.78-.35-1.18a14.06,14.06,0,0,1-3.37-1.09c.51,1.82,1.09,3.68,1.75,5.61.49.11,1,.21,1.48.28Z"/><path d="M338.28,195.28c.21-.22.45-.45.7-.68-.07-1.61-.15-3.22-.27-4.86l-1.39.1a18.11,18.11,0,0,0-2.47,2.17Z"/><path d="M333.77,227.66l-.27,4.74.8,0c.42,0,.84,0,1.25-.07.39-1.64.74-3.3,1.07-5A9.48,9.48,0,0,1,333.77,227.66Z"/><path d="M322.4,181.47c-7-11.45-21.51-13.79-31.89-13.46a37.76,37.76,0,0,0,1.89,6.56C310.69,173.5,322.4,181.47,322.4,181.47Z"/><path d="M278.66,170.2c-1.11,1.89.2,6.73.2,6.73a62.63,62.63,0,0,1,9.57-2l-.21-6.81C282.87,168.51,279,169.56,278.66,170.2Z"/><path d="M184,187.09c.17-.11,17.33-11.43,42-4.29l1.85.54.51-1.87c.35-1.31,1.41-5.79,0-8.18s-11.42-3.13-14.79-3.16H213c-8.77,0-24,2-31.69,14.4v0a15.74,15.74,0,0,0,2.06,3Zm17.79-11.94a49.11,49.11,0,0,1,11.14-1.22c6,0,10.86,1,12.22,1.56a9.76,9.76,0,0,1-.1,3.13,58.67,58.67,0,0,0-33.79.95A31.6,31.6,0,0,1,201.79,175.15Z"/><path d="M198.77,191.65c.08.26.16.52.25.77h.41C199.21,192.16,199,191.92,198.77,191.65Z"/><path class="cls-3" d="M186.78,79.89s-66.83,26-53.48,105.63C133.3,185.52,128.66,114.6,186.78,79.89Z"/><path class="cls-3" d="M369.85,215.13C386.94,97.25,315.11,79.89,315.11,79.89,378.92,117.27,369.85,215.13,369.85,215.13Z"/><path class="cls-3" d="M190.59,103.78a.45.45,0,0,1-.13-.06c-.11,0-.19-.23-.21-.21-.05-.13,0,.1.07.42a1.64,1.64,0,0,1,.3-.12C190.71,103.78,190.66,103.82,190.59,103.78Z"/><path class="cls-3" d="M184.49,103.93,182,106.62a19.51,19.51,0,0,1-2.42,2.24,3.91,3.91,0,0,1-.52.31,1.59,1.59,0,0,0-.18.08s-.08,0-.08,0,0,0,0,0-.07,0-.12-.08a1.9,1.9,0,0,1-.17-1,9.28,9.28,0,0,1,.25-1.57,23.06,23.06,0,0,1,1.13-3.34c.88-2.24,2-4.49,3.07-6.66a35.2,35.2,0,0,0-4.71,5.8,24.1,24.1,0,0,0-1.84,3.41,10,10,0,0,0-.62,2,4.63,4.63,0,0,0,.17,2.59,3.22,3.22,0,0,0,1,1.35,3.12,3.12,0,0,0,1.71.66,4.71,4.71,0,0,0,2.67-.75,18.41,18.41,0,0,0,3.2-2.53c.93-.87,1.78-1.76,2.64-2.59a21.47,21.47,0,0,1,2.52-2.23,5.18,5.18,0,0,1,.65-.41c0-.32-.12-.55-.07-.42,0,0,.1.18.21.21a.45.45,0,0,0,.13.06c.07,0,.12,0,0,0a1.64,1.64,0,0,0-.3.12,1.82,1.82,0,0,1,0,.33,13.4,13.4,0,0,1-.14,1.57,60.57,60.57,0,0,1-1.66,6.91c-1.35,4.67-2.9,9.34-4.23,14.14a79.07,79.07,0,0,0,7-13.15,41.67,41.67,0,0,0,2.39-7.28,13.2,13.2,0,0,0,.28-2.09v-.58c0-.21,0-.44,0-.65a4,4,0,0,0-.16-.74,3.16,3.16,0,0,0-1.19-1.76,3.61,3.61,0,0,0-1-.46,3.69,3.69,0,0,0-1.86,0,6.75,6.75,0,0,0-2.33,1.11A24.81,24.81,0,0,0,184.49,103.93Z"/><path class="cls-3" d="M201.51,116.07c.85-1.48,1.63-2.95,2.42-4.44s1.53-3,2.24-4.6a34,34,0,0,0,1.88-5.07,15.16,15.16,0,0,0-4.35,3.43,21.45,21.45,0,0,0-3.13,4.48,19.56,19.56,0,0,0-1.87,5.18,12.61,12.61,0,0,0,.07,5.6C199.84,119,200.66,117.55,201.51,116.07Z"/><path class="cls-3" d="M208.05,127.6a62.79,62.79,0,0,1,2.43-6.52c.86-2.08,1.84-4.11,2.77-6.18s1.9-4.14,2.82-6.27a62.31,62.31,0,0,0,2.49-6.67,25.07,25.07,0,0,0-5.06,5.18,33.22,33.22,0,0,0-3.69,6.18,27,27,0,0,0-2.2,6.94A14.51,14.51,0,0,0,208.05,127.6Z"/><path class="cls-3" d="M222.12,124.57a44.31,44.31,0,0,0,1.39-4.77c.35-1.53.67-3,1-4.54s.54-3,.77-4.59a38.23,38.23,0,0,0,.42-5,12.16,12.16,0,0,0-3.24,4,17.34,17.34,0,0,0-1.68,4.8,16.7,16.7,0,0,0-.23,5.09A11.82,11.82,0,0,0,222.12,124.57Z"/><path class="cls-3" d="M235.64,125.1a18.32,18.32,0,0,0,1.5-4.85,29.3,29.3,0,0,0,.4-4.85,28.44,28.44,0,0,0-.41-4.85,18.14,18.14,0,0,0-1.49-4.85,18.48,18.48,0,0,0-1.48,4.85,29.24,29.24,0,0,0,0,9.7A17.93,17.93,0,0,0,235.64,125.1Z"/><path class="cls-3" d="M244.69,116.46c.3,1.7.65,3.38.87,5.06a36.84,36.84,0,0,1,.41,5.36,9.23,9.23,0,0,0,2.57-5.29,16.65,16.65,0,0,0-.12-5.81,20.47,20.47,0,0,0-1.79-5.41,15.88,15.88,0,0,0-3.33-4.67,40.6,40.6,0,0,0,.5,5.57C244.07,113,244.39,114.77,244.69,116.46Z"/><path class="cls-3" d="M252.17,119.11a38.27,38.27,0,0,0,1.1,5.46,15.91,15.91,0,0,0,1.89-5.4,26.63,26.63,0,0,0,.32-5.56,28.43,28.43,0,0,0-.81-5.49,18.68,18.68,0,0,0-2.12-5.27,28.39,28.39,0,0,0-.84,5.55,53.68,53.68,0,0,0,0,5.38C251.76,115.56,251.93,117.33,252.17,119.11Z"/><path class="cls-3" d="M272.33,119.58a9.7,9.7,0,0,0,.49,1.17l.3.57a5.36,5.36,0,0,0,.38.55,3.46,3.46,0,0,0,.95.92,12.85,12.85,0,0,1,.21-2.38c0-.37.09-.75.15-1.13l.13-1.14a42.92,42.92,0,0,0,.23-4.55,32.6,32.6,0,0,0-.35-4.6,19.29,19.29,0,0,0-1.26-4.71,15.66,15.66,0,0,0-1.71,4.61,22.13,22.13,0,0,0-.47,4.73,19.51,19.51,0,0,0,.58,4.77C272.06,118.78,272.19,119.19,272.33,119.58Z"/><path class="cls-3" d="M263.23,125.1c0-1.84-.07-3.39-.05-4.94l.16-4.63c.06-1.55.13-3.12.15-4.74a37.58,37.58,0,0,0-.26-5.09,13.3,13.3,0,0,0-2.67,4.54,17.83,17.83,0,0,0-1,5.13,15.33,15.33,0,0,0,.68,5.27A9.38,9.38,0,0,0,263.23,125.1Z"/><path class="cls-3" d="M288.19,118.4c.19.55.41,1.1.67,1.68a8.23,8.23,0,0,0,.48.92,4.25,4.25,0,0,0,.38.55,2.72,2.72,0,0,0,.91.75,2.24,2.24,0,0,0,1.29.22,2.88,2.88,0,0,0,.4-.09l.23-.1a2.06,2.06,0,0,0,.4-.25l.19-.14.11-.11c.07-.08.14-.15.2-.23a1.66,1.66,0,0,0,.18-.24l.1-.18c.07-.12.14-.26.19-.37l.11-.3c.09-.21.12-.37.18-.55a14.89,14.89,0,0,0,.34-1.89,63.17,63.17,0,0,0,.26-6.8l0-3.28c0-.28,0-.55,0-.83l-.14-.19a14.46,14.46,0,0,0-1-1.13,1.71,1.71,0,0,0-.2-.18l-.11-.06s0,0,.11.06l.08,0a1.1,1.1,0,0,0,.79,0c.42-.24.38-.26.48-.37s.05-.08.05-.07h0s0,.26-.05.48,0,.47-.05.72,0,.5,0,.75c.6.78,1.17,1.62,1.74,2.47,1.26,1.8,2.45,3.68,3.76,5.51a53.14,53.14,0,0,0-2.12-6.39c-.43-1-.89-2.07-1.41-3.11a13.4,13.4,0,0,0-.95-1.57,4.24,4.24,0,0,0-.88-.9,2.92,2.92,0,0,0-.56-.27,1.64,1.64,0,0,0-1.2.07,1.75,1.75,0,0,0-.77.64,1.4,1.4,0,0,0-.15.25l-.1.19a5.21,5.21,0,0,0-.34,1.13c-.07.32-.13.62-.17.92-.09.59-.15,1.16-.21,1.73-.11,1.13-.17,2.24-.24,3.35-.09,1.49-.15,3-.25,4.42.2.51.38,1,.59,1.52s.41.95.62,1.37c.11.21.22.4.31.54l.06.09,0,0h0s0,0,0,0l0,0a1.06,1.06,0,0,0-.25-.17,1.56,1.56,0,0,0-.89-.14,1.46,1.46,0,0,0-.3.07l-.14.05a1,1,0,0,0-.23.13l-.1.09,0,0-.07.07a.23.23,0,0,0,0,.07h0l0-.09a1,1,0,0,0,.07-.24,11.13,11.13,0,0,0,.23-1.37c.07-.66.12-1.34.17-2-.57-1.49-1.13-3-1.68-4.56-1.48-4.14-2.92-8.33-4.69-12.46a85.76,85.76,0,0,0,1.83,13.27A59.51,59.51,0,0,0,288.19,118.4Z"/><path class="cls-3" d="M292.58,119.16h0S292.58,119.17,292.58,119.16Z"/><path class="cls-3" d="M290.56,119a1,1,0,0,1-.07.24l0,.09h0a.23.23,0,0,1,0-.07l.07-.07,0,0,.1-.09a1,1,0,0,1,.23-.13l.14-.05a1.46,1.46,0,0,1,.3-.07,1.56,1.56,0,0,1,.89.14,1.06,1.06,0,0,1,.25.17l-.06-.09c-.09-.14-.2-.33-.31-.54-.21-.42-.42-.89-.62-1.37s-.39-1-.59-1.52c0,.69-.1,1.37-.17,2A11.13,11.13,0,0,1,290.56,119Z"/><path class="cls-3" d="M294.87,105.69c0-.22.06-.46.05-.48h0s0,0-.05.07-.06.13-.48.37a1.1,1.1,0,0,1-.79,0l-.08,0a1.71,1.71,0,0,1,.2.18,14.46,14.46,0,0,1,1,1.13l.14.19c0-.25,0-.5,0-.75S294.85,105.91,294.87,105.69Z"/><path class="cls-3" d="M312.87,108.9c.94,2.25,1.83,4.49,2.71,6.77s1.6,4.62,2.48,7.12a19.87,19.87,0,0,0,.42-7.83,30.88,30.88,0,0,0-2.12-7.53,35.1,35.1,0,0,0-3.8-6.77A25.58,25.58,0,0,0,307.2,95c.85,2.49,1.81,4.8,2.78,7.1Z"/><path class="cls-3" d="M134.58,248.23c.79-5.18,1.72-10.36,2.72-15.62a71.19,71.19,0,0,0-5.61,15,80.44,80.44,0,0,0-2.55,15.92,62.87,62.87,0,0,0,0,8.12,47.89,47.89,0,0,0,1.18,8.07,39.46,39.46,0,0,0,2.59,7.73,30,30,0,0,0,4.35,6.81,52.61,52.61,0,0,1-2.6-7.44l-.47-1.88-.37-1.91c-.13-.63-.22-1.27-.32-1.91s-.21-1.27-.27-1.91a89.75,89.75,0,0,1-.34-15.47C133.2,258.59,133.84,253.42,134.58,248.23Z"/><path class="cls-3" d="M159.6,270.71a20.8,20.8,0,0,0,4.77,7.06,25,25,0,0,0,3.33,2.74,27.16,27.16,0,0,1,3,2.41,25.31,25.31,0,0,1,2.6,2.78l1.07,1.56a14.1,14.1,0,0,1,1,1.63,22.48,22.48,0,0,1,2.34,7.16,29.17,29.17,0,0,1-1.91,15c-.43,1.23-1,2.32-1.59,3.55l-.92,1.88-.87,1.94A26.79,26.79,0,0,0,171,322.6a10.33,10.33,0,0,0-.12,4.84,8.48,8.48,0,0,0,2.62,4.29,18.06,18.06,0,0,0,3.67,2.54c.62.37,1.26.66,1.86,1a2.41,2.41,0,0,1,.89.79,6.3,6.3,0,0,1,.85,3.11,55.14,55.14,0,0,1-.41,7.9,77.48,77.48,0,0,0-.44,8.25,22.39,22.39,0,0,0,1.51,8.23,13.24,13.24,0,0,0,2.24,3.55,13.06,13.06,0,0,0,3.27,2.49,11.92,11.92,0,0,1-4.53-6.4,22.37,22.37,0,0,1-.63-7.83,79,79,0,0,1,1-8,51.44,51.44,0,0,0,.9-8.33,9.13,9.13,0,0,0-1.13-4.71,5.42,5.42,0,0,0-2.05-1.95c-.58-.34-1.17-.64-1.71-1-2.24-1.32-4.15-2.87-4.45-4.75a7.28,7.28,0,0,1,.18-3.24,23.16,23.16,0,0,1,1.21-3.54l.81-1.78.9-1.77a41.48,41.48,0,0,0,1.78-3.87,32.32,32.32,0,0,0,1.91-17,26.08,26.08,0,0,0-3-8.18,26.66,26.66,0,0,0-2.48-3.59,27.61,27.61,0,0,0-3.11-3,32.69,32.69,0,0,0-3.5-2.49,26.65,26.65,0,0,1-3.1-2.25,20.51,20.51,0,0,1-2.68-2.75l-1.12-1.58c-.36-.54-.63-1.13-1-1.69a25.79,25.79,0,0,1-2.48-7.49,31.53,31.53,0,0,1-.41-8.07,27.74,27.74,0,0,0-.63,8.19A26.05,26.05,0,0,0,159.6,270.71Z"/><path class="cls-3" d="M198.63,335.2c1,1.12,2.06,2.19,3.09,3.22a22.58,22.58,0,0,1,2.71,2.92,7.3,7.3,0,0,1,.38.65,4.75,4.75,0,0,1,.21.67,5.73,5.73,0,0,1,.06,1.63,23.58,23.58,0,0,1-.82,3.93l-.61,2-.58,2.23c-.17.75-.28,1.52-.42,2.27s-.16,1.54-.19,2.31a21.4,21.4,0,0,0,.38,4.59,14.84,14.84,0,0,0,4.11,7.91,17,17,0,0,1-2.27-8.14,22.78,22.78,0,0,1,1.24-8.15l1.52-4.05a23.46,23.46,0,0,0,1.22-4.55,9,9,0,0,0,0-2.73,8.24,8.24,0,0,0-.4-1.43,12.56,12.56,0,0,0-.67-1.26,24.63,24.63,0,0,0-3.17-3.54,74.74,74.74,0,0,1-5.79-6.22,11.21,11.21,0,0,1-2.59-7,19.28,19.28,0,0,1,1.82-7.93,39.63,39.63,0,0,1,4.35-7.46,27.3,27.3,0,0,0-6,6.59,19.08,19.08,0,0,0-3.14,8.7,13.5,13.5,0,0,0,2.69,9.29C196.69,332.94,197.62,334.06,198.63,335.2Z"/><path class="cls-3" d="M147.22,332.94a15,15,0,0,1-2.47-4.83c-1-3.37-.11-7.15,1.49-10.7a56,56,0,0,1,6.39-10.3,28.21,28.21,0,0,0-9,8.89,20.09,20.09,0,0,0-2.61,6.13,16.44,16.44,0,0,0-.4,3.45,15,15,0,0,0,.48,3.52,13.93,13.93,0,0,0,1.35,3.26l.45.76c.16.24.33.45.49.67l1,1.33a20.57,20.57,0,0,0,4.93,4.46,15.76,15.76,0,0,0,6.23,2.28,13.76,13.76,0,0,0,3.27,0,10,10,0,0,0,3.07-.84A16,16,0,0,1,151,337.16,22.88,22.88,0,0,1,147.22,332.94Z"/><path class="cls-3" d="M324.34,345.3a7.73,7.73,0,0,0-.88-1.66,8.45,8.45,0,0,0-1.12-1.42,17.7,17.7,0,0,0-2.59-2.27l-1.08-.88-.53-.42c-.16-.16-.31-.33-.46-.5a12.85,12.85,0,0,1-2.9-4.51,18.88,18.88,0,0,1-.67-11,26.51,26.51,0,0,1,4.83-10.39l1.89-2.53a12.08,12.08,0,0,0,.86-1.41,9.24,9.24,0,0,0,.73-1.48,18.86,18.86,0,0,0,1.55-6.29,24.25,24.25,0,0,0-2.35-12.23,27.36,27.36,0,0,1,.52,12,17.63,17.63,0,0,1-1.94,5.45,7.89,7.89,0,0,1-.75,1.21,9.66,9.66,0,0,1-.82,1.16l-2,2.27a27.63,27.63,0,0,0-6,11.45,22.22,22.22,0,0,0,.64,13.21,16.56,16.56,0,0,0,3.78,5.71c.2.21.4.42.61.61l.67.54,1.32,1,1.1.84a12.16,12.16,0,0,1,1,.9,5.58,5.58,0,0,1,1.9,4.2,17.45,17.45,0,0,1-1.5,5.34,49,49,0,0,0-2.17,5.92,24.44,24.44,0,0,0-.74,6.38,29.51,29.51,0,0,0,2.72,12.14,35.19,35.19,0,0,1-.86-12.06,23,23,0,0,1,1.25-5.72c.68-1.82,1.58-3.59,2.5-5.46a17.68,17.68,0,0,0,2.12-6.36,11,11,0,0,0-.08-1.9A7.9,7.9,0,0,0,324.34,345.3Z"/><path class="cls-3" d="M353.23,298.88a12.63,12.63,0,0,0-.67-2.24,14.91,14.91,0,0,0-.95-2.06,35,35,0,0,0-5.15-6.85l-.35-.39-.29-.34a6.6,6.6,0,0,1-.56-.72,13.1,13.1,0,0,1-.95-1.57,17.06,17.06,0,0,1-1.26-3.58,29.87,29.87,0,0,1-.67-7.88A70.51,70.51,0,0,1,345,257.18a57.56,57.56,0,0,0-4.49,15.93,31.46,31.46,0,0,0,.09,8.5,17.5,17.5,0,0,0,1.22,4.24,14.29,14.29,0,0,0,1.06,2,10,10,0,0,0,.66.94l.35.46.32.4a37.5,37.5,0,0,1,4.44,6.45,9.62,9.62,0,0,1,1,6.79,16.31,16.31,0,0,1-3.54,6.38c-.39.51-.83,1-1.28,1.47s-.87,1-1.37,1.42l-1.43,1.38-1.52,1.53a23.49,23.49,0,0,0-4.95,7.36,15.23,15.23,0,0,0,3.48,17.07c.29.26.55.54.86.77l.93.7a11.18,11.18,0,0,0,1,.62l.51.29.32.18a4.11,4.11,0,0,1,1.78,2.35,11.26,11.26,0,0,1-.56,7.12,11.51,11.51,0,0,1-4.51,5.83,7.6,7.6,0,0,1-.8.42,7.38,7.38,0,0,0-1,.54,5.25,5.25,0,0,0-1.68,1.7,7.05,7.05,0,0,0-.81,4.37,20.45,20.45,0,0,0,2.72,7.85,27.51,27.51,0,0,1-1.2-3.91,16.45,16.45,0,0,1-.47-4,6.05,6.05,0,0,1,1-3.51,3.66,3.66,0,0,1,1.3-1.08,7.59,7.59,0,0,1,.81-.33,7,7,0,0,0,1.07-.43,13.56,13.56,0,0,0,5.92-6.49,16,16,0,0,0,1.3-4.27,11.41,11.41,0,0,0-.19-4.67,7.14,7.14,0,0,0-2.9-4.18l-.93-.58a7.15,7.15,0,0,1-.73-.49l-.7-.56c-.23-.19-.42-.42-.64-.63a11.94,11.94,0,0,1-3.24-6.28,12.21,12.21,0,0,1,.85-7,19.78,19.78,0,0,1,4.26-6.15l1.36-1.4,1.51-1.49c.51-.48,1-1,1.46-1.56a18.68,18.68,0,0,0,1.41-1.64,19.09,19.09,0,0,0,4.16-8,12.57,12.57,0,0,0,.26-2.38,9.42,9.42,0,0,0-.08-1.2A6.68,6.68,0,0,0,353.23,298.88Z"/><path class="cls-3" d="M360.24,268.66c3.14,4.85,6.26,9.62,9.16,14.49s5.58,9.85,7.15,15a19.36,19.36,0,0,1,.77,3.81,12.62,12.62,0,0,1,0,1.84l-.1.93-.17.91a16.68,16.68,0,0,1-3.55,6.83,34.47,34.47,0,0,1-6.08,5.57,59.51,59.51,0,0,1-7.22,4.55,34.41,34.41,0,0,0,8.2-3,29.43,29.43,0,0,0,7.28-5.16,17.76,17.76,0,0,0,4.86-8l.27-1.19.17-1.2a14.36,14.36,0,0,0,0-2.45,22.15,22.15,0,0,0-.86-4.6,41.94,41.94,0,0,0-3.57-8.21,67.9,67.9,0,0,0-4.76-7.35A82,82,0,0,0,360.24,268.66Z"/><path d="M422,543.9V531.12h4.74v11.53c9.84-2.87,19.35-7.37,27-14.29,0,0-13.67-167.73-74.4-177.38-2.58,6.6-12.77,3.73-20,3.66-2.39,1.38-3.64,3.27-2.53,5.87,4,9.34,6.2,32-5,36.31-8.87,3.37-35.49,3.32-49-1.14-5.41,37.68-25,79.84-31.66,93.33a16.91,16.91,0,1,1-11.35,1c-20.14-19.67-46.32-86.53-50.26-96.79-18.05,1.77-41.43-3.19-45-11.06-4.8-10.68-9.61-25.09-4-26.43,1.95-.46,2.85-1.39,3.21-2.4-.45-2.5-.56-4.1-.56-4.1a13.23,13.23,0,0,1-3.13.58c-10.33,2.1-43.25,10.46-51.32,32.89C99.12,409.37,79.9,515.1,79.9,515.1s8.47,13.74,32.78,20.68l-.71-13.4,4.74-.25.78,14.87c12.21,2.78,27.91,3.82,47.84,1.06,0,0,4.59,95.66-8.05,144h221l-8.58-135.93S396.14,550.08,422,543.9ZM160.57,525c-1.67-2.11-3.25-4.28-4.83-6.46q-4.63-6.6-8.89-13.43c-.71-1.14-1.43-2.23-2.12-3.56l-.51-1c-.15-.32-.28-.66-.42-1-.26-.66-.55-1.32-.8-2-.41-1.34-.9-2.68-1.18-4-.16-.68-.34-1.36-.47-2l-.37-2.05a90.34,90.34,0,0,1-1-16.38,186.7,186.7,0,0,1,3.8-32.15,222.58,222.58,0,0,1,8.39-31.09c-1.69,10.6-3.36,21.14-4.76,31.69a304.8,304.8,0,0,0-2.69,31.64,100.08,100.08,0,0,0,.71,15.62l.27,1.91c.1.63.25,1.25.37,1.88.21,1.27.59,2.47.9,3.7a37,37,0,0,0,3.08,6.94c2.54,4.69,5,9.39,7.66,14.05,1.28,2.34,2.61,4.65,3.95,7s2.69,4.62,4.21,6.83A64,64,0,0,1,160.57,525ZM364,537.53a63.46,63.46,0,0,0,8.7-14.16,122.55,122.55,0,0,0,5.88-15.48,161.6,161.6,0,0,0,4.06-16A143.34,143.34,0,0,0,385,475.54c.24-2.73.39-5.47.39-8.19a66.25,66.25,0,0,0-.35-8.11,41.68,41.68,0,0,0-1.48-7.8l-1.35-3.91c-.23-.7-.49-1.38-.68-2.08l-.52-2.12a47.29,47.29,0,0,1-1.28-8.58c-.06-1.45-.07-2.89,0-4.32s.12-2.87.32-4.29a51.31,51.31,0,0,1,1.7-8.37,41.22,41.22,0,0,1,3.12-7.87,41.73,41.73,0,0,0-1.08,4.05c-.16.68-.3,1.36-.42,2.05s-.25,1.36-.34,2.05a55.72,55.72,0,0,0-.67,8.24,51.28,51.28,0,0,0,2.24,16.07l.61,1.93c.22.63.51,1.24.75,1.87l1.59,3.95a42.84,42.84,0,0,1,2,8.6,66.1,66.1,0,0,1,.57,8.64c0,2.88-.12,5.74-.35,8.59s-.61,5.67-1,8.49-1,5.6-1.65,8.37a120.09,120.09,0,0,1-4.95,16.3q-1.5,4-3.32,7.84c-1.25,2.55-2.54,5.09-4,7.52A50.88,50.88,0,0,1,364,537.53Z"/><path d="M225.41,328.6c1.6,2.94-2.14,19.49,1.07,25.1s14.15,25.23-.8,34.84a31.88,31.88,0,0,1-11.35,4c9.71,25.23,34.61,83.45,50.86,96,.3,0,.6,0,.9,0,5.64-11.3,26.91-55.8,32.16-94.76a8.11,8.11,0,0,1-2.89-2.57c-5.34-8.74-7.74-24.49.54-33.84s-11-26.56,3.29-32.66c-1.68-2-4.23-17.1-5.24-23.48a159,159,0,0,1-18.14,14.12,35.15,35.15,0,0,1-19.58,6,35.56,35.56,0,0,1-17.42-4.56,183.5,183.5,0,0,1-21.75-14.15c.32,4.83.87,14.58.93,24C219.62,326.38,224.1,326.21,225.41,328.6Z"/><path d="M252.39,316.23c-5.89-2.14-13.23-5.52-19.71-8.69q4,2.54,8.44,5A31,31,0,0,0,252.39,316.23Z"/><path d="M286.68,304.27s-16.23,14-25.37,14.17c-2,0-5.15-.84-8.92-2.21a31,31,0,0,1-11.27-3.7q-4.41-2.46-8.44-5c-8.69-4.26-15.84-8.14-15.84-8.14s.09,1.16.22,3.12a183.5,183.5,0,0,0,21.75,14.15,35.56,35.56,0,0,0,17.42,4.56,35.15,35.15,0,0,0,19.58-6A159,159,0,0,0,294,301.16v-.07Z"/><path d="M299.19,324.64l-.09-25.81-5,2.19-.15.14C295,307.54,297.51,322.68,299.19,324.64Z"/><path d="M160.05,349.78a13.23,13.23,0,0,0,3.13-.58S162,349.38,160.05,349.78Z"/><path d="M379.29,351s-13.81.1-20,3.66C366.52,354.71,376.71,357.58,379.29,351Z"/><path d="M163.18,349.2s.11,1.6.56,4.1A5.7,5.7,0,0,0,163.18,349.2Z"/><path d="M216.45,302.05l-2.52,16.79,3.47,7.76.59-.07c-.06-9.43-.61-19.18-.93-24Z"/><path d="M216.84,299.4l-.39,2.65.61.47C216.93,300.56,216.84,299.4,216.84,299.4Z"/><path d="M294,301.16l.15-.14-.16.07Z"/><path class="cls-3" d="M213.48,390.3,209,392l.46,1.21c1.66-.16,3.28-.38,4.83-.66C214,391.76,213.74,391,213.48,390.3Z"/><path class="cls-3" d="M298.61,390.87c-.1.94-.23,1.89-.36,2.84a22.84,22.84,0,0,0,4.52,2c.21-1.43.39-2.85.55-4.27Z"/><path class="cls-7" d="M214.33,392.53c-1.55.28-3.17.5-4.83.66,3.94,10.26,30.12,77.12,50.26,96.79a16.79,16.79,0,0,1,5.43-1.46C248.94,476,224,417.76,214.33,392.53Z"/><path class="cls-7" d="M266.09,488.47l.7,0a17.05,17.05,0,0,1,4.32.57c6.64-13.49,26.25-55.65,31.66-93.33a22.84,22.84,0,0,1-4.52-2C293,432.67,271.73,477.17,266.09,488.47Z"/><path class="cls-7" d="M267.83,495.43l-2.05-1a23.38,23.38,0,0,1-6-4.48,16.91,16.91,0,1,0,11.35-1c-1.35,2.75-2.17,4.32-2.22,4.41Z"/><path class="cls-3" d="M265.83,489c.08-.15.17-.35.26-.52-.3,0-.6,0-.9,0Z"/><path class="cls-3" d="M266.09,488.47c-.09.17-.18.37-.26.52l-.64-.47a16.79,16.79,0,0,0-5.43,1.46,23.38,23.38,0,0,0,6,4.48l2.05,1,1.06-2c.05-.09.87-1.66,2.22-4.41a17.05,17.05,0,0,0-4.32-.57Z"/><path class="cls-3" d="M378.74,516.94q1.81-3.86,3.32-7.84A120.09,120.09,0,0,0,387,492.8c.66-2.77,1.17-5.56,1.65-8.37s.81-5.64,1-8.49.38-5.71.35-8.59a66.1,66.1,0,0,0-.57-8.64,42.84,42.84,0,0,0-2-8.6l-1.59-3.95c-.24-.63-.53-1.24-.75-1.87l-.61-1.93a51.28,51.28,0,0,1-2.24-16.07,55.72,55.72,0,0,1,.67-8.24c.09-.69.2-1.37.34-2.05s.26-1.37.42-2.05a41.73,41.73,0,0,1,1.08-4.05,41.22,41.22,0,0,0-3.12,7.87,51.31,51.31,0,0,0-1.7,8.37c-.2,1.42-.23,2.85-.32,4.29s0,2.87,0,4.32a47.29,47.29,0,0,0,1.28,8.58l.52,2.12c.19.7.45,1.38.68,2.08l1.35,3.91a41.68,41.68,0,0,1,1.48,7.8,66.25,66.25,0,0,1,.35,8.11c0,2.72-.15,5.46-.39,8.19a143.34,143.34,0,0,1-2.36,16.31,161.6,161.6,0,0,1-4.06,16,122.55,122.55,0,0,1-5.88,15.48,63.46,63.46,0,0,1-8.7,14.16,50.88,50.88,0,0,0,10.75-13.07C376.2,522,377.49,519.49,378.74,516.94Z"/><path class="cls-3" d="M157.71,517.33c-2.61-4.66-5.12-9.36-7.66-14.05a37,37,0,0,1-3.08-6.94c-.31-1.23-.69-2.43-.9-3.7-.12-.63-.27-1.25-.37-1.88l-.27-1.91a100.08,100.08,0,0,1-.71-15.62,304.8,304.8,0,0,1,2.69-31.64c1.4-10.55,3.07-21.09,4.76-31.69A222.58,222.58,0,0,0,143.78,441a186.7,186.7,0,0,0-3.8,32.15,90.34,90.34,0,0,0,1,16.38l.37,2.05c.13.68.31,1.36.47,2,.28,1.36.77,2.7,1.18,4,.25.67.54,1.33.8,2,.14.32.27.66.42,1l.51,1c.69,1.33,1.41,2.42,2.12,3.56q4.25,6.84,8.89,13.43c1.58,2.18,3.16,4.35,4.83,6.46a64,64,0,0,0,5.3,6.09c-1.52-2.21-2.86-4.52-4.21-6.83S159,519.67,157.71,517.33Z"/><path d="M288.5,199.13a7.05,7.05,0,1,0,7.05,7.05A7.06,7.06,0,0,0,288.5,199.13Z"/><path d="M209.79,210.23a7,7,0,1,0,7.05-7A7.06,7.06,0,0,0,209.79,210.23Z"/></g></svg>