<svg width="500" height="500" viewBox="0 0 500 500" fill="none" xmlns="http://www.w3.org/2000/svg">
<g clip-path="url(#clip0_23_7802)">
<path d="M250 465.75C369.111 465.75 465.67 369.191 465.67 250.08C465.67 130.969 369.111 34.4102 250 34.4102C130.889 34.4102 34.3301 130.969 34.3301 250.08C34.3301 369.191 130.889 465.75 250 465.75Z" fill="#F4D9CE"/>
<path d="M362.22 464.44H309.22C308.947 464.444 308.685 464.547 308.484 464.732C308.283 464.916 308.157 465.168 308.13 465.44L307.3 472.29C314.1 475.2 328.21 480.84 333.67 481.29C339.13 481.74 355.36 475.29 362.67 472.13L363.28 465.67C363.293 465.517 363.276 465.362 363.228 465.216C363.179 465.07 363.102 464.935 363 464.82C362.902 464.707 362.783 464.615 362.649 464.55C362.515 464.484 362.369 464.447 362.22 464.44V464.44ZM338.93 476.74C338.378 477.478 337.62 478.037 336.75 478.344C335.881 478.651 334.941 478.694 334.047 478.466C333.154 478.239 332.348 477.752 331.732 477.066C331.115 476.381 330.716 475.528 330.585 474.615C330.453 473.703 330.595 472.772 330.993 471.94C331.39 471.109 332.026 470.414 332.818 469.943C333.611 469.473 334.526 469.248 335.446 469.297C336.367 469.346 337.252 469.667 337.99 470.22C338.979 470.96 339.633 472.063 339.809 473.285C339.986 474.508 339.669 475.75 338.93 476.74V476.74Z" fill="#A6B1E1"/>
<path d="M453.64 618.05C453.103 614.723 453.243 611.322 454.05 608.05C454.86 603.85 455.62 599.89 452.11 591.58C446.7 578.79 450.45 565.58 454.8 550.18C455.74 546.86 456.71 543.42 457.62 539.87C462.53 520.79 456.91 503.49 449.78 481.57C447 473 447.92 461.8 449 448.8C450.83 426.2 452.91 400.59 436.22 381.24C413.16 354.5 347.72 346.72 332.48 345.24C334.107 356.199 333.315 367.38 330.16 378C327.634 386.926 323.683 395.385 318.46 403.05L314.46 408.55L314 401.74C312.81 384.28 303.3 376.17 298.6 373.19C297 377.89 292.5 386.28 280.19 391.47C280.96 450.29 282.76 608.58 280.74 665.29H297.87L292.87 665.12C292.87 663.92 297.03 545.12 292.87 521.12C288.65 496.6 292.66 401.36 292.87 397.31L297.87 397.53C297.87 398.53 293.71 496.28 297.87 520.28C302.09 544.79 298.07 660.36 297.87 665.28H385.18C384.33 595.72 393.77 465.35 394.24 458.91L399.24 459.27C399.12 460.85 389.39 595.18 390.24 665.27H451.98C453.28 645 454.5 622.89 453.64 618.05ZM368.29 466.12L367.4 475.51L366.06 476.1C365.35 476.42 363.06 477.43 359.89 478.71L363.89 478.91L362.31 510.24C362.175 512.73 361.114 515.079 359.336 516.827C357.558 518.576 355.192 519.597 352.7 519.69L315.1 521H314.76C312.116 520.987 309.586 519.928 307.721 518.054C305.857 516.18 304.81 513.644 304.81 511V483.78H309.81V511C309.81 511.667 309.943 512.327 310.202 512.942C310.46 513.556 310.839 514.113 311.317 514.579C311.794 515.045 312.359 515.411 312.98 515.655C313.6 515.899 314.263 516.016 314.93 516L329.76 515.5L330.87 485.93C321.75 484.1 304.38 476.49 303.58 476.14L301.88 475.39L303.16 464.85C303.339 463.38 304.047 462.025 305.15 461.037C306.254 460.049 307.679 459.496 309.16 459.48H362.16C363.009 459.482 363.849 459.661 364.625 460.006C365.401 460.35 366.097 460.853 366.669 461.481C367.24 462.11 367.674 462.851 367.942 463.656C368.211 464.462 368.309 465.315 368.23 466.16L368.29 466.12Z" fill="#A6B1E1"/>
<path d="M204.52 377.28L187 403.71L184.84 401.71C173.73 391.5 171.84 366.77 170.98 354.89C170.88 353.6 170.8 352.52 170.72 351.68C170.48 349.19 171.5 345.43 173.08 341.29C159.17 341.93 84.4399 347.29 66.4399 388.48C52.9599 419.37 54.3099 454.58 55.2099 477.88C55.6999 490.52 56.0499 499.65 54.0799 504.44C51.6599 510.31 54.0299 514.05 56.7699 518.38C59.1299 522.12 61.8199 526.38 60.5899 531.86C60.1299 533.86 59.5899 535.97 59.0699 537.96C57.0699 545.49 55.2699 552.6 58.0699 557.42C61.0699 562.65 70.4799 580.55 64.0699 591.13C59.3699 598.85 58.2099 615.55 63.6099 623.31C67.7599 629.31 65.4699 637 63.2499 644.46C61.7699 649.46 60.2499 654.61 60.6599 659.04C60.8754 661.155 61.294 663.245 61.9099 665.28H116.6C118.6 570.87 106.32 460.59 106.18 459.37L111.18 458.81C111.32 460.04 123.59 570.52 121.63 665.28H197.42V401.57H202.42V665.29H216.42V387.5C211.802 384.934 207.753 381.457 204.52 377.28V377.28ZM192.69 466.12L191.8 475.51L190.46 476.1C189.75 476.42 187.46 477.43 184.29 478.71L188.29 478.91L186.71 510.24C186.575 512.73 185.514 515.079 183.736 516.827C181.958 518.575 179.592 519.596 177.1 519.69L139.5 521H139.16C136.516 520.987 133.986 519.927 132.121 518.053C130.257 516.18 129.21 513.644 129.21 511V483.78H134.21V511C134.21 511.667 134.343 512.327 134.602 512.942C134.86 513.556 135.239 514.113 135.717 514.579C136.194 515.045 136.759 515.41 137.38 515.654C138 515.899 138.663 516.016 139.33 516L154.16 515.5L155.27 485.93C146.15 484.1 128.78 476.49 127.98 476.14L126.28 475.39L127.56 464.85C127.738 463.37 128.452 462.007 129.567 461.018C130.681 460.029 132.12 459.482 133.61 459.48H186.61C187.459 459.482 188.299 459.661 189.075 460.005C189.851 460.35 190.547 460.852 191.119 461.481C191.69 462.11 192.124 462.85 192.392 463.656C192.661 464.462 192.759 465.314 192.68 466.16L192.69 466.12ZM206.4 421.57C206.84 420.977 207.446 420.528 208.142 420.28C208.837 420.032 209.59 419.996 210.306 420.177C211.022 420.357 211.669 420.746 212.163 421.294C212.658 421.842 212.979 422.525 213.086 423.255C213.192 423.986 213.08 424.732 212.762 425.398C212.444 426.065 211.936 426.622 211.302 426.999C210.667 427.377 209.935 427.557 209.197 427.518C208.46 427.479 207.751 427.222 207.16 426.78C206.37 426.189 205.846 425.309 205.704 424.332C205.561 423.355 205.812 422.362 206.4 421.57V421.57ZM212.4 650.66C211.958 651.251 211.351 651.697 210.655 651.943C209.959 652.188 209.206 652.222 208.491 652.039C207.776 651.857 207.132 651.467 206.639 650.918C206.146 650.369 205.826 649.686 205.721 648.956C205.616 648.225 205.731 647.48 206.049 646.815C206.368 646.149 206.876 645.593 207.511 645.217C208.146 644.841 208.878 644.661 209.614 644.701C210.351 644.74 211.059 644.998 211.65 645.44C212.041 645.735 212.369 646.104 212.617 646.526C212.865 646.949 213.027 647.416 213.093 647.901C213.16 648.385 213.131 648.879 213.007 649.352C212.883 649.826 212.666 650.27 212.37 650.66H212.4ZM212.4 588.66C211.959 589.252 211.352 589.7 210.656 589.947C209.96 590.194 209.206 590.229 208.491 590.047C207.775 589.865 207.129 589.475 206.636 588.926C206.142 588.377 205.822 587.694 205.717 586.963C205.612 586.232 205.726 585.487 206.045 584.821C206.364 584.155 206.873 583.598 207.508 583.222C208.144 582.846 208.876 582.667 209.614 582.707C210.351 582.748 211.06 583.006 211.65 583.45C212.045 583.745 212.377 584.116 212.628 584.541C212.878 584.966 213.041 585.436 213.108 585.924C213.175 586.413 213.145 586.91 213.018 587.386C212.891 587.863 212.671 588.309 212.37 588.7L212.4 588.66ZM212.4 512.98C211.958 513.571 211.351 514.017 210.655 514.263C209.959 514.508 209.206 514.542 208.491 514.359C207.776 514.177 207.132 513.787 206.639 513.238C206.146 512.689 205.826 512.006 205.721 511.276C205.616 510.545 205.731 509.8 206.049 509.135C206.368 508.469 206.876 507.913 207.511 507.537C208.146 507.161 208.878 506.981 209.614 507.021C210.351 507.06 211.059 507.318 211.65 507.76C212.045 508.054 212.377 508.424 212.627 508.848C212.877 509.272 213.041 509.741 213.108 510.229C213.175 510.717 213.144 511.213 213.017 511.689C212.891 512.164 212.671 512.61 212.37 513L212.4 512.98Z" fill="#A6B1E1"/>
<path d="M186.62 464.44H133.62C133.347 464.444 133.085 464.547 132.884 464.732C132.683 464.916 132.557 465.168 132.53 465.44L131.7 472.29C138.5 475.2 152.61 480.84 158.07 481.29C163.53 481.74 179.76 475.29 187.07 472.13L187.68 465.67C187.694 465.517 187.676 465.362 187.628 465.216C187.58 465.07 187.502 464.935 187.4 464.82C187.303 464.707 187.183 464.615 187.049 464.55C186.915 464.484 186.769 464.447 186.62 464.44ZM163.33 476.74C162.778 477.478 162.02 478.037 161.151 478.344C160.282 478.651 159.341 478.694 158.448 478.466C157.554 478.239 156.749 477.752 156.132 477.066C155.516 476.381 155.117 475.528 154.985 474.615C154.854 473.703 154.996 472.772 155.393 471.94C155.791 471.109 156.426 470.414 157.219 469.943C158.012 469.473 158.926 469.248 159.847 469.297C160.767 469.346 161.652 469.667 162.39 470.22C163.379 470.96 164.033 472.063 164.21 473.285C164.386 474.508 164.07 475.75 163.33 476.74V476.74Z" fill="#A6B1E1"/>
<path d="M176.9 514.69C178.143 514.656 179.328 514.152 180.215 513.28C181.101 512.408 181.625 511.232 181.68 509.99L183.24 479.13C178.01 481.276 172.669 483.142 167.24 484.72L166.24 515.05L176.9 514.69Z" fill="#A6B1E1"/>
<path d="M161.21 515.22L162.21 485.9C161.52 486.02 160.87 486.12 160.21 486.18L159.12 515.29L161.21 515.22Z" fill="#A6B1E1"/>
<path d="M352.5 514.69C353.743 514.656 354.927 514.152 355.814 513.28C356.701 512.408 357.225 511.232 357.28 509.99L358.84 479.13C353.608 481.271 348.267 483.137 342.84 484.72L341.84 515.05L352.5 514.69Z" fill="#A6B1E1"/>
<path d="M275.17 393.24C268.264 395.183 261.113 396.113 253.94 396C239.62 396 229.08 393.42 221.39 390V665.29H275.7C277.67 609.82 275.93 453.19 275.17 393.24Z" fill="#98D6EA"/>
<path d="M336.81 515.22L337.81 485.9C337.12 486.02 336.47 486.12 335.81 486.18L334.72 515.29L336.81 515.22Z" fill="#A6B1E1"/>
<path d="M274.83 329.47C268.72 333.562 261.533 335.748 254.18 335.75C247.747 335.739 241.423 334.084 235.81 330.94C222.727 323.764 210.581 314.998 199.65 304.84L204 332.52C205.64 336.24 224.3 377.11 251.89 377.11C278.96 377.11 300.95 337.95 303.79 332.67L302.29 306.5C293.993 315.126 284.786 322.828 274.83 329.47V329.47Z" fill="#FFBDAB"/>
<path d="M294.45 369.17L294.87 365.94L297.87 367.16C298.58 367.45 313.72 373.9 317.97 394.29C324.5 382.37 336.32 353.77 319.97 324.56L307.7 314.56L308.8 333.77L308.49 334.38C307.82 335.69 296.77 357.03 279.82 370.73C279.82 373.23 279.93 378.52 280.03 386C292.87 379.73 294.37 369.77 294.45 369.17Z" fill="#98D6EA"/>
<path d="M329.59 197.37C320.13 182.56 323.59 163.04 323.59 163.04C308.1 152.91 306.7 140.8 306.7 140.8C306.7 140.8 284.63 155.44 272 159.24C259.37 163.04 264 150.37 264 150.37C239.22 168.25 218.25 158.26 218.25 158.26C209.94 164.45 178.02 166.06 178.02 166.06C178.02 166.06 177.39 171.88 176.24 179C201.64 155.67 227.03 176.91 227.03 176.91L225.62 184.91C225.62 184.91 211.9 177.76 203 176.5C195.72 175.5 181 179.1 175.9 180.45C174.53 188.67 172.51 198.16 170 202.45C166.33 208.67 166.56 230.45 166.9 240.78C167.22 242.15 167.56 243.53 167.95 244.94C174.27 267.84 191.58 300.61 238.21 326.61C243.41 329.55 249.324 330.989 255.293 330.766C261.263 330.544 267.053 328.669 272.02 325.35C292.26 311.83 322.66 284.87 333.02 240.61C333.1 222.44 329.59 197.37 329.59 197.37ZM222.88 209C222.668 209.191 222.401 209.31 222.117 209.34C221.834 209.371 221.548 209.311 221.3 209.17L221.14 209.08C220.39 208.66 219.58 208.24 218.76 207.84C219.201 209.539 219.426 211.286 219.43 213.04C219.43 222.04 213.73 229.4 206.72 229.4C199.71 229.4 194 222 194 213C193.977 209.709 194.778 206.463 196.33 203.56L195.01 203.69C194.11 203.8 193.21 203.81 192.32 203.95C191.43 204.09 190.53 204.26 189.63 204.38C189.18 204.45 188.72 204.49 188.28 204.59L186.94 204.91L184.23 205.48C182.92 205.8 181.61 206.19 180.23 206.48L180.59 208C180.9 209.2 181.24 210.41 181.64 211.59C182.377 213.993 183.495 216.262 184.95 218.31C182.947 216.648 181.222 214.676 179.84 212.47C179.11 211.39 178.45 210.26 177.84 209.12C177.23 207.98 176.6 206.83 176.03 205.57L175.37 204.22L177.11 203.17C178.843 202.105 180.636 201.14 182.48 200.28L185.35 199.18L186.8 198.67C187.29 198.51 187.8 198.41 188.29 198.27C189.29 198.02 190.29 197.79 191.29 197.57C192.29 197.35 193.35 197.28 194.38 197.16L195.94 197C196.45 196.95 196.94 197 197.5 197C198.55 197 199.59 197 200.63 197L203.76 197.34C204.76 197.44 205.76 197.74 206.84 197.94C207.854 198.166 208.856 198.446 209.84 198.78C210.839 199.089 211.817 199.46 212.77 199.89C216.665 201.472 220.159 203.901 223 207C223.128 207.137 223.227 207.299 223.291 207.475C223.354 207.651 223.381 207.839 223.37 208.026C223.359 208.213 223.31 208.396 223.225 208.564C223.141 208.731 223.024 208.88 222.88 209V209ZM321.97 179C321.97 179 301.97 173.31 293.11 174.57C284.25 175.83 270.58 183.01 270.58 183.01L269.18 175.01C269.18 175.01 295.92 152.53 322 178.93L321.97 179ZM240.83 244.71C241.111 244.668 241.399 244.707 241.659 244.822C241.92 244.937 242.142 245.124 242.3 245.36L242.49 245.64C242.953 246.388 243.489 247.088 244.09 247.73C244.639 248.319 245.285 248.809 246 249.18C246.663 249.503 247.377 249.71 248.11 249.79C248.905 249.855 249.706 249.812 250.49 249.66C251.279 249.518 252.044 249.262 252.76 248.9C253.483 248.505 254.155 248.021 254.76 247.46C255.4 246.828 255.973 246.131 256.47 245.38C256.985 244.596 257.453 243.781 257.87 242.94L257.97 242.74C258.056 242.564 258.176 242.406 258.324 242.277C258.472 242.148 258.644 242.05 258.831 241.988C259.017 241.927 259.214 241.903 259.41 241.919C259.605 241.935 259.796 241.99 259.97 242.08C260.229 242.21 260.444 242.413 260.59 242.663C260.736 242.914 260.805 243.201 260.79 243.49C260.696 244.692 260.43 245.874 260 247C259.552 248.183 258.936 249.294 258.17 250.3C257.347 251.345 256.357 252.248 255.24 252.97C254.084 253.678 252.811 254.173 251.48 254.43C250.164 254.706 248.811 254.75 247.48 254.56C246.081 254.32 244.751 253.781 243.58 252.98C242.464 252.189 241.533 251.166 240.85 249.98C240.538 249.417 240.273 248.828 240.06 248.22C239.84 247.601 239.686 246.961 239.6 246.31C239.553 245.927 239.654 245.541 239.883 245.231C240.112 244.92 240.45 244.709 240.83 244.64V244.71ZM263.43 301.37L261.99 301.43C261.51 301.43 261.04 301.43 260.56 301.43C258.67 301.51 256.81 301.64 254.94 301.8C253.07 301.96 251.24 302.27 249.4 302.61C247.517 302.967 245.657 303.435 243.83 304.01C245.292 302.64 247.021 301.588 248.91 300.92C250.777 300.217 252.726 299.753 254.71 299.54C256.687 299.333 258.681 299.367 260.65 299.64C261.63 299.771 262.601 299.958 263.56 300.2C264.512 300.478 265.447 300.812 266.36 301.2C265.36 301.28 264.39 301.26 263.43 301.3V301.37ZM272.23 280.95C267.936 283.176 263.381 284.856 258.67 285.95C253.964 287.068 249.135 287.582 244.3 287.48C241.894 287.446 239.495 287.235 237.12 286.85C235.928 286.679 234.749 286.429 233.59 286.1C232.42 285.8 231.27 285.49 230.13 285.1C232.52 284.6 234.85 284.45 237.13 284.1C239.41 283.75 241.72 283.52 243.98 283.1C248.51 282.45 252.98 281.51 257.37 280.52C261.76 279.53 266.15 278.29 270.53 276.94C274.91 275.59 279.27 274.11 283.78 272.46C280.455 275.924 276.545 278.775 272.23 280.88V280.95ZM322 202.67C321.43 203.93 320.83 205.06 320.19 206.21C319.55 207.36 318.88 208.48 318.19 209.57C316.814 211.778 315.092 213.75 313.09 215.41C314.543 213.357 315.661 211.085 316.4 208.68C316.8 207.51 317.14 206.3 317.45 205.1C317.57 204.6 317.69 204.1 317.8 203.57C316.46 203.25 315.15 202.86 313.8 202.57L311 202L309.66 201.68C309.21 201.59 308.76 201.55 308.31 201.48C307.41 201.35 306.51 201.2 305.62 201.05C304.73 200.9 303.82 200.89 302.93 200.79C302.49 200.74 302.05 200.69 301.61 200.66C303.155 203.565 303.953 206.81 303.93 210.1C303.93 219.1 298.24 226.46 291.23 226.46C284.22 226.46 278.53 219.12 278.53 210.1C278.533 208.346 278.758 206.598 279.2 204.9C278.37 205.3 277.57 205.71 276.82 206.14L276.66 206.23C276.377 206.396 276.043 206.454 275.721 206.395C275.398 206.336 275.107 206.163 274.901 205.907C274.696 205.652 274.588 205.331 274.599 205.003C274.61 204.675 274.738 204.362 274.96 204.12C277.794 201.015 281.285 198.583 285.18 197C286.132 196.573 287.106 196.199 288.1 195.88C289.1 195.59 290.1 195.24 291.1 195.05C292.1 194.86 293.1 194.55 294.18 194.45L297.3 194.11C298.35 194.11 299.39 194.11 300.44 194.11C300.96 194.11 301.44 194.11 302 194.11L303.55 194.28C304.55 194.4 305.63 194.48 306.64 194.68C307.65 194.88 308.64 195.14 309.64 195.39C310.13 195.52 310.64 195.63 311.13 195.79L312.58 196.3L315.45 197.4C317.289 198.259 319.079 199.22 320.81 200.28L322.56 201.34L322 202.67Z" fill="#FFBDAB"/>
<path d="M185 218.28C185 218.28 196 230.28 206.76 230.28C208.51 230.276 210.259 230.183 212 230C226.08 228.6 229.82 208.55 217.08 202.36L216.79 202.22C207.1 197.69 177.79 204.06 177.79 204.06C177.79 204.06 178.89 213.31 185 218.28Z" fill="white"/>
<path d="M313 215.42C313 215.42 302 227.42 291.24 227.42C289.36 227.42 287.61 227.33 285.97 227.17C271.88 225.76 268.15 205.71 280.88 199.53L281.17 199.39C290.86 194.85 320.17 201.22 320.17 201.22C320.17 201.22 319.07 210.45 313 215.42Z" fill="white"/>
<path d="M199.27 334.19L199.15 333.91L196 314L189.15 320.31C183.61 329.7 175.15 346.1 175.69 351.19C175.77 352.06 175.86 353.19 175.95 354.5C176.68 364.1 178.3 385.63 186.21 395.82L205 367.47L206.84 371.65C206.84 371.74 209.23 376.65 216.37 381.48V362C209.442 353.543 203.69 344.189 199.27 334.19V334.19Z" fill="#98D6EA"/>
<path d="M339 236.77C344.8 235.34 350 229.16 352.83 222.89C355.93 216.12 357.11 207.28 352.78 202.8C350.78 200.71 348.78 199.65 346.86 199.65H346.72C345.16 204.7 343.25 211.41 341.33 218.39C340.948 224.56 340.17 230.7 339 236.77V236.77Z" fill="#FFBDAB"/>
<path d="M253.94 391C261.109 391.147 268.255 390.134 275.1 388C275.02 382.16 274.96 377.53 274.92 374.36C267.97 379 260.2 382.11 251.92 382.11C239.92 382.11 229.63 375.66 221.43 367.5V384.4C228.59 388 239 391 253.94 391Z" fill="#98D6EA"/>
<path d="M149.17 217C146.75 220.43 146.86 225.85 149.48 231.87C152.48 238.81 157.95 244.64 163.48 247.16C163.37 246.78 163.25 246.39 163.15 246.01C162.39 243.24 161.77 240.54 161.26 237.94C157.144 230.298 154.393 221.997 153.13 213.41C151.516 214.236 150.15 215.475 149.17 217V217Z" fill="#FFBDAB"/>
<path d="M149.48 231.82C146.86 225.82 146.75 220.38 149.17 216.95C150.136 215.431 151.484 214.193 153.08 213.36C152.8 211.66 152.57 209.98 152.38 208.36C149.375 209.407 146.808 211.432 145.09 214.11C141.64 219 141.56 226.2 144.89 233.85C148.38 241.85 156.13 250.98 165.28 253.06C164.58 251.06 163.97 249.06 163.43 247.15C158 244.59 152.5 238.76 149.48 231.82Z" fill="black"/>
<path d="M346.68 199.66H346.82C348.72 199.66 350.71 200.72 352.74 202.81C357.07 207.29 355.89 216.13 352.79 222.9C349.93 229.17 344.79 235.35 338.96 236.78C338.62 238.55 338.24 240.3 337.84 242.02C346.78 241.23 353.84 232.61 357.34 225.02C361.98 214.87 361.58 204.81 356.34 199.37C353.59 196.53 350.68 194.99 347.67 194.75L347.85 196.03C347.49 197.07 347.09 198.31 346.68 199.66Z" fill="black"/>
<path d="M293.11 174.5C301.98 173.24 321.97 178.93 321.97 178.93C295.92 152.53 269.18 174.93 269.18 174.93L270.58 182.93C270.58 182.93 284.24 175.76 293.11 174.5Z" fill="black"/>
<path d="M203 176.5C211.86 177.76 225.52 184.94 225.52 184.94L226.93 176.94C226.93 176.94 201.54 155.7 176.14 179.03C176.06 179.51 175.99 180.03 175.9 180.48C181 179.1 195.76 175.46 203 176.5Z" fill="black"/>
<path d="M257.4 280.41C252.98 281.41 248.54 282.34 244.01 282.99C241.75 283.42 239.47 283.64 237.16 283.99C234.85 284.34 232.52 284.51 230.16 284.99C231.3 285.37 232.45 285.68 233.62 285.99C234.779 286.318 235.958 286.569 237.15 286.74C239.525 287.125 241.925 287.335 244.33 287.37C249.166 287.472 253.994 286.958 258.7 285.84C263.411 284.746 267.967 283.066 272.26 280.84C276.594 278.704 280.515 275.816 283.84 272.31C279.33 273.96 274.98 275.45 270.59 276.79C266.2 278.13 261.82 279.42 257.4 280.41Z" fill="black"/>
<path d="M260.65 299.61C258.681 299.337 256.687 299.303 254.71 299.51C252.726 299.723 250.777 300.186 248.91 300.89C247.021 301.558 245.292 302.61 243.83 303.98C245.658 303.404 247.518 302.937 249.4 302.58C251.24 302.24 253.087 301.97 254.94 301.77C256.81 301.61 258.67 301.48 260.56 301.4C261.04 301.4 261.51 301.4 261.99 301.4L263.43 301.34C264.43 301.34 265.36 301.34 266.36 301.2C265.447 300.812 264.512 300.478 263.56 300.2C262.602 299.948 261.631 299.751 260.65 299.61V299.61Z" fill="black"/>
<path d="M240 248.26C240.213 248.868 240.477 249.457 240.79 250.02C241.472 251.205 242.404 252.229 243.52 253.02C244.691 253.821 246.021 254.36 247.42 254.6C248.751 254.79 250.104 254.746 251.42 254.47C252.75 254.212 254.024 253.718 255.18 253.01C256.297 252.287 257.287 251.385 258.11 250.34C258.9 249.325 259.537 248.2 260 247C260.444 245.839 260.714 244.62 260.8 243.38C260.811 243.098 260.742 242.818 260.6 242.574C260.458 242.33 260.25 242.131 260 242C259.826 241.909 259.635 241.855 259.439 241.839C259.244 241.823 259.047 241.847 258.861 241.908C258.674 241.97 258.502 242.068 258.354 242.197C258.206 242.326 258.086 242.484 258 242.66L257.9 242.86C257.482 243.701 257.015 244.515 256.5 245.3C256.003 246.05 255.43 246.747 254.79 247.38C254.185 247.941 253.513 248.424 252.79 248.82C252.074 249.181 251.309 249.437 250.52 249.58C249.736 249.731 248.935 249.775 248.14 249.71C247.407 249.63 246.693 249.423 246.03 249.1C245.315 248.729 244.669 248.239 244.12 247.65C243.519 247.008 242.983 246.308 242.52 245.56L242.33 245.28C242.137 244.998 241.854 244.79 241.528 244.689C241.201 244.587 240.851 244.599 240.532 244.721C240.213 244.844 239.944 245.07 239.77 245.364C239.595 245.657 239.525 246.001 239.57 246.34C239.645 246.993 239.79 247.637 240 248.26V248.26Z" fill="black"/>
<path d="M315.5 197.38L312.63 196.28L311.18 195.77C310.69 195.61 310.18 195.5 309.69 195.37C308.69 195.12 307.69 194.89 306.69 194.66C305.69 194.43 304.64 194.38 303.6 194.26L302.05 194.09C301.53 194.04 301.05 194.09 300.49 194.09C299.49 194.09 298.4 194.09 297.35 194.09L294.23 194.43C293.23 194.53 292.18 194.83 291.15 195.03C290.12 195.23 289.15 195.57 288.15 195.86C287.156 196.179 286.181 196.552 285.23 196.98C281.334 198.555 277.839 200.981 275 204.08C274.778 204.322 274.65 204.635 274.639 204.963C274.628 205.291 274.735 205.612 274.941 205.867C275.147 206.123 275.438 206.296 275.761 206.355C276.083 206.414 276.417 206.356 276.7 206.19L276.86 206.1C277.61 205.67 278.41 205.26 279.24 204.86C279.715 202.967 280.495 201.163 281.55 199.52L284.9 201.72C284.662 202.077 284.445 202.448 284.25 202.83C285.15 202.53 286.05 202.25 286.96 202.02C288.705 201.579 290.47 201.222 292.25 200.95C293.14 200.86 294.02 200.7 294.92 200.66L296.78 200.56C296.292 199.975 295.734 199.451 295.12 199L297.43 195.74C299.191 197.022 300.635 198.692 301.65 200.62C302.09 200.62 302.53 200.7 302.97 200.75C303.86 200.85 304.77 200.87 305.66 201.01C306.55 201.15 307.45 201.31 308.35 201.44C308.8 201.51 309.25 201.55 309.7 201.64L311 202L313.71 202.58C315.02 202.9 316.33 203.29 317.71 203.58C317.87 202.88 318.02 202.18 318.13 201.51L319.22 203.92C318.71 203.82 318.22 203.71 317.71 203.58C317.6 204.09 317.48 204.58 317.36 205.11C317.05 206.31 316.71 207.52 316.31 208.69C315.571 211.095 314.453 213.367 313 215.42C315.002 213.76 316.724 211.788 318.1 209.58C318.83 208.49 319.5 207.37 320.1 206.22C320.7 205.07 321.34 203.94 321.91 202.68L322.57 201.33L320.82 200.27C319.102 199.208 317.326 198.243 315.5 197.38V197.38Z" fill="black"/>
<path d="M318.13 201.5C318.02 202.17 317.87 202.87 317.71 203.57C318.21 203.7 318.71 203.81 319.22 203.91L318.13 201.5Z" fill="black"/>
<path d="M297.6 200.52H296.78C298.928 203.213 300.057 206.577 299.97 210.02C299.97 216.84 296.07 222.38 291.27 222.38C286.47 222.38 282.57 216.84 282.57 210.02C282.553 207.512 283.129 205.034 284.25 202.79C283.42 203.07 282.6 203.37 281.78 203.69C280.96 204.01 280.08 204.42 279.24 204.82C278.798 206.518 278.573 208.266 278.57 210.02C278.57 219.02 284.27 226.38 291.27 226.38C298.27 226.38 303.97 219.04 303.97 210.02C303.993 206.73 303.195 203.485 301.65 200.58C301.194 200.538 300.737 200.522 300.28 200.53C299.39 200.57 298.49 200.51 297.6 200.52Z" fill="black"/>
<path d="M284.25 202.83C284.445 202.448 284.662 202.077 284.9 201.72L281.55 199.52C280.496 201.163 279.716 202.967 279.24 204.86C280.08 204.46 280.93 204.08 281.78 203.73C282.63 203.38 283.42 203.11 284.25 202.83Z" fill="black"/>
<path d="M297.43 195.74L295.12 199C295.735 199.451 296.292 199.975 296.78 200.56H297.6C298.49 200.56 299.39 200.56 300.28 200.56C300.737 200.552 301.195 200.568 301.65 200.61C300.634 198.686 299.19 197.02 297.43 195.74V195.74Z" fill="black"/>
<path d="M179.87 204.45L178.78 206.86C179.286 206.76 179.786 206.65 180.28 206.53C180.13 205.82 179.98 205.12 179.87 204.45V204.45Z" fill="black"/>
<path d="M212.82 199.94C211.867 199.51 210.889 199.139 209.89 198.83C208.906 198.496 207.904 198.216 206.89 197.99C205.89 197.79 204.89 197.49 203.81 197.39L200.68 197.05C199.68 197.05 198.6 197.05 197.55 197.05C197.03 197.05 196.55 197.05 195.99 197.05L194.43 197.21C193.43 197.33 192.36 197.42 191.34 197.62C190.32 197.82 189.34 198.07 188.34 198.32C187.84 198.46 187.34 198.56 186.85 198.72L185.4 199.23L182.53 200.33C180.686 201.19 178.893 202.155 177.16 203.22L175.42 204.27L176.08 205.62C176.65 206.88 177.25 208.01 177.89 209.17C178.53 210.33 179.19 211.44 179.89 212.52C181.272 214.726 182.997 216.698 185 218.36C183.545 216.312 182.427 214.043 181.69 211.64C181.29 210.46 180.95 209.25 180.64 208.05L180.28 206.53C179.787 206.65 179.287 206.76 178.78 206.86L179.87 204.45C179.98 205.12 180.13 205.82 180.28 206.53C181.63 206.2 182.94 205.81 184.28 205.53L186.99 204.96L188.33 204.64C188.77 204.54 189.23 204.5 189.68 204.43C190.58 204.31 191.48 204.15 192.37 204C193.26 203.85 194.16 203.85 195.06 203.74L196.38 203.61C197.395 201.682 198.838 200.013 200.6 198.73L202.91 202C202.295 202.447 201.738 202.968 201.25 203.55L203.11 203.65C204.01 203.65 204.89 203.86 205.78 203.94C207.536 204.211 209.278 204.565 211 205C211.907 205.24 212.807 205.51 213.7 205.81C213.5 205.43 213.29 205.05 213.06 204.7L216.41 202.51C217.463 204.15 218.244 205.95 218.72 207.84C219.54 208.24 220.35 208.66 221.1 209.08L221.26 209.17C221.548 209.401 221.915 209.508 222.282 209.468C222.649 209.427 222.984 209.243 223.215 208.955C223.446 208.668 223.553 208.3 223.512 207.933C223.472 207.567 223.288 207.231 223 207C220.169 203.925 216.692 201.514 212.82 199.94Z" fill="black"/>
<path d="M213.74 205.78C214.869 208.022 215.448 210.5 215.43 213.01C215.43 219.83 211.52 225.37 206.72 225.37C201.92 225.37 198 219.83 198 213C197.917 209.556 199.05 206.192 201.2 203.5H200.38C199.49 203.5 198.59 203.56 197.69 203.55C197.24 203.55 196.78 203.55 196.33 203.55C194.776 206.456 193.975 209.705 194 213C194 222 199.7 229.36 206.7 229.36C213.7 229.36 219.43 222 219.43 213C219.426 211.245 219.201 209.498 218.76 207.8C217.92 207.4 217.06 207.02 216.22 206.68C215.38 206.34 214.57 206.06 213.74 205.78Z" fill="black"/>
<path d="M213.1 204.67C213.33 205.02 213.54 205.4 213.74 205.78C214.57 206.06 215.4 206.36 216.22 206.69C217.04 207.02 217.92 207.41 218.76 207.81C218.284 205.92 217.504 204.12 216.45 202.48L213.1 204.67Z" fill="black"/>
<path d="M200.4 203.47H201.22C201.708 202.888 202.266 202.367 202.88 201.92L200.57 198.65C198.809 199.932 197.365 201.602 196.35 203.53C196.8 203.53 197.26 203.47 197.71 203.53C198.61 203.53 199.51 203.46 200.4 203.47Z" fill="black"/>
<path d="M198.49 297.45L199.65 304.84C210.581 314.997 222.727 323.764 235.81 330.94C241.423 334.083 247.747 335.739 254.18 335.75C261.533 335.748 268.72 333.562 274.83 329.47C284.784 322.818 293.988 315.106 302.28 306.47L301.94 300.56L306.94 300.27L307 301.32C322.01 284.39 332.604 264.012 337.84 242C337.4 242 336.96 242.08 336.51 242.08H335.67L335.87 238.48C333.58 247.13 331.95 253.48 331.95 253.48C332.736 249.226 333.095 244.905 333.02 240.58C322.7 284.84 292.3 311.8 272.02 325.32C267.053 328.639 261.263 330.514 255.293 330.736C249.324 330.959 243.41 329.52 238.21 326.58C191.58 300.58 174.27 267.81 167.95 244.91C167.56 243.5 167.22 242.12 166.9 240.75C167.01 244.16 167.13 246.35 167.13 246.35C164.844 243.748 162.833 240.916 161.13 237.9C161.64 240.5 162.26 243.2 163.02 245.97C163.12 246.35 163.24 246.74 163.35 247.12C164.639 247.74 166.015 248.162 167.43 248.37L166.75 253.37C166.23 253.3 165.75 253.19 165.2 253.07C169.93 266.8 178.43 282.97 193.58 298.93L193.48 298.28L198.49 297.45Z" fill="black"/>
<path d="M336.25 237.07C337.163 237.09 338.074 236.989 338.96 236.77C340.13 230.703 340.908 224.567 341.29 218.4C339.53 224.77 337.76 231.35 336.25 237.07Z" fill="black"/>
<path d="M167.51 248.36C166.095 248.152 164.719 247.731 163.43 247.11C163.97 249.03 164.58 250.99 165.28 253.02C165.79 253.14 166.28 253.25 166.83 253.32L167.51 248.36Z" fill="black"/>
<path d="M336.25 237.07C336.12 237.55 336 238.01 335.87 238.47L335.67 242.07H336.51C336.96 242.07 337.4 242.07 337.84 241.99C338.24 240.27 338.62 238.52 338.96 236.75C338.075 236.976 337.163 237.084 336.25 237.07V237.07Z" fill="black"/>
<path d="M159.08 213.92C156.86 212.72 154.9 212.52 153.08 213.36C154.343 221.947 157.094 230.248 161.21 237.89C159.629 230.002 158.915 221.964 159.08 213.92V213.92Z" fill="black"/>
<path d="M159.34 208.58C159.542 205.617 159.943 202.67 160.54 199.76L165.41 200.89C165.35 201.19 161.64 218.05 166.94 240.74C166.6 230.37 166.37 208.63 170.04 202.41C172.55 198.16 174.57 188.67 175.94 180.41C174.83 180.7 174.18 180.89 174.18 180.89C174.84 180.21 175.51 179.57 176.18 178.96C177.33 171.84 177.96 166.02 177.96 166.02C177.96 166.02 209.88 164.41 218.19 158.22C218.19 158.22 239.19 168.22 263.94 150.33C263.94 150.33 259.29 163 271.94 159.2C284.59 155.4 306.72 140.76 306.72 140.76C306.72 140.76 308.12 152.87 323.61 163C323.61 163 320.11 182.52 329.61 197.33C329.61 197.33 333.12 222.4 333.04 240.53C336.267 226.396 337.332 211.854 336.2 197.4L339.72 197.15C341.747 195.567 344.229 194.676 346.8 194.61V194.61C347.08 194.595 347.36 194.595 347.64 194.61L343.46 165.97L348.67 170.79C348.67 170.79 351.62 151.55 340.22 139.58L348.67 137.89C348.81 122.13 335.29 110.72 335.29 110.72L342.06 109.88C337.28 94.2501 318.12 86.8801 318.12 86.8801L324.03 79.7001C316.29 72.2401 294.89 69.4201 294.89 69.4201L299.68 62.1001C287.45 58.0001 272 64.6401 272 64.6401C272 64.6401 255.3 58.6401 251.73 50.3701C251.73 50.3701 245.54 56.9401 255.3 63.7001C247.899 63.6243 240.708 61.2284 234.74 56.8501C234.74 56.8501 231.83 62.9501 235.49 66.9801C235.49 66.9801 220.95 69.2401 212.13 61.9101C212.13 61.9101 210.91 69.0501 215.13 72.2401C215.13 72.2401 191.01 75.5201 184.34 72.2401C184.34 72.2401 185.1 77.6801 191.48 80.4001C191.48 80.4001 183.78 83.1301 173.48 79.4701C173.48 79.4701 170.48 84.4701 179.39 89.4701C179.39 89.4701 162.92 104.58 148 105.56C148 105.56 149.92 112.74 160.81 114.34C160.81 114.34 152.36 127.2 144.1 127.95C144.1 127.95 151.99 131.95 158.1 129.45C158.1 129.45 150.59 149.35 143.27 150.85C143.27 150.85 148.9 154.6 153.68 151.5C153.68 151.5 145.14 173.09 147.02 182.29L152.46 180.6C151.41 189.797 151.41 199.083 152.46 208.28C154.726 207.641 157.138 207.746 159.34 208.58V208.58ZM293.34 93.2001C293.72 90.9501 294.09 88.7001 294.47 86.4401C294.612 85.9299 294.951 85.497 295.413 85.2364C295.874 84.9758 296.419 84.9088 296.93 85.0501C297.43 85.1878 297.856 85.5141 298.12 85.9601C298.378 86.4336 298.452 86.9852 298.33 87.5101C297.95 89.7601 297.58 92.0101 297.2 94.2601C297.095 94.6383 296.881 94.9771 296.585 95.2345C296.288 95.4919 295.923 95.6564 295.534 95.7076C295.145 95.7587 294.749 95.6943 294.396 95.5223C294.044 95.3502 293.749 95.0782 293.55 94.7401C293.282 94.2742 293.197 93.7255 293.31 93.2001H293.34ZM294.74 121.95C294.926 121.764 295.146 121.617 295.389 121.516C295.632 121.415 295.892 121.364 296.155 121.364C296.418 121.364 296.678 121.415 296.921 121.516C297.164 121.617 297.384 121.764 297.57 121.95C297.934 122.331 298.137 122.838 298.137 123.365C298.137 123.892 297.934 124.399 297.57 124.78L283.09 141.26C282.715 141.633 282.208 141.842 281.68 141.842C281.152 141.842 280.645 141.633 280.27 141.26C280.084 141.074 279.937 140.854 279.836 140.611C279.735 140.368 279.683 140.108 279.683 139.845C279.683 139.582 279.735 139.322 279.836 139.079C279.937 138.836 280.084 138.616 280.27 138.43C285.07 132.93 289.883 127.453 294.71 122L294.74 121.95ZM284.53 114.09C285.04 114.232 285.473 114.571 285.734 115.033C285.994 115.494 286.061 116.04 285.92 116.55C283.89 121.84 280.724 126.62 276.647 130.554C272.569 134.488 267.679 137.48 262.32 139.32C262.022 139.404 261.709 139.417 261.406 139.359C261.102 139.301 260.816 139.174 260.57 138.987C260.324 138.8 260.124 138.558 259.987 138.281C259.85 138.004 259.779 137.699 259.78 137.39C260.133 134.303 260.467 131.213 260.78 128.12C256.301 130.055 252.691 133.572 250.64 138C250.508 138.228 250.332 138.427 250.122 138.586C249.913 138.746 249.674 138.862 249.419 138.929C249.165 138.996 248.9 139.012 248.639 138.976C248.378 138.94 248.127 138.853 247.9 138.72C247.452 138.442 247.128 138.003 246.994 137.494C246.86 136.984 246.927 136.442 247.18 135.98C248.667 132.866 250.817 130.115 253.479 127.92C256.141 125.724 259.25 124.137 262.59 123.27C262.887 123.188 263.199 123.177 263.501 123.235C263.803 123.294 264.088 123.422 264.333 123.608C264.578 123.795 264.776 124.036 264.913 124.312C265.049 124.588 265.12 124.892 265.12 125.2L264.12 134.3C272.302 130.597 278.716 123.849 282 115.49C282.069 115.232 282.189 114.991 282.353 114.78C282.517 114.569 282.722 114.393 282.955 114.263C283.188 114.132 283.444 114.05 283.71 114.02C283.975 113.99 284.244 114.014 284.5 114.09H284.53ZM249.53 105.21L269 86.5801C270.15 85.4801 272.61 86.1701 272.42 87.9901L271.34 97.9301C271.23 98.8701 271.13 99.8201 271.03 100.77C271.14 100.51 271.24 100.25 271.35 100C272.26 97.8701 273.18 95.7401 274.09 93.6201C275.937 89.2868 277.79 84.9535 279.65 80.6201C279.917 80.1634 280.355 79.8311 280.866 79.6961C281.378 79.5612 281.922 79.6345 282.38 79.9001C282.825 80.1779 283.147 80.615 283.281 81.1224C283.415 81.6297 283.35 82.169 283.1 82.6301C281.213 87.0368 279.327 91.4434 277.44 95.8501L274.71 102.24C274.26 103.3 273.8 104.36 273.35 105.43C273.004 106.464 272.512 107.444 271.89 108.34C271.596 108.727 271.21 109.036 270.767 109.237C270.324 109.437 269.838 109.525 269.353 109.491C268.868 109.458 268.399 109.304 267.988 109.043C267.577 108.783 267.238 108.424 267 108C266 106.33 266.63 104.15 266.83 102.37C267.16 99.3101 267.49 96.2401 267.83 93.1801L252.29 108C250.43 109.82 247.59 107 249.46 105.21H249.53ZM247.92 122.93C249.65 121.01 252.47 123.84 250.75 125.75C244.435 132.771 237.223 138.931 229.3 144.07C227.14 145.48 225.13 142.01 227.3 140.61C234.896 135.643 241.805 129.699 247.85 122.93H247.92ZM235.63 122C225.716 135.282 213.172 146.38 198.78 154.6C196.54 155.88 194.52 152.42 196.78 151.15C210.59 143.302 222.639 132.699 232.18 120C232.447 119.543 232.885 119.211 233.396 119.076C233.908 118.941 234.452 119.015 234.91 119.28C235.364 119.547 235.694 119.983 235.829 120.492C235.964 121.001 235.892 121.543 235.63 122ZM197.63 107.71L211.93 97.2501C213.51 96.0901 215.08 98.0201 214.87 99.5101C213.907 105.853 210.831 111.684 206.14 116.06C208.324 115.745 210.39 114.873 212.14 113.53C214.932 111.405 217.493 108.992 219.78 106.33C224.583 101.038 228.628 95.1046 231.8 88.7001C232.95 86.3901 236.4 88.4201 235.25 90.7001C231.638 97.9273 226.97 104.577 221.4 110.43C216.14 115.95 208.68 122.86 200.52 118.94C199.06 118.25 199.38 116.26 200.52 115.49C204.636 112.643 207.777 108.601 209.52 103.91L199.58 111.18C199.122 111.446 198.578 111.519 198.066 111.384C197.555 111.249 197.117 110.917 196.85 110.46C196.592 110.002 196.526 109.461 196.664 108.953C196.803 108.446 197.135 108.014 197.59 107.75L197.63 107.71ZM179.17 149.34C183.45 144.076 188.61 139.593 194.42 136.09C194.685 135.935 194.982 135.843 195.288 135.821C195.595 135.799 195.902 135.848 196.186 135.964C196.471 136.08 196.724 136.26 196.928 136.49C197.131 136.72 197.279 136.994 197.36 137.29C197.762 138.404 197.862 139.605 197.65 140.77C201.394 140.327 204.909 138.734 207.71 136.21C209.62 134.48 212.45 137.3 210.54 139.03C206.216 143.041 200.485 145.186 194.59 145C194.233 144.989 193.886 144.882 193.585 144.692C193.283 144.501 193.038 144.233 192.875 143.916C192.711 143.599 192.636 143.244 192.656 142.887C192.677 142.531 192.792 142.187 192.99 141.89C188.871 144.829 185.17 148.314 181.99 152.25C181.804 152.436 181.584 152.584 181.341 152.684C181.098 152.785 180.838 152.837 180.575 152.837C180.312 152.837 180.052 152.785 179.809 152.684C179.566 152.584 179.346 152.436 179.16 152.25C178.966 152.066 178.811 151.844 178.704 151.599C178.597 151.353 178.541 151.089 178.538 150.821C178.535 150.554 178.586 150.288 178.688 150.041C178.79 149.793 178.94 149.569 179.13 149.38L179.17 149.34Z" fill="black"/>
<path d="M341.29 218.4C343.21 211.4 345.12 204.71 346.68 199.66C344.689 199.863 342.835 200.766 341.45 202.21C341.674 207.606 341.62 213.01 341.29 218.4V218.4Z" fill="black"/>
<path d="M159.08 213.92C159.08 211.92 159.22 210.18 159.34 208.58C157.097 207.733 154.639 207.642 152.34 208.32C152.53 209.98 152.76 211.66 153.04 213.32C154.9 212.52 156.86 212.72 159.08 213.92Z" fill="black"/>
<path d="M346.78 194.65C344.209 194.716 341.727 195.606 339.7 197.19L341.17 197.08C341.29 198.81 341.38 200.52 341.45 202.21C342.836 200.766 344.689 199.862 346.68 199.66C347.09 198.31 347.49 197.07 347.84 195.98L347.66 194.7C347.38 194.685 347.1 194.685 346.82 194.7L346.78 194.65Z" fill="black"/>
<path d="M174.18 180.93C174.18 180.93 174.83 180.74 175.94 180.45C176.03 179.96 176.1 179.45 176.18 179C175.51 179.61 174.84 180.25 174.18 180.93Z" fill="black"/>
<path d="M336.25 237.07C337.76 231.35 339.53 224.77 341.25 218.4C341.58 213.01 341.634 207.606 341.41 202.21C341.15 202.45 340.9 202.69 340.67 202.93L337.05 199.47C337.853 198.636 338.726 197.873 339.66 197.19L336.14 197.44C337.279 211.893 336.22 226.435 333 240.57C333.075 244.895 332.717 249.216 331.93 253.47C331.93 253.47 333.56 247.12 335.85 238.47L335.93 237.07C336.05 237.08 336.15 237.07 336.25 237.07Z" fill="black"/>
<path d="M165.41 200.89L160.54 199.76C159.943 202.67 159.543 205.617 159.34 208.58C160.65 209.053 161.893 209.691 163.04 210.48L160.25 214.63C159.85 214.36 159.46 214.13 159.08 213.92C158.912 221.974 159.627 230.022 161.21 237.92C162.913 240.936 164.924 243.768 167.21 246.37C167.21 246.37 167.09 244.18 166.98 240.77C161.64 218.05 165.35 201.19 165.41 200.89Z" fill="black"/>
<path d="M163 210.48C161.853 209.691 160.61 209.052 159.3 208.58C159.18 210.18 159.08 211.96 159.04 213.92C159.42 214.13 159.81 214.36 160.21 214.63L163 210.48Z" fill="black"/>
<path d="M340.71 202.93C340.94 202.69 341.19 202.45 341.45 202.21C341.38 200.52 341.29 198.81 341.17 197.08L339.7 197.19C338.766 197.873 337.893 198.636 337.09 199.47L340.71 202.93Z" fill="black"/>
<path d="M336 237.07L335.92 238.47C336.05 238.01 336.17 237.55 336.3 237.07C336.15 237.07 336.05 237.08 336 237.07Z" fill="black"/>
<path d="M199.47 310.85L196 314L199.12 333.89L199.24 334.17C203.674 344.178 209.443 353.54 216.39 362V361H221.39V367.47C229.59 375.63 239.87 382.08 251.88 382.08C260.2 382.08 267.97 378.97 274.88 374.33C274.88 371.38 274.81 369.69 274.81 369.48L279.81 369.41C279.81 369.68 279.81 370.11 279.81 370.68C296.76 356.98 307.81 335.68 308.48 334.33L308.79 333.72L307.69 314.51L303.29 310.91L306.45 307.04L307.3 307.74L306.94 301.32C305.38 303.11 303.8 304.82 302.22 306.47L303.72 332.64C300.88 337.92 278.89 377.08 251.82 377.08C224.23 377.08 205.57 336.21 203.93 332.49L199.59 304.81C197.49 302.81 195.49 300.81 193.59 298.81L195.03 308.01L196.03 307.1L199.47 310.85Z" fill="black"/>
<path d="M199.65 304.84L198.49 297.45L193.56 298.23L193.66 298.88C195.553 300.874 197.55 302.86 199.65 304.84Z" fill="black"/>
<path d="M301.94 300.59L302.28 306.5C303.86 304.85 305.44 303.14 307 301.35L306.94 300.3L301.94 300.59Z" fill="black"/>
<path d="M253.94 391C239.04 391 228.59 388 221.39 384.4V390C229.08 393.4 239.62 396 253.94 396C261.113 396.113 268.264 395.183 275.17 393.24C275.17 391.4 275.12 389.65 275.1 388C268.255 390.133 261.109 391.147 253.94 391V391Z" fill="black"/>
<path d="M320 324.56C336.31 353.77 324.49 382.37 318 394.29C313.75 373.9 298.61 367.45 297.9 367.16L294.9 365.94L294.48 369.17C294.4 369.77 292.9 379.73 280.11 385.98C280.11 387.7 280.16 389.53 280.18 391.47C292.49 386.28 296.99 377.89 298.59 373.19C303.29 376.19 312.8 384.28 313.99 401.74L314.45 408.55L318.45 403.05C323.677 395.385 327.631 386.926 330.16 378C333.304 367.381 334.085 356.203 332.45 345.25C330.45 345.06 329.33 344.97 329.24 344.97L329.6 339.97C329.84 339.97 330.47 340.03 331.43 340.12C329.894 333.657 327.439 327.447 324.14 321.68L323.91 321.27L307.36 307.76L307.75 314.53L320 324.56Z" fill="black"/>
<path d="M175.34 341.22C175.26 341.22 174.47 341.22 173.1 341.3C171.52 345.44 170.5 349.2 170.74 351.69C170.82 352.53 170.9 353.61 171 354.9C171.89 366.78 173.75 391.51 184.86 401.72L187.02 403.72L204.52 377.29C207.745 381.464 211.783 384.941 216.39 387.51V381.51C209.25 376.67 206.9 371.77 206.86 371.68L205 367.47L186.22 395.84C178.31 385.65 176.69 364.12 175.96 354.52C175.87 353.2 175.78 352.08 175.7 351.21C175.21 346.12 183.62 329.72 189.16 320.33L196 314L195.07 308.06L185.22 317.13L185.03 317.45C184.12 318.99 179.03 327.63 175.19 336.2L175.34 341.22Z" fill="black"/>
<path d="M199.47 310.85L196.08 307.17L195.1 308.07L196.03 314.02L199.47 310.85Z" fill="black"/>
<path d="M303.35 310.94L307.75 314.54L307.36 307.77L306.51 307.07L303.35 310.94Z" fill="black"/>
<path d="M221.39 367.5C219.62 365.74 217.96 363.9 216.39 362.03V381.48C217.993 382.559 219.663 383.535 221.39 384.4V367.5Z" fill="black"/>
<path d="M216.39 387.5V665.29H221.39V390C219.68 389.257 218.011 388.423 216.39 387.5V387.5Z" fill="black"/>
<path d="M221.39 367.5V361H216.39V362C218 363.9 219.62 365.74 221.39 367.5Z" fill="black"/>
<path d="M216.39 381.48V387.48C218.01 388.41 219.679 389.251 221.39 390V384.4C219.663 383.534 217.993 382.559 216.39 381.48V381.48Z" fill="black"/>
<path d="M280.15 391.47C278.518 392.153 276.848 392.744 275.15 393.24C275.91 453.19 277.65 609.82 275.68 665.24H280.68C282.72 608.58 280.92 450.29 280.15 391.47Z" fill="black"/>
<path d="M280.08 386C279.98 378.52 279.9 373.23 279.87 370.73C278.27 372.03 276.62 373.247 274.92 374.38C274.92 377.55 275.02 382.18 275.1 388.02C276.802 387.455 278.465 386.78 280.08 386V386Z" fill="black"/>
<path d="M279.85 369.44L274.85 369.51C274.85 369.72 274.85 371.41 274.92 374.36C276.62 373.233 278.27 372.017 279.87 370.71C279.86 370.14 279.85 369.71 279.85 369.44Z" fill="black"/>
<path d="M275.1 388C275.1 389.65 275.1 391.4 275.17 393.24C276.869 392.744 278.538 392.153 280.17 391.47C280.17 389.53 280.17 387.7 280.1 385.98C278.479 386.761 276.809 387.436 275.1 388V388Z" fill="black"/>
<path d="M202.38 401.57H197.38V665.29H202.38V401.57Z" fill="black"/>
<path d="M297.8 520.3C293.67 496.3 297.8 398.53 297.8 397.55L292.8 397.33C292.62 401.38 288.61 496.62 292.8 521.14C296.93 545.14 292.8 663.92 292.8 665.14L297.8 665.31C298 660.38 302 544.81 297.8 520.3Z" fill="black"/>
<path d="M399.19 459.28L394.19 458.92C393.72 465.36 384.28 595.73 385.13 665.29H390.13C389.34 595.19 399.07 460.86 399.19 459.28Z" fill="black"/>
<path d="M111.14 458.82L106.14 459.38C106.28 460.6 118.53 570.88 116.56 665.29H121.56C123.55 570.53 111.28 460.05 111.14 458.82Z" fill="black"/>
<path d="M63.24 644.47C65.46 637.01 67.75 629.3 63.6 623.32C58.2 615.56 59.36 598.86 64.06 591.14C70.49 580.56 61.06 562.66 58.06 557.43C55.27 552.61 57.12 545.5 59.06 537.97C59.58 535.97 60.12 533.92 60.58 531.87C61.81 526.36 59.12 522.13 56.76 518.39C54.02 514.06 51.65 510.32 54.07 504.45C56.07 499.66 55.69 490.53 55.2 477.89C54.3 454.59 52.95 419.38 66.43 388.49C84.43 347.27 159.16 341.94 173.07 341.3C173.7 339.65 174.42 337.94 175.19 336.22C158.889 336.837 142.691 339.088 126.84 342.94C93.09 351.35 70.62 366.41 61.84 386.49C47.9 418.43 49.28 454.33 50.19 478.08C50.62 489.18 50.99 498.76 49.43 502.54C46.03 510.81 49.63 516.54 52.53 521.07C54.73 524.54 56.47 527.29 55.69 530.78C55.25 532.78 54.69 534.78 54.21 536.71C52.09 544.89 49.89 553.33 53.71 559.93C58.98 569.04 63.71 582 59.71 588.54C54.12 597.73 52.71 616.54 59.42 626.18C62.2 630.18 60.35 636.43 58.42 643.05C56.8 648.49 55.12 654.13 55.65 659.53C55.8326 661.473 56.167 663.399 56.65 665.29H61.9C61.2841 663.255 60.8655 661.165 60.65 659.05C60.23 654.62 61.76 649.46 63.24 644.47Z" fill="black"/>
<path d="M175.34 341.22L175.25 336.22C174.48 337.94 173.76 339.65 173.13 341.3C174.47 341.24 175.26 341.22 175.34 341.22Z" fill="black"/>
<path d="M458.57 617.19C458.156 614.459 458.303 611.672 459 609C459.87 604.47 460.86 599.34 456.76 589.64C452.03 578.46 455.39 566.58 459.65 551.54C460.6 548.19 461.58 544.72 462.51 541.11C467.77 520.63 461.95 502.71 454.58 480.03C452.12 472.46 452.99 461.69 454 449.22C455.81 426.82 458.07 398.93 440 378C414.55 348.48 344 341.22 331.45 340.15C331.857 341.87 332.19 343.577 332.45 345.27C347.69 346.74 413.13 354.52 436.19 381.27C452.88 400.62 450.8 426.27 448.97 448.83C447.92 461.83 446.97 473.06 449.78 481.58C456.91 503.5 462.53 520.8 457.62 539.88C456.71 543.43 455.74 546.88 454.8 550.19C450.45 565.54 446.7 578.8 452.11 591.59C455.62 599.9 454.86 603.86 454.05 608.06C453.243 611.332 453.103 614.733 453.64 618.06C454.5 622.9 453.28 645.06 451.89 665.3H456.89C458.25 645.69 459.54 622.68 458.57 617.19Z" fill="black"/>
<path d="M329.24 345C329.33 345 330.48 345.09 332.45 345.28C332.184 343.594 331.85 341.887 331.45 340.16C330.45 340.07 329.86 340.03 329.62 340.01L329.24 345Z" fill="black"/>
<path d="M362.22 459.44H309.22C307.739 459.456 306.314 460.009 305.21 460.997C304.107 461.985 303.399 463.34 303.22 464.81L301.94 475.35L303.64 476.1C304.44 476.45 321.81 484.1 330.93 485.89L331.02 483.66L336.02 483.85L335.93 486.18C336.55 486.12 337.2 486.02 337.93 485.9L338.04 482.7L343.04 482.88L342.97 484.72C348.397 483.137 353.738 481.272 358.97 479.13V478.66H359.97C363.1 477.38 365.43 476.37 366.14 476.05L367.48 475.46L368.37 466.07C368.449 465.225 368.351 464.372 368.082 463.566C367.814 462.76 367.38 462.02 366.809 461.391C366.237 460.763 365.541 460.26 364.765 459.915C363.989 459.571 363.149 459.392 362.3 459.39L362.22 459.44ZM362.7 472.11C355.35 475.28 339.1 481.72 333.7 481.27C328.3 480.82 314.13 475.17 307.33 472.27L308.16 465.42C308.187 465.149 308.313 464.897 308.514 464.712C308.715 464.528 308.977 464.424 309.25 464.42H362.25C362.403 464.421 362.553 464.453 362.693 464.515C362.832 464.577 362.957 464.667 363.06 464.78C363.162 464.895 363.24 465.03 363.288 465.176C363.336 465.322 363.354 465.477 363.34 465.63L362.7 472.11Z" fill="black"/>
<path d="M357.28 510C357.225 511.243 356.701 512.418 355.814 513.29C354.928 514.162 353.743 514.666 352.5 514.7L341.82 515.06L341.73 517.74L336.73 517.57L336.81 515.23L334.81 515.3L334.71 517.98L329.71 517.8L329.8 515.47L314.97 515.97C314.303 515.986 313.64 515.868 313.02 515.624C312.399 515.38 311.834 515.015 311.357 514.549C310.88 514.083 310.501 513.526 310.242 512.912C309.983 512.297 309.85 511.637 309.85 510.97V483.78H304.85V511C304.85 513.644 305.897 516.18 307.761 518.053C309.626 519.927 312.157 520.987 314.8 521H315.14L352.71 519.73C355.202 519.636 357.568 518.615 359.346 516.867C361.124 515.119 362.185 512.77 362.32 510.28L363.9 478.95L359.9 478.75L358.85 479.17L357.28 510Z" fill="black"/>
<path d="M358.84 479.13L359.89 478.71H358.89L358.84 479.13Z" fill="black"/>
<path d="M338 470.22C337.262 469.668 336.377 469.346 335.456 469.297C334.536 469.248 333.622 469.473 332.829 469.943C332.036 470.414 331.401 471.109 331.003 471.941C330.606 472.772 330.464 473.703 330.595 474.615C330.727 475.528 331.126 476.381 331.742 477.066C332.358 477.752 333.164 478.239 334.058 478.466C334.951 478.694 335.892 478.651 336.761 478.344C337.63 478.037 338.388 477.479 338.94 476.74C339.68 475.751 339.996 474.508 339.82 473.286C339.643 472.063 338.989 470.96 338 470.22V470.22Z" fill="black"/>
<path d="M207.16 426.78C207.751 427.222 208.46 427.479 209.197 427.518C209.935 427.557 210.667 427.377 211.301 426.999C211.936 426.622 212.444 426.064 212.762 425.398C213.079 424.731 213.192 423.986 213.085 423.255C212.979 422.524 212.658 421.842 212.163 421.294C211.668 420.746 211.022 420.357 210.306 420.177C209.59 419.996 208.837 420.032 208.142 420.28C207.446 420.528 206.84 420.977 206.4 421.57C205.812 422.362 205.561 423.355 205.704 424.332C205.846 425.308 206.37 426.189 207.16 426.78V426.78Z" fill="black"/>
<path d="M335.86 486.18C335.279 486.246 334.694 486.279 334.11 486.28C333.8 486.28 333.52 486.28 333.25 486.28C332.451 486.201 331.656 486.081 330.87 485.92L329.76 515.49L334.76 515.32L335.86 486.18Z" fill="black"/>
<path d="M334.11 486.28C334.695 486.279 335.279 486.246 335.86 486.18L335.95 483.85L330.95 483.66L330.86 485.89C331.646 486.051 332.441 486.172 333.24 486.25C333.52 486.27 333.8 486.28 334.11 486.28Z" fill="black"/>
<path d="M341.82 515.05L342.82 484.72C341.04 485.22 339.33 485.62 337.82 485.9L336.82 515.22L341.82 515.05Z" fill="black"/>
<path d="M342.93 482.88L337.93 482.7L337.82 485.9C339.37 485.62 341.08 485.22 342.82 484.72L342.93 482.88Z" fill="black"/>
<path d="M186.62 459.44H133.62C132.13 459.442 130.691 459.989 129.577 460.978C128.462 461.967 127.748 463.33 127.57 464.81L126.29 475.35L127.99 476.1C128.79 476.45 146.16 484.1 155.28 485.89L155.37 483.66L160.37 483.85L160.28 486.18C160.9 486.12 161.55 486.02 162.28 485.9L162.39 482.7L167.39 482.88L167.32 484.72C172.749 483.142 178.09 481.276 183.32 479.13V478.66H184.32C187.45 477.38 189.78 476.37 190.49 476.05L191.83 475.46L192.72 466.07C192.799 465.225 192.701 464.372 192.433 463.566C192.164 462.76 191.73 462.02 191.159 461.391C190.587 460.763 189.892 460.26 189.115 459.915C188.339 459.571 187.499 459.392 186.65 459.39L186.62 459.44ZM187.1 472.11C179.75 475.28 163.49 481.72 158.1 481.27C152.71 480.82 138.53 475.17 131.73 472.27L132.56 465.42C132.587 465.149 132.713 464.897 132.914 464.712C133.115 464.528 133.377 464.424 133.65 464.42H186.65C186.803 464.421 186.953 464.453 187.093 464.515C187.232 464.577 187.357 464.667 187.46 464.78C187.562 464.895 187.64 465.03 187.688 465.176C187.736 465.322 187.754 465.477 187.74 465.63L187.1 472.11Z" fill="black"/>
<path d="M181.68 510C181.625 511.243 181.101 512.418 180.214 513.29C179.327 514.162 178.143 514.666 176.9 514.7L166.22 515.06L166.13 517.74L161.13 517.57L161.21 515.23L159.21 515.3L159.11 517.98L154.11 517.8L154.2 515.47L139.37 515.97C138.703 515.986 138.04 515.868 137.42 515.624C136.799 515.38 136.234 515.015 135.757 514.549C135.28 514.083 134.9 513.526 134.642 512.912C134.383 512.297 134.25 511.637 134.25 510.97V483.78H129.25V511C129.25 513.644 130.297 516.18 132.161 518.053C134.026 519.927 136.557 520.987 139.2 521H139.54L177.11 519.73C179.602 519.636 181.968 518.615 183.746 516.867C185.524 515.119 186.585 512.77 186.72 510.28L188.3 478.95L184.3 478.75L183.3 479.17L181.68 510Z" fill="black"/>
<path d="M183.24 479.13L184.24 478.71H183.24V479.13Z" fill="black"/>
<path d="M162.39 470.22C161.652 469.668 160.767 469.346 159.846 469.297C158.926 469.248 158.011 469.473 157.218 469.943C156.426 470.414 155.79 471.109 155.393 471.941C154.995 472.772 154.853 473.703 154.985 474.615C155.116 475.528 155.515 476.381 156.132 477.066C156.748 477.752 157.554 478.239 158.447 478.466C159.341 478.694 160.281 478.651 161.15 478.344C162.02 478.037 162.778 477.479 163.33 476.74C164.069 475.751 164.386 474.508 164.209 473.286C164.033 472.063 163.379 470.96 162.39 470.22V470.22Z" fill="black"/>
<path d="M160.26 486.18C159.679 486.246 159.095 486.279 158.51 486.28C158.2 486.28 157.92 486.28 157.65 486.28C156.851 486.201 156.057 486.081 155.27 485.92L154.16 515.49L159.16 515.32L160.26 486.18Z" fill="black"/>
<path d="M158.51 486.28C159.095 486.279 159.679 486.246 160.26 486.18L160.35 483.85L155.35 483.66L155.26 485.89C156.046 486.051 156.841 486.172 157.64 486.25C157.92 486.27 158.2 486.28 158.51 486.28Z" fill="black"/>
<path d="M166.22 515.05L167.22 484.72C165.44 485.22 163.73 485.62 162.22 485.9L161.22 515.22L166.22 515.05Z" fill="black"/>
<path d="M167.33 482.88L162.33 482.7L162.22 485.9C163.77 485.62 165.48 485.22 167.22 484.72L167.33 482.88Z" fill="black"/>
<path d="M199.61 111.2L209.55 103.93C207.807 108.621 204.666 112.664 200.55 115.51C199.41 116.28 199.09 118.27 200.55 118.96C208.71 122.88 216.17 115.96 221.43 110.45C227 104.597 231.668 97.9475 235.28 90.7203C236.43 88.4203 232.98 86.3903 231.83 88.7203C228.646 95.1419 224.584 101.089 219.76 106.39C217.473 109.052 214.912 111.465 212.12 113.59C210.37 114.934 208.304 115.805 206.12 116.12C210.811 111.744 213.887 105.913 214.85 99.5703C215.06 98.0803 213.49 96.1503 211.91 97.3103L197.61 107.77C197.155 108.039 196.825 108.477 196.692 108.989C196.559 109.5 196.634 110.044 196.9 110.5C197.17 110.948 197.606 111.273 198.112 111.403C198.619 111.534 199.157 111.461 199.61 111.2V111.2Z" fill="white"/>
<path d="M252.29 108L267.8 93.2102C267.46 96.2702 267.13 99.3402 266.8 102.4C266.6 104.18 266.02 106.4 266.97 108.03C267.211 108.449 267.551 108.802 267.961 109.058C268.371 109.314 268.837 109.464 269.319 109.496C269.801 109.527 270.284 109.439 270.724 109.24C271.163 109.04 271.547 108.734 271.84 108.35C272.462 107.454 272.954 106.475 273.3 105.44C273.75 104.37 274.21 103.31 274.66 102.25L277.39 95.8602C279.277 91.4602 281.164 87.0536 283.05 82.6402C283.3 82.1791 283.365 81.6398 283.231 81.1325C283.098 80.6252 282.775 80.188 282.33 79.9102C281.872 79.6447 281.328 79.5713 280.816 79.7063C280.305 79.8412 279.867 80.1735 279.6 80.6302C277.74 84.9636 275.887 89.2969 274.04 93.6302C273.13 95.7502 272.21 97.8802 271.3 100.01C271.19 100.26 271.09 100.52 270.98 100.78C271.08 99.7802 271.18 98.8802 271.29 97.9402L272.37 88.0002C272.56 86.1802 270.1 85.4902 268.95 86.5902L249.46 105.22C247.59 107 250.43 109.82 252.29 108Z" fill="white"/>
<path d="M294.71 95.66C294.963 95.7298 295.228 95.749 295.489 95.7164C295.75 95.6838 296.002 95.6001 296.23 95.47C296.459 95.34 296.659 95.1662 296.821 94.9586C296.982 94.751 297.101 94.5136 297.17 94.26C297.55 92.01 297.92 89.76 298.3 87.51C298.422 86.9851 298.347 86.4335 298.09 85.96C297.826 85.514 297.4 85.1877 296.9 85.05C296.389 84.9087 295.844 84.9757 295.382 85.2363C294.921 85.4969 294.582 85.9298 294.44 86.44C294.06 88.7 293.69 90.95 293.31 93.2C293.187 93.7217 293.262 94.2702 293.52 94.74C293.782 95.1899 294.209 95.5199 294.71 95.66V95.66Z" fill="white"/>
<path d="M182 152.2C185.181 148.264 188.881 144.779 193 141.84C192.802 142.137 192.687 142.481 192.666 142.837C192.646 143.194 192.722 143.549 192.885 143.866C193.048 144.183 193.293 144.451 193.595 144.642C193.896 144.832 194.244 144.939 194.6 144.95C200.469 145.149 206.182 143.038 210.51 139.07C212.42 137.34 209.59 134.52 207.68 136.25C204.879 138.774 201.364 140.367 197.62 140.81C197.832 139.645 197.732 138.444 197.33 137.33C197.249 137.034 197.102 136.76 196.898 136.53C196.694 136.3 196.441 136.121 196.156 136.004C195.872 135.888 195.565 135.839 195.259 135.861C194.952 135.883 194.655 135.975 194.39 136.13C188.58 139.633 183.421 144.116 179.14 149.38C178.768 149.755 178.559 150.262 178.559 150.79C178.559 151.319 178.768 151.825 179.14 152.2C179.326 152.391 179.549 152.542 179.794 152.645C180.04 152.749 180.304 152.802 180.57 152.802C180.837 152.802 181.1 152.749 181.346 152.645C181.591 152.542 181.814 152.391 182 152.2Z" fill="white"/>
<path d="M234.91 119.3C234.452 119.034 233.908 118.961 233.396 119.096C232.885 119.231 232.447 119.563 232.18 120.02C222.635 132.728 210.579 143.338 196.76 151.19C194.52 152.46 196.54 155.92 198.76 154.64C213.163 146.41 225.715 135.299 235.63 122C235.886 121.545 235.954 121.008 235.82 120.503C235.685 119.999 235.359 119.567 234.91 119.3V119.3Z" fill="white"/>
<path d="M229.23 144.07C237.153 138.931 244.365 132.772 250.68 125.75C252.4 123.84 249.58 121.01 247.85 122.93C241.777 129.705 234.838 135.65 227.21 140.61C225.06 142 227.07 145.48 229.23 144.07Z" fill="white"/>
<path d="M282 115.49C278.704 123.863 272.266 130.617 264.06 134.31L265.06 125.21C265.06 124.902 264.99 124.598 264.853 124.322C264.716 124.046 264.518 123.805 264.273 123.618C264.028 123.431 263.744 123.304 263.441 123.245C263.139 123.186 262.827 123.198 262.53 123.28C259.2 124.156 256.102 125.748 253.451 127.945C250.8 130.142 248.66 132.891 247.18 136C246.927 136.462 246.86 137.004 246.994 137.513C247.128 138.023 247.452 138.462 247.9 138.74C248.127 138.873 248.378 138.96 248.639 138.996C248.9 139.032 249.165 139.016 249.42 138.949C249.674 138.882 249.913 138.765 250.122 138.606C250.332 138.447 250.508 138.247 250.64 138.02C252.691 133.587 256.305 130.065 260.79 128.13C260.45 131.217 260.117 134.307 259.79 137.4C259.79 137.709 259.861 138.014 259.998 138.291C260.135 138.568 260.334 138.81 260.58 138.997C260.826 139.184 261.112 139.311 261.416 139.369C261.72 139.427 262.033 139.413 262.33 139.33C267.689 137.49 272.579 134.498 276.657 130.564C280.734 126.63 283.9 121.85 285.93 116.56C286.072 116.049 286.005 115.504 285.744 115.042C285.483 114.581 285.05 114.242 284.54 114.1C284.282 114.018 284.01 113.989 283.741 114.015C283.471 114.041 283.21 114.121 282.973 114.251C282.735 114.381 282.526 114.558 282.359 114.771C282.192 114.984 282.07 115.228 282 115.49V115.49Z" fill="white"/>
<path d="M280.24 141.26C280.615 141.633 281.122 141.842 281.65 141.842C282.178 141.842 282.685 141.633 283.06 141.26L297.54 124.78C297.904 124.399 298.107 123.892 298.107 123.365C298.107 122.838 297.904 122.332 297.54 121.95C297.354 121.764 297.134 121.617 296.891 121.516C296.648 121.416 296.388 121.364 296.125 121.364C295.862 121.364 295.602 121.416 295.359 121.516C295.116 121.617 294.896 121.764 294.71 121.95C289.89 127.444 285.067 132.937 280.24 138.43C280.054 138.616 279.906 138.837 279.806 139.079C279.705 139.322 279.653 139.583 279.653 139.845C279.653 140.108 279.705 140.368 279.806 140.611C279.906 140.854 280.054 141.075 280.24 141.26Z" fill="white"/>
<path d="M206.72 225.37C211.52 225.37 215.43 219.83 215.43 213.01C215.448 210.5 214.869 208.022 213.74 205.78C212.847 205.48 211.947 205.21 211.04 204.97C209.295 204.529 207.529 204.172 205.75 203.9C204.86 203.82 203.98 203.66 203.08 203.61L201.22 203.51C199.065 206.197 197.925 209.557 198 213C198 219.83 201.93 225.37 206.72 225.37Z" fill="black"/>
<path d="M291.27 222.42C296.07 222.42 299.97 216.88 299.97 210.06C300.058 206.617 298.928 203.253 296.78 200.56L294.92 200.66C294.02 200.66 293.14 200.86 292.25 200.95C290.485 201.217 288.733 201.567 287 202C286.09 202.23 285.19 202.51 284.29 202.81C283.169 205.054 282.593 207.531 282.61 210.04C282.57 216.88 286.48 222.42 291.27 222.42Z" fill="black"/>
<path d="M330.25 194.33L330.57 195.86C330.57 195.99 333.36 209.52 326.01 220.16C321.38 226.88 313.7 231.16 303.18 232.74C269.45 237.98 265.38 220.96 265.23 220.28C265.15 219.84 263.09 209.57 248.45 208.79C236.14 208.13 234.6 215.72 233.6 220.79C233.428 221.789 233.188 222.774 232.88 223.74C231.67 226.1 214.71 238.05 188.41 233.8C163.11 229.73 164.13 205.34 164.18 204.3V203.67L160.95 198.4C160.67 200.46 160.34 202.52 160 204.4L160.18 204.69C160.18 209.06 161.36 233.43 187.77 237.69C191.7 238.342 195.676 238.677 199.66 238.69C221.57 238.69 235.35 228.53 236.61 225.15C237.006 223.972 237.31 222.765 237.52 221.54C238.52 216.6 239.35 212.33 248.24 212.8C259.62 213.41 261.24 220.73 261.31 221.05C261.46 221.82 264.99 237.76 291.23 237.76C295.437 237.734 299.637 237.383 303.79 236.71C315.46 234.9 324.05 230.09 329.33 222.42C336.17 212.48 335.33 200.78 334.75 196.6L339.3 194.38C339.3 192.94 339.21 191.48 339.14 190L330.25 194.33Z" fill="black"/>
</g>
<defs>
<clipPath id="clip0_23_7802">
<rect width="500" height="500" fill="white"/>
</clipPath>
</defs>
</svg>
