<svg id="Layer_1" data-name="Layer 1" xmlns="http://www.w3.org/2000/svg" xmlns:xlink="http://www.w3.org/1999/xlink" viewBox="0 0 500 500"><defs><style>.cls-1{fill:#f4d9ce;}.cls-2{clip-path:url(#clip-path);}.cls-3{fill:#fff;}.cls-4{clip-path:url(#clip-path-2);}.cls-5{fill:#df7962;}.cls-6{fill:#ffbdab;}.cls-7{fill:#ffeadb;}</style><clipPath id="clip-path"><circle class="cls-1" cx="250" cy="-260" r="215.67"/></clipPath><clipPath id="clip-path-2"><circle class="cls-1" cx="250" cy="250" r="215.67"/></clipPath></defs><circle class="cls-1" cx="250" cy="-260" r="215.67"/><g class="cls-2"><polygon class="cls-3" points="119.2 30.35 179.77 30.35 157.2 -101.99 113.44 -90.93 116.05 26.26 119.2 30.35"/><path class="cls-3" d="M341.2-58.55,344.61,36H369l-4.79-96.71A96.9,96.9,0,0,1,341.2-58.55Z"/><path d="M227.08,36h4.86a3.83,3.83,0,0,1-.74-.88C231.06,34.82,229.4,35.3,227.08,36Z"/><path d="M242.59,36h19.74a10.38,10.38,0,0,1-1.09-.5C255.09,32.25,247,33.35,242.59,36Z"/><path d="M364.17-60.72l-.32-6.46,5-.25.27,5.46c19.47-5.61,28-16.1,28-16.1s-5.26-67.58-19.9-92.73-45.43-26.28-61.8-25.53c-10.23.47-16.58-2.58-19.9-4.93a8.67,8.67,0,0,0,.73,1.18l-4,3a15.45,15.45,0,0,1-2-3.72c-5.68,6.79-21.19,22.59-42.64,22.59-18.92,0-33.65-11.08-40.91-17.89a11.65,11.65,0,0,1-.65,1.16l-4.16-2.78a8.23,8.23,0,0,0,1-2.28c-.74-.81-1.14-1.3-1.14-1.3s-51.8,9.29-70.39,25.06-36,83.9-36,83.9c2.83,4,8.88,8.07,15.67,11.79l-.15-5,5-.14.23,7.75a253.22,253.22,0,0,0,24.87,10.59V31.55c1.71,1.54,3.47,3,5.24,4.44H210.1a5.26,5.26,0,0,1,.27-1.63c3.75-12.39-5-6.19-6.38-8.63s8.44-16.14,12-18-6.2-4.32-3-14.45c0,0,26.09,12.57,55.18,2.44,0,0,11.45,21.39,11.26,27s-9.94,5.25-9,7.5c.58,1.38-.33,4.46-2.76,5.76h76.94L341.2-58.55A96.9,96.9,0,0,0,364.17-60.72ZM179.77-21.2c12.95-7.32,22.34-25,22.34-25L204-13.5C200.23-19.88,179.77-21.2,179.77-21.2Zm67.39-124.45c10.7-1.31,24,33.6,24,33.6a52.34,52.34,0,0,1-23.55,9.76,33.43,33.43,0,0,1-23.56-5.82S236.46-144.33,247.16-145.65ZM275.5-17.26s-34.16,23.65-66.45,0c0,0-1.87-64.19,12.2-87.84,0,0,11.83,7.88,25,8.07s24-7.13,24-7.13S283.76-40.53,275.5-17.26Zm7.13,3.76,2.07-33.6s13.89,20.27,25.53,22.71Z"/><path d="M114.2,30.49l5-.14L116.05-77.9c-1.72-.85-3.42-1.74-5.08-2.65Z"/><path d="M364.17-60.72,369,36h5l-4.85-98Q366.75-61.29,364.17-60.72Z"/><path class="cls-3" d="M267.67,36h-5.34A6.12,6.12,0,0,0,267.67,36Z"/><path class="cls-3" d="M231.2,35.11a3.83,3.83,0,0,0,.74.88h10.65c4.4-2.64,12.5-3.74,18.65-.5a10.38,10.38,0,0,0,1.09.5h5.34c2.43-1.3,3.34-4.38,2.76-5.76-.93-2.25,8.83-1.87,9-7.5s-11.26-27-11.26-27C239.09,5.83,213-6.74,213-6.74c-3.2,10.13,6.56,12.57,3,14.45s-13.43,15.58-12,18,10.13-3.76,6.38,8.63A5.26,5.26,0,0,0,210.1,36h17C229.4,35.3,231.06,34.82,231.2,35.11Z"/></g><circle class="cls-1" cx="250" cy="250" r="215.67"/><g class="cls-4"><path class="cls-5" d="M139.41,346.82c-4.8-5.35-6.64-10.66-7-15.37-2.42,1.62-5,4-5.88,6.95-.78,2.74,0,5.64,2.48,8.88,6.37,8.43,4.1,13.28,2.44,16.82-1.46,3.12-2.26,4.83,2.85,9.67s10.12,4.57,14.13,4.33a24.24,24.24,0,0,1,3.61,0,30.75,30.75,0,0,1-8.69-4.79C133.53,365.12,139.41,346.82,139.41,346.82Z"/><path d="M173.51,385.11a18.24,18.24,0,0,1,9,.36c1.09-2.28.41-4.34-2.06-6.27l-.41-.3c-3.57,2.21-9.69,2.77-16.14,2l-.55.58a11.69,11.69,0,0,0,4.64,9.68C169.52,387.93,171.56,385.49,173.51,385.11Z"/><path class="cls-3" d="M152.22,383.16a.4.4,0,0,0-.13,0c-.09,1.64-.23,4-.41,7,.08-.42.16-.84.25-1.28C152.87,384.07,152.25,383.2,152.22,383.16Z"/><path class="cls-5" d="M251.69,353.33c34,0,44.19-24.59,46.87-34.35-1,0-1.94.06-2.75.1-1.68,6.83-9.63,27.71-44.12,27.71-35.36,0-47.27-17.45-50-22.49-.59-.08-1.39-.18-2.34-.25C203.64,332.52,217.59,353.33,251.69,353.33Z"/><path d="M320.19,385.11c1.95.38,4,2.82,5.55,6.06a11.64,11.64,0,0,0,4.63-9.68c-.15-.17-.34-.36-.55-.58-6.44.76-12.56.2-16.13-2l-.41.29c-2.47,1.93-3.15,4-2.06,6.27A18.2,18.2,0,0,1,320.19,385.11Z"/><path class="cls-5" d="M328.17,395.6c-.21.15-.43.28-.65.41a26.74,26.74,0,0,1,.73,3.69c5.34-1,9.39-3.34,12-6.9,3.89-5.24,4-12.06,3.75-15.72a46.7,46.7,0,0,1-8.79,2.9l0,.13A16.65,16.65,0,0,1,328.17,395.6Z"/><path class="cls-6" d="M346.25,221.52c3.75-6.38,5.5-15.42,1.34-19.61-1.9-1.91-3.66-2.71-5.38-2.44-3.06.48-5.74,4.26-6.77,6.1a179.19,179.19,0,0,1-.31,24.91C339.63,230,343.7,225.86,346.25,221.52Z"/><path class="cls-6" d="M148.77,210.64c-1.74-.11-3.41.88-5.11,3C140,218.21,142.6,227,147,233c3,4.15,7.63,8,12.24,7.78a148.47,148.47,0,0,1-3-24.62C155.06,214.46,151.94,210.82,148.77,210.64Z"/><path class="cls-5" d="M166.18,396c-.22-.13-.44-.26-.65-.41a16.7,16.7,0,0,1-7.1-15.49l0-.13c-1.12-.25-2.23-.55-3.33-.88a4.87,4.87,0,0,1,.87.78c1.63,1.86,1.87,4.74.84,9.94-1.38,7-2.29,12.59-.28,14.87,1.34,1.52,4.36,2.31,9.61,2.44C164.89,404.15,165.12,400,166.18,396Z"/><path class="cls-6" d="M294.75,176.24a61,61,0,0,0-22,2.33s-1.35-5-.21-6.9c.36-.61,3.81-1.59,8.71-2-13.33-7.5-32.36-21.18-36.88-40,0,0-3,27.31-33.48,44.17,4.71.47,8,1.41,8.34,2,1.14,1.93-.2,6.9-.2,6.9a60.76,60.76,0,0,0-23.77-2.17c-3,1-6.22,1.89-9.62,2.67,0,0-9.9,16.75-24.5,24.82-.15,15.06,2,51.89,24.59,76.7,15.19,16.69,37,25.15,64.84,25.15,26,0,46-8.15,59.48-24.22,21.64-25.77,21.51-65.82,20-84.82C325.91,191.74,316.41,179.37,294.75,176.24ZM239,241.71a1.52,1.52,0,0,1,1.36.57l.25.33a14.48,14.48,0,0,0,1.39,1.67,5.85,5.85,0,0,0,1.57,1.12,5.37,5.37,0,0,0,1.67.45,7.82,7.82,0,0,0,1.91-.12,6.65,6.65,0,0,0,1.83-.59,8.21,8.21,0,0,0,1.64-1.14,11.61,11.61,0,0,0,1.46-1.69,20.34,20.34,0,0,0,1.23-2l.14-.23a1.48,1.48,0,0,1,2.76.79,10.51,10.51,0,0,1-.64,3.17A11.13,11.13,0,0,1,254,247a10.41,10.41,0,0,1-2.57,2.37,9.7,9.7,0,0,1-3.31,1.3,9.92,9.92,0,0,1-3.57.11,8.63,8.63,0,0,1-3.46-1.43,8,8,0,0,1-2.38-2.67,8.47,8.47,0,0,1-1-3.24A1.53,1.53,0,0,1,239,241.71Zm-18.68-29a11.18,11.18,0,1,1-18.84-8.11,30.26,30.26,0,0,0-9,3.25,79.66,79.66,0,0,0-8.08,5.34l4.24,8-8.33-7.35-1-.84,1-1.64h0c0-.1.09-.2.14-.3a12.36,12.36,0,0,1-3.22-1.44,14.92,14.92,0,0,1-2.92-2.34,14.1,14.1,0,0,1-2.2-2.88A23.57,23.57,0,0,0,175.2,206a19.47,19.47,0,0,0,3.14,1,12.15,12.15,0,0,0,3,.28c.49,0,1,0,1.42,0a24.38,24.38,0,0,1,2.91-3.2,10.36,10.36,0,0,1-1.09-.59,16.52,16.52,0,0,1-2.88-2.26,14.78,14.78,0,0,1-2.24-2.77,24.44,24.44,0,0,0,3,1.78,19.58,19.58,0,0,0,3.08,1.23,12.86,12.86,0,0,0,2.75.5l.32-.24a25.81,25.81,0,0,1,4.84-2.51A18.22,18.22,0,0,1,192,197a14.93,14.93,0,0,1-1.38-3.28,24.6,24.6,0,0,0,2.34,2.53,19.08,19.08,0,0,0,2.62,2c.07,0,.16.08.23.13a26.47,26.47,0,0,1,5.5-.81,27.42,27.42,0,0,1,12.64,2.77,29.22,29.22,0,0,1,5.33,3.28,23.53,23.53,0,0,1,4.39,4.3q-2.81-1.08-5.57-1.86A11.17,11.17,0,0,1,220.31,212.73Zm40.48,74.59-1.4.06c-.47,0-.93,0-1.39.05-1.84.08-3.65.21-5.46.37s-3.6.44-5.39.77a50.38,50.38,0,0,0-5.42,1.34,13.86,13.86,0,0,1,4.93-3,22.44,22.44,0,0,1,5.64-1.36,24.37,24.37,0,0,1,5.79.1,27.22,27.22,0,0,1,2.83.56,24.54,24.54,0,0,1,2.72,1C262.66,287.29,261.72,287.28,260.79,287.32Zm15.46-19.46a40.65,40.65,0,0,1-5.07,4.29c-.91.64-1.81,1.25-2.79,1.85a9.48,9.48,0,0,1-3.63,1.23,21.1,21.1,0,0,1-3.51.1,21.06,21.06,0,0,0-3,.05,10,10,0,0,0-2.66.61,10.69,10.69,0,0,0-1.26.55l-.83.4c-.3.13-.62.25-.94.36a9.11,9.11,0,0,1-4.09.34,9.58,9.58,0,0,1-3.76-1.4c-.28-.18-.54-.36-.8-.55l-.27-.21-.18-.13a2.15,2.15,0,0,0-1.69-.23l-.21.06-.31.12-.83.35a14.5,14.5,0,0,1-3.5,1,13.12,13.12,0,0,1-3.65-.06,11.07,11.07,0,0,1-6.25-3.23.65.65,0,0,1,0-.91.65.65,0,0,1,.77-.09l.08.05a11.26,11.26,0,0,0,5.63,1.55,11.55,11.55,0,0,0,5.5-1.39l.64-.34.43-.23.54-.23a5.59,5.59,0,0,1,2.33-.33,5.84,5.84,0,0,1,2.28.63c.18.1.35.19.52.3l.39.26a4.65,4.65,0,0,0,.56.34,5.54,5.54,0,0,0,4.63.58l.58-.22.64-.28a13.67,13.67,0,0,1,1.73-.71,13,13,0,0,1,3.69-.72c2.48-.1,4.68.39,6.48.35a6.89,6.89,0,0,0,2.58-.54c.95-.4,1.92-.87,2.87-1.34,1.92-.93,3.81-2,5.69-3h0a.54.54,0,0,1,.72.2A.54.54,0,0,1,276.25,267.86Zm41.25-64.68a15.62,15.62,0,0,1-2.92,2.34,12.93,12.93,0,0,1-3.23,1.44l.15.3h0l1,1.64-.95.84-8.33,7.34,4.23-8a77.91,77.91,0,0,0-8.07-5.34,30,30,0,0,0-9-3.25,11.18,11.18,0,1,1-16.6,1.43q-2.76.78-5.57,1.85a23.85,23.85,0,0,1,4.39-4.3,29.09,29.09,0,0,1,5.32-3.27,27.32,27.32,0,0,1,12.64-2.77,25.73,25.73,0,0,1,5.5.81c.08-.05.16-.08.24-.14a19.09,19.09,0,0,0,2.61-2,23.72,23.72,0,0,0,2.34-2.54,14.09,14.09,0,0,1-1.38,3.29,17.45,17.45,0,0,1-1.45,2.17,25,25,0,0,1,4.85,2.51l.31.24a12.28,12.28,0,0,0,2.76-.51,19,19,0,0,0,3.08-1.23,23.83,23.83,0,0,0,3-1.78,14.47,14.47,0,0,1-2.24,2.77,15.62,15.62,0,0,1-2.88,2.26,10.28,10.28,0,0,1-1.08.6A23.68,23.68,0,0,1,309,203c.47,0,.93.05,1.42,0a12.27,12.27,0,0,0,3-.28,20.41,20.41,0,0,0,3.13-1,25,25,0,0,0,3.13-1.52A14.86,14.86,0,0,1,317.5,203.18Z"/><path class="cls-3" d="M188.6,221.25a42.74,42.74,0,0,0,21.22,5.45,22.28,22.28,0,0,0,9.42-2,11.26,11.26,0,0,0,4.52-16.6l-.12-.17c-3.87-5.54-21.13-7.53-26.27-5.77s-15.72,9.21-15.72,9.21Z"/><path class="cls-3" d="M303.19,217.07A42.75,42.75,0,0,1,282,222.52a22.26,22.26,0,0,1-9.41-2,11.25,11.25,0,0,1-4.52-16.6l.12-.17c3.87-5.54,21.12-7.53,26.26-5.77s15.73,9.21,15.73,9.21Z"/><path class="cls-6" d="M130.9,377.4c-7.15-6.77-6-11-3.94-15.42,1.14-2.44,2.09-4.49.38-8.06-4.27,9.21-14,32.84-11.87,52.89,2.23,21-10.22,94.67-15.92,126.65h37.06c2.95-26.79,7.86-105,10.47-150.28C142.72,383.35,136.81,383,130.9,377.4Z"/><path class="cls-5" d="M187,387.67c7.58,5.26,9.84,15.88,7.8,17.44-3,2.25-7-1.83-9.29,2.53a5.6,5.6,0,0,1-1.44,1.69c.49,2.24,1.66,5.71,4.33,7.85,2.13,1.71,5,2.31,8.42,1.78a86.21,86.21,0,0,0,11.55-2.68c6.91-2,12.37-3.55,18.19,2.26l.43.43c3.51,3.52,6.55,6.52,9.74,6.44,2.74-.1,6-2.4,10-7,13.76-16,26.31-6.79,28.68-4.79,1,.6,6.26.66,13.19-1.47,5.27-1.62,9.48-3.89,12-6.37a3.57,3.57,0,0,1-1.6-.66c-2-1.56.22-12.18,7.8-17.44-2.12-4.41-.89-9,3.48-12.41l.06-.05c-5-7.4-8.39-19.44,6-25.85,0,0-10.63-16.34-4.64-29.87a69.52,69.52,0,0,0-7.92-.53c-2.57,9.81-13.49,39.37-52,39.37-39.72,0-54.6-27.18-57.85-34.39A30.85,30.85,0,0,0,183.78,326c1.22,11.75-6.32,23.37-6.32,23.37,14.37,6.41,11,18.45,6,25.85l.06.05C187.87,378.66,189.1,383.26,187,387.67ZM298.58,344.8a1.52,1.52,0,0,1,2.05.53q2.72,4.43,5.41,8.85a1.5,1.5,0,1,1-2.59,1.51L298,346.85A1.53,1.53,0,0,1,298.58,344.8ZM286.29,353a1.54,1.54,0,0,1,1.84,1l9.94,23.65a1.51,1.51,0,0,1-1,1.85,1.57,1.57,0,0,1-1.85-1l-9.94-23.66A1.5,1.5,0,0,1,286.29,353ZM276,363.74c.33-1.91,3.22-1.09,2.89.79a57.8,57.8,0,0,0,.29,21c.38,1.89-2.51,2.69-2.89.8A61.82,61.82,0,0,1,276,363.74ZM267,372a174.63,174.63,0,0,1,3.55,18.4,1.53,1.53,0,0,1-1.05,1.84,1.5,1.5,0,0,1-1.84-1,173.65,173.65,0,0,0-3.55-18.4C263.67,370.87,266.57,370.08,267,372ZM256.66,368c.14-1.92,3.14-1.93,3,0q-1.1,14.61-1.34,29.27a1.5,1.5,0,0,1-3,0Q255.56,382.66,256.66,368ZM241,393.77A206.19,206.19,0,0,0,242.91,365a1.5,1.5,0,0,1,3,0,211.25,211.25,0,0,1-2,29.53C243.6,396.47,240.7,395.66,241,393.77Zm-7.71-30.43c.43-1.89,3.32-1.08,2.89.8a197.82,197.82,0,0,0-4.58,32.05c-.11,1.92-3.11,1.93-3,0A202.16,202.16,0,0,1,233.26,363.34ZM224,360.13A235.3,235.3,0,0,1,209.52,390a1.5,1.5,0,0,1-2.59-1.52,230.34,230.34,0,0,0,14.2-29.17C221.84,357.56,224.74,358.33,224,360.13Zm-29.25,15.76c1.82-3.72,5.85-5.69,8.55-8.69a25.11,25.11,0,0,0,5.67-11c.45-1.88,3.34-1.08,2.89.8a28.18,28.18,0,0,1-5.81,11.58,32.91,32.91,0,0,1-4.7,4.44,13.62,13.62,0,0,0-4,4.37C196.51,379.14,193.92,377.62,194.77,375.89Z"/><path class="cls-6" d="M206.22,322.13c2.3,4.21,12.94,19.66,45.47,19.66,32.13,0,38.32-19.39,39.37-24.25-1.2-1.5-2.66-4.49-2.34-9.89q-16.43,7.22-38.15,7.25c-16.36,0-30.78-2.81-43.14-8.39C208.36,310.86,208.84,317,206.22,322.13Z"/><path class="cls-6" d="M383,392.35c.76-22.82-13.8-45.19-22.53-56.49a27,27,0,0,1-6.2,11s5.87,18.3-4,26.47c-.48.4-1,.77-1.53,1.14.47,3.16,1.41,13.38-4.46,21.31a21.23,21.23,0,0,1-4,4.08c-.81,13.15-4.8,84.22.3,133.64h42.23C382.58,491.69,382.23,416.22,383,392.35Z"/><path class="cls-7" d="M335.12,402.83a29.78,29.78,0,0,1-6.91,2,9.09,9.09,0,0,1-1.4,3.68c-4.51,6.48-16.33,3.52-18.58-.84a3.87,3.87,0,0,0-1.57-1.72c-3.41,6.16-12.56,10.21-20.27,12-3.24.75-11.13,2.19-14.26-.46s-11.53-7.56-21.66,4.23c-5,5.81-9.32,8.59-13.59,8.74h-.39c-5.18,0-9-3.84-13.07-7.9l-.43-.43c-3.56-3.57-6-3.08-13.27-1a90.79,90.79,0,0,1-12.18,2.83c-4.92.74-9.07-.22-12.33-2.85a18.24,18.24,0,0,1-5.75-9.44,15.09,15.09,0,0,1-6.75.41c-1.72.08-3.33.12-4.79.12-8.21,0-12.58-1.27-15.12-4.16a9,9,0,0,1-2-3.74c-2.17,36-6.38,103.1-9.23,129.21h194C330.74,486.64,334,422.13,335.12,402.83Z"/><path d="M179.48,281.13a7.38,7.38,0,0,1,1.49,5.78c.34.4.69.79,1,1.18a76.12,76.12,0,0,0,19.36,15.34c-.16-.46-.27-.72-.27-.74l4.61-1.93a34.94,34.94,0,0,1,1.72,5.75c12.36,5.58,26.78,8.39,43.14,8.39q21.71,0,38.15-7.25a32.93,32.93,0,0,1,.64-4.72l4.9,1q-.12.57-.21,1.11a67.9,67.9,0,0,0,19.6-15.91c-.85-1.31-2.06-4.25.57-8,0,0,15.12-19.45,15.75-32.77a24.1,24.1,0,0,1,2.41.56c1-4.52,1.72-9,2.24-13.41h-.28a12.57,12.57,0,0,1-3.44-.47l1.35-4.82a7.68,7.68,0,0,0,2.88.25,179.19,179.19,0,0,0,.31-24.91l-.21.39-1.23-.62a31.52,31.52,0,0,0-.89,5.76,33.57,33.57,0,0,0-1.79-7.1l-.56-.28c.05-.09.14-.27.27-.49q-.43-1.14-1-2.37c1.52,19,1.65,59.05-20,84.82-13.5,16.07-33.51,24.22-59.48,24.22-27.83,0-49.65-8.46-64.84-25.15-22.58-24.81-24.74-61.64-24.59-76.7-.83.46-1.67.9-2.53,1.29,0,0-.83-.18-2.15-.35a22.64,22.64,0,0,1,4.13,4.73l-4.22,2.67-.17-.25a148.47,148.47,0,0,0,3,24.62,7.8,7.8,0,0,0,2.57-.52l1.83,4.65a12.44,12.44,0,0,1-3.26.8c.28,1.08.56,2.17.87,3.26,1.53-.43,2.5-.59,2.5-.59C164.37,261.68,179.48,281.13,179.48,281.13Z"/><path d="M147,233c-4.38-6-7-14.77-3.32-19.36,1.7-2.1,3.37-3.09,5.11-3,3.17.18,6.29,3.82,7.43,5.5-.11-2.69-.13-5.11-.12-7.19-4.22-.49-12.53-.69-15.46,4.81,0,0-.65-.72-1.69-2.09-4.36,7-1.12,17.27,4,24.27,4.66,6.35,10.47,9.84,16,9.84a13.34,13.34,0,0,0,1.41-.09q-.62-2.49-1.14-4.93C154.61,240.94,150,237.13,147,233Z"/><path d="M156.2,216.14l.17.25,4.22-2.67a22.64,22.64,0,0,0-4.13-4.73l-.38,0C156.07,211,156.09,213.45,156.2,216.14Z"/><path d="M161.79,240.24a7.8,7.8,0,0,1-2.57.52q.53,2.44,1.14,4.93a12.44,12.44,0,0,0,3.26-.8Z"/><path d="M335.21,202c.08,1.12.16,2.31.23,3.54,1-1.84,3.71-5.62,6.77-6.1,1.72-.27,3.48.53,5.38,2.44,4.16,4.19,2.41,13.23-1.34,19.61-2.55,4.34-6.62,8.52-11.12,9-.14,1.65-.31,3.33-.51,5,5.84-.13,11.7-4.25,15.94-11.45,4.67-7.94,6.84-19.36.58-25.67l-.32-.3c-.89,1.35-1.45,2.06-1.45,2.06S339.69,193.19,335.21,202Z"/><path d="M334,205.34l1.23.62.21-.39c-.07-1.23-.15-2.42-.23-3.54A16.6,16.6,0,0,0,334,205.34Z"/><path d="M332.25,230.23l-1.35,4.82a12.57,12.57,0,0,0,3.44.47h.28c.2-1.7.37-3.38.51-5A7.68,7.68,0,0,1,332.25,230.23Z"/><path d="M330.76,203.72l.56.28c-.09-.25-.2-.51-.29-.77C330.9,203.45,330.81,203.63,330.76,203.72Z"/><path d="M272.75,178.57a61,61,0,0,1,22-2.33h0a118.77,118.77,0,0,1-13.5-6.61c-4.9.45-8.35,1.43-8.71,2C271.4,173.61,272.75,178.57,272.75,178.57Z"/><path d="M306.88,207l.72-3.94a9.25,9.25,0,0,1,1.39,0,23.68,23.68,0,0,0-2.9-3.2,15.26,15.26,0,0,1-2.42.91,7.77,7.77,0,0,1-3.92,0l.46-3c1-.07,2,0,3-.06l.32,0-.31-.24a25,25,0,0,0-4.85-2.51c-.21.27-.44.54-.68.8a12.93,12.93,0,0,1-3,2.42,7.82,7.82,0,0,1-3.75,1.12l-.39-3c.94-.34,1.89-.51,2.84-.88a12.58,12.58,0,0,0,2.57-1.23,25.73,25.73,0,0,0-5.5-.81,27.32,27.32,0,0,0-12.64,2.77,29.09,29.09,0,0,0-5.32,3.27,23.85,23.85,0,0,0-4.39,4.3q2.81-1.06,5.57-1.85a11.11,11.11,0,0,1,16.6-1.43,30,30,0,0,1,9,3.25,77.91,77.91,0,0,1,8.07,5.34l.95-1.79A7.44,7.44,0,0,1,306.88,207Z"/><path d="M308.36,207.27v2.48h0l-1-.69-4.23,8,8.33-7.34.95-.84-1-1.64h0l-.15-.3-.39.13A7.55,7.55,0,0,1,308.36,207.27Z"/><path d="M308.37,209.75v-2.48h0l-.95,1.79,1,.69Z"/><path d="M298.34,195a17.45,17.45,0,0,0,1.45-2.17,14.09,14.09,0,0,0,1.38-3.29,23.72,23.72,0,0,1-2.34,2.54,19.09,19.09,0,0,1-2.61,2c-.08.06-.16.09-.24.14.39.1.77.19,1.16.31S297.94,194.81,298.34,195Z"/><path d="M290.57,196.33l.39,3a7.82,7.82,0,0,0,3.75-1.12,12.93,12.93,0,0,0,3-2.42c.24-.26.47-.53.68-.8-.4-.16-.8-.31-1.2-.44s-.77-.21-1.16-.31a12.58,12.58,0,0,1-2.57,1.23C292.46,195.82,291.51,196,290.57,196.33Z"/><path d="M307.17,199.23a15.62,15.62,0,0,0,2.88-2.26,14.47,14.47,0,0,0,2.24-2.77,23.83,23.83,0,0,1-3,1.78,19,19,0,0,1-3.08,1.23,12.28,12.28,0,0,1-2.76.51,25.33,25.33,0,0,1,2.59,2.11A10.28,10.28,0,0,0,307.17,199.23Z"/><path d="M300.21,197.8l-.46,3a7.77,7.77,0,0,0,3.92,0,15.26,15.26,0,0,0,2.42-.91,25.33,25.33,0,0,0-2.59-2.11l-.32,0C302.16,197.83,301.21,197.73,300.21,197.8Z"/><path d="M313.44,202.79a12.27,12.27,0,0,1-3,.28c-.49,0-1,0-1.42,0a21.56,21.56,0,0,1,2.36,3.93,12.93,12.93,0,0,0,3.23-1.44,15.62,15.62,0,0,0,2.92-2.34,14.86,14.86,0,0,0,2.2-2.88,25,25,0,0,1-3.13,1.52A20.41,20.41,0,0,1,313.44,202.79Z"/><polygon points="308.36 207.26 308.36 207.27 308.36 207.27 308.36 207.26"/><path d="M307.6,203.05l-.72,3.94a7.44,7.44,0,0,0,1.48.28h0a7.55,7.55,0,0,0,2.6-.18l.39-.13A21.56,21.56,0,0,0,309,203,9.25,9.25,0,0,0,307.6,203.05Z"/><path d="M279.3,200.62a55.57,55.57,0,0,0-5.6,1.28,11.17,11.17,0,1,0,16.6-1.43l-.41-.08A32.91,32.91,0,0,0,279.3,200.62Zm3.34,15.13a7.18,7.18,0,1,1,7.17-7.17A7.18,7.18,0,0,1,282.64,215.75Z"/><path d="M273.7,201.9a55.57,55.57,0,0,1,5.6-1.28,32.91,32.91,0,0,1,10.59-.23l.41.08a11.11,11.11,0,0,0-16.6,1.43Z"/><path d="M219,182.73s1.34-5,.2-6.9c-.35-.6-3.63-1.54-8.34-2a89.23,89.23,0,0,1-15.63,6.74A60.76,60.76,0,0,1,219,182.73Z"/><path d="M219.26,203.61a29.22,29.22,0,0,0-5.33-3.28,27.42,27.42,0,0,0-12.64-2.77,26.47,26.47,0,0,0-5.5.81,13.54,13.54,0,0,0,2.58,1.24c.95.36,1.89.53,2.84.88l-.39,3a7.74,7.74,0,0,1-3.76-1.11,13.19,13.19,0,0,1-2.95-2.43c-.24-.26-.46-.53-.68-.8a25.81,25.81,0,0,0-4.84,2.51l-.32.24.33,0c1,.08,2,0,3,0l.45,3a7.88,7.88,0,0,1-3.92,0,14.79,14.79,0,0,1-2.41-.91,24.38,24.38,0,0,0-2.91,3.2,9.24,9.24,0,0,1,1.39,0l.72,3.94a7.36,7.36,0,0,1-1.47.29l.94,1.78a79.66,79.66,0,0,1,8.08-5.34,30.26,30.26,0,0,1,9-3.25,11.14,11.14,0,0,1,16.61,1.43q2.76.78,5.57,1.86A23.53,23.53,0,0,0,219.26,203.61Z"/><path d="M183.41,213.9v-2.47a7.5,7.5,0,0,1-2.59-.19l-.4-.13c0,.1-.1.2-.14.3h0l-1,1.64,1,.84,8.33,7.35-4.24-8-1,.69Z"/><path d="M183.41,211.43v2.47h0l1-.69-.94-1.78Z"/><path d="M195.79,198.37c-.07-.05-.16-.08-.23-.13a19.08,19.08,0,0,1-2.62-2,24.6,24.6,0,0,1-2.34-2.53A14.93,14.93,0,0,0,192,197a18.22,18.22,0,0,0,1.45,2.17c.4-.15.8-.31,1.21-.43S195.41,198.47,195.79,198.37Z"/><path d="M197.06,202.35a7.74,7.74,0,0,0,3.76,1.11l.39-3c-1-.35-1.89-.52-2.84-.88a13.54,13.54,0,0,1-2.58-1.24c-.38.1-.77.2-1.15.32s-.81.28-1.21.43c.22.27.44.54.68.8A13.19,13.19,0,0,0,197.06,202.35Z"/><path d="M185.52,201.37a19.58,19.58,0,0,1-3.08-1.23,24.44,24.44,0,0,1-3-1.78,14.78,14.78,0,0,0,2.24,2.77,16.52,16.52,0,0,0,2.88,2.26,10.36,10.36,0,0,0,1.09.59,26.34,26.34,0,0,1,2.58-2.11A12.86,12.86,0,0,1,185.52,201.37Z"/><path d="M192,204.92l-.45-3c-1-.07-2,0-3,0l-.33,0a26.34,26.34,0,0,0-2.58,2.11,14.79,14.79,0,0,0,2.41.91A7.88,7.88,0,0,0,192,204.92Z"/><path d="M181.36,207.22a12.15,12.15,0,0,1-3-.28,19.47,19.47,0,0,1-3.14-1,23.57,23.57,0,0,1-3.12-1.52,14.1,14.1,0,0,0,2.2,2.88,14.92,14.92,0,0,0,2.92,2.34,12.36,12.36,0,0,0,3.22,1.44,21.56,21.56,0,0,1,2.36-3.93C182.32,207.2,181.85,207.23,181.36,207.22Z"/><path d="M183.41,211.43h0a7.36,7.36,0,0,0,1.47-.29l-.72-3.94a9.24,9.24,0,0,0-1.39,0,21.56,21.56,0,0,0-2.36,3.93l.4.13A7.5,7.5,0,0,0,183.41,211.43Z"/><polygon points="183.41 211.43 183.42 211.43 183.41 211.42 183.41 211.43"/><path d="M201.89,204.54l-.42.08a11.17,11.17,0,1,0,16.61,1.43,55.75,55.75,0,0,0-5.61-1.28A33.14,33.14,0,0,0,201.89,204.54Zm14.42,8.19a7.18,7.18,0,1,1-7.17-7.17A7.17,7.17,0,0,1,216.31,212.73Z"/><path d="M209.14,201.56a11.16,11.16,0,0,0-7.67,3.06l.42-.08a33.14,33.14,0,0,1,10.58.23,55.75,55.75,0,0,1,5.61,1.28A11.15,11.15,0,0,0,209.14,201.56Z"/><path d="M238.7,246.63a8,8,0,0,0,2.38,2.67,8.63,8.63,0,0,0,3.46,1.43,9.92,9.92,0,0,0,3.57-.11,9.7,9.7,0,0,0,3.31-1.3A10.41,10.41,0,0,0,254,247a11.13,11.13,0,0,0,1.57-2.91,10.51,10.51,0,0,0,.64-3.17,1.48,1.48,0,0,0-2.76-.79l-.14.23a20.34,20.34,0,0,1-1.23,2,11.61,11.61,0,0,1-1.46,1.69,8.21,8.21,0,0,1-1.64,1.14,6.65,6.65,0,0,1-1.83.59,7.82,7.82,0,0,1-1.91.12,5.37,5.37,0,0,1-1.67-.45,5.85,5.85,0,0,1-1.57-1.12,14.48,14.48,0,0,1-1.39-1.67l-.25-.33a1.52,1.52,0,0,0-2.7,1.11A8.47,8.47,0,0,0,238.7,246.63Z"/><path d="M275.62,267h0c-1.88,1-3.77,2.07-5.69,3-1,.47-1.92.94-2.87,1.34a6.89,6.89,0,0,1-2.58.54c-1.8,0-4-.45-6.48-.35a13,13,0,0,0-3.69.72,13.67,13.67,0,0,0-1.73.71l-.64.28-.58.22a5.54,5.54,0,0,1-4.63-.58,4.65,4.65,0,0,1-.56-.34l-.39-.26c-.17-.11-.34-.2-.52-.3a5.84,5.84,0,0,0-2.28-.63,5.59,5.59,0,0,0-2.33.33l-.54.23-.43.23-.64.34a11.55,11.55,0,0,1-5.5,1.39,11.26,11.26,0,0,1-5.63-1.55l-.08-.05a.65.65,0,0,0-.77.09.65.65,0,0,0,0,.91,11.07,11.07,0,0,0,6.25,3.23,13.12,13.12,0,0,0,3.65.06,14.5,14.5,0,0,0,3.5-1l.83-.35.31-.12.21-.06a2.15,2.15,0,0,1,1.69.23l.18.13.27.21c.26.19.52.37.8.55a9.58,9.58,0,0,0,3.76,1.4,9.11,9.11,0,0,0,4.09-.34c.32-.11.64-.23.94-.36l.83-.4a10.69,10.69,0,0,1,1.26-.55,10,10,0,0,1,2.66-.61,21.06,21.06,0,0,1,3-.05,21.1,21.1,0,0,0,3.51-.1,9.48,9.48,0,0,0,3.63-1.23c1-.6,1.88-1.21,2.79-1.85a40.65,40.65,0,0,0,5.07-4.29.54.54,0,0,0,.09-.63A.54.54,0,0,0,275.62,267Z"/><path d="M258.09,285.63a24.37,24.37,0,0,0-5.79-.1,22.44,22.44,0,0,0-5.64,1.36,13.86,13.86,0,0,0-4.93,3,50.38,50.38,0,0,1,5.42-1.34c1.79-.33,3.59-.58,5.39-.77s3.62-.29,5.46-.37c.46,0,.92,0,1.39-.05l1.4-.06c.93,0,1.87,0,2.85-.15a24.54,24.54,0,0,0-2.72-1A27.22,27.22,0,0,0,258.09,285.63Z"/><path d="M149.06,205.65a12.45,12.45,0,0,1,7,3c0-4.53.3-7.4.34-7.88l5,.47c0,.11-.23,2.62-.27,6.78,14.6-8.07,24.5-24.82,24.5-24.82,3.4-.78,6.6-1.68,9.62-2.67-13,1.45-20.89,6.82-20.89,6.82,8.12-13.22,25.94-14.6,36.52-13.56,30.51-16.86,33.48-44.17,33.48-44.17,4.52,18.8,23.55,32.48,36.88,40,10.62-1,28.13.53,36.16,13.6,0,0-8.62-5.86-22.66-7,21.66,3.13,31.16,15.5,35.29,24.62-.52-6.51-1.21-10.56-1.23-10.71l4.92-.87c.1.55.64,3.77,1.14,8.84a12.37,12.37,0,0,1,6.54-3.59c3.26-.52,6.43.69,9.41,3.56,6.15-9.26,28.22-48.85-4.71-98.61-37.73-57-107-29.15-107-29.15S174.92,63,139.41,118.2c-30.8,47.85-7.27,84.56-.48,93.47a13.65,13.65,0,0,1,.84-1.2C142.52,207.08,145.65,205.46,149.06,205.65Z"/><path d="M156.43,200.8c0,.48-.29,3.35-.34,7.88l.37.31c1.32.17,2.15.35,2.15.35.86-.39,1.7-.83,2.53-1.29,0-4.16.26-6.67.27-6.78Z"/><path d="M333.11,211.1a31.52,31.52,0,0,1,.89-5.76L331.32,204A33.57,33.57,0,0,1,333.11,211.1Z"/><path d="M334.87,198.12c-.5-5.07-1-8.29-1.14-8.84l-4.92.87c0,.15.71,4.2,1.23,10.71q.56,1.23,1,2.37A22.5,22.5,0,0,1,334.87,198.12Z"/><path d="M156.08,209a2.44,2.44,0,0,0,0-.27,12.45,12.45,0,0,0-7-3c-3.41-.19-6.54,1.43-9.29,4.82a13.65,13.65,0,0,0-.84,1.2c1,1.37,1.69,2.09,1.69,2.09C143.55,208.26,151.86,208.46,156.08,209Z"/><path d="M156.08,209l.38,0-.37-.31A2.44,2.44,0,0,1,156.08,209Z"/><path d="M341.41,194.53a12.37,12.37,0,0,0-6.54,3.59c.12,1.21.23,2.51.34,3.91,4.48-8.84,14.16-1.88,14.16-1.88s.56-.71,1.45-2.06C347.84,195.22,344.67,194,341.41,194.53Z"/><path d="M334.87,198.12a22.5,22.5,0,0,0-3.84,5.11c.09.26.2.52.29.77l2.68,1.34a16.6,16.6,0,0,1,1.21-3.31C335.1,200.63,335,199.33,334.87,198.12Z"/><path d="M294.75,176.24c14,1.13,22.66,7,22.66,7-8-13.07-25.54-14.57-36.16-13.6a118.77,118.77,0,0,0,13.5,6.61Z"/><path d="M174.37,187.38s7.9-5.37,20.89-6.82a89.23,89.23,0,0,0,15.63-6.74C200.31,172.78,182.49,174.16,174.37,187.38Z"/><path d="M180,378.9c-7.37-5.37-13.68-.46-16.14,2C170.33,381.67,176.45,381.11,180,378.9Z"/><path d="M137.24,328.89a25.93,25.93,0,0,0-4.79,2.56c.32,4.71,2.16,10,7,15.37,0,0-5.88,18.3,4,26.47a30.75,30.75,0,0,0,8.69,4.79,6.06,6.06,0,0,1,3,1c1.1.33,2.21.63,3.33.88l.08-.54.42-.52c3.87-4.85,13.94-11.85,24.49-3.71,5-7.4,8.39-19.44-6-25.85,0,0,7.54-11.62,6.32-23.37a19.91,19.91,0,0,0-4.53,2.55l-3-4A25.08,25.08,0,0,1,182.7,321a20.77,20.77,0,0,0-5.81-8.64s8.56-13,2.59-22.49a6.27,6.27,0,0,0,1.49-3c-10.06-11.51-16.12-25.05-19.74-38-6.76,1.91-24.45,9.34-17.56,33.68,0,0-18.58,14.92-6.48,32.38a26.68,26.68,0,0,0-4.39,10.43,26.7,26.7,0,0,1,2.66-1.23Zm40.7,29.94a1.55,1.55,0,0,1,.9-.69,1.52,1.52,0,0,1,1.16.15,1.6,1.6,0,0,1,.69.9l.75,2.63a1.54,1.54,0,0,1-.16,1.15,1.5,1.5,0,0,1-.89.69,1.52,1.52,0,0,1-1.16-.15,1.56,1.56,0,0,1-.69-.9l-.75-2.62A1.61,1.61,0,0,1,177.94,358.83Zm-3.6-61.56a1.54,1.54,0,0,1,.44-1.06,1.5,1.5,0,0,1,1.06-.44,1.52,1.52,0,0,1,1.06.44,1.54,1.54,0,0,1,.44,1.06v3a1.59,1.59,0,0,1-.44,1.07,1.49,1.49,0,0,1-1.06.43,1.51,1.51,0,0,1-1.06-.43,1.59,1.59,0,0,1-.44-1.07Zm-.9,18.65a1.46,1.46,0,0,1,1.06-.44,1.06,1.06,0,0,1,.58.13,1.14,1.14,0,0,1,.48.31,1,1,0,0,1,.31.48,1.15,1.15,0,0,1,.13.58l.14,1.83a1.47,1.47,0,0,1-.44,1.06,1.54,1.54,0,0,1-1.06.44,1.15,1.15,0,0,1-.58-.13,1.24,1.24,0,0,1-.48-.31,1.14,1.14,0,0,1-.31-.48,1.17,1.17,0,0,1-.13-.58L173,317A1.46,1.46,0,0,1,173.44,315.92Zm-14.52,58.92a1.51,1.51,0,0,1-2,.53l-6.4-4.47a1.54,1.54,0,0,1-.54-2.06,1.5,1.5,0,0,1,2-.53l6.4,4.47A1.54,1.54,0,0,1,158.92,374.84Zm-.3-38.22a9.67,9.67,0,0,1-1.59-1.76,12.59,12.59,0,0,1-1.89-4,.69.69,0,0,1,1.17-.65l0,0c.93,1,1.82,2,2.73,2.93a14.12,14.12,0,0,0,1.36,1.18,3.7,3.7,0,0,0,1.2.57.69.69,0,0,1,.2,0,.58.58,0,0,1,.18,0,1.84,1.84,0,0,0,.53-.2,3,3,0,0,0,1-.92,13.27,13.27,0,0,0,1.55-3.5v0a.28.28,0,0,1,.36-.17.26.26,0,0,1,.16.15,6.36,6.36,0,0,1,.21,4.66,4.84,4.84,0,0,1-1.66,2.24,3.18,3.18,0,0,1-.64.38,3.29,3.29,0,0,1-.71.29,8.41,8.41,0,0,1-.85.15,7.73,7.73,0,0,1-.84-.05A5.45,5.45,0,0,1,158.62,336.62Zm12.44,21a.29.29,0,0,1,.36-.17.29.29,0,0,1,.16.15,6.36,6.36,0,0,1,.21,4.66,4.84,4.84,0,0,1-1.66,2.24,3.18,3.18,0,0,1-.64.38,3.29,3.29,0,0,1-.71.29,6.31,6.31,0,0,1-.85.15,7.73,7.73,0,0,1-.84,0,5.45,5.45,0,0,1-2.52-1.26,9.67,9.67,0,0,1-1.59-1.76,12.59,12.59,0,0,1-1.89-4,.69.69,0,0,1,1.17-.65l0,0c.93,1,1.82,2,2.73,2.93a15.44,15.44,0,0,0,1.36,1.18,3.7,3.7,0,0,0,1.2.57.69.69,0,0,1,.2,0,.38.38,0,0,1,.18,0,2.24,2.24,0,0,0,.53-.21,3,3,0,0,0,1-.92,13.27,13.27,0,0,0,1.55-3.5ZM161.23,277a12.46,12.46,0,0,1,1.35-4.24.69.69,0,0,1,.94-.29.7.7,0,0,1,.37.61v.05c0,1.36,0,2.73,0,4a13.65,13.65,0,0,0,.19,1.79,3.7,3.7,0,0,0,.49,1.24.64.64,0,0,1,.13.15.49.49,0,0,1,.15.1,2.17,2.17,0,0,0,.53.21,3.08,3.08,0,0,0,1.36,0,13.7,13.7,0,0,0,3.52-1.51l0,0a.28.28,0,0,1,.4.34,6.45,6.45,0,0,1-3,3.56,4.79,4.79,0,0,1-2.74.51,3.08,3.08,0,0,1-.73-.16,2.91,2.91,0,0,1-.72-.27,8.21,8.21,0,0,1-.73-.47,6.63,6.63,0,0,1-.57-.61,5.4,5.4,0,0,1-1-2.63A9.84,9.84,0,0,1,161.23,277Zm-4,27.54a3.72,3.72,0,0,0,.89,1,.61.61,0,0,0,.35.14,1.78,1.78,0,0,0,.57,0,3,3,0,0,0,1.28-.45,13.68,13.68,0,0,0,2.78-2.63l0,0a.28.28,0,0,1,.39,0,.27.27,0,0,1,.09.2A6.33,6.33,0,0,1,162,307.1a4.7,4.7,0,0,1-2.39,1.42,2.64,2.64,0,0,1-.73.11,2.85,2.85,0,0,1-.77,0,7.52,7.52,0,0,1-.85-.18c-.25-.12-.51-.24-.75-.38a5.53,5.53,0,0,1-1.84-2.13,9.49,9.49,0,0,1-.78-2.24,12.54,12.54,0,0,1-.2-4.44.7.7,0,0,1,.79-.59.68.68,0,0,1,.55.44l0,0c.48,1.28.89,2.59,1.39,3.75A12.87,12.87,0,0,0,157.25,304.51Zm-2.18-41.17c-4.64,4.93-7.46,13.23-7.46,13.23A12.94,12.94,0,0,1,155.07,263.34Zm-7.54,24.21c-7.4,8.31-6.68,24.85-6.68,24.85C134.94,295.72,147.53,287.55,147.53,287.55Zm-9.77,44.91c.7,6.34,4.36,5.21,7,9.58s-2.39,11.26-2.39,11.26,3.66-5.63-.7-10.84S137.76,332.46,137.76,332.46Z"/><path d="M179.48,281.13s-15.11-19.45-15.75-32.77c0,0-1,.16-2.5.59,3.62,12.91,9.68,26.45,19.74,38A7.38,7.38,0,0,0,179.48,281.13Z"/><path d="M183.69,407.19a21.4,21.4,0,0,0,.35,2.14,5.6,5.6,0,0,0,1.44-1.69c2.25-4.36,6.34-.28,9.29-2.53,2-1.56-.22-12.18-7.8-17.44a12.72,12.72,0,0,1-1.24,2.05,19.66,19.66,0,0,1-14.6,7.48,10,10,0,0,1-4.95-1.19c-1.06,3.94-1.29,8.14,0,11.12,2.67.07,5.9,0,9.81-.3l.34,5c-1.26.09-2.45.15-3.6.21a15.09,15.09,0,0,0,6.75-.41,22.13,22.13,0,0,1-.75-4.1Zm-7.29-5.27a1.51,1.51,0,0,1-.9.69,1.22,1.22,0,0,1-.6,0,1.16,1.16,0,0,1-.56-.18,1.51,1.51,0,0,1-.68-.9c0-.15-.11-.31-.17-.46a5.51,5.51,0,0,0-.49-.85l-.17-.19a1.61,1.61,0,0,1-.44-1.06,1.56,1.56,0,0,1,.44-1.06,1.53,1.53,0,0,1,1.06-.44,1.5,1.5,0,0,1,1.06.44,6.77,6.77,0,0,1,1.6,2.83A1.54,1.54,0,0,1,176.4,401.92Zm2.71-6.69a1.5,1.5,0,0,1,2.12,0,22.14,22.14,0,0,1,2.3,3.3,1.52,1.52,0,0,1,.15,1.16,1.45,1.45,0,0,1-.68.89,1.57,1.57,0,0,1-1.16.16,1.59,1.59,0,0,1-.9-.69,20.54,20.54,0,0,0-1.54-2.34l-.29-.36a1.57,1.57,0,0,1-.38-.66l-.06-.4A1.5,1.5,0,0,1,179.11,395.23Z"/><path d="M181.71,386.75a8.14,8.14,0,0,0,.78-1.28,18.24,18.24,0,0,0-9-.36c-1.95.38-4,2.82-5.54,6.06.14.11.28.23.43.33C171.36,393.57,178.57,391,181.71,386.75Z"/><path d="M165.53,395.6c.21.15.43.28.65.41a28.08,28.08,0,0,1,1.79-4.84,11.69,11.69,0,0,1-4.64-9.68l.55-.58a51.8,51.8,0,0,1-5.43-.93l0,.13A16.7,16.7,0,0,0,165.53,395.6Z"/><path d="M180,378.9l.41.3c2.47,1.93,3.15,4,2.06,6.27a16,16,0,0,1,4.48,2.2c2.13-4.41.9-9-3.47-12.41l-.06-.05c-.49.72-1,1.4-1.48,2A7.56,7.56,0,0,1,180,378.9Z"/><path d="M180,378.9a7.56,7.56,0,0,0,1.94-1.67c.5-.62,1-1.3,1.48-2-10.55-8.14-20.62-1.14-24.49,3.71l-.42.52-.08.54a51.8,51.8,0,0,0,5.43.93C166.34,378.44,172.65,373.53,180,378.9Z"/><path d="M181.71,386.75c-3.14,4.25-10.35,6.82-13.31,4.75-.15-.1-.29-.22-.43-.33a28.08,28.08,0,0,0-1.79,4.84,10,10,0,0,0,4.95,1.19,19.66,19.66,0,0,0,14.6-7.48,12.72,12.72,0,0,0,1.24-2.05,16,16,0,0,0-4.48-2.2A8.14,8.14,0,0,1,181.71,386.75Z"/><path class="cls-3" d="M155.07,263.34a12.94,12.94,0,0,0-7.46,13.23S150.43,268.27,155.07,263.34Z"/><path class="cls-3" d="M147.53,287.55s-12.59,8.17-6.68,24.85C140.85,312.4,140.13,295.86,147.53,287.55Z"/><path class="cls-3" d="M142.4,353.3s5.07-6.9,2.39-11.26-6.33-3.24-7-9.58c0,0-.43,4.79,3.94,10S142.4,353.3,142.4,353.3Z"/><path class="cls-3" d="M162.19,282a6.63,6.63,0,0,0,.57.61,8.21,8.21,0,0,0,.73.47,2.91,2.91,0,0,0,.72.27,3.08,3.08,0,0,0,.73.16,4.79,4.79,0,0,0,2.74-.51,6.45,6.45,0,0,0,3-3.56.28.28,0,0,0-.4-.34l0,0a13.7,13.7,0,0,1-3.52,1.51,3.08,3.08,0,0,1-1.36,0,2.17,2.17,0,0,1-.53-.21.49.49,0,0,0-.15-.1.64.64,0,0,0-.13-.15,3.7,3.7,0,0,1-.49-1.24,13.65,13.65,0,0,1-.19-1.79c-.07-1.27,0-2.64,0-4v-.05a.7.7,0,0,0-.37-.61.69.69,0,0,0-.94.29,12.46,12.46,0,0,0-1.35,4.24,9.84,9.84,0,0,0,0,2.37A5.4,5.4,0,0,0,162.19,282Z"/><path class="cls-3" d="M155,299.1a.68.68,0,0,0-.55-.44.7.7,0,0,0-.79.59,12.54,12.54,0,0,0,.2,4.44,9.49,9.49,0,0,0,.78,2.24,5.53,5.53,0,0,0,1.84,2.13c.24.14.5.26.75.38a7.52,7.52,0,0,0,.85.18,2.85,2.85,0,0,0,.77,0,2.64,2.64,0,0,0,.73-.11A4.7,4.7,0,0,0,162,307.1a6.33,6.33,0,0,0,1.61-4.38.27.27,0,0,0-.09-.2.28.28,0,0,0-.39,0l0,0a13.68,13.68,0,0,1-2.78,2.63,3,3,0,0,1-1.28.45,1.78,1.78,0,0,1-.57,0,.61.61,0,0,1-.35-.14,3.72,3.72,0,0,1-.89-1,12.87,12.87,0,0,1-.8-1.62c-.5-1.16-.91-2.47-1.39-3.75Z"/><path class="cls-3" d="M162,337.93a8.41,8.41,0,0,0,.85-.15,3.29,3.29,0,0,0,.71-.29,3.18,3.18,0,0,0,.64-.38,4.84,4.84,0,0,0,1.66-2.24,6.36,6.36,0,0,0-.21-4.66.26.26,0,0,0-.16-.15.28.28,0,0,0-.36.17v0a13.27,13.27,0,0,1-1.55,3.5,3,3,0,0,1-1,.92,1.84,1.84,0,0,1-.53.2.58.58,0,0,0-.18,0,.69.69,0,0,0-.2,0,3.7,3.7,0,0,1-1.2-.57,14.12,14.12,0,0,1-1.36-1.18c-.91-.89-1.8-1.93-2.73-2.93l0,0a.69.69,0,0,0-1.17.65,12.59,12.59,0,0,0,1.89,4,9.67,9.67,0,0,0,1.59,1.76,5.45,5.45,0,0,0,2.52,1.26A7.73,7.73,0,0,0,162,337.93Z"/><path class="cls-3" d="M168.5,362.09a2.24,2.24,0,0,1-.53.21.38.38,0,0,0-.18,0,.69.69,0,0,0-.2,0,3.7,3.7,0,0,1-1.2-.57,15.44,15.44,0,0,1-1.36-1.18c-.91-.89-1.8-1.93-2.73-2.93l0,0a.69.69,0,0,0-1.17.65,12.59,12.59,0,0,0,1.89,4,9.67,9.67,0,0,0,1.59,1.76,5.45,5.45,0,0,0,2.52,1.26,7.73,7.73,0,0,0,.84,0,6.31,6.31,0,0,0,.85-.15,3.29,3.29,0,0,0,.71-.29,3.18,3.18,0,0,0,.64-.38,4.84,4.84,0,0,0,1.66-2.24,6.36,6.36,0,0,0-.21-4.66.29.29,0,0,0-.16-.15.29.29,0,0,0-.36.17v0a13.27,13.27,0,0,1-1.55,3.5A3,3,0,0,1,168.5,362.09Z"/><path class="cls-3" d="M175.06,384.7a1.62,1.62,0,0,1-.53.21.62.62,0,0,0-.18,0,.64.64,0,0,0-.2,0,3.7,3.7,0,0,1-1.2-.57,15.44,15.44,0,0,1-1.36-1.18c-.91-.88-1.79-1.93-2.73-2.92l0,0a.69.69,0,0,0-.69-.19.68.68,0,0,0-.49.84,12.71,12.71,0,0,0,1.89,4,10.06,10.06,0,0,0,1.59,1.77,5.54,5.54,0,0,0,2.52,1.25,7.89,7.89,0,0,0,.84.05,6.31,6.31,0,0,0,.85-.15,2.85,2.85,0,0,0,.71-.29,2.77,2.77,0,0,0,.64-.38,4.86,4.86,0,0,0,1.66-2.23,6.39,6.39,0,0,0-.21-4.67.33.33,0,0,0-.16-.15.28.28,0,0,0-.35.17v0a13.45,13.45,0,0,1-1.55,3.5A3,3,0,0,1,175.06,384.7Z"/><path class="cls-3" d="M173.27,319.39a1.14,1.14,0,0,0,.31.48,1.24,1.24,0,0,0,.48.31,1.15,1.15,0,0,0,.58.13,1.54,1.54,0,0,0,1.06-.44,1.47,1.47,0,0,0,.44-1.06L176,317a1.15,1.15,0,0,0-.13-.58,1,1,0,0,0-.31-.48,1.14,1.14,0,0,0-.48-.31,1.06,1.06,0,0,0-.58-.13A1.5,1.5,0,0,0,173,317l.14,1.83A1.17,1.17,0,0,0,173.27,319.39Z"/><path class="cls-3" d="M175.83,301.72a1.49,1.49,0,0,0,1.06-.43,1.59,1.59,0,0,0,.44-1.07v-3a1.54,1.54,0,0,0-.44-1.06,1.52,1.52,0,0,0-1.06-.44,1.5,1.5,0,0,0-1.06.44,1.54,1.54,0,0,0-.44,1.06v3a1.59,1.59,0,0,0,.44,1.07A1.51,1.51,0,0,0,175.83,301.72Z"/><path class="cls-3" d="M178.54,362.61a1.56,1.56,0,0,0,.69.9,1.52,1.52,0,0,0,1.16.15,1.5,1.5,0,0,0,.89-.69,1.54,1.54,0,0,0,.16-1.15l-.75-2.63a1.6,1.6,0,0,0-.69-.9,1.52,1.52,0,0,0-1.16-.15,1.55,1.55,0,0,0-.9.69,1.61,1.61,0,0,0-.15,1.16Z"/><path class="cls-3" d="M158.38,372.78l-6.4-4.47a1.5,1.5,0,0,0-2,.53,1.54,1.54,0,0,0,.54,2.06l6.4,4.47a1.51,1.51,0,0,0,2-.53A1.54,1.54,0,0,0,158.38,372.78Z"/><path class="cls-3" d="M179.11,397.35l.29.36a20.54,20.54,0,0,1,1.54,2.34,1.59,1.59,0,0,0,.9.69,1.57,1.57,0,0,0,1.16-.16,1.45,1.45,0,0,0,.68-.89,1.52,1.52,0,0,0-.15-1.16,22.14,22.14,0,0,0-2.3-3.3,1.5,1.5,0,0,0-2.56,1.06l.06.4A1.57,1.57,0,0,0,179.11,397.35Z"/><path class="cls-3" d="M175,397.94a1.5,1.5,0,0,0-1.06-.44,1.53,1.53,0,0,0-1.06.44,1.56,1.56,0,0,0-.44,1.06,1.61,1.61,0,0,0,.44,1.06l.17.19a5.51,5.51,0,0,1,.49.85c.06.15.12.31.17.46a1.51,1.51,0,0,0,.68.9,1.16,1.16,0,0,0,.56.18,1.22,1.22,0,0,0,.6,0,1.51,1.51,0,0,0,.9-.69,1.54,1.54,0,0,0,.15-1.15A6.77,6.77,0,0,0,175,397.94Z"/><path d="M329.82,380.91c-1.65-1.66-5-4.43-9.33-4.43a11.42,11.42,0,0,0-6.8,2.43C317.26,381.11,323.38,381.67,329.82,380.91Z"/><path d="M313.65,289.15a5.19,5.19,0,0,0,.57.76c-6,9.53,2.59,22.49,2.59,22.49a23.05,23.05,0,0,0-2.37,2.51,23.32,23.32,0,0,1,2.31.61l-1.57,4.75a21.55,21.55,0,0,0-3.57-.78c-6,13.53,4.64,29.87,4.64,29.87-14.37,6.41-11,18.45-6,25.85,10.54-8.14,20.62-1.14,24.48,3.71l.42.52.08.54a46.7,46.7,0,0,0,8.79-2.9,24.71,24.71,0,0,0-.31-2.59l4.89-1c0,.07.09.41.17.95.53-.37,1-.74,1.53-1.14,9.85-8.17,4-26.47,4-26.47a27,27,0,0,0,6.2-11c-3.63-4.69-6.26-7.49-6.35-7.58l3.62-3.46c.24.26,1.57,1.66,3.52,4a26.6,26.6,0,0,0-4.78-13.8c12.11-17.46-6.47-32.38-6.47-32.38,6.92-24.46-11-31.84-17.66-33.71-3.06,14-8.66,28.26-18.5,40A2.73,2.73,0,0,0,313.65,289.15ZM315.91,360l-.75,2.62a1.52,1.52,0,0,1-.69.9,1.5,1.5,0,0,1-2.05-.54,1.54,1.54,0,0,1-.15-1.15l.75-2.63a1.5,1.5,0,0,1,1.85-1.05,1.5,1.5,0,0,1,1,1.85Zm27.33,10.91-6.4,4.47a1.52,1.52,0,0,1-2.06-.53,1.55,1.55,0,0,1,.54-2.06l6.4-4.47a1.51,1.51,0,0,1,2.06.53A1.55,1.55,0,0,1,343.24,370.9Zm-10.67-33a7.89,7.89,0,0,1-.84.05,8.41,8.41,0,0,1-.85-.15,3.18,3.18,0,0,1-.72-.29,3.4,3.4,0,0,1-.63-.38,4.77,4.77,0,0,1-1.66-2.24,6.42,6.42,0,0,1,.2-4.66.28.28,0,0,1,.37-.14.26.26,0,0,1,.15.16v0a13.6,13.6,0,0,0,1.55,3.5,3.07,3.07,0,0,0,1,.92,1.84,1.84,0,0,0,.53.2.53.53,0,0,1,.17,0,.76.76,0,0,1,.21,0,3.57,3.57,0,0,0,1.19-.57,13,13,0,0,0,1.36-1.18c.92-.89,1.8-1.93,2.74-2.93l0,0a.7.7,0,0,1,1.18.65,12.62,12.62,0,0,1-1.9,4,9.31,9.31,0,0,1-1.59,1.76A5.41,5.41,0,0,1,332.57,337.88ZM356,332.46s.42,4.79-3.94,10-.71,10.84-.71,10.84-5.06-6.9-2.39-11.26S355.25,338.8,356,332.46Zm-3.1-20.06s.73-16.54-6.67-24.85C346.18,287.55,358.76,295.72,352.85,312.4Zm-6.75-35.83s-2.82-8.3-7.47-13.23A13,13,0,0,1,346.1,276.57Zm-11.45,29.08a1.78,1.78,0,0,0,.57,0,.53.53,0,0,1,.17,0,.64.64,0,0,1,.18-.1,3.71,3.71,0,0,0,.88-1,12.87,12.87,0,0,0,.8-1.62c.51-1.16.92-2.47,1.4-3.75v0a.69.69,0,0,1,1.34.15,12.53,12.53,0,0,1-.19,4.44,9.53,9.53,0,0,1-.79,2.24,5.41,5.41,0,0,1-1.83,2.13c-.25.14-.5.26-.76.38a7.83,7.83,0,0,1-.84.18,2.85,2.85,0,0,1-.77,0,2.58,2.58,0,0,1-.73-.11,4.73,4.73,0,0,1-2.4-1.42,6.38,6.38,0,0,1-1.61-4.38.28.28,0,0,1,.28-.27.31.31,0,0,1,.21.09l0,0a13.43,13.43,0,0,0,2.78,2.63A3,3,0,0,0,334.65,305.65Zm-11.47-26.59a.28.28,0,0,1,.22,0l0,0A13.55,13.55,0,0,0,327,280.6a3.09,3.09,0,0,0,1.36,0,2.17,2.17,0,0,0,.53-.21.4.4,0,0,1,.15-.1.37.37,0,0,1,.13-.15,3.92,3.92,0,0,0,.49-1.24,13.65,13.65,0,0,0,.19-1.79c.07-1.27,0-2.64,0-4v-.05a.69.69,0,0,1,.69-.69.68.68,0,0,1,.61.37,12.46,12.46,0,0,1,1.35,4.24,9.34,9.34,0,0,1,0,2.37,5.5,5.5,0,0,1-1,2.63,6.72,6.72,0,0,1-.58.61,7,7,0,0,1-.73.47,5.38,5.38,0,0,1-1.44.43A4.78,4.78,0,0,1,326,283a6.41,6.41,0,0,1-3-3.56A.27.27,0,0,1,323.18,279.06Zm-1.06,78.56a.28.28,0,0,1,.37-.14.26.26,0,0,1,.15.16v0a13.6,13.6,0,0,0,1.55,3.5,3.07,3.07,0,0,0,1,.92,2.24,2.24,0,0,0,.53.21.34.34,0,0,1,.17,0l.2,0a3.52,3.52,0,0,0,1.2-.57,13,13,0,0,0,1.36-1.18c.92-.89,1.8-1.93,2.74-2.93l0,0a.7.7,0,0,1,1.18.65,12.62,12.62,0,0,1-1.9,4,9.31,9.31,0,0,1-1.59,1.76,5.41,5.41,0,0,1-2.51,1.26,7.89,7.89,0,0,1-.84,0,6.31,6.31,0,0,1-.85-.15,3.18,3.18,0,0,1-.72-.29,3.4,3.4,0,0,1-.63-.38,4.77,4.77,0,0,1-1.66-2.24A6.42,6.42,0,0,1,322.12,357.62ZM320.71,317l-.14,1.83a1.29,1.29,0,0,1-.13.58,1.24,1.24,0,0,1-.31.48,1.21,1.21,0,0,1-.49.31,1.14,1.14,0,0,1-.57.13,1.59,1.59,0,0,1-1.07-.44,1.46,1.46,0,0,1-.43-1.06l.14-1.83a1.06,1.06,0,0,1,.13-.58,1.36,1.36,0,0,1,.79-.79,1.06,1.06,0,0,1,.58-.13,1.47,1.47,0,0,1,1.06.44A1.5,1.5,0,0,1,320.71,317Zm-3.91-20.77a1.54,1.54,0,0,1,1.07-.44,1.52,1.52,0,0,1,1.06.44,1.54,1.54,0,0,1,.44,1.06v3a1.59,1.59,0,0,1-.44,1.07,1.52,1.52,0,0,1-2.12,0,1.59,1.59,0,0,1-.44-1.07v-3A1.53,1.53,0,0,1,316.8,296.21Z"/><path d="M314.22,281.13c-2.63,3.77-1.42,6.71-.57,8a2.73,2.73,0,0,1,.23-.25c9.84-11.72,15.44-26,18.5-40a24.1,24.1,0,0,0-2.41-.56C329.34,261.68,314.22,281.13,314.22,281.13Z"/><path d="M325,400.18c1.13-.11,2.18-.28,3.21-.48a26.74,26.74,0,0,0-.73-3.69,10,10,0,0,1-4.94,1.19A19.68,19.68,0,0,1,308,389.72a12.72,12.72,0,0,1-1.24-2.05c-7.58,5.26-9.84,15.88-7.8,17.44a3.57,3.57,0,0,0,1.6.66,9.53,9.53,0,0,0,2-2.8l4.57,2c-.14.32-.31.62-.48.93a3.87,3.87,0,0,1,1.57,1.72c2.25,4.36,14.07,7.32,18.58.84a9.09,9.09,0,0,0,1.4-3.68c-.88.14-1.77.27-2.7.36ZM315,396.69a1.49,1.49,0,0,1-.39.66l-.28.36a19.35,19.35,0,0,0-1.55,2.34,1.48,1.48,0,0,1-2.05.53,1.5,1.5,0,0,1-.69-.89,1.61,1.61,0,0,1,.15-1.16,22.14,22.14,0,0,1,2.3-3.3,1.5,1.5,0,0,1,2.12,0,1.46,1.46,0,0,1,.44,1.06C315,396.42,315,396.55,315,396.69Zm5.89,3.37c-.06.06-.11.13-.16.19a5.57,5.57,0,0,0-.5.85,4.19,4.19,0,0,0-.16.46,1.52,1.52,0,0,1-.69.9,1.12,1.12,0,0,1-.56.18,1.22,1.22,0,0,1-.6,0,1.47,1.47,0,0,1-.89-.69,1.54,1.54,0,0,1-.15-1.15,6.75,6.75,0,0,1,1.59-2.83,1.52,1.52,0,0,1,1.06-.44,1.5,1.5,0,0,1,1.06.44,1.52,1.52,0,0,1,.44,1.06A1.61,1.61,0,0,1,320.87,400.06Z"/><path d="M325.31,391.5c.15-.1.29-.22.43-.33-1.56-3.24-3.6-5.68-5.55-6.06a18.2,18.2,0,0,0-9,.36,8,8,0,0,0,.77,1.28C315.13,391,322.35,393.58,325.31,391.5Z"/><path d="M330.37,381.49a11.64,11.64,0,0,1-4.63,9.68,28.91,28.91,0,0,1,1.78,4.84c.22-.13.44-.26.65-.41a16.65,16.65,0,0,0,7.1-15.49l0-.13a50.92,50.92,0,0,1-5.43.93C330,381.13,330.22,381.32,330.37,381.49Z"/><path d="M306.73,387.67a15.91,15.91,0,0,1,4.49-2.2c-1.09-2.28-.41-4.34,2.06-6.27l.41-.29a7.81,7.81,0,0,1-1.95-1.68c-.49-.62-1-1.3-1.47-2l-.06.05C305.84,378.66,304.61,383.26,306.73,387.67Z"/><path d="M313.69,378.91a11.42,11.42,0,0,1,6.8-2.43c4.29,0,7.68,2.77,9.33,4.43a50.92,50.92,0,0,0,5.43-.93l-.08-.54-.42-.52c-3.86-4.85-13.94-11.85-24.48-3.71.48.72,1,1.4,1.47,2A7.81,7.81,0,0,0,313.69,378.91Z"/><path d="M325.31,391.5c-3,2.08-10.18-.5-13.32-4.75a8,8,0,0,1-.77-1.28,15.91,15.91,0,0,0-4.49,2.2,12.72,12.72,0,0,0,1.24,2.05,19.68,19.68,0,0,0,14.61,7.48,10,10,0,0,0,4.94-1.19,28.91,28.91,0,0,0-1.78-4.84C325.6,391.28,325.46,391.4,325.31,391.5Z"/><path class="cls-3" d="M338.63,263.34c4.65,4.93,7.47,13.23,7.47,13.23A13,13,0,0,0,338.63,263.34Z"/><path class="cls-3" d="M352.85,312.4c5.91-16.68-6.67-24.85-6.67-24.85C353.58,295.86,352.85,312.4,352.85,312.4Z"/><path class="cls-3" d="M348.91,342c-2.67,4.36,2.39,11.26,2.39,11.26s-3.66-5.63.71-10.84,3.94-10,3.94-10C355.25,338.8,351.59,337.67,348.91,342Z"/><path class="cls-3" d="M326,283a4.78,4.78,0,0,0,2.74.51,5.38,5.38,0,0,0,1.44-.43,7,7,0,0,0,.73-.47,6.72,6.72,0,0,0,.58-.61,5.5,5.5,0,0,0,1-2.63,9.34,9.34,0,0,0,0-2.37,12.46,12.46,0,0,0-1.35-4.24.68.68,0,0,0-.61-.37.69.69,0,0,0-.69.69v.05c0,1.36.05,2.73,0,4a13.65,13.65,0,0,1-.19,1.79,3.92,3.92,0,0,1-.49,1.24.37.37,0,0,0-.13.15.4.4,0,0,0-.15.1,2.17,2.17,0,0,1-.53.21,3.09,3.09,0,0,1-1.36,0,13.55,13.55,0,0,1-3.52-1.51l0,0a.28.28,0,0,0-.22,0,.27.27,0,0,0-.17.35A6.41,6.41,0,0,0,326,283Z"/><path class="cls-3" d="M330.59,302.57l0,0a.31.31,0,0,0-.21-.09.28.28,0,0,0-.28.27,6.38,6.38,0,0,0,1.61,4.38,4.73,4.73,0,0,0,2.4,1.42,2.58,2.58,0,0,0,.73.11,2.85,2.85,0,0,0,.77,0,7.83,7.83,0,0,0,.84-.18c.26-.12.51-.24.76-.38a5.41,5.41,0,0,0,1.83-2.13,9.53,9.53,0,0,0,.79-2.24,12.53,12.53,0,0,0,.19-4.44.69.69,0,0,0-1.34-.15v0c-.48,1.28-.89,2.59-1.4,3.75a12.87,12.87,0,0,1-.8,1.62,3.71,3.71,0,0,1-.88,1,.64.64,0,0,0-.18.1.53.53,0,0,0-.17,0,1.78,1.78,0,0,1-.57,0,3,3,0,0,1-1.28-.45A13.43,13.43,0,0,1,330.59,302.57Z"/><path class="cls-3" d="M336.67,334.86a12.62,12.62,0,0,0,1.9-4,.7.7,0,0,0-1.18-.65l0,0c-.94,1-1.82,2-2.74,2.93a13,13,0,0,1-1.36,1.18,3.57,3.57,0,0,1-1.19.57.76.76,0,0,0-.21,0,.53.53,0,0,0-.17,0,1.84,1.84,0,0,1-.53-.2,3.07,3.07,0,0,1-1-.92,13.6,13.6,0,0,1-1.55-3.5v0a.26.26,0,0,0-.15-.16.28.28,0,0,0-.37.14,6.42,6.42,0,0,0-.2,4.66,4.77,4.77,0,0,0,1.66,2.24,3.4,3.4,0,0,0,.63.38,3.18,3.18,0,0,0,.72.29,8.41,8.41,0,0,0,.85.15,7.89,7.89,0,0,0,.84-.05,5.41,5.41,0,0,0,2.51-1.26A9.31,9.31,0,0,0,336.67,334.86Z"/><path class="cls-3" d="M323.58,364.52a3.4,3.4,0,0,0,.63.38,3.18,3.18,0,0,0,.72.29,6.31,6.31,0,0,0,.85.15,7.89,7.89,0,0,0,.84,0,5.41,5.41,0,0,0,2.51-1.26,9.31,9.31,0,0,0,1.59-1.76,12.62,12.62,0,0,0,1.9-4,.7.7,0,0,0-1.18-.65l0,0c-.94,1-1.82,2-2.74,2.93a13,13,0,0,1-1.36,1.18,3.52,3.52,0,0,1-1.2.57l-.2,0a.34.34,0,0,0-.17,0,2.24,2.24,0,0,1-.53-.21,3.07,3.07,0,0,1-1-.92,13.6,13.6,0,0,1-1.55-3.5v0a.26.26,0,0,0-.15-.16.28.28,0,0,0-.37.14,6.42,6.42,0,0,0-.2,4.66A4.77,4.77,0,0,0,323.58,364.52Z"/><path class="cls-3" d="M318.05,387.13a2.71,2.71,0,0,0,.63.38,2.78,2.78,0,0,0,.72.29,6,6,0,0,0,.85.15,7.89,7.89,0,0,0,.84-.05,5.5,5.5,0,0,0,2.51-1.25,9.68,9.68,0,0,0,1.59-1.77,12.29,12.29,0,0,0,1.89-4,.68.68,0,0,0-.19-.68.69.69,0,0,0-1,0l0,0c-.94,1-1.82,2-2.74,2.92a13,13,0,0,1-1.36,1.18,3.52,3.52,0,0,1-1.2.57.69.69,0,0,0-.2,0,.51.51,0,0,0-.17,0,1.67,1.67,0,0,1-.54-.21,2.93,2.93,0,0,1-1-.92,13.13,13.13,0,0,1-1.55-3.5v0a.29.29,0,0,0-.15-.16.28.28,0,0,0-.37.14,6.39,6.39,0,0,0-.2,4.67A4.79,4.79,0,0,0,318.05,387.13Z"/><path class="cls-3" d="M318.63,315.61a1.36,1.36,0,0,0-.79.79,1.06,1.06,0,0,0-.13.58l-.14,1.83a1.46,1.46,0,0,0,.43,1.06,1.59,1.59,0,0,0,1.07.44,1.14,1.14,0,0,0,.57-.13,1.21,1.21,0,0,0,.49-.31,1.24,1.24,0,0,0,.31-.48,1.29,1.29,0,0,0,.13-.58l.14-1.83a1.5,1.5,0,0,0-.44-1.06,1.47,1.47,0,0,0-1.06-.44A1.06,1.06,0,0,0,318.63,315.61Z"/><path class="cls-3" d="M316.81,301.29a1.52,1.52,0,0,0,2.12,0,1.59,1.59,0,0,0,.44-1.07v-3a1.54,1.54,0,0,0-.44-1.06,1.52,1.52,0,0,0-1.06-.44,1.49,1.49,0,0,0-1.5,1.5v3A1.59,1.59,0,0,0,316.81,301.29Z"/><path class="cls-3" d="M314.87,358.14a1.5,1.5,0,0,0-1.85,1.05l-.75,2.63a1.54,1.54,0,0,0,.15,1.15,1.5,1.5,0,0,0,2.05.54,1.52,1.52,0,0,0,.69-.9l.75-2.62a1.5,1.5,0,0,0-1-1.85Z"/><path class="cls-3" d="M341.72,368.31l-6.4,4.47a1.55,1.55,0,0,0-.54,2.06,1.52,1.52,0,0,0,2.06.53l6.4-4.47a1.55,1.55,0,0,0,.54-2.06A1.51,1.51,0,0,0,341.72,368.31Z"/><path class="cls-3" d="M313.53,394.79a1.5,1.5,0,0,0-1.06.44,22.14,22.14,0,0,0-2.3,3.3,1.61,1.61,0,0,0-.15,1.16,1.5,1.5,0,0,0,.69.89,1.48,1.48,0,0,0,2.05-.53,19.35,19.35,0,0,1,1.55-2.34l.28-.36a1.49,1.49,0,0,0,.39-.66c0-.14,0-.27,0-.4a1.46,1.46,0,0,0-.44-1.06A1.5,1.5,0,0,0,313.53,394.79Z"/><path class="cls-3" d="M319.81,397.5a1.52,1.52,0,0,0-1.06.44,6.75,6.75,0,0,0-1.59,2.83,1.54,1.54,0,0,0,.15,1.15,1.47,1.47,0,0,0,.89.69,1.22,1.22,0,0,0,.6,0,1.12,1.12,0,0,0,.56-.18,1.52,1.52,0,0,0,.69-.9,4.19,4.19,0,0,1,.16-.46,5.57,5.57,0,0,1,.5-.85c.05-.06.1-.13.16-.19a1.61,1.61,0,0,0,.44-1.06,1.52,1.52,0,0,0-.44-1.06A1.5,1.5,0,0,0,319.81,397.5Z"/><path d="M202,319.29c1.08.15,1.75.28,1.88.31l-1,4.89-1.18-.19c2.7,5,14.61,22.49,50,22.49,34.49,0,42.44-20.88,44.12-27.71l-1.9.11-.35-5,1.2-.07c-.63-1-1.66-3.56-.71-9.07-1.72.93-3.51,1.79-5.33,2.59-.32,5.4,1.14,8.39,2.34,9.89-1.05,4.86-7.24,24.25-39.37,24.25-32.53,0-43.17-15.45-45.47-19.66,2.62-5.18,2.14-11.27,1.21-15.62-2.08-.95-4.09-2-6.06-3.08C202.22,305.81,204.57,313.48,202,319.29Z"/><path d="M294.26,304l-4.9-1a32.93,32.93,0,0,0-.64,4.72c1.82-.8,3.61-1.66,5.33-2.59Q294.14,304.52,294.26,304Z"/><path d="M205.71,300.76l-4.61,1.93s.11.28.27.74c2,1.1,4,2.13,6.06,3.08A34.94,34.94,0,0,0,205.71,300.76Z"/><path d="M193.12,322.21l4.73-1.64a30.78,30.78,0,0,0,1.53,3.48c1,.07,1.75.17,2.34.25a13.29,13.29,0,0,1-.63-1.31l-.49-1.19.68-1.08a10.27,10.27,0,0,0,.75-1.43c-3.6-.48-11.73-1.09-19.33,1.75a21.61,21.61,0,0,1,1.08,4.95,30.85,30.85,0,0,1,10.06-2.05C193.37,322.89,193.14,322.25,193.12,322.21Z"/><path d="M176.23,324.56l3,4a19.91,19.91,0,0,1,4.53-2.55A21.61,21.61,0,0,0,182.7,321,25.08,25.08,0,0,0,176.23,324.56Z"/><path d="M203.91,319.6c-.13,0-.8-.16-1.88-.31a10.27,10.27,0,0,1-.75,1.43l-.68,1.08.49,1.19a13.29,13.29,0,0,0,.63,1.31l1.18.19Z"/><path d="M294.76,314.13a2.89,2.89,0,0,0,.36.47l1.54.73-.43,1.62a19.71,19.71,0,0,1-.42,2.13c.81,0,1.75-.07,2.75-.1a33.32,33.32,0,0,0,.87-3.87l4.95.73c0,.07-.2,1.23-.69,3.12a69.52,69.52,0,0,1,7.92.53,20.66,20.66,0,0,1,2.83-4.58C308,313.57,298.15,313.94,294.76,314.13Z"/><path d="M315.18,320.27l1.57-4.75a23.32,23.32,0,0,0-2.31-.61,20.66,20.66,0,0,0-2.83,4.58A21.55,21.55,0,0,1,315.18,320.27Z"/><path d="M296.66,315.33l-1.54-.73a2.89,2.89,0,0,1-.36-.47l-1.2.07.35,5,1.9-.11a19.71,19.71,0,0,0,.42-2.13Z"/><path d="M298.56,319c-2.68,9.76-12.83,34.35-46.87,34.35s-48.05-20.81-52.31-29.28a43.94,43.94,0,0,0-5.54-.11c3.25,7.21,18.13,34.39,57.85,34.39,38.51,0,49.43-29.56,52-39.37C301.89,318.93,300.14,318.94,298.56,319Z"/><path d="M199.38,324.05a30.78,30.78,0,0,1-1.53-3.48l-4.73,1.64s.25.68.72,1.73A43.94,43.94,0,0,1,199.38,324.05Z"/><path d="M299.43,315.11a33.32,33.32,0,0,1-.87,3.87c1.58,0,3.33-.05,5.13,0,.49-1.89.68-3,.69-3.12Z"/><path d="M300.53,405.77c-2.5,2.48-6.71,4.75-12,6.37-6.93,2.13-12.21,2.07-13.19,1.47-2.37-2-14.92-11.22-28.68,4.79-4,4.61-7.24,6.91-10,7-3.19.08-6.23-2.92-9.74-6.44l-.43-.43c-5.82-5.81-11.28-4.25-18.19-2.26A86.21,86.21,0,0,1,196.79,419c-3.46.53-6.29-.07-8.42-1.78-2.67-2.14-3.84-5.61-4.33-7.85a12.54,12.54,0,0,1-4.58,2.29,18.24,18.24,0,0,0,5.75,9.44c3.26,2.63,7.41,3.59,12.33,2.85a90.79,90.79,0,0,0,12.18-2.83c7.24-2.08,9.71-2.57,13.27,1l.43.43c4.05,4.06,7.89,7.9,13.07,7.9h.39c4.27-.15,8.59-2.93,13.59-8.74,10.13-11.79,18.53-6.88,21.66-4.23s11,1.21,14.26.46c7.71-1.76,16.86-5.81,20.27-12C304.86,404.94,302.57,406.1,300.53,405.77Z"/><path d="M183.69,407.19l-5,.33a22.13,22.13,0,0,0,.75,4.1,12.54,12.54,0,0,0,4.58-2.29A21.4,21.4,0,0,1,183.69,407.19Z"/><path d="M302.57,403a9.53,9.53,0,0,1-2,2.8c2,.33,4.33-.83,6.13.15.17-.31.34-.61.48-.93Z"/><path d="M129.26,350c0,.06-.78,1.5-1.92,3.95,1.71,3.57.76,5.62-.38,8.06-2.07,4.43-3.21,8.65,3.94,15.42,5.91,5.59,11.82,6,16.18,5.78,0-.94.11-1.87.16-2.79l5,.29c0,.36-.07,1.2-.14,2.44a.4.4,0,0,1,.13,0s.65.91-.29,5.69c-.09.44-.17.86-.25,1.28-.22,3.81-.51,8.59-.84,14.12a9,9,0,0,0,2,3.74c2.54,2.89,6.91,4.16,15.12,4.16,1.46,0,3.07,0,4.79-.12a8.8,8.8,0,0,1-5.81-3.55,7.29,7.29,0,0,1-.74-1.35c-5.25-.13-8.27-.92-9.61-2.44-2-2.28-1.1-7.84.28-14.87,1-5.2.79-8.08-.84-9.94a4.87,4.87,0,0,0-.87-.78c-1-.31-2.05-.65-3-1a24.24,24.24,0,0,0-3.61,0c-4,.24-9,.53-14.13-4.33s-4.31-6.55-2.85-9.67c1.66-3.54,3.93-8.39-2.44-16.82-2.45-3.24-3.26-6.14-2.48-8.88.86-3,3.46-5.33,5.88-6.95a23.89,23.89,0,0,1,.35-6c-3.48,1.81-9.32,5.63-11,11.57-1.12,3.88-.3,7.9,2.38,12,.37-.75.63-1.23.7-1.37Z"/><path d="M155.12,379.1a6.06,6.06,0,0,0-3-1C153.07,378.45,154.08,378.79,155.12,379.1Z"/><path d="M132.45,331.45a25.93,25.93,0,0,1,4.79-2.56l-1.78-4.68a26.7,26.7,0,0,0-2.66,1.23A23.89,23.89,0,0,0,132.45,331.45Z"/><path d="M176,406.83c-3.91.27-7.14.37-9.81.3a7.29,7.29,0,0,0,.74,1.35,8.8,8.8,0,0,0,5.81,3.55c1.15-.06,2.34-.12,3.6-.21Z"/><path d="M340.29,392.8c-2.65,3.56-6.7,5.87-12,6.9a18.07,18.07,0,0,1,0,5.1,29.78,29.78,0,0,0,6.91-2c.18-3,.31-4.93.35-5.5l5,.34c0,.09-.06.85-.14,2.15a21.23,21.23,0,0,0,4-4.08c5.87-7.93,4.93-18.15,4.46-21.31a31.15,31.15,0,0,1-4.75,2.65C344.32,380.74,344.18,387.56,340.29,392.8Z"/><path d="M343.73,374.49a24.71,24.71,0,0,1,.31,2.59,31.15,31.15,0,0,0,4.75-2.65c-.08-.54-.15-.88-.17-.95Z"/><path d="M328.25,399.7c-1,.2-2.08.37-3.21.48l.47,5c.93-.09,1.82-.22,2.7-.36A18.07,18.07,0,0,0,328.25,399.7Z"/><path d="M115.47,406.81c-2.14-20.05,7.6-43.68,11.87-52.89a21.8,21.8,0,0,0-2.28-3.62c-.33-.44-.62-.88-.91-1.31-3.23,6.46-16.22,34.23-13.66,58.35,2.17,20.33-10.47,94.86-16,126.12h5.08C105.25,501.48,117.7,427.84,115.47,406.81Z"/><path d="M127.34,353.92c1.14-2.45,1.89-3.89,1.92-3.95l-4.41-2.35c-.07.14-.33.62-.7,1.37.29.43.58.87.91,1.31A21.8,21.8,0,0,1,127.34,353.92Z"/><path d="M151.68,390.13c.18-3,.32-5.37.41-7a14.2,14.2,0,0,0-3.32,0c-.53,0-1.1.07-1.69.09-2.61,45.27-7.52,123.49-10.47,150.28h5c2.85-26.11,7.06-93.17,9.23-129.21C149.89,400.69,150.54,396.05,151.68,390.13Z"/><path d="M150.84,404.25c.33-5.53.62-10.31.84-14.12C150.54,396.05,149.89,400.69,150.84,404.25Z"/><path d="M147.24,380.39c-.05.92-.11,1.85-.16,2.79.59,0,1.16-.06,1.69-.09a14.2,14.2,0,0,1,3.32,0c.07-1.24.12-2.08.14-2.44Z"/><path d="M340.32,399.82a23.11,23.11,0,0,1-5.2,3c-1.15,19.3-4.38,83.81.45,130.63h5.05C335.52,484,339.51,413,340.32,399.82Z"/><path d="M335.47,397.33c0,.57-.17,2.5-.35,5.5a23.11,23.11,0,0,0,5.2-3c.08-1.3.13-2.06.14-2.15Z"/><path d="M388,392.52c.92-27.81-18.53-54-26.74-63.71a22.66,22.66,0,0,1-.79,7.05c8.73,11.3,23.29,33.67,22.53,56.49-.8,23.87-.45,99.34-.18,141.11h5C387.58,491.73,387.23,416.32,388,392.52Z"/><path d="M354.15,328.28c.09.09,2.72,2.89,6.35,7.58a22.66,22.66,0,0,0,.79-7.05c-2-2.33-3.28-3.73-3.52-4Z"/><path d="M243.86,394.56a211.25,211.25,0,0,0,2-29.53,1.5,1.5,0,0,0-3,0A206.19,206.19,0,0,1,241,393.77C240.7,395.66,243.6,396.47,243.86,394.56Z"/><path d="M258.32,397.31q.24-14.65,1.34-29.27c.14-1.93-2.86-1.92-3,0q-1.1,14.61-1.34,29.27A1.5,1.5,0,0,0,258.32,397.31Z"/><path d="M231.57,396.19a197.82,197.82,0,0,1,4.58-32.05c.43-1.88-2.46-2.69-2.89-.8a202.16,202.16,0,0,0-4.69,32.85C228.46,398.12,231.46,398.11,231.57,396.19Z"/><path d="M197.36,377.4a13.62,13.62,0,0,1,4-4.37,32.91,32.91,0,0,0,4.7-4.44A28.18,28.18,0,0,0,211.88,357c.45-1.88-2.44-2.68-2.89-.8a25.11,25.11,0,0,1-5.67,11c-2.7,3-6.73,5-8.55,8.69C193.92,377.62,196.51,379.14,197.36,377.4Z"/><path d="M209.52,390A235.3,235.3,0,0,0,224,360.13c.72-1.8-2.18-2.57-2.89-.8a230.34,230.34,0,0,1-14.2,29.17A1.5,1.5,0,0,0,209.52,390Z"/><path d="M279.2,385.55a57.8,57.8,0,0,1-.29-21c.33-1.88-2.56-2.7-2.89-.79a61.82,61.82,0,0,0,.29,22.61C276.69,388.24,279.58,387.44,279.2,385.55Z"/><path d="M267.69,391.15a1.5,1.5,0,0,0,1.84,1,1.53,1.53,0,0,0,1.05-1.84A174.63,174.63,0,0,0,267,372c-.46-1.87-3.36-1.08-2.89.8A173.65,173.65,0,0,1,267.69,391.15Z"/><path d="M295.18,378.54a1.57,1.57,0,0,0,1.85,1,1.51,1.51,0,0,0,1-1.85l-9.94-23.65a1.54,1.54,0,0,0-1.84-1,1.5,1.5,0,0,0-1.05,1.84Z"/><path d="M303.45,355.69a1.5,1.5,0,1,0,2.59-1.51q-2.7-4.43-5.41-8.85a1.5,1.5,0,0,0-2.59,1.52Z"/><path d="M202,212.73a7.18,7.18,0,1,0,7.18-7.17A7.18,7.18,0,0,0,202,212.73Z"/><path d="M282.64,201.4a7.18,7.18,0,1,0,7.17,7.18A7.19,7.19,0,0,0,282.64,201.4Z"/></g></svg>