<svg id="Layer_1" data-name="Layer 1" xmlns="http://www.w3.org/2000/svg" xmlns:xlink="http://www.w3.org/1999/xlink" viewBox="0 0 500 500"><defs><style>.cls-1{fill:#f4d9ce;}.cls-2{clip-path:url(#clip-path);}.cls-3{fill:#ffbdab;}.cls-4{fill:#6d577c;}.cls-5{fill:#fff;}.cls-6{clip-path:url(#clip-path-2);}.cls-7{fill:#eab0d9;}</style><clipPath id="clip-path"><circle class="cls-1" cx="250" cy="-259.92" r="215.67"/></clipPath><clipPath id="clip-path-2"><circle class="cls-1" cx="252.42" cy="250.75" r="215.67"/></clipPath></defs><circle class="cls-1" cx="250" cy="-259.92" r="215.67"/><g class="cls-2"><path class="cls-3" d="M429.07,27.31c-12.33,6-24.23,7.84-26.81,6.7-4.83-2.15-17.44-4-17.44-4V158.36h42.95C423.85,123.8,427.31,56.11,429.07,27.31Z"/><path class="cls-4" d="M259.25-60.65a11.43,11.43,0,0,1,5.14,9.53A11.43,11.43,0,0,1,253-39.71a11.42,11.42,0,0,1-11.41-11.41,11.41,11.41,0,0,1,5.32-9.64c-9.58-6.48-19.39-26.74-29.79-61.52a61.57,61.57,0,0,1-11.51-7.12c16.07,90.12,39.23,172.26,39.23,172.26C264.94.07,279-75.81,287-129.2c-.78.45-1.56.89-2.34,1.31C276.71-89.67,268.17-67.09,259.25-60.65Z"/><path class="cls-3" d="M110.75,27.83c-18.42,2-31.93-.25-41.81-4.29,1,20.12,4.11,93.48,1,134.82h42.89C113.18,118.12,110.75,27.83,110.75,27.83Z"/><path d="M402.26,34c2.58,1.14,14.48-.7,26.81-6.7.45-7.52.8-12.39.87-13.33l4.75.34c0,.21-.29,4-.68,10.34,9.06-5.26,17.71-12.87,22.36-23.3,0,0-9.66-25.4-9.3-59S459.33-164.56,326.28-170.2c0,0,1-23.09-26.86-29.46l-5.18,36-.22.38a51,51,0,0,1-2.79,4.34c-.92,7-2,15-3.29,23.73q1.11-.68,2.22-1.38l2.55,4c-1.92,1.22-3.8,2.33-5.67,3.39C279-75.81,264.94.07,244.81,42.86c0,0-23.16-82.14-39.23-172.26a47.82,47.82,0,0,1-8-7.68l3.77-2.91a33.93,33.93,0,0,0,2.89,3.1c-1.37-7.9-2.67-15.86-3.9-23.8-1.56-1.83-2.47-3.06-2.64-3.29l-.35-.48L192-200.71c-4.84,1.41-14.47,4.52-16.86,7.43-3.22,3.94-6.44,19.32-6.44,19.32s-65.47,11.1-75.85,14.67S60.31-136,55.65-114.21,53.51-16.89,42.77-4c0,0,3.23,15.67,21.29,25.27-.09-1.65-.14-2.59-.14-2.69l4.76-.26c0,.14.1,2,.26,5.23,9.88,4,23.39,6.27,41.81,4.29,0,0,2.43,90.29,2.09,130.53h272V30S397.43,31.86,402.26,34ZM99.08-116.35a1.66,1.66,0,0,1-.32,0,2.39,2.39,0,0,1-2.36-2.07l-4.29-32.17a2.38,2.38,0,0,1,2-2.68,2.39,2.39,0,0,1,2.68,2.05L101.13-119A2.38,2.38,0,0,1,99.08-116.35ZM114.51,20.82h-.18A2.4,2.4,0,0,1,112,18.62L106.05-60a2.38,2.38,0,0,1,2.2-2.55,2.39,2.39,0,0,1,2.55,2.19l5.91,78.6A2.39,2.39,0,0,1,114.51,20.82Zm56.28-127.37a3.33,3.33,0,0,1-.94-.18c-2.15-.61-3.34-1-2.67-30.79.31-13.86.94-27.82.94-28a2.41,2.41,0,0,1,2.49-2.27,2.38,2.38,0,0,1,2.27,2.49c-.77,17.28-1.43,41.44-.93,51.06,2.59-4,7-12,13-24.07a5.17,5.17,0,0,1,3.67-2.78,5.17,5.17,0,0,1,4.45,1.22l6.71,6a2.38,2.38,0,0,1,.2,3.37,2.38,2.38,0,0,1-3.36.2l-6.71-6a.45.45,0,0,0-.39-.1.42.42,0,0,0-.3.23C176.09-109.83,172.85-106.55,170.79-106.55Zm24.5,51.18a8.38,8.38,0,0,1-8.37-8.37,8.37,8.37,0,0,1,8.37-8.37,8.37,8.37,0,0,1,8.36,8.37A8.38,8.38,0,0,1,195.29-55.37Zm12,85.89a8.37,8.37,0,1,1,8.37,8.37A8.38,8.38,0,0,1,207.31,30.52ZM226,136.3a8.37,8.37,0,1,1,8.37-8.37A8.38,8.38,0,0,1,226,136.3ZM398.54-148.95a2.39,2.39,0,0,1,2.6-2.15,2.38,2.38,0,0,1,2.15,2.59l-3.22,34.35A2.39,2.39,0,0,1,397.7-112h-.23a2.39,2.39,0,0,1-2.15-2.6Zm-70.33,42.11a3.9,3.9,0,0,1-1.62.38c-4,0-7.62-7.17-13.56-19.72-2.27-4.82-5.35-11.32-6.8-12.83-1.76.29-5.29,3.24-7.61,6a2.39,2.39,0,0,1-3.36.28,2.39,2.39,0,0,1-.28-3.36c1.15-1.36,7.14-8.12,12-7.68,2.85.26,4.86,4,10.31,15.55,2.5,5.29,6.49,13.71,8.82,16.29,1.4-6.2-.57-31.33-3.46-53.13a2.38,2.38,0,0,1,2.05-2.67,2.39,2.39,0,0,1,2.68,2c0,.13,1.81,13.73,3,27.43C332.86-109,330.17-107.75,328.21-106.84Zm55,133.3H383a2.38,2.38,0,0,1-2.11-2.63l8.05-75.2a2.38,2.38,0,0,1,2.62-2.11,2.37,2.37,0,0,1,2.11,2.62l-8.05,75.2A2.38,2.38,0,0,1,383.21,26.46Z"/><path d="M226,124.33a3.61,3.61,0,1,0,3.6,3.6A3.6,3.6,0,0,0,226,124.33Z"/><path d="M215.68,26.91a3.61,3.61,0,1,0,3.6,3.61A3.61,3.61,0,0,0,215.68,26.91Z"/><path class="cls-5" d="M226,119.56a8.37,8.37,0,1,0,8.37,8.37A8.39,8.39,0,0,0,226,119.56Zm0,12a3.61,3.61,0,1,1,3.6-3.61A3.61,3.61,0,0,1,226,131.54Z"/><path class="cls-5" d="M224.05,30.52a8.37,8.37,0,1,0-8.37,8.37A8.38,8.38,0,0,0,224.05,30.52Zm-8.37,3.6a3.61,3.61,0,1,1,3.6-3.6A3.6,3.6,0,0,1,215.68,34.12Z"/><path d="M68.94,23.54a51.46,51.46,0,0,1-4.88-2.28c.76,15.49,4.39,94.25,1.12,137.1H70C73.05,117,69.9,43.66,68.94,23.54Z"/><path d="M68.68,18.31l-4.76.26c0,.1,0,1,.14,2.69a51.46,51.46,0,0,0,4.88,2.28C68.78,20.31,68.68,18.45,68.68,18.31Z"/><path d="M434,24.66q-2.46,1.44-4.94,2.65c-1.76,28.8-5.22,96.49-1.3,131.05h4.79C428.51,123.64,432.36,51.5,434,24.66Z"/><path d="M429.94,14c-.07.94-.42,5.81-.87,13.33q2.48-1.21,4.94-2.65c.39-6.32.66-10.13.68-10.34Z"/><path class="cls-5" d="M108.25-62.53a2.38,2.38,0,0,0-2.2,2.55l5.9,78.6a2.4,2.4,0,0,0,2.38,2.21h.18a2.39,2.39,0,0,0,2.2-2.56l-5.91-78.6A2.39,2.39,0,0,0,108.25-62.53Z"/><path class="cls-5" d="M393.62-50.87a2.37,2.37,0,0,0-2.11-2.62,2.38,2.38,0,0,0-2.62,2.11l-8.05,75.2A2.38,2.38,0,0,0,383,26.45h.26a2.38,2.38,0,0,0,2.36-2.13Z"/></g><circle class="cls-1" cx="252.42" cy="250.75" r="215.67"/><g class="cls-6"><path class="cls-3" d="M310.78,198.11l.28.21A14.2,14.2,0,0,0,313,198a58.53,58.53,0,0,1-6.25-3.85c-.3.46-.62.9-1,1.33A26.19,26.19,0,0,1,310.78,198.11Z"/><path class="cls-3" d="M313.7,200.46a25.12,25.12,0,0,1,3,3.33c.5,0,1,.05,1.53,0a13.05,13.05,0,0,0,3.12-.31,21.68,21.68,0,0,0,3.22-1l.63-.29a33.44,33.44,0,0,1-9.65-2.89,8,8,0,0,1-.67.47A11,11,0,0,1,313.7,200.46Z"/><path class="cls-7" d="M377.07,682.17q-1.63-23.67-2.57-47.36-1.92-47.37-2.41-94.76l0-1,.82-.84h0a64,64,0,0,0,8.83-11.41c.66-1,1.16-2.12,1.75-3.18l.86-1.6c.28-.53.5-1.1.75-1.65.49-1.11,1-2.22,1.46-3.33l1.23-3.44a74.72,74.72,0,0,0,3.39-14.18,69.41,69.41,0,0,0,.62-14.54A50.06,50.06,0,0,0,389,470.79l-1.35-3.33c-.51-1.23-1.08-2.44-1.53-3.69s-.87-2.51-1.2-3.79-.64-2.55-.88-3.84-.47-2.58-.6-3.88-.3-2.59-.32-3.89a58.93,58.93,0,0,1,0-7.75,65.39,65.39,0,0,1,.89-7.65,54.09,54.09,0,0,1,1.79-7.44,95.19,95.19,0,0,0-.22,15.09l.13,1.87.19,1.85c.1,1.24.31,2.46.48,3.69.39,2.44.91,4.84,1.53,7.2.31,1.19.73,2.33,1.09,3.49s.89,2.25,1.31,3.38l3.26,6.86a54.43,54.43,0,0,1,3.63,15.48,70.28,70.28,0,0,1-.35,15.75,75.58,75.58,0,0,1-3.57,15.32l-1.37,3.7c-.52,1.21-1.09,2.4-1.63,3.6-.28.6-.53,1.21-.84,1.79l-1,1.73c-.67,1.14-1.26,2.33-2,3.43L384.29,533a14,14,0,0,1-1.2,1.58l-1.28,1.52a43,43,0,0,1-4.71,4.93q.12,10.8.32,21.59a47.13,47.13,0,0,0,7.85.54,86,86,0,0,0,10.46-.76c3.5-.43,7-1,10.47-1.74,2.78-.57,5.57-1.21,8.31-1.92-.78-8.16-1.37-16.33-1.91-24.51-.56-8.86-1.06-17.73-1.45-26.6s-.75-17.76-.9-26.65-.18-17.78.19-26.71c1.5,8.81,2.57,17.64,3.57,26.48s1.75,17.68,2.47,26.54,1.37,17.71,1.93,26.57c.5,8.21.95,16.42,1.21,24.65a43.2,43.2,0,0,0,33.77-9c-1.35-9.64-9.91-69.25-15.91-81.25-6.58-13.16-11.59-59.48-12.21-65.39-1.72-2.86-3.42-5.59-5-8.15-3.69-5.94-6.88-11.06-8.45-14.72-3.26-7.6-27.8-12.3-42.5-13.48l.2-2.52c-6.24,38.12-17.45,68.62-36.38,79.87,0,0,23.07-21.4,21.19-67.58,0,0-17.64,59.69-50.3,67.58L296.5,436s13.79-20.11,21-43.75a196.17,196.17,0,0,1-57.09,8.06,255.75,255.75,0,0,1-68.57-9.61,94,94,0,0,0,27,44.18s-7.32,4.31-12.2-2.26c0,0,2.06,4.13,7.88,7.89,0,0-24.21,3.38-34-9.39,0,0,5.82,9.39,11.82,12.77,0,0-36.82.54-59.79-73.76-8.22,2.33-23.54,7.84-27.22,17.4-.49,1.26-1.32,3.14-2.44,5.52-1.58,8-23.53,119.07-30.25,142.51,3.93,3.11,17.54,12.78,38.67,16.4.31-7.85.8-15.7,1.34-23.53.61-8.77,1.34-17.53,2.13-26.29s1.68-17.51,2.69-26.25,2.13-17.47,3.54-26.18c.2,8.82.1,17.62-.11,26.42s-.54,17.59-1,26.37-.92,17.56-1.53,26.32c-.56,8-1.18,15.92-2,23.86a103.93,103.93,0,0,0,37.46-2.67,43.86,43.86,0,0,0-5.48-10c-.41-.6-.94-1.08-1.4-1.63l-1.53-1.72-1.73-1.94c-.57-.65-1-1.38-1.53-2.07a39.24,39.24,0,0,1-2.68-4.36c-.42-.73-.72-1.52-1.09-2.27s-.74-1.52-1-2.31a76.87,76.87,0,0,1-4.52-19.15,156.3,156.3,0,0,1,.86-38.5c.4-3.17.92-6.33,1.5-9.47.27-1.57.6-3.13.9-4.7s.67-3.12,1-4.67a168.92,168.92,0,0,1,5.19-18.39c-1.85,12.59-3.46,25.12-4.43,37.67-.46,6.28-.83,12.55-.85,18.8a134.12,134.12,0,0,0,1,18.62,72,72,0,0,0,4.4,17.73c.24.71.62,1.35.92,2s.61,1.37,1,2a32.79,32.79,0,0,0,2.35,3.71c.44.57.83,1.2,1.31,1.73l1.46,1.59,1.66,1.81a24.23,24.23,0,0,1,1.71,2,56.6,56.6,0,0,1,8.75,18,123.85,123.85,0,0,1,4,19.06c.88,6.39,1.41,12.81,1.65,19.22s.32,12.81.18,19.2c-.22,12.78-1.13,25.51-2.33,38.2s-2.93,25.31-4.93,37.87c-.84,5.38-1.77,10.74-2.73,16.09h43.79c.07-.44.13-.89.19-1.33q.57-4.16.94-8.34c.57-5.56,1-11.15,1.49-16.72l2.73-33.51c1-11.17,2-22.34,3.14-33.5s2.43-22.32,4.11-33.47c.38,11.27.19,22.51-.23,33.75s-1.1,22.45-2,33.65-2.16,22.38-3.84,33.52c-.82,5.58-1.78,11.13-2.93,16.66-.62,2.76-1.22,5.52-2,8.24-.1.35-.2.7-.31,1h52c-.34-1.17-.65-2.35-.95-3.53-.81-3.59-1.47-7.2-1.95-10.83a211,211,0,0,1-1.7-21.85q-.32-10.94.22-21.85a197.49,197.49,0,0,1,2.17-21.79c.88,7.28,1.34,14.54,1.75,21.78s.64,14.49.86,21.71l.61,21.67c.14,3.6.22,7.21.47,10.8.08,1.3.17,2.6.29,3.89H313.2c-.51-1.35-1-2.7-1.42-4.08a150.39,150.39,0,0,1-4.48-17.29q-1.74-8.73-3-17.52t-2-17.61q-.75-8.82-1.23-17.65c-.3-5.89-.48-11.78-.61-17.67-.17-11.78-.07-23.57.68-35.33.89,11.75,1.71,23.46,2.69,35.16.44,5.85,1,11.69,1.5,17.53s1.11,11.66,1.75,17.48,1.32,11.62,2.14,17.41S311,676.14,312,681.86s2.3,11.39,3.92,16.93c.54,1.8,1.11,3.6,1.72,5.37h2.21a79.42,79.42,0,0,1,1.42-8,65.57,65.57,0,0,1,2.89-9.31,44.8,44.8,0,0,1,4.59-8.52,52.35,52.35,0,0,0-3.45,8.92,80.3,80.3,0,0,0-1.91,9.3q-.49,3.78-.73,7.57h56.21L378,694ZM355,687.62a89.25,89.25,0,0,1-6.13-11.81,127.73,127.73,0,0,1-7.76-25.37A171,171,0,0,1,338,624.19a145.77,145.77,0,0,1,1-26.34c.86,8.74,1.8,17.39,2.91,26s2.47,17.15,4.2,25.6a215.61,215.61,0,0,0,6.51,25c.31,1,.7,2,1.06,3s.73,2,1.12,3,.77,2,1.18,3l1.29,3a120,120,0,0,0,5.95,11.61A64.19,64.19,0,0,1,355,687.62Z"/><path class="cls-3" d="M266.08,320.32c24.9-16.64,65.18-53.59,64.53-118.09a18.85,18.85,0,0,1-3.78.14,14,14,0,0,1-1.3,1.49,15.31,15.31,0,0,1-3,2.39,12.73,12.73,0,0,1-3.38,1.49c.06.13.13.25.19.37h0l1,1.63-1,.85-8.51,7.59,4.42-8.28a79.12,79.12,0,0,0-8.32-5.55,30.78,30.78,0,0,0-9.59-3.4,11.44,11.44,0,1,1-16.7,1.55q-2.91.83-5.85,2a24.17,24.17,0,0,1,4.53-4.39,29.82,29.82,0,0,1,5.48-3.34,28.14,28.14,0,0,1,13-2.81,26.66,26.66,0,0,1,5.6.82l.33-.2a20.56,20.56,0,0,0,1.73-1.3,112.44,112.44,0,0,1-18.17-17.2,63.94,63.94,0,0,0-15.18,2.53s-1.38-5.11-.21-7.1c.4-.66,4.33-1.74,9.83-2.17a294.65,294.65,0,0,1-23.86-36s-15.22,25-38.31,44.66a20.74,20.74,0,0,1-.75,5.45l-.53,2-2-.57c-1.39-.4-2.74-.74-4.08-1A103.19,103.19,0,0,1,193.37,195c.54.61,1.09,1.2,1.66,1.75a19.55,19.55,0,0,0,2.68,2.11l.33.2a26.66,26.66,0,0,1,5.6-.82,28.14,28.14,0,0,1,13,2.81,29.82,29.82,0,0,1,5.48,3.34,24.17,24.17,0,0,1,4.53,4.39c-2-.77-3.92-1.43-5.85-2a11.31,11.31,0,0,1,2.36,6.93,11.43,11.43,0,1,1-19.07-8.48,30.82,30.82,0,0,0-9.58,3.4,78.1,78.1,0,0,0-8.32,5.55l4.42,8.28-8.52-7.59-1-.85,1-1.63h0c.06-.12.13-.24.19-.37a12.73,12.73,0,0,1-3.38-1.49,15.67,15.67,0,0,1-3-2.39,14.27,14.27,0,0,1-2.27-2.94,25,25,0,0,0,3.2,1.59,21.32,21.32,0,0,0,3.22,1,13,13,0,0,0,3.11.31c.53,0,1,0,1.53,0a25.9,25.9,0,0,1,3-3.33,11,11,0,0,1-1.22-.66,17,17,0,0,1-3-2.31,15.74,15.74,0,0,1-2.12-2.57,59.58,59.58,0,0,1-10.47,1.73s-14.9,47.28,24.79,94a174.35,174.35,0,0,0,36.56,26.7A32.27,32.27,0,0,0,266.08,320.32Zm-4.42-23.41-1.44.06c-.48,0-1,0-1.43,0-1.89.08-3.76.21-5.62.37s-3.7.47-5.55.81a49.18,49.18,0,0,0-5.56,1.4,14.46,14.46,0,0,1,5.07-3.09,23.66,23.66,0,0,1,5.81-1.38,24.59,24.59,0,0,1,5.94.1,26.2,26.2,0,0,1,2.91.56,24.29,24.29,0,0,1,2.79,1C263.58,296.88,262.62,296.87,261.66,296.91Zm-22.42-46.84a1.49,1.49,0,0,1,1.38.58l.24.31a13,13,0,0,0,1.43,1.74,5.76,5.76,0,0,0,1.62,1.18,5.48,5.48,0,0,0,1.74.47,7.53,7.53,0,0,0,2-.12,7,7,0,0,0,1.91-.61,9.28,9.28,0,0,0,1.69-1.19,13.08,13.08,0,0,0,1.5-1.76A21.61,21.61,0,0,0,254,248.6l.13-.23a1.49,1.49,0,0,1,2-.57,1.51,1.51,0,0,1,.76,1.36,11.05,11.05,0,0,1-.67,3.25,11.32,11.32,0,0,1-1.61,3,10.66,10.66,0,0,1-2.63,2.41,9.82,9.82,0,0,1-3.39,1.34,10.25,10.25,0,0,1-3.63.11,8.82,8.82,0,0,1-3.54-1.46,8.18,8.18,0,0,1-2.44-2.72,8.83,8.83,0,0,1-1.08-3.32A1.51,1.51,0,0,1,239.24,250.07ZM227,281.59a.64.64,0,0,1,.77-.08l.08,0a11.5,11.5,0,0,0,5.8,1.63,11.9,11.9,0,0,0,5.67-1.43l.66-.35.45-.23a5.38,5.38,0,0,1,.55-.24,5.78,5.78,0,0,1,2.37-.33,5.93,5.93,0,0,1,2.33.65,4.4,4.4,0,0,1,.52.3l.4.27c.19.13.38.24.58.35a5.77,5.77,0,0,0,4.81.6c.2-.08.4-.14.6-.23l.66-.29a16.22,16.22,0,0,1,1.78-.73,12.92,12.92,0,0,1,3.77-.73c2.55-.1,4.81.39,6.67.35a7.33,7.33,0,0,0,2.66-.57c1-.41,2-.9,2.95-1.39,2-.95,3.92-2,5.85-3.1h0a.53.53,0,0,1,.72.21.51.51,0,0,1-.08.62,42.06,42.06,0,0,1-5.22,4.4c-.94.66-1.87,1.28-2.88,1.9a9.83,9.83,0,0,1-3.71,1.25,21.16,21.16,0,0,1-3.61.09,20.69,20.69,0,0,0-3.08.06,10.18,10.18,0,0,0-2.75.62,11.54,11.54,0,0,0-1.31.57l-.85.41c-.31.14-.64.26-1,.37a9.36,9.36,0,0,1-4.18.35,9.87,9.87,0,0,1-3.85-1.43q-.42-.27-.81-.57l-.29-.22-.19-.12a2.35,2.35,0,0,0-.85-.31,2.59,2.59,0,0,0-.92.06l-.23.07-.31.13-.86.35a15.06,15.06,0,0,1-3.58,1,13.38,13.38,0,0,1-3.74-.05,11.45,11.45,0,0,1-6.42-3.3A.65.65,0,0,1,227,281.59Z"/><path class="cls-3" d="M187.39,202.05a12.94,12.94,0,0,0,3,.54l.28-.21a26.47,26.47,0,0,1,5-2.59,17.52,17.52,0,0,1-1.57-2.32,15.27,15.27,0,0,1-1.09-2.32,73.16,73.16,0,0,1-11.43,4,26.41,26.41,0,0,0,2.68,1.61A19.2,19.2,0,0,0,187.39,202.05Z"/><path class="cls-5" d="M190.48,222.39A43.83,43.83,0,0,0,212.2,228a22.89,22.89,0,0,0,9.63-2.05,11.53,11.53,0,0,0,4.63-17l-.12-.17c-4-5.67-21.62-7.71-26.87-5.9s-16.09,9.42-16.09,9.42Z"/><path class="cls-5" d="M309.79,219.45A43.73,43.73,0,0,1,288.07,225a23,23,0,0,1-9.63-2.05,11.53,11.53,0,0,1-4.62-17l.12-.17c4-5.68,21.61-7.71,26.87-5.91s16.09,9.43,16.09,9.43Z"/><path class="cls-7" d="M70.26,524.67c6.34-26.37,18.12-84.55,24.09-114.4-15.87,31.15-43.22,82.06-48.58,92C49.63,506.39,61.9,519.13,70.26,524.67Z"/><path class="cls-3" d="M319.05,386.55a79.82,79.82,0,0,0,2.6-21.84L296.88,358l-2.26-26.28,1-29.42a166,166,0,0,1-26.73,22.22,37.07,37.07,0,0,1-20.65,6.28A37.6,37.6,0,0,1,229.84,326Q223,322.14,217,318.14l4.64,19.54h-5.48L213,357.21l-24.17,6s-1,9,1.63,21.91C203.08,389,262,405.23,319.05,386.55ZM219.82,358l1.3-16.9s37.56,8.17,67.12-3.94L289.7,358S256.14,371.75,219.82,358Z"/><path class="cls-7" d="M457.21,541c15.14-5.32,23.5-20.16,25.76-24.69-6.37-7.87-39.36-49.68-41-72.17-.68-9.57-5.11-20.17-10.43-30.13,2,16,5.89,43.13,10.38,52.11C447.38,476.93,454.34,521.38,457.21,541Z"/><path d="M216.11,314.58l.84,3.56q6.06,4,12.89,7.81a37.6,37.6,0,0,0,18.37,4.81,37.07,37.07,0,0,0,20.65-6.28,166,166,0,0,0,26.73-22.22l.16-4.74s25.19-21,34.19-64.74l0-.69h.1a157.52,157.52,0,0,0,3-30.49,9.48,9.48,0,0,1-2.49.63c.65,64.5-39.63,101.45-64.53,118.09a32.27,32.27,0,0,1-33.81,1.26,174.35,174.35,0,0,1-36.56-26.7A150.49,150.49,0,0,0,216.11,314.58Z"/><path d="M330,232.09l0,.69c0-.23.09-.46.14-.69Z"/><path d="M272.07,178.59a63.94,63.94,0,0,1,15.18-2.53q-2.72-3.12-5.56-6.74c-5.5.43-9.43,1.51-9.83,2.17C270.69,173.48,272.07,178.59,272.07,178.59Z"/><path d="M316.21,210.6v-2.48l-.95,1.78.95.7Z"/><path d="M314.65,207.74l.71-3.93a9.14,9.14,0,0,1,1.38,0,25.12,25.12,0,0,0-3-3.33,15.68,15.68,0,0,1-2.38.87,8,8,0,0,1-4,0l.45-3c1-.06,2,0,3.07,0l.23,0-.28-.21a26.19,26.19,0,0,0-5-2.59q-.3.38-.63.72a13.62,13.62,0,0,1-3,2.48,8.07,8.07,0,0,1-3.84,1.14l-.39-3c1-.35,1.95-.53,2.92-.91a13.67,13.67,0,0,0,2.57-1.22,26.66,26.66,0,0,0-5.6-.82,28.14,28.14,0,0,0-13,2.81,29.82,29.82,0,0,0-5.48,3.34,24.17,24.17,0,0,0-4.53,4.39q2.94-1.15,5.85-2a11.37,11.37,0,0,1,16.7-1.55,30.78,30.78,0,0,1,9.59,3.4,79.12,79.12,0,0,1,8.32,5.55l.95-1.78v2.48h0l-.95-.7-4.42,8.28,8.51-7.59,1-.85-1-1.63h0c-.06-.12-.13-.24-.19-.37l-.33.1A7.49,7.49,0,0,1,314.65,207.74Z"/><path d="M303.36,194.76c.41.11.82.21,1.22.34s.79.27,1.18.42c.34-.43.66-.87,1-1.33l-1.3-.93a20.56,20.56,0,0,1-1.73,1.3Z"/><path d="M297.87,196.89l.39,3a8.07,8.07,0,0,0,3.84-1.14,13.62,13.62,0,0,0,3-2.48q.33-.35.63-.72c-.39-.15-.78-.3-1.18-.42s-.81-.23-1.22-.34a13.67,13.67,0,0,1-2.57,1.22C299.82,196.36,298.84,196.54,297.87,196.89Z"/><path d="M313.7,200.46a11,11,0,0,0,1.22-.66,8,8,0,0,0,.67-.47c-.84-.38-1.72-.81-2.62-1.29a14.2,14.2,0,0,1-1.91.28A27.4,27.4,0,0,1,313.7,200.46Z"/><path d="M307.76,198.39l-.45,3a8,8,0,0,0,4,0,15.68,15.68,0,0,0,2.38-.87,27.4,27.4,0,0,0-2.64-2.14l-.23,0C309.79,198.43,308.8,198.33,307.76,198.39Z"/><path d="M321.39,203.52a13.05,13.05,0,0,1-3.12.31c-.52,0-1,0-1.53,0a22.56,22.56,0,0,1,2.41,4,12.73,12.73,0,0,0,3.38-1.49,15.31,15.31,0,0,0,3-2.39,14,14,0,0,0,1.3-1.49q-.75,0-1.59-.15l-.63.29A21.68,21.68,0,0,1,321.39,203.52Z"/><path d="M315.36,203.81l-.71,3.93a7.49,7.49,0,0,0,4.17.1l.33-.1a22.56,22.56,0,0,0-2.41-4A9.14,9.14,0,0,0,315.36,203.81Z"/><path d="M286.25,201.19a56.64,56.64,0,0,0-5.61,1.31,11.31,11.31,0,0,0-2.37,6.93A11.44,11.44,0,1,0,297.34,201l-.17,0A33.85,33.85,0,0,0,286.25,201.19Zm3.45,15.68a7.44,7.44,0,1,1,7.44-7.44A7.45,7.45,0,0,1,289.7,216.87Z"/><path d="M280.64,202.5a56.64,56.64,0,0,1,5.61-1.31,33.85,33.85,0,0,1,10.92-.27l.17,0a11.37,11.37,0,0,0-16.7,1.55Z"/><path d="M218.24,185.35l.53-2a20.74,20.74,0,0,0,.75-5.45c-2.36,2-4.8,4-7.31,5.82,1.34.29,2.69.63,4.08,1Z"/><path d="M203.53,201.16l-.39,3a8,8,0,0,1-3.85-1.14,13.79,13.79,0,0,1-3-2.48q-.33-.34-.63-.72a26.47,26.47,0,0,0-5,2.59l-.28.21.23,0c1,.09,2,0,3.06,0l.46,3a8,8,0,0,1-4,0,15.56,15.56,0,0,1-2.37-.87,25.9,25.9,0,0,0-3,3.33,9.1,9.1,0,0,1,1.38,0l.72,3.93a7.49,7.49,0,0,1-4.17.1l-.33-.1c-.06.13-.13.25-.19.37h0l-1,1.63,1,.85,8.52,7.59-4.42-8.28-1,.7h0v-2.48l1,1.78a78.1,78.1,0,0,1,8.32-5.55,30.82,30.82,0,0,1,9.58-3.4,11.38,11.38,0,0,1,16.71,1.55c1.93.55,3.89,1.21,5.85,2a24.17,24.17,0,0,0-4.53-4.39A29.82,29.82,0,0,0,216.6,201a28.14,28.14,0,0,0-13-2.81,26.66,26.66,0,0,0-5.6.82,13.89,13.89,0,0,0,2.56,1.22C201.58,200.63,202.55,200.81,203.53,201.16Z"/><path d="M185.19,214.87h0l1-.7-1-1.78Z"/><path d="M195.64,199.79c.39-.15.78-.3,1.18-.42s.81-.23,1.22-.34l-.33-.2a19.55,19.55,0,0,1-2.68-2.11c-.57-.55-1.12-1.14-1.66-1.75l-.39.18a15.27,15.27,0,0,0,1.09,2.32A17.52,17.52,0,0,0,195.64,199.79Z"/><path d="M195.64,199.79q.3.38.63.72a13.79,13.79,0,0,0,3,2.48,8,8,0,0,0,3.85,1.14l.39-3c-1-.35-1.95-.53-2.93-.91A13.89,13.89,0,0,1,198,199c-.41.11-.82.21-1.22.34S196,199.64,195.64,199.79Z"/><path d="M186.48,204.07a11,11,0,0,0,1.22.66,27.4,27.4,0,0,1,2.64-2.14,12.94,12.94,0,0,1-3-.54,19.2,19.2,0,0,1-3.16-1.28,26.41,26.41,0,0,1-2.68-1.61l-.16,0a15.74,15.74,0,0,0,2.12,2.57A17,17,0,0,0,186.48,204.07Z"/><path d="M194.09,205.63l-.46-3c-1-.06-2,0-3.06,0l-.23,0a27.4,27.4,0,0,0-2.64,2.14,15.56,15.56,0,0,0,2.37.87A8,8,0,0,0,194.09,205.63Z"/><path d="M183.12,208.1a13,13,0,0,1-3.11-.31,21.32,21.32,0,0,1-3.22-1,25,25,0,0,1-3.2-1.59,14.27,14.27,0,0,0,2.27,2.94,15.67,15.67,0,0,0,3,2.39,12.73,12.73,0,0,0,3.38,1.49,22.51,22.51,0,0,1,2.4-3.95C184.15,208.08,183.65,208.11,183.12,208.1Z"/><path d="M186.75,212l-.72-3.93a9.1,9.1,0,0,0-1.38,0,22.51,22.51,0,0,0-2.4,3.95l.33.1A7.49,7.49,0,0,0,186.75,212Z"/><path d="M204.23,205.19l-.18,0a11.43,11.43,0,1,0,16.71,1.55,56.18,56.18,0,0,0-5.62-1.31A33.79,33.79,0,0,0,204.23,205.19Zm14.89,8.51a7.43,7.43,0,1,1-7.43-7.43A7.44,7.44,0,0,1,219.12,213.7Z"/><path d="M211.69,202.27a11.41,11.41,0,0,0-7.64,2.95l.18,0a33.79,33.79,0,0,1,10.91.27,56.18,56.18,0,0,1,5.62,1.31A11.4,11.4,0,0,0,211.69,202.27Z"/><path d="M239,255.06a8.18,8.18,0,0,0,2.44,2.72,8.82,8.82,0,0,0,3.54,1.46,10.25,10.25,0,0,0,3.63-.11,9.82,9.82,0,0,0,3.39-1.34,10.66,10.66,0,0,0,2.63-2.41,11.32,11.32,0,0,0,1.61-3,11.05,11.05,0,0,0,.67-3.25,1.51,1.51,0,0,0-.76-1.36,1.49,1.49,0,0,0-2,.57l-.13.23a21.61,21.61,0,0,1-1.26,2.07,13.08,13.08,0,0,1-1.5,1.76,9.28,9.28,0,0,1-1.69,1.19,7,7,0,0,1-1.91.61,7.53,7.53,0,0,1-2,.12,5.48,5.48,0,0,1-1.74-.47,5.76,5.76,0,0,1-1.62-1.18,13,13,0,0,1-1.43-1.74l-.24-.31a1.52,1.52,0,0,0-2.71,1.09A8.83,8.83,0,0,0,239,255.06Z"/><path d="M237.11,285.86a15.06,15.06,0,0,0,3.58-1l.86-.35.31-.13.23-.07a2.59,2.59,0,0,1,.92-.06,2.35,2.35,0,0,1,.85.31l.19.12.29.22q.39.3.81.57a9.87,9.87,0,0,0,3.85,1.43,9.36,9.36,0,0,0,4.18-.35c.32-.11.65-.23,1-.37l.85-.41a11.54,11.54,0,0,1,1.31-.57,10.18,10.18,0,0,1,2.75-.62,20.69,20.69,0,0,1,3.08-.06,21.16,21.16,0,0,0,3.61-.09,9.83,9.83,0,0,0,3.71-1.25c1-.62,1.94-1.24,2.88-1.9a42.06,42.06,0,0,0,5.22-4.4.51.51,0,0,0,.08-.62.53.53,0,0,0-.72-.21h0c-1.93,1.08-3.88,2.15-5.85,3.1-1,.49-2,1-2.95,1.39a7.33,7.33,0,0,1-2.66.57c-1.86,0-4.12-.45-6.67-.35a12.92,12.92,0,0,0-3.77.73,16.22,16.22,0,0,0-1.78.73l-.66.29c-.2.09-.4.15-.6.23a5.77,5.77,0,0,1-4.81-.6c-.2-.11-.39-.22-.58-.35l-.4-.27a4.4,4.4,0,0,0-.52-.3,5.93,5.93,0,0,0-2.33-.65,5.78,5.78,0,0,0-2.37.33,5.38,5.38,0,0,0-.55.24l-.45.23-.66.35a11.9,11.9,0,0,1-5.67,1.43,11.5,11.5,0,0,1-5.8-1.63l-.08,0a.64.64,0,0,0-.77.08.65.65,0,0,0,0,.92,11.45,11.45,0,0,0,6.42,3.3A13.38,13.38,0,0,0,237.11,285.86Z"/><path d="M258.88,295.22a24.59,24.59,0,0,0-5.94-.1,23.66,23.66,0,0,0-5.81,1.38,14.46,14.46,0,0,0-5.07,3.09,49.18,49.18,0,0,1,5.56-1.4q2.77-.51,5.55-.81c1.86-.16,3.73-.29,5.62-.37.48,0,.95,0,1.43,0l1.44-.06c1,0,1.92,0,2.92-.14a24.29,24.29,0,0,0-2.79-1A26.2,26.2,0,0,0,258.88,295.22Z"/><path d="M221.12,341.06l.47-3.38L217,318.14c-23.28-15.34-38.07-32.33-47.44-48.16-2.95,37,19.33,93.23,19.33,93.23l31-5.25Z"/><path d="M298.07,141.61h0l-.07,0C298.05,141.65,298.1,141.64,298.07,141.61Z"/><path class="cls-3" d="M143.2,212c-2.42,3.44-2.31,8.85.3,14.87,3,6.94,8.47,12.77,13.95,15.29l-.33-1.15a112.93,112.93,0,0,1-4-32C149.24,206.84,146.14,207.8,143.2,212Z"/><path d="M202.54,175.42a51.8,51.8,0,0,0-11.74,1.29,33.59,33.59,0,0,0-11.11,4.66,61.84,61.84,0,0,1,35.64-1,10.59,10.59,0,0,0,.11-3.3C214,176.46,208.92,175.42,202.54,175.42Z"/><path class="cls-3" d="M346.82,217.9c3.09-6.77,4.28-15.6-.06-20.09-2-2.09-4-3.15-5.92-3.15h0a8.34,8.34,0,0,0-5.35,2.56A148.16,148.16,0,0,1,333,231.79C338.78,230.37,344,224.18,346.82,217.9Z"/><path d="M137.81,368.86c-.08,0-2.18.44-5.28,1.31,23,74.3,59.79,73.76,59.79,73.76-6-3.38-11.82-12.77-11.82-12.77,9.76,12.77,34,9.39,34,9.39-5.82-3.76-7.88-7.89-7.88-7.89,4.88,6.57,12.2,2.26,12.2,2.26a94,94,0,0,1-27-44.18c-3.43-1-5.37-1.67-5.48-1.71l1.66-4.71c.08,0,.94.32,2.48.8-2.67-12.91-1.63-21.91-1.63-21.91-25.49-33.77-21.45-79.75-19.51-93.53a119.68,119.68,0,0,1-10-21.65c-9.15-2.08-16.9-11.2-20.38-19.21-3.33-7.65-3.26-14.85.2-19.74,3.87-5.49,8.92-7.38,14.25-5.49a63,63,0,0,1,1.2-8.82l2.52.59,2.35.54h0c-.07.32-4.24,19.26,2.58,44,4.27,15.52,13.62,35.56,33.69,55-39.69-46.68-24.79-94-24.79-94a59.58,59.58,0,0,0,10.47-1.73c0-.09-.13-.17-.19-.26l.35.23a73.16,73.16,0,0,0,11.43-4c-.13-.35-.24-.69-.34-1,.23.3.48.58.73.86a103.19,103.19,0,0,0,18.84-11.22c-23.76-5.25-40,5.44-40.16,5.55l-7.67,5.17,4.84-7.87c8.23-13.39,24.78-15.24,33.95-15.18,3.56,0,14.06.71,15.6,3.32a6.68,6.68,0,0,1,.75,3.19c23.09-19.64,38.31-44.66,38.31-44.66a294.65,294.65,0,0,0,23.86,36c11-.84,28.26,1,36.3,14.06,0,0-12-8.14-30.74-7.32a112.44,112.44,0,0,0,18.17,17.2c.32-.26.64-.52.95-.81a24.84,24.84,0,0,0,2.39-2.61,14.77,14.77,0,0,1-1.43,3.36c-.19.33-.4.66-.61,1A58.53,58.53,0,0,0,313,198a9.88,9.88,0,0,0,1-.26,19.2,19.2,0,0,0,3.16-1.28,24.38,24.38,0,0,0,3-1.84,14.83,14.83,0,0,1-2.31,2.83,17.24,17.24,0,0,1-2.29,1.84,33.44,33.44,0,0,0,9.65,2.89,23,23,0,0,0,2.57-1.3,13.66,13.66,0,0,1-1,1.45,18.85,18.85,0,0,0,3.78-.14c0-3.19-.17-6.45-.41-9.78l3.53-.25a12.15,12.15,0,0,1,7.07-2.54h0c3.31,0,6.51,1.57,9.51,4.67,5.26,5.44,5.66,15.51,1,25.65-3.49,7.63-10.56,16.25-19.51,17-6.64,28.27-21.19,49.7-36.27,65.24l-1,29.42L296.88,358l24.77,6.75s15.31-70.95,6.16-99.1c0,0,22.37,46.55-6.16,99.1a79.82,79.82,0,0,1-2.6,21.84q3.17-1,6.32-2.21l1.76,4.68c-3.21,1.2-6.44,2.28-9.66,3.27-7.18,23.64-21,43.75-21,43.75l7.51,7.89c32.66-7.89,50.3-67.58,50.3-67.58,1.88,46.18-21.19,67.58-21.19,67.58,18.93-11.25,30.14-41.75,36.38-79.87l.2-2.46h.2c5.71-36.42,7-79.47,6.19-119.26C374.4,159.69,355,77.52,282.24,56.41S104.1,112.16,116.77,278.51c2.77,36.36,7.94,64.73,14.33,86.86,3.2-.91,5.42-1.36,5.74-1.42Zm217-17.08c-.84,4.21-1.75,8.06-2.74,11.43,0,0,1.12-4.36,2.74-11.43,7.48-37.48,9.22-102.9,9.22-102.9C371.93,270.84,360.42,327.43,354.85,351.78ZM330.56,113.16a44.44,44.44,0,0,1,5.19,7.56,45,45,0,0,1,2,4.13,41.35,41.35,0,0,1,1.53,4.34,30.42,30.42,0,0,1,1.32,9.1c-1.59-2.68-2.82-5.34-4.24-7.93-.65-1.31-1.39-2.58-2-3.88s-1.37-2.58-2.1-3.84c-1.39-2.56-2.8-5.12-4.25-7.68s-2.88-5.17-4.27-7.93A31,31,0,0,1,330.56,113.16Zm-20-1.47c1.31,2.37,2.43,4.69,3.55,7s2.2,4.53,3.38,6.69a52.51,52.51,0,0,0,3.85,6.22,28.86,28.86,0,0,0,5.17,5.49,12.87,12.87,0,0,1-7.46-3.34,22.64,22.64,0,0,1-5.08-6.47,30.28,30.28,0,0,1-2.82-7.56A24.13,24.13,0,0,1,310.58,111.69Zm-19,23.43c.85,1.18,1.73,2.34,2.67,3.41a15.36,15.36,0,0,0,2.89,2.75,2.5,2.5,0,0,0,.53.28v0a16.65,16.65,0,0,0-.8-3.76c-.83-2.74-1.83-5.55-2.59-8.52a28.28,28.28,0,0,1-.83-4.69,11.38,11.38,0,0,1,.08-2.65,5.93,5.93,0,0,1,1.24-3,8,8,0,0,1,.66-.64,6.22,6.22,0,0,1,.76-.5,5.12,5.12,0,0,1,1.67-.54,4.11,4.11,0,0,1,1.87.16,4.59,4.59,0,0,1,1.52.81,11.13,11.13,0,0,1,3,4.23c1.3,2.82,2.12,5.66,3.14,8.39a35.58,35.58,0,0,0,1.67,4,9.52,9.52,0,0,0,2.64,3.41,6.93,6.93,0,0,1-2-1.14,14,14,0,0,1-1.6-1.66,28.73,28.73,0,0,1-2.53-3.79c-1.47-2.62-2.72-5.34-4.13-7.78a9.6,9.6,0,0,0-2.28-2.83.86.86,0,0,0-.76-.17,1.29,1.29,0,0,0-.7.43,4.92,4.92,0,0,0-.33,2.9,26.93,26.93,0,0,0,.78,4c.69,2.76,1.62,5.55,2.36,8.51.19.74.35,1.51.49,2.3a10.6,10.6,0,0,1,.17,2.66l0,.39c0,.14-.07.31-.11.45a3.36,3.36,0,0,1-.41,1,2.82,2.82,0,0,1-1,.95,4.51,4.51,0,0,1-.63.29l-.56.1a3.69,3.69,0,0,1-1.06-.05,5.63,5.63,0,0,1-.85-.29,6,6,0,0,1-1.26-.79,12,12,0,0,1-1.77-1.8,18.67,18.67,0,0,1-1.38-1.9c-.83-1.3-1.57-2.62-2.25-4a57.94,57.94,0,0,1-3.39-8.31C288.23,130.3,289.86,132.77,291.61,135.12Zm-18.08-2.41c1.39,1.27,2.74,2.55,4.07,3.86s2.64,2.64,3.93,4.05c.63.72,1.3,1.42,1.9,2.21a19.55,19.55,0,0,1,1.81,2.46,16.89,16.89,0,0,1-3-.88,22.14,22.14,0,0,1-2.72-1.34,24.44,24.44,0,0,1-4.77-3.65,23.35,23.35,0,0,1-3.72-4.77,14,14,0,0,1-2-5.81C270.7,130.18,272.13,131.42,273.53,132.71Zm-46.75,6.75c1.27-1.79,2.53-3.56,3.89-5.25s2.7-3.38,4.13-5,2.93-3.28,4.64-4.91a20.14,20.14,0,0,1-2,6.62,33,33,0,0,1-8.32,10.7,23.84,23.84,0,0,1-5.82,3.71A44.72,44.72,0,0,1,226.78,139.46Zm-19.44-3.15s0,.06,0,.09a.9.9,0,0,0,.37.13,5,5,0,0,0,1.65-.2,17.83,17.83,0,0,0,3.85-1.63,18.47,18.47,0,0,0,3.69-2.55,10.7,10.7,0,0,1-2.46,4.09,13.72,13.72,0,0,1-3.94,3,7.16,7.16,0,0,1-2.76.79,4.31,4.31,0,0,1-1.85-.27,3.87,3.87,0,0,1-1.71-1.36,5.7,5.7,0,0,1-.89-3.28c0-.49.1-1,.17-1.47a8.53,8.53,0,0,1,.36-1.34,15.12,15.12,0,0,1,2.5-4.45,24.26,24.26,0,0,1,3.3-3.48,28.9,28.9,0,0,1,7.89-5c-1.88,2.51-3.82,4.82-5.61,7.16-.46.58-.86,1.18-1.31,1.75s-.84,1.17-1.19,1.78a15.87,15.87,0,0,0-1.79,3.53,7.22,7.22,0,0,0-.25.84c0,.26-.08.52-.12.79A3,3,0,0,0,207.34,136.31Zm-1.41-22.7a16.53,16.53,0,0,1,3.2-2c.61-.22,1.18-.47,1.78-.64a14,14,0,0,1,1.87-.26,34.54,34.54,0,0,0-4.66,5.11c-1.38,1.77-2.72,3.58-4.06,5.42s-2.73,3.67-4.17,5.5a58.58,58.58,0,0,1-4.75,5.37,25.42,25.42,0,0,1,2.06-7,34.31,34.31,0,0,1,3.64-6.25A25.53,25.53,0,0,1,205.93,113.61Zm-26.41-7.18a78.14,78.14,0,0,1,5.68-8.7,27.61,27.61,0,0,1,3.61-4A9.37,9.37,0,0,1,191.46,92a7.36,7.36,0,0,1,1-.27c.21,0,.43,0,.65,0a2.14,2.14,0,0,1,.68.11A3.15,3.15,0,0,1,196,93.67a5,5,0,0,1,.33,2.06,10.56,10.56,0,0,1-.21,1.59,22.15,22.15,0,0,1-.79,2.71c-.62,1.71-1.35,3.31-2.1,4.88-1.52,3.12-3.18,6.13-4.8,9.1-.73,1.34-1.47,2.7-2.07,4,1-.66,2.07-1.47,3.09-2.26,1.33-1,2.62-2.12,3.91-3.22,2.61-2.18,5.16-4.46,7.79-6.68-2,2.82-4.16,5.47-6.41,8.08q-1.71,1.93-3.55,3.79a29.6,29.6,0,0,1-4.1,3.49,7.05,7.05,0,0,1-1.46.76,3.32,3.32,0,0,1-1.22.22l-.5-.08a1.75,1.75,0,0,1-.57-.23,2.1,2.1,0,0,1-.91-1.12,3,3,0,0,1-.12-1.41,5.69,5.69,0,0,1,.17-.86,13.43,13.43,0,0,1,.44-1.39c.65-1.73,1.4-3.28,2.14-4.84,1.51-3.1,3.12-6.1,4.57-9.11.74-1.5,1.43-3,2-4.51a17.65,17.65,0,0,0,.71-2.17,6.36,6.36,0,0,0,.15-.95.22.22,0,0,0,0-.08,6.82,6.82,0,0,0-1.44.92,34.93,34.93,0,0,0-3.48,3.34c-4.45,5-8.5,10.5-12.71,15.91A99.07,99.07,0,0,1,179.52,106.43ZM128.32,234.6c.56,114,45.27,194.31,45.27,194.31C115.25,355.7,128.32,234.6,128.32,234.6Z"/><path d="M192.9,95.35s0,0,0,0l-.07,0h.06Z"/><path d="M184.54,118.93h.07C184.55,118.91,184.56,118.91,184.54,118.93Z"/><path d="M143.5,226.83c-2.61-6-2.72-11.43-.3-14.87,2.94-4.16,6-5.12,9.9-3,.05-2,.14-3.75.27-5.35-5.33-1.89-10.38,0-14.25,5.49-3.46,4.89-3.53,12.09-.2,19.74,3.48,8,11.23,17.13,20.38,19.21-.69-2-1.3-4-1.85-5.91C152,239.6,146.52,233.77,143.5,226.83Z"/><path d="M335.47,197.22a8.34,8.34,0,0,1,5.35-2.56h0c1.9,0,3.9,1.06,5.92,3.15,4.34,4.49,3.15,13.32.06,20.09-2.87,6.28-8,12.47-13.84,13.89-.34,1.77-.72,3.52-1.12,5.23,8.95-.79,16-9.41,19.51-17,4.64-10.14,4.24-20.21-1-25.65-3-3.1-6.2-4.67-9.51-4.67h0a12.15,12.15,0,0,0-7.07,2.54l1.46-.11C335.31,193.82,335.4,195.53,335.47,197.22Z"/><polygon points="159.44 195.9 157.09 195.36 157 195.34 159.44 195.9"/><path d="M329.7,237.08l.24-4.3c-9,43.7-34.19,64.74-34.19,64.74l-.16,4.74c15.08-15.54,29.63-37,36.27-65.24-.44,0-.88.08-1.32.08Z"/><polygon points="159.44 195.9 157.09 195.36 159.44 195.9 159.44 195.9"/><path d="M330.08,232.09h.43a10.25,10.25,0,0,0,2.47-.31,148.16,148.16,0,0,0,2.49-34.57c-.26.24-.51.48-.73.72l-3.62-3.45a18.3,18.3,0,0,1,2.61-2.29l-3.53.25c.24,3.33.37,6.59.41,9.78a9.48,9.48,0,0,0,2.49-.63A157.52,157.52,0,0,1,330.08,232.09Z"/><path d="M169.51,270c9.37,15.83,24.16,32.82,47.44,48.16l-.84-3.56a150.49,150.49,0,0,1-20.4-19.7c-20.07-19.41-29.42-39.45-33.69-55-6.82-24.75-2.65-43.69-2.58-44l-2.44-.56.09,0-2.52-.59a63,63,0,0,0-1.2,8.82,17.05,17.05,0,0,1,3.69,1.9l-2.79,4.15a11.28,11.28,0,0,0-1.17-.7,112.93,112.93,0,0,0,4,32l.33,1.15a14.6,14.6,0,0,0,4.08,1.26l-.67,5c-.52-.07-1-.18-1.56-.3a119.68,119.68,0,0,0,10,21.65c.37-2.61.66-4.07.66-4.07C169.78,267,169.63,268.49,169.51,270Z"/><path d="M161.53,243.38a14.6,14.6,0,0,1-4.08-1.26C158,244,158.61,246,159.3,248c.52.12,1,.23,1.56.3Z"/><path d="M154.27,209.64l2.79-4.15a17.05,17.05,0,0,0-3.69-1.9c-.13,1.6-.22,3.38-.27,5.35A11.28,11.28,0,0,1,154.27,209.64Z"/><path d="M334.74,197.94c.22-.24.47-.48.73-.72-.07-1.69-.16-3.4-.28-5.13l-1.46.11a18.3,18.3,0,0,0-2.61,2.29Z"/><path d="M330.51,232.1h-.43c-.05.23-.1.46-.14.69l-.24,4.3.84,0c.44,0,.88,0,1.32-.08.4-1.71.78-3.46,1.12-5.23A10.25,10.25,0,0,1,330.51,232.1Z"/><path d="M318,183.38c-8-13.1-25.32-14.9-36.3-14.06q2.85,3.63,5.56,6.74C306,175.24,318,183.38,318,183.38Z"/><path d="M307.33,193.2a14.77,14.77,0,0,0,1.43-3.36,24.84,24.84,0,0,1-2.39,2.61c-.31.29-.63.55-.95.81l1.3.93C306.93,193.86,307.14,193.53,307.33,193.2Z"/><path d="M317.88,197.49a14.83,14.83,0,0,0,2.31-2.83,24.38,24.38,0,0,1-3,1.84,19.2,19.2,0,0,1-3.16,1.28,9.88,9.88,0,0,1-1,.26c.9.48,1.78.91,2.62,1.29A17.24,17.24,0,0,0,317.88,197.49Z"/><path d="M327.81,200.92a23,23,0,0,1-2.57,1.3q.84.1,1.59.15A13.66,13.66,0,0,0,327.81,200.92Z"/><path d="M218.77,174.74c-1.54-2.61-12-3.29-15.6-3.32-9.17-.06-25.72,1.79-33.95,15.18l-4.84,7.87,7.67-5.17c.17-.11,16.4-10.8,40.16-5.55,2.51-1.86,4.95-3.81,7.31-5.82A6.68,6.68,0,0,0,218.77,174.74Zm-3.44,5.63a61.84,61.84,0,0,0-35.64,1,33.59,33.59,0,0,1,11.11-4.66,51.8,51.8,0,0,1,11.74-1.29c6.38,0,11.46,1,12.9,1.65A10.59,10.59,0,0,1,215.33,180.37Z"/><path d="M192.64,194.11c.1.35.21.69.34,1l.39-.18C193.12,194.69,192.87,194.41,192.64,194.11Z"/><path d="M181.2,198.93c.06.09.14.17.19.26l.16,0Z"/><path d="M190.47,385.12c.37,1.8.81,3.68,1.34,5.62a255.75,255.75,0,0,0,68.57,9.61,196.17,196.17,0,0,0,57.09-8.06q.86-2.85,1.58-5.74C262,405.23,203.08,389,190.47,385.12Z"/><path d="M325.37,384.34q-3.15,1.17-6.32,2.21-.72,2.9-1.58,5.74c3.22-1,6.45-2.07,9.66-3.27Z"/><path d="M188,384.32,186.33,389c.11,0,2,.72,5.48,1.71-.53-1.94-1-3.82-1.34-5.62C188.93,384.64,188.07,384.35,188,384.32Z"/><path class="cls-7" d="M294.62,331.68c-29.56,12.11-73,6-73,6L219.82,358c36.32,13.79,77-.64,77-.64Z"/><path d="M369.3,366.58c14.7,1.18,39.24,5.88,42.5,13.48,1.57,3.66,4.76,8.78,8.45,14.72,1.6,2.56,3.3,5.29,5,8.15l-.06-.56,5-.5c0,.15.52,5,1.39,12.1,5.32,10,9.75,20.56,10.43,30.13,1.6,22.49,34.59,64.3,41,72.17-2.26,4.53-10.62,19.37-25.76,24.69.28,1.94.53,3.64.73,5,20.61-6.62,29.86-28.15,30.26-29.11l.58-1.39-1-1.17c-.39-.47-39.21-47.8-40.82-70.57-1.24-17.44-13.53-37.19-22.5-51.61-3.59-5.77-6.69-10.74-8.1-14.05C411,365.41,374.85,362,369.9,361.61c-.13.82-.26,1.64-.4,2.45Z"/><path d="M369.5,364.06c.14-.81.27-1.63.4-2.45h-.2Z"/><path d="M382.06,681.82q-1.63-23.58-2.57-47.21-1.35-33.42-2-66.88a35.25,35.25,0,0,1-3.58-.69l1.29-4.83c.71.18,1.45.32,2.19.45q-.19-10.8-.32-21.59l-.81.79h0l.8-1.86c0,.36,0,.71,0,1.06a43,43,0,0,0,4.71-4.93l1.28-1.52a14,14,0,0,0,1.2-1.58l2.24-3.28c.74-1.1,1.33-2.29,2-3.43l1-1.73c.31-.58.56-1.19.84-1.79.54-1.2,1.11-2.39,1.63-3.6l1.37-3.7a75.58,75.58,0,0,0,3.57-15.32,70.28,70.28,0,0,0,.35-15.75A54.43,54.43,0,0,0,393.62,469l-3.26-6.86c-.42-1.13-.91-2.24-1.31-3.38s-.78-2.3-1.09-3.49c-.62-2.36-1.14-4.76-1.53-7.2-.17-1.23-.38-2.45-.48-3.69l-.19-1.85-.13-1.87a95.19,95.19,0,0,1,.22-15.09,54.09,54.09,0,0,0-1.79,7.44,65.39,65.39,0,0,0-.89,7.65,58.93,58.93,0,0,0,0,7.75c0,1.3.21,2.59.32,3.89s.4,2.58.6,3.88.59,2.56.88,3.84.79,2.53,1.2,3.79,1,2.46,1.53,3.69l1.35,3.33a50.06,50.06,0,0,1,2.77,14.08,69.41,69.41,0,0,1-.62,14.54,74.72,74.72,0,0,1-3.39,14.18L386.54,517c-.47,1.11-1,2.22-1.46,3.33-.25.55-.47,1.12-.75,1.65l-.86,1.6c-.59,1.06-1.09,2.17-1.75,3.18a64,64,0,0,1-8.83,11.41h0l-.82.84,0,1q.53,47.41,2.41,94.76,1,23.69,2.57,47.36L378,694l1,10.15h5l-1-10.57Z"/><path d="M417.65,558.22c.67.13,1.32.23,2,.33-.26-8.23-.71-16.44-1.21-24.65q-.84-13.29-1.93-26.57c-.72-8.86-1.49-17.71-2.47-26.54s-2.07-17.67-3.57-26.48c-.37,8.93-.32,17.82-.19,26.71s.49,17.77.9,26.65.89,17.74,1.45,26.6c.54,8.18,1.13,16.35,1.91,24.51.67-.17,1.34-.32,2-.5h0l-1.81,2.56c-.07-.69-.13-1.37-.19-2.06-2.74.71-5.53,1.35-8.31,1.92-3.48.71-7,1.31-10.47,1.74a86,86,0,0,1-10.46.76,47.13,47.13,0,0,1-7.85-.54c0,1.69.07,3.38.1,5.07a52.63,52.63,0,0,0,7.79.47,89.8,89.8,0,0,0,11.05-.8c3.65-.45,7.25-1.07,10.83-1.8,3.4-.69,6.74-1.45,10.13-2.37l-.58-.09Z"/><path d="M453.26,542.1a32.81,32.81,0,0,0,3.95-1.14c-2.87-19.58-9.83-64-15.25-74.88-4.49-9-8.39-36.13-10.38-52.11-2-3.8-4.19-7.51-6.31-11,.62,5.91,5.63,52.23,12.21,65.39,6,12,14.56,71.61,15.91,81.25a43.2,43.2,0,0,1-33.77,9c0,.65.05,1.31.07,2l.06,2.11-1.87.46h0l-.56.14a51.79,51.79,0,0,0,8,.79l-.09-2.39,5-.18.08,2.45a46,46,0,0,0,27.54-11.59l.88-.88-.17-1.23c0-.37-.26-1.87-.59-4.21a37.31,37.31,0,0,1-3.6,1Z"/><path d="M430.19,401.87l-5,.5.06.56c2.12,3.53,4.28,7.24,6.31,11C430.71,406.91,430.2,402,430.19,401.87Z"/><path d="M45.77,502.28c5.36-9.95,32.71-60.86,48.58-92,2.2-11,3.62-18.15,3.67-18.45l4.91,1c0,.07,0,.18-.06.3,1.12-2.38,1.95-4.26,2.44-5.52,3.68-9.56,19-15.07,27.22-17.4q-.72-2.34-1.43-4.8c-9,2.56-26,8.78-30.46,20.41-5.51,14.33-59.57,114.7-60.12,115.71l-.84,1.57,1.2,1.31c.74.81,17.54,19.06,28.12,25.41.39-1.53.82-3.24,1.26-5.11C61.9,519.13,49.63,506.39,45.77,502.28Z"/><path d="M137.81,368.86l-1-4.91c-.32.06-2.54.51-5.74,1.42q.71,2.46,1.43,4.8C135.63,369.3,137.73,368.87,137.81,368.86Z"/><path d="M104.93,552.61l.15,3.42a100.27,100.27,0,0,0,22.15,2.45,114.64,114.64,0,0,0,28.34-3.7c-.51-1.6-1.07-3.18-1.7-4.73a103.93,103.93,0,0,1-37.46,2.67l-.24,2.42-5-.34c0-.94.08-1.87.11-2.8-21.13-3.62-34.74-13.29-38.67-16.4,6.72-23.44,28.67-134.5,30.25-142.51-2,4.3-5,10.25-8.52,17.18-6,29.85-17.75,88-24.09,114.4a27.89,27.89,0,0,0,2.52,1.51l-2.3,4.43c-.48-.24-1-.53-1.48-.83-.63,2.48-1.18,4.5-1.63,5.94l-.48,1.52,1.17,1.07c.8.73,12.09,10.82,32,16.44l-.09-1.92Z"/><path d="M98,391.82c0,.3-1.47,7.46-3.67,18.45,3.54-6.93,6.5-12.88,8.52-17.18,0-.12,0-.23.06-.3Z"/><path d="M118.38,528.86c.61-8.76,1.1-17.54,1.53-26.32s.75-17.57,1-26.37.31-17.6.11-26.42c-1.41,8.71-2.53,17.44-3.54,26.18s-1.91,17.49-2.69,26.25-1.52,17.52-2.13,26.29c-.54,7.83-1,15.68-1.34,23.53,1.66.28,3.37.52,5.12.72C117.2,544.78,117.82,536.82,118.38,528.86Z"/><path d="M165.18,650.2c1.2-12.69,2.11-25.42,2.33-38.2q.21-9.59-.18-19.2c-.24-6.41-.77-12.83-1.65-19.22a123.85,123.85,0,0,0-4-19.06,56.6,56.6,0,0,0-8.75-18,24.23,24.23,0,0,0-1.71-2l-1.66-1.81-1.46-1.59c-.48-.53-.87-1.16-1.31-1.73a32.79,32.79,0,0,1-2.35-3.71c-.38-.63-.65-1.33-1-2s-.68-1.32-.92-2a72,72,0,0,1-4.4-17.73,134.12,134.12,0,0,1-1-18.62c0-6.25.39-12.52.85-18.8,1-12.55,2.58-25.08,4.43-37.67a168.92,168.92,0,0,0-5.19,18.39c-.36,1.55-.7,3.11-1,4.67s-.63,3.13-.9,4.7c-.58,3.14-1.1,6.3-1.5,9.47a156.3,156.3,0,0,0-.86,38.5,76.87,76.87,0,0,0,4.52,19.15c.26.79.67,1.54,1,2.31s.67,1.54,1.09,2.27a39.24,39.24,0,0,0,2.68,4.36c.51.69,1,1.42,1.53,2.07l1.73,1.94,1.53,1.72c.46.55,1,1,1.4,1.63a43.86,43.86,0,0,1,5.48,10c1-.25,2-.5,3.06-.79l1.34,4.82c-.91.25-1.8.47-2.7.7.16.48.31,1,.46,1.44a118,118,0,0,1,3.68,18.16c.81,6.17,1.27,12.41,1.53,18.67s.33,12.55.2,18.84c-.19,12.58-1.07,25.17-2.24,37.73s-2.71,25.1-4.55,37.6q-1.23,8.49-2.65,16.94h5.52c1-5.35,1.89-10.71,2.73-16.09C162.25,675.51,164,662.88,165.18,650.2Z"/><path class="cls-5" d="M128.32,234.6s-13.07,121.1,45.27,194.31C173.59,428.91,128.88,348.6,128.32,234.6Z"/><path class="cls-5" d="M169.51,270l-.18-.3c-1.94,13.78-6,59.76,19.51,93.53C188.84,363.21,166.56,307,169.51,270Z"/><path class="cls-5" d="M170,265.61s-.29,1.46-.66,4.07l.18.3C169.63,268.49,169.78,267,170,265.61Z"/><path class="cls-5" d="M327.81,265.61c9.15,28.15-6.16,99.1-6.16,99.1C350.18,312.16,327.81,265.61,327.81,265.61Z"/><path class="cls-5" d="M364.07,248.88s-1.74,65.42-9.22,102.9C360.42,327.43,371.93,270.84,364.07,248.88Z"/><path class="cls-5" d="M354.85,351.78c-1.62,7.07-2.74,11.43-2.74,11.43C353.1,359.84,354,356,354.85,351.78Z"/><path class="cls-5" d="M192.84,95.35a.11.11,0,0,1-.09,0c-.05,0-.07,0-.12-.06l-.13-.15s0,.15,0,.37a1,1,0,0,1,.2-.08Z"/><path class="cls-5" d="M184.64,118.91h0a.55.55,0,0,1,.18,0l.28.13a1.28,1.28,0,0,1,.53.63c.09.3.05.21.08.14a3.21,3.21,0,0,1,.1-.39,9.69,9.69,0,0,1,.4-1c0-.13.12-.26.18-.39-.3.19-.59.37-.88.53A4.21,4.21,0,0,1,184.64,118.91Z"/><path class="cls-5" d="M191.06,96.38a6.82,6.82,0,0,1,1.44-.92c0-.22,0-.39,0-.37l.13.15c.05,0,.07.06.12.06a.11.11,0,0,0,.09,0l.07,0s0,0,0,0h-.06l-.14,0a1,1,0,0,0-.2.08.22.22,0,0,1,0,.08,6.36,6.36,0,0,1-.15.95,17.65,17.65,0,0,1-.71,2.17c-.57,1.5-1.26,3-2,4.51-1.45,3-3.06,6-4.57,9.11-.74,1.56-1.49,3.11-2.14,4.84a13.43,13.43,0,0,0-.44,1.39,5.69,5.69,0,0,0-.17.86,3,3,0,0,0,.12,1.41,2.1,2.1,0,0,0,.91,1.12,1.75,1.75,0,0,0,.57.23l.5.08a3.32,3.32,0,0,0,1.22-.22,7.05,7.05,0,0,0,1.46-.76,29.6,29.6,0,0,0,4.1-3.49q1.84-1.86,3.55-3.79c2.25-2.61,4.43-5.26,6.41-8.08-2.63,2.22-5.18,4.5-7.79,6.68-1.29,1.1-2.58,2.2-3.91,3.22-1,.79-2.06,1.6-3.09,2.26-.06.13-.13.26-.18.39a9.69,9.69,0,0,0-.4,1,3.21,3.21,0,0,0-.1.39c0,.07,0,.16-.08-.14a1.28,1.28,0,0,0-.53-.63l-.28-.13a.55.55,0,0,0-.18,0h-.07s0,0,.07,0h0a4.21,4.21,0,0,0,.84-.35c.29-.16.58-.34.88-.53.6-1.32,1.34-2.68,2.07-4,1.62-3,3.28-6,4.8-9.1.75-1.57,1.48-3.17,2.1-4.88a22.15,22.15,0,0,0,.79-2.71,10.56,10.56,0,0,0,.21-1.59,5,5,0,0,0-.33-2.06,3.15,3.15,0,0,0-2.18-1.89,2.14,2.14,0,0,0-.68-.11c-.22,0-.44,0-.65,0a7.36,7.36,0,0,0-1,.27,9.37,9.37,0,0,0-2.65,1.74,27.61,27.61,0,0,0-3.61,4,78.14,78.14,0,0,0-5.68,8.7,99.07,99.07,0,0,0-4.65,9.2c4.21-5.41,8.26-10.94,12.71-15.91A34.93,34.93,0,0,1,191.06,96.38Z"/><path class="cls-5" d="M197.2,125.16a25.42,25.42,0,0,0-2.06,7,58.58,58.58,0,0,0,4.75-5.37c1.44-1.83,2.82-3.66,4.17-5.5s2.68-3.65,4.06-5.42a34.54,34.54,0,0,1,4.66-5.11,14,14,0,0,0-1.87.26c-.6.17-1.17.42-1.78.64a16.53,16.53,0,0,0-3.2,2,25.53,25.53,0,0,0-5.09,5.3A34.31,34.31,0,0,0,197.2,125.16Z"/><path class="cls-5" d="M207.37,134.44a7.22,7.22,0,0,1,.25-.84,15.87,15.87,0,0,1,1.79-3.53c.35-.61.81-1.17,1.19-1.78s.85-1.17,1.31-1.75c1.79-2.34,3.73-4.65,5.61-7.16a28.9,28.9,0,0,0-7.89,5,24.26,24.26,0,0,0-3.3,3.48,15.12,15.12,0,0,0-2.5,4.45,8.53,8.53,0,0,0-.36,1.34c-.07.49-.13,1-.17,1.47a5.7,5.7,0,0,0,.89,3.28,3.87,3.87,0,0,0,1.71,1.36,4.31,4.31,0,0,0,1.85.27,7.16,7.16,0,0,0,2.76-.79,13.72,13.72,0,0,0,3.94-3,10.7,10.7,0,0,0,2.46-4.09,18.47,18.47,0,0,1-3.69,2.55,17.83,17.83,0,0,1-3.85,1.63,5,5,0,0,1-1.65.2.9.9,0,0,1-.37-.13s0-.05,0-.09a3,3,0,0,1-.09-1.08C207.29,135,207.34,134.7,207.37,134.44Z"/><path class="cls-5" d="M233.82,136.67a33.21,33.21,0,0,0,3.61-5.79,20.14,20.14,0,0,0,2-6.62c-1.71,1.63-3.19,3.25-4.64,4.91s-2.8,3.33-4.13,5-2.62,3.46-3.89,5.25a44.72,44.72,0,0,0-3.49,5.83,23.84,23.84,0,0,0,5.82-3.71A33.14,33.14,0,0,0,233.82,136.67Z"/><path class="cls-5" d="M274.79,139.42a24.44,24.44,0,0,0,4.77,3.65,22.14,22.14,0,0,0,2.72,1.34,16.89,16.89,0,0,0,3,.88,19.55,19.55,0,0,0-1.81-2.46c-.6-.79-1.27-1.49-1.9-2.21-1.29-1.41-2.6-2.75-3.93-4.05s-2.68-2.59-4.07-3.86-2.83-2.53-4.44-3.87a14,14,0,0,0,2,5.81A23.35,23.35,0,0,0,274.79,139.42Z"/><path class="cls-5" d="M297.7,141.79c0,.09,0,0,0,0s0-.07.08-.09.09,0,.12-.08H298l-.28-.08v.23Z"/><path class="cls-5" d="M292.19,140.1a18.67,18.67,0,0,0,1.38,1.9,12,12,0,0,0,1.77,1.8,6,6,0,0,0,1.26.79,5.63,5.63,0,0,0,.85.29,3.69,3.69,0,0,0,1.06.05l.56-.1a4.51,4.51,0,0,0,.63-.29,2.82,2.82,0,0,0,1-.95,3.36,3.36,0,0,0,.41-1c0-.14.08-.31.11-.45l0-.39a10.6,10.6,0,0,0-.17-2.66c-.14-.79-.3-1.56-.49-2.3-.74-3-1.67-5.75-2.36-8.51a26.93,26.93,0,0,1-.78-4,4.92,4.92,0,0,1,.33-2.9,1.29,1.29,0,0,1,.7-.43.86.86,0,0,1,.76.17,9.6,9.6,0,0,1,2.28,2.83c1.41,2.44,2.66,5.16,4.13,7.78a28.73,28.73,0,0,0,2.53,3.79,14,14,0,0,0,1.6,1.66,6.93,6.93,0,0,0,2,1.14,9.52,9.52,0,0,1-2.64-3.41,35.58,35.58,0,0,1-1.67-4c-1-2.73-1.84-5.57-3.14-8.39a11.13,11.13,0,0,0-3-4.23,4.59,4.59,0,0,0-1.52-.81,4.11,4.11,0,0,0-1.87-.16,5.12,5.12,0,0,0-1.67.54,6.22,6.22,0,0,0-.76.5,8,8,0,0,0-.66.64,5.93,5.93,0,0,0-1.24,3,11.38,11.38,0,0,0-.08,2.65,28.28,28.28,0,0,0,.83,4.69c.76,3,1.76,5.78,2.59,8.52a16.65,16.65,0,0,1,.8,3.76v0l.28.08.07,0h0s0,0-.09,0h-.06s-.08,0-.12.08-.06.11-.08.09,0,.06,0,0v-.23a2.5,2.5,0,0,1-.53-.28,15.36,15.36,0,0,1-2.89-2.75c-.94-1.07-1.82-2.23-2.67-3.41-1.75-2.35-3.38-4.82-5.06-7.29a57.94,57.94,0,0,0,3.39,8.31C290.62,137.48,291.36,138.8,292.19,140.1Z"/><path class="cls-5" d="M314,127.25a22.64,22.64,0,0,0,5.08,6.47,12.87,12.87,0,0,0,7.46,3.34,28.86,28.86,0,0,1-5.17-5.49,52.51,52.51,0,0,1-3.85-6.22c-1.18-2.16-2.27-4.41-3.38-6.69s-2.24-4.6-3.55-7a24.13,24.13,0,0,0,.59,8A30.28,30.28,0,0,0,314,127.25Z"/><path class="cls-5" d="M332.24,122.64c.73,1.26,1.37,2.57,2.1,3.84s1.38,2.57,2,3.88c1.42,2.59,2.65,5.25,4.24,7.93a30.42,30.42,0,0,0-1.32-9.1,41.35,41.35,0,0,0-1.53-4.34,45,45,0,0,0-2-4.13,44.44,44.44,0,0,0-5.19-7.56,31,31,0,0,0-6.84-6.13c1.39,2.76,2.84,5.34,4.27,7.93S330.85,120.08,332.24,122.64Z"/><path d="M289.7,202a7.44,7.44,0,1,0,7.44,7.43A7.45,7.45,0,0,0,289.7,202Z"/><path d="M204.26,213.7a7.43,7.43,0,1,0,7.43-7.43A7.44,7.44,0,0,0,204.26,213.7Z"/></g></svg>