<svg xmlns="http://www.w3.org/2000/svg" viewBox="0 0 81.58 80.02"><defs><style>.cls-1{isolation:isolate;}.cls-2{fill:#ee426b;}.cls-3{fill:#dd2954;}.cls-4{fill:#f7ca1e;}.cls-5{fill:#6862ab;}.cls-6{fill:#a797c8;}.cls-7{fill:#3ebdb2;}.cls-8{fill:#dededd;mix-blend-mode:multiply;}.cls-9{fill:#249694;}</style></defs><g class="cls-1"><g id="Layer_2" data-name="Layer 2"><g id="Layer_1-2" data-name="Layer 1"><rect class="cls-2" x="33.76" y="3.88" width="41.24" height="62.41" transform="translate(9.44 -11.48) rotate(13.19)"/><rect class="cls-3" x="38.98" y="11.78" width="30.81" height="46.62" transform="translate(9.44 -11.48) rotate(13.19)"/><rect class="cls-4" x="6.58" y="13.73" width="41.24" height="62.41" transform="translate(10.97 -5.02) rotate(13.19)"/><path class="cls-5" d="M28.36,37s-1-4.72,2.08-4,.29,4.86.29,4.86S28.3,38,28.36,37Z"/><path class="cls-6" d="M24.4,37.78s-4.78-5.6-.07-6.35,5.53,7.28,5.53,7.28l-1.67-.39s.37-3-1.73-3.1.71,2.94.71,2.94Z"/><path class="cls-5" d="M23.88,37.66s-4.78-5.61-.07-6.35,5.53,7.28,5.53,7.28l-1.67-.39s.37-3-1.74-3.1.72,2.94.72,2.94Z"/><path class="cls-6" d="M34.44,40.09S42,36.8,37.63,33.74s-9.14,4.61-9.14,4.61l1.86.43s1.12-3.22,3.28-2.28-2.16,2.62-2.16,2.62Z"/><path class="cls-5" d="M34.65,40.14s7.1-3.09,3-6-8.57,4.33-8.57,4.33l1.75.4s1-3,3.07-2.14-2,2.46-2,2.46Z"/><path class="cls-7" d="M34.7,65.11,12.52,60a1.12,1.12,0,0,1-.84-1.34l4.57-19.83,24.5,5L36,64.27A1.11,1.11,0,0,1,34.7,65.11Z"/><polygon class="cls-5" points="28.58 41.68 26.15 41.12 21.33 62.03 23.76 62.59 25.89 63.08 30.71 42.17 28.58 41.68"/><rect class="cls-8" x="16.07" y="39.23" width="25" height="3.67" transform="translate(9.95 -5.37) rotate(12.98)"/><rect class="cls-9" x="15.51" y="37.91" width="26.43" height="3.75" rx="1.75" transform="translate(9.67 -5.44) rotate(12.98)"/><polygon class="cls-6" points="28.9 37.86 26.45 37.3 25.6 40.98 28.05 41.55 30.2 42.04 31.05 38.36 28.9 37.86"/></g></g></g></svg>