<svg xmlns="http://www.w3.org/2000/svg" xmlns:xlink="http://www.w3.org/1999/xlink" viewBox="0 0 115.03 161.1"><defs><style>.cls-1{fill:#8d5da3;}.cls-2{clip-path:url(#clip-path);}.cls-3{fill:none;stroke:#fdbd31;stroke-linecap:round;stroke-linejoin:round;stroke-width:3px;}.cls-4{fill:#fdbd31;}</style><clipPath id="clip-path"><path id="SVGID" class="cls-1" d="M114.77,146.13,94.68,91.62A3.87,3.87,0,0,0,88.55,90L73.41,102.79,58.27,115.58a3.87,3.87,0,0,0,.57,6.31l50.38,28.93A3.86,3.86,0,0,0,114.77,146.13Z"/></clipPath></defs><g id="Layer_2" data-name="Layer 2"><g id="Layer_1-2" data-name="Layer 1"><path id="SVGID-2" data-name="SVGID" class="cls-1" d="M114.77,146.13,94.68,91.62A3.87,3.87,0,0,0,88.55,90L73.41,102.79,58.27,115.58a3.87,3.87,0,0,0,.57,6.31l50.38,28.93A3.86,3.86,0,0,0,114.77,146.13Z"/><g class="cls-2"><line class="cls-3" x1="66.01" y1="99.76" x2="66.01" y2="137.96"/><line class="cls-3" x1="75.6" y1="99.76" x2="75.6" y2="137.96"/><line class="cls-3" x1="85.2" y1="90.54" x2="85.2" y2="147.18"/><line class="cls-3" x1="94.8" y1="81.31" x2="94.8" y2="156.4"/><line class="cls-3" x1="104.4" y1="83.38" x2="104.4" y2="154.33"/><line class="cls-3" x1="113.14" y1="99.76" x2="113.14" y2="159.6"/></g><path class="cls-1" d="M60.17,105.05l-32-14a2.78,2.78,0,0,1-1.43-3.64l1.6-3.68a2.77,2.77,0,0,1,4.18-1.13l28.52,21A.84.84,0,0,1,60.17,105.05Z"/><path class="cls-1" d="M65.11,89.89l-24-25.4a2.77,2.77,0,0,1,.11-3.91l2.91-2.76a2.76,2.76,0,0,1,4.28.6l18,30.47A.84.84,0,0,1,65.11,89.89Z"/><path class="cls-1" d="M80,84.11l-14-32a2.77,2.77,0,0,1,1.41-3.65l3.67-1.61a2.77,2.77,0,0,1,3.84,2l6.7,34.77A.84.84,0,0,1,80,84.11Z"/><rect class="cls-4" x="0.87" y="38.5" width="5.79" height="8.45" rx="2.89" transform="translate(-26.89 12.72) rotate(-40.57)"/><rect class="cls-4" x="17.98" y="20.31" width="5.79" height="8.45" rx="2.89" transform="translate(-10.94 19.48) rotate(-40.57)"/><rect class="cls-4" x="42.07" y="-0.32" width="5.79" height="8.45" rx="2.89" transform="translate(8.27 30.18) rotate(-40.57)"/><rect class="cls-4" x="39.79" y="39.89" width="5.79" height="8.45" rx="2.89" transform="translate(-18.43 38.37) rotate(-40.57)"/><rect class="cls-4" x="61.02" y="21.55" width="5.79" height="8.45" rx="2.89" transform="translate(-2.42 44.48) rotate(-37.71)"/><rect class="cls-4" x="88.51" y="57.48" width="5.79" height="8.45" rx="2.89" transform="translate(-18.61 53.97) rotate(-30)"/><rect class="cls-4" x="26.64" y="99.52" width="5.79" height="8.45" rx="2.89" transform="translate(-64.71 51.27) rotate(-45)"/><rect class="cls-4" x="38.38" y="115.99" width="5.79" height="8.45" rx="2.89" transform="translate(-72.92 64.4) rotate(-45)"/></g></g></svg>