<svg xmlns="http://www.w3.org/2000/svg" viewBox="0 0 121.45 129.35"><defs><style>.cls-1{fill:none;stroke:#878787;stroke-linecap:round;stroke-linejoin:round;stroke-width:2px;}.cls-2{fill:#ee426b;}.cls-3{fill:#dd2954;}.cls-4{fill:#f6c300;}.cls-5{fill:#3ebdb2;}.cls-6{fill:#249694;}.cls-7{fill:#8d5da3;}.cls-8{fill:#fdbd31;}</style></defs><g id="Layer_2" data-name="Layer 2"><g id="Layer_1-2" data-name="Layer 1"><path class="cls-1" d="M27,28.24s8.46,17.3,12,29.47,18.78,34.8,18,42.65"/><ellipse class="cls-2" cx="39.05" cy="29.75" rx="7.59" ry="12.13" transform="translate(4.7 64.82) rotate(-82.89)"/><ellipse class="cls-2" cx="17.31" cy="11.29" rx="7.59" ry="12.13" transform="translate(-3.27 9.46) rotate(-28.04)"/><ellipse class="cls-3" cx="33.32" cy="15.54" rx="12.13" ry="7.59" transform="translate(-2.13 25.3) rotate(-40.39)"/><ellipse class="cls-2" cx="20.45" cy="39.65" rx="12.13" ry="7.59" transform="translate(-24.12 41.81) rotate(-65.5)"/><ellipse class="cls-3" cx="11.86" cy="26.97" rx="12.13" ry="7.59" transform="translate(-6.85 4.21) rotate(-15.68)"/><circle class="cls-4" cx="24.11" cy="24.05" r="6.93"/><path class="cls-1" d="M94.68,31.83S84.18,48,79.16,59.62s-22.85,32.26-23,40.15"/><ellipse class="cls-5" cx="82.55" cy="31.86" rx="12.13" ry="7.59" transform="translate(-0.08 0.22) rotate(-0.15)"/><ellipse class="cls-5" cx="106.37" cy="16.17" rx="12.13" ry="7.59" transform="translate(32.12 94.03) rotate(-55)"/><ellipse class="cls-6" cx="89.96" cy="18.45" rx="7.59" ry="12.13" transform="translate(11.29 65.83) rotate(-42.65)"/><ellipse class="cls-5" cx="99.82" cy="43.95" rx="7.59" ry="12.13" transform="translate(-8.6 32.13) rotate(-17.54)"/><ellipse class="cls-6" cx="109.88" cy="32.4" rx="7.59" ry="12.13" transform="translate(37.68 121.34) rotate(-67.36)"/><circle class="cls-7" cx="98.07" cy="28.01" r="6.93"/><path class="cls-1" d="M60.9,36.18s.46,18.3-2.11,30.72-3.46,39.49,1.07,61.45"/><ellipse class="cls-4" cx="70.81" cy="43.16" rx="7.59" ry="12.13" transform="translate(-5.24 76.22) rotate(-54.85)"/><ellipse class="cls-4" cx="60.3" cy="16.65" rx="7.59" ry="12.13"/><ellipse class="cls-8" cx="72.43" cy="27.93" rx="12.13" ry="7.59" transform="translate(-4.3 16.15) rotate(-12.36)"/><ellipse class="cls-4" cx="49.73" cy="43.16" rx="12.13" ry="7.59" transform="translate(-15.99 39.15) rotate(-37.46)"/><ellipse class="cls-8" cx="48.12" cy="27.93" rx="7.59" ry="12.13" transform="translate(10.54 68.95) rotate(-77.64)"/><path class="cls-5" d="M56.4,98.73S53.85,81.26,40.88,76.16c-13.21-5.2-24.8,10-12.29,20.89,12.67,11,25.52,5.78,25.52,5.78l.51-.81a29.15,29.15,0,0,1-24.07-6.48c-10.86-9.43-1.3-21.9,10.16-17.4C52,82.57,55.23,99.24,55.23,99.24Z"/><path class="cls-5" d="M56.19,98.73s2.55-17.47,15.53-22.57C84.92,71,96.51,86.19,84,97.05c-12.68,11-25.53,5.78-25.53,5.78L58,102A29.13,29.13,0,0,0,82,95.54c10.86-9.43,1.3-21.9-10.16-17.4-11.26,4.43-14.52,21.1-14.52,21.1Z"/><path class="cls-5" d="M54.36,96s-3.68,17.79-25,22.26c0,0,17.28,6.68,26.83-15.83Z"/><path class="cls-5" d="M58,96s3.69,17.79,25,22.26c0,0-17.28,6.68-26.82-15.83Z"/><polygon class="cls-5" points="54.7 98.31 57.83 98.31 56.19 102.4 54.7 98.31"/><circle class="cls-2" cx="60.3" cy="31.11" r="6.93"/></g></g></svg>