<svg xmlns="http://www.w3.org/2000/svg" viewBox="0 0 201.13 95.88"><defs><style>.cls-1{fill:#3ebdb2;}.cls-2{fill:#f7ca1e;}.cls-3{fill:#ee426b;}.cls-4{fill:#98d9ee;}.cls-5{fill:#99daef;}</style></defs><g id="Layer_2" data-name="Layer 2"><g id="Layer_1-2" data-name="Layer 1"><path class="cls-1" d="M172.61,72.91a42.22,42.22,0,0,0,2.83-15.16C175.44,25.85,139,0,94.08,0S12.72,25.85,12.72,57.75A42.13,42.13,0,0,0,14.88,71l17.24-7.8s15.11-39.06,62-39.06S162.6,71,162.6,71Z"/><path class="cls-2" d="M167.86,71c0-31.89-33-57.75-73.78-57.75S20.3,39.14,20.3,71L38,69.19S48.94,33.67,92.36,33.67s63.88,34.44,63.88,34.44Z"/><path class="cls-3" d="M162.6,84.83c0-31.89-30.67-57.75-68.52-57.75S25.56,52.94,25.56,84.83l10.85-4.14C43.92,57,66.9,39.76,94.08,39.76c26.38,0,48.8,16.24,57,38.85Z"/><path class="cls-4" d="M65.28,63A10.14,10.14,0,0,0,48,55.71,10.15,10.15,0,0,0,38,52a10.12,10.12,0,0,0-17,6.11A10.14,10.14,0,0,0,3.78,65.38a10.4,10.4,0,0,0,.16,1.77A9.54,9.54,0,1,0,15.29,82.49,11.22,11.22,0,0,0,36.45,86.3a10.13,10.13,0,0,0,18.79-.57A12.45,12.45,0,1,0,65.28,63Z"/><path class="cls-5" d="M201.13,64.25a11.06,11.06,0,0,0-20-6.54,10.5,10.5,0,0,0-19.49-.38A10.47,10.47,0,0,0,149,59.6a10.49,10.49,0,0,0-18.71,6.53,7.37,7.37,0,0,0,0,.82,10.16,10.16,0,0,0-2.54-.33,10,10,0,0,0,0,20c.23,0,.45,0,.67,0A13.43,13.43,0,0,0,154.19,86,11.42,11.42,0,0,0,175,84.21a11.75,11.75,0,1,0,20.95-10.58A11,11,0,0,0,201.13,64.25Z"/></g></g></svg>