<svg id="Layer_1" data-name="Layer 1" xmlns="http://www.w3.org/2000/svg" viewBox="0 0 32 32"><defs><style>.cls-1{fill:#F97316;}</style></defs><title>Music</title><path class="cls-1" d="M23.44,5.06l-11.9,3a2,2,0,0,0-1.85,2v11.6a3.72,3.72,0,0,0-1.84-.49A3.83,3.83,0,1,0,11.69,25s0-.05,0-.08h0V16.79L23.44,14V20.2a3.81,3.81,0,1,0,2,3.34c0-.11,0-.21,0-.31a3,3,0,0,0,0-.31V7.06A2,2,0,0,0,23.44,5.06ZM7.85,26.83A1.83,1.83,0,1,1,9.69,25,1.83,1.83,0,0,1,7.85,26.83ZM21.6,25.37a1.83,1.83,0,1,1,1.84-1.83A1.83,1.83,0,0,1,21.6,25.37ZM23.44,11.9,11.69,14.73V10.06l11.75-3Z"/></svg>